  0
SECTION
  2
HEADER
  9
$LIMMIN
 10
0.000000
 20
0.000000
  9
$LIMMAX
 10
6157.575758
 20
4354.063574
  9
$EXTMIN
 10
0.000000
 20
0.000000
  9
$EXTMAX
 10
6157.575758
 20
4354.063574
  9
$ANGBASE
 50
0.0
  9
$ANGDIR
 70
0
  9
$DIMRND
 40
0.100000
  9
$DIMSE1
 70
0
  9
$DIMSE2
 70
0
  9
$DIMTXT
 40
3.500000
  9
$LTSCALE
 40
1.000000
  9
$LUPREC
 70
1
  9
$AUPREC
 70
1
  9
$PDMODE
 70
2
  9
$PDSIZE
 40
30.787879
  0
ENDSEC
  0
SECTION
  2
TABLES
  0
TABLE
  2
VPORT
  70
1
  0
VPORT
  2
*ACTIVE
 70
0
  10
0.0
 20
0.0
 11
1.0
 21
1.0
 12
594.0
 22
420.0
 13
0.0
 23
0.0
 14
10.0
 24
10.0
 15
10.0
 25
10.0
 16
0.0
 26
0.0
 36
1.0
 17
594.0
 27
420.0
 37
100.0
 40
1000.0
 41
1.0
 42
50.0
 43
0.0
 44
0.0
 50
0.0
 51
0.0
 71
0
 72
2000
 73
1
 74
3
 75
0
 76
0
 77
0
 78
1
  0
ENDTAB
  0
TABLE
  2
LTYPE
 70
4
  0
LTYPE
  2
CONTINUOUS
 70
0
  3
Solid line
 72
65
 73
0
 40
0.0
  0
LTYPE
  2
DASHED
 70
0
  3
Dashed line
 72
65
 73
2
 40
43.935797
 49
21.967899
 49
-21.967899
  0
LTYPE
  2
CENTER
 70
0
  3
Chain line
 72
65
 73
4
 40
175.743190
 49
109.839494
 49
-21.967899
 49
21.967899
 49
-21.967899
  0
LTYPE
  2
RANDOM
 70
0
  3
Random line
 72
65
 73
4
 40
164.759240
 49
43.935797
 49
-21.967899
 49
32.951848
 49
-65.903696
  0
ENDTAB
  0
TABLE
  2
STYLE
 70
9
  0
STYLE
  2
STANDARD
 40
0
 41
1.0
 50
0.0
 71
0
 42
0
  3
simplex
  4

 70
0
  0
ENDTAB
  0
TABLE
  2
LAYER
 70
11
  0
LAYER
  2
0
 70
0
 62
7
  6
CONTINUOUS
  0
LAYER
  2
0
 62
1
  6
CONTINUOUS
 70
0
  0
LAYER
  2
DUMMY
 62
1
  6
CONTINUOUS
 70
0
  0
LAYER
  2
DUMMY-LAYOUT
 62
1
  6
CONTINUOUS
 70
0
  0
LAYER
  2
DUMMY-LAYOUT-SHEET
 62
1
  6
CONTINUOUS
 70
0
  0
LAYER
  2
DUMMY-LAYOUT-MC
 62
1
  6
CONTINUOUS
 70
0
  0
LAYER
  2
DUMMY-LAYOUT-MC-MC4
 62
1
  6
CONTINUOUS
 70
0
  0
LAYER
  2
DUMMY-HCNUPDAR
 62
1
  6
CONTINUOUS
 70
0
  0
LAYER
  2
DUMMY-HCNUPDAR-ORDER
 62
1
  6
CONTINUOUS
 70
0
  0
LAYER
  2
DUMMY-HCNUPDAR-ORDER-MC
 62
1
  6
CONTINUOUS
 70
0
  0
LAYER
  2
DUMMY-HCNUPDAR-ORDER-MC-MC4
 62
1
  6
CONTINUOUS
 70
0
  0
ENDTAB
  0
ENDSEC
  0
SECTION
  2
BLOCKS
  0
BLOCK
  2
MDATUM
  8
0
 70
0
 10
0.0
 20
0.0
 30
0.0
  0
TEXT
  8
0
  6
CONTINUOUS
 62
6
 10
0.000000
 20
0.000000
 40
6.000000
  1
m
 50
0.000000
 41
1.000000
 51
0.000000
  7
STANDARD
  0
ENDBLK
  0
BLOCK
  2
ODATUM
  8
0
 70
0
 10
0.0
 20
0.0
 30
0.0
  0
TEXT
  8
0
  6
CONTINUOUS
 62
6
 10
0.000000
 20
0.000000
 40
6.000000
  1
o
 50
0.000000
 41
1.000000
 51
0.000000
  7
STANDARD
  0
ENDBLK
  0
BLOCK
  2
BASE14-32ITEM01-5
  8
0
 70
0
 10
0.0
 20
0.0
 30
0.0
  0
LINE
  8
0
  6
CONTINUOUS
 62
1
 10
0.000000
 20
446.000000
 11
1149.000000
 21
446.000000
  0
LINE
  8
0
  6
CONTINUOUS
 62
1
 10
1149.000000
 20
446.000000
 11
1149.000000
 21
0.000000
  0
LINE
  8
0
  6
CONTINUOUS
 62
1
 10
1149.000000
 20
0.000000
 11
0.000000
 21
0.000000
  0
LINE
  8
0
  6
CONTINUOUS
 62
1
 10
0.000000
 20
0.000000
 11
0.000000
 21
446.000000
  0
LINE
  8
0
  6
CONTINUOUS
 62
1
 10
333.500000
 20
396.000000
 11
333.500000
 21
50.000000
  0
LINE
  8
0
  6
CONTINUOUS
 62
1
 10
333.500000
 20
50.000000
 11
103.500000
 21
50.000000
  0
LINE
  8
0
  6
CONTINUOUS
 62
1
 10
103.500000
 20
50.000000
 11
103.500000
 21
396.000000
  0
LINE
  8
0
  6
CONTINUOUS
 62
1
 10
103.500000
 20
396.000000
 11
333.500000
 21
396.000000
  0
LINE
  8
0
  6
CONTINUOUS
 62
1
 10
1045.500000
 20
396.000000
 11
1045.500000
 21
50.000000
  0
LINE
  8
0
  6
CONTINUOUS
 62
1
 10
1045.500000
 20
50.000000
 11
815.500000
 21
50.000000
  0
LINE
  8
0
  6
CONTINUOUS
 62
1
 10
815.500000
 20
50.000000
 11
815.500000
 21
396.000000
  0
LINE
  8
0
  6
CONTINUOUS
 62
1
 10
815.500000
 20
396.000000
 11
1045.500000
 21
396.000000
  0
CIRCLE
  8
0
  6
CONTINUOUS
 62
1
 10
574.500000
 20
211.020000
 40
100.000000
  0
LINE
  8
0
  6
CONTINUOUS
 62
1
 10
35.200000
 20
95.000000
 11
35.200000
 21
55.000000
  0
ARC
  8
0
  6
CONTINUOUS
 62
1
 10
40.200000
 20
55.000000
 40
5.000000
 50
180.000000
 51
0.000000
  0
LINE
  8
0
  6
CONTINUOUS
 62
1
 10
45.200000
 20
55.000000
 11
45.200000
 21
95.000000
  0
ARC
  8
0
  6
CONTINUOUS
 62
1
 10
40.200000
 20
95.000000
 40
5.000000
 50
0.000000
 51
180.000000
  0
ARC
  8
0
  6
CONTINUOUS
 62
1
 10
40.200000
 20
391.000000
 40
5.000000
 50
0.000000
 51
180.000000
  0
LINE
  8
0
  6
CONTINUOUS
 62
1
 10
35.200000
 20
391.000000
 11
35.200000
 21
351.000000
  0
ARC
  8
0
  6
CONTINUOUS
 62
1
 10
40.200000
 20
351.000000
 40
5.000000
 50
180.000000
 51
0.000000
  0
LINE
  8
0
  6
CONTINUOUS
 62
1
 10
45.200000
 20
351.000000
 11
45.200000
 21
391.000000
  0
ARC
  8
0
  6
CONTINUOUS
 62
1
 10
1108.800000
 20
95.000000
 40
5.000000
 50
0.000000
 51
180.000000
  0
LINE
  8
0
  6
CONTINUOUS
 62
1
 10
1103.800000
 20
95.000000
 11
1103.800000
 21
55.000000
  0
ARC
  8
0
  6
CONTINUOUS
 62
1
 10
1108.800000
 20
55.000000
 40
5.000000
 50
180.000000
 51
0.000000
  0
LINE
  8
0
  6
CONTINUOUS
 62
1
 10
1113.800000
 20
55.000000
 11
1113.800000
 21
95.000000
  0
ARC
  8
0
  6
CONTINUOUS
 62
1
 10
1108.800000
 20
391.000000
 40
5.000000
 50
0.000000
 51
180.000000
  0
LINE
  8
0
  6
CONTINUOUS
 62
1
 10
1103.800000
 20
391.000000
 11
1103.800000
 21
351.000000
  0
ARC
  8
0
  6
CONTINUOUS
 62
1
 10
1108.800000
 20
351.000000
 40
5.000000
 50
180.000000
 51
0.000000
  0
LINE
  8
0
  6
CONTINUOUS
 62
1
 10
1113.800000
 20
351.000000
 11
1113.800000
 21
391.000000
  0
CIRCLE
  8
0
  6
CONTINUOUS
 62
1
 10
448.990000
 20
96.990000
 40
3.175000
  0
CIRCLE
  8
0
  6
CONTINUOUS
 62
1
 10
448.990000
 20
349.010000
 40
3.175000
  0
CIRCLE
  8
0
  6
CONTINUOUS
 62
1
 10
574.500000
 20
46.000000
 40
3.175000
  0
CIRCLE
  8
0
  6
CONTINUOUS
 62
1
 10
574.500000
 20
55.000000
 40
3.175000
  0
CIRCLE
  8
0
  6
CONTINUOUS
 62
1
 10
574.500000
 20
417.500000
 40
3.175000
  0
CIRCLE
  8
0
  6
CONTINUOUS
 62
1
 10
574.500000
 20
431.200000
 40
3.175000
  0
CIRCLE
  8
0
  6
CONTINUOUS
 62
1
 10
700.010000
 20
96.990000
 40
3.175000
  0
CIRCLE
  8
0
  6
CONTINUOUS
 62
1
 10
700.010000
 20
349.010000
 40
3.175000
  0
ENDBLK
  0
BLOCK
  2
4669349ITEM01-02
  8
0
 70
0
 10
0.0
 20
0.0
 30
0.0
  0
LINE
  8
0
  6
CONTINUOUS
 62
1
 10
7.500000
 20
446.700000
 11
4.000000
 21
446.700000
  0
ARC
  8
0
  6
CONTINUOUS
 62
1
 10
4.000000
 20
442.700000
 40
4.000000
 50
90.000000
 51
180.000000
  0
LINE
  8
0
  6
CONTINUOUS
 62
1
 10
0.000000
 20
442.700000
 11
0.000000
 21
12.000000
  0
LINE
  8
0
  6
CONTINUOUS
 62
1
 10
0.000000
 20
12.000000
 11
12.000000
 21
0.000000
  0
LINE
  8
0
  6
CONTINUOUS
 62
1
 10
12.000000
 20
0.000000
 11
754.000000
 21
0.000000
  0
LINE
  8
0
  6
CONTINUOUS
 62
1
 10
754.000000
 20
0.000000
 11
766.000000
 21
12.000000
  0
LINE
  8
0
  6
CONTINUOUS
 62
1
 10
766.000000
 20
12.000000
 11
766.000000
 21
424.700000
  0
ARC
  8
0
  6
CONTINUOUS
 62
1
 10
762.000000
 20
424.700000
 40
4.000000
 50
0.000000
 51
90.000000
  0
LINE
  8
0
  6
CONTINUOUS
 62
1
 10
762.000000
 20
428.700000
 11
583.700000
 21
428.700000
  0
ARC
  8
0
  6
CONTINUOUS
 62
1
 10
583.700000
 20
432.700000
 40
4.000000
 50
180.000000
 51
270.000000
  0
LINE
  8
0
  6
CONTINUOUS
 62
1
 10
579.700000
 20
432.700000
 11
579.700000
 21
442.700000
  0
ARC
  8
0
  6
CONTINUOUS
 62
1
 10
575.700000
 20
442.700000
 40
4.000000
 50
0.000000
 51
90.000000
  0
LINE
  8
0
  6
CONTINUOUS
 62
1
 10
575.700000
 20
446.700000
 11
568.500000
 21
446.700000
  0
ARC
  8
0
  6
CONTINUOUS
 62
1
 10
568.500000
 20
442.700000
 40
4.000000
 50
90.000000
 51
180.000000
  0
LINE
  8
0
  6
CONTINUOUS
 62
1
 10
564.500000
 20
442.700000
 11
564.500000
 21
440.700000
  0
ARC
  8
0
  6
CONTINUOUS
 62
1
 10
558.000000
 20
440.700000
 40
6.500000
 50
180.000000
 51
0.000000
  0
LINE
  8
0
  6
CONTINUOUS
 62
1
 10
551.500000
 20
440.700000
 11
551.500000
 21
442.700000
  0
ARC
  8
0
  6
CONTINUOUS
 62
1
 10
547.500000
 20
442.700000
 40
4.000000
 50
0.000000
 51
90.000000
  0
LINE
  8
0
  6
CONTINUOUS
 62
1
 10
547.500000
 20
446.700000
 11
388.500000
 21
446.700000
  0
ARC
  8
0
  6
CONTINUOUS
 62
1
 10
388.500000
 20
442.700000
 40
4.000000
 50
90.000000
 51
180.000000
  0
LINE
  8
0
  6
CONTINUOUS
 62
1
 10
384.500000
 20
442.700000
 11
384.500000
 21
440.700000
  0
ARC
  8
0
  6
CONTINUOUS
 62
1
 10
378.000000
 20
440.700000
 40
6.500000
 50
180.000000
 51
0.000000
  0
LINE
  8
0
  6
CONTINUOUS
 62
1
 10
371.500000
 20
440.700000
 11
371.500000
 21
442.700000
  0
ARC
  8
0
  6
CONTINUOUS
 62
1
 10
367.500000
 20
442.700000
 40
4.000000
 50
0.000000
 51
90.000000
  0
LINE
  8
0
  6
CONTINUOUS
 62
1
 10
367.500000
 20
446.700000
 11
208.500000
 21
446.700000
  0
ARC
  8
0
  6
CONTINUOUS
 62
1
 10
208.500000
 20
442.700000
 40
4.000000
 50
90.000000
 51
180.000000
  0
LINE
  8
0
  6
CONTINUOUS
 62
1
 10
204.500000
 20
442.700000
 11
204.500000
 21
440.700000
  0
ARC
  8
0
  6
CONTINUOUS
 62
1
 10
198.000000
 20
440.700000
 40
6.500000
 50
180.000000
 51
0.000000
  0
LINE
  8
0
  6
CONTINUOUS
 62
1
 10
191.500000
 20
440.700000
 11
191.500000
 21
442.700000
  0
ARC
  8
0
  6
CONTINUOUS
 62
1
 10
187.500000
 20
442.700000
 40
4.000000
 50
0.000000
 51
90.000000
  0
LINE
  8
0
  6
CONTINUOUS
 62
1
 10
187.500000
 20
446.700000
 11
106.000000
 21
446.700000
  0
ARC
  8
0
  6
CONTINUOUS
 62
1
 10
106.000000
 20
442.700000
 40
4.000000
 50
90.000000
 51
180.000000
  0
LINE
  8
0
  6
CONTINUOUS
 62
1
 10
102.000000
 20
442.700000
 11
102.000000
 21
440.700000
  0
ARC
  8
0
  6
CONTINUOUS
 62
1
 10
93.000000
 20
440.700000
 40
9.000000
 50
270.000000
 51
0.000000
  0
LINE
  8
0
  6
CONTINUOUS
 62
1
 10
93.000000
 20
431.700000
 11
68.000000
 21
431.700000
  0
ARC
  8
0
  6
CONTINUOUS
 62
1
 10
68.000000
 20
440.700000
 40
9.000000
 50
180.000000
 51
270.000000
  0
LINE
  8
0
  6
CONTINUOUS
 62
1
 10
59.000000
 20
440.700000
 11
59.000000
 21
442.700000
  0
ARC
  8
0
  6
CONTINUOUS
 62
1
 10
55.000000
 20
442.700000
 40
4.000000
 50
0.000000
 51
90.000000
  0
LINE
  8
0
  6
CONTINUOUS
 62
1
 10
55.000000
 20
446.700000
 11
28.500000
 21
446.700000
  0
ARC
  8
0
  6
CONTINUOUS
 62
1
 10
28.500000
 20
442.700000
 40
4.000000
 50
90.000000
 51
180.000000
  0
LINE
  8
0
  6
CONTINUOUS
 62
1
 10
24.500000
 20
442.700000
 11
24.500000
 21
440.700000
  0
ARC
  8
0
  6
CONTINUOUS
 62
1
 10
18.000000
 20
440.700000
 40
6.500000
 50
180.000000
 51
0.000000
  0
LINE
  8
0
  6
CONTINUOUS
 62
1
 10
11.500000
 20
440.700000
 11
11.500000
 21
442.700000
  0
ARC
  8
0
  6
CONTINUOUS
 62
1
 10
7.500000
 20
442.700000
 40
4.000000
 50
0.000000
 51
90.000000
  0
CIRCLE
  8
0
  6
CONTINUOUS
 62
1
 10
671.000000
 20
206.600000
 40
6.900000
  0
CIRCLE
  8
0
  6
CONTINUOUS
 62
1
 10
38.000000
 20
83.000000
 40
6.500000
  0
CIRCLE
  8
0
  6
CONTINUOUS
 62
1
 10
383.000000
 20
42.000000
 40
6.500000
  0
CIRCLE
  8
0
  6
CONTINUOUS
 62
1
 10
728.000000
 20
83.000000
 40
6.500000
  0
CIRCLE
  8
0
  6
CONTINUOUS
 62
1
 10
55.200000
 20
172.700000
 40
5.250000
  0
CIRCLE
  8
0
  6
CONTINUOUS
 62
1
 10
126.500000
 20
260.400000
 40
5.250000
  0
CIRCLE
  8
0
  6
CONTINUOUS
 62
1
 10
181.200000
 20
359.900000
 40
5.250000
  0
CIRCLE
  8
0
  6
CONTINUOUS
 62
1
 10
200.900000
 20
119.600000
 40
5.250000
  0
CIRCLE
  8
0
  6
CONTINUOUS
 62
1
 10
405.000000
 20
184.900000
 40
5.250000
  0
CIRCLE
  8
0
  6
CONTINUOUS
 62
1
 10
405.300000
 20
286.900000
 40
5.250000
  0
CIRCLE
  8
0
  6
CONTINUOUS
 62
1
 10
541.500000
 20
45.000000
 40
5.250000
  0
CIRCLE
  8
0
  6
CONTINUOUS
 62
1
 10
541.500000
 20
195.000000
 40
5.250000
  0
CIRCLE
  8
0
  6
CONTINUOUS
 62
8
 10
55.200000
 20
172.700000
 40
10.000000
  0
CIRCLE
  8
0
  6
CONTINUOUS
 62
8
 10
126.500000
 20
260.400000
 40
10.000000
  0
CIRCLE
  8
0
  6
CONTINUOUS
 62
8
 10
181.200000
 20
359.900000
 40
10.000000
  0
CIRCLE
  8
0
  6
CONTINUOUS
 62
8
 10
200.900000
 20
119.600000
 40
10.000000
  0
CIRCLE
  8
0
  6
CONTINUOUS
 62
8
 10
405.000000
 20
184.900000
 40
10.000000
  0
CIRCLE
  8
0
  6
CONTINUOUS
 62
8
 10
405.300000
 20
286.900000
 40
10.000000
  0
LINE
  8
0
  6
CONTINUOUS
 62
8
 10
452.713200
 20
416.500000
 11
431.500000
 21
437.713200
  0
LINE
  8
0
  6
CONTINUOUS
 62
8
 10
431.500000
 20
437.713200
 11
410.286800
 21
416.500000
  0
CIRCLE
  8
0
  6
CONTINUOUS
 62
8
 10
431.500000
 20
416.500000
 40
4.000000
  0
CIRCLE
  8
0
  6
CONTINUOUS
 62
8
 10
453.500000
 20
395.300000
 40
4.000000
  0
CIRCLE
  8
0
  6
CONTINUOUS
 62
8
 10
541.500000
 20
45.000000
 40
10.000000
  0
CIRCLE
  8
0
  6
CONTINUOUS
 62
8
 10
541.500000
 20
195.000000
 40
10.000000
  0
LINE
  8
0
  6
CONTINUOUS
 62
8
 10
47.689504
 20
16.882888
 11
47.689504
 21
26.882888
  0
LINE
  8
0
  6
CONTINUOUS
 62
8
 10
47.689504
 20
26.882888
 11
42.927599
 21
20.216221
  0
LINE
  8
0
  6
CONTINUOUS
 62
8
 10
42.927599
 20
20.216221
 11
50.070456
 21
20.216221
  0
ARC
  8
0
  6
CONTINUOUS
 62
8
 10
63.795750
 20
21.882888
 40
11.642744
 50
167.000000
 51
193.000000
  0
ARC
  8
0
  6
CONTINUOUS
 62
8
 10
55.376613
 20
19.869325
 40
2.987212
 50
191.694429
 51
268.694431
  0
LINE
  8
0
  6
CONTINUOUS
 62
8
 10
55.308551
 20
16.882888
 11
55.784742
 21
16.882888
  0
ARC
  8
0
  6
CONTINUOUS
 62
8
 10
55.546647
 20
19.978126
 40
3.104382
 50
274.398705
 51
4.398704
  0
ARC
  8
0
  6
CONTINUOUS
 62
8
 10
55.308551
 20
20.216221
 40
3.333333
 50
0.000000
 51
89.999999
  0
ARC
  8
0
  6
CONTINUOUS
 62
8
 10
55.395096
 20
20.508456
 40
3.042330
 50
91.630102
 51
194.630102
  0
ARC
  8
0
  6
CONTINUOUS
 62
8
 10
55.376614
 20
23.896452
 40
2.987212
 50
91.305571
 51
168.305574
  0
ARC
  8
0
  6
CONTINUOUS
 62
8
 10
55.448517
 20
23.591391
 40
3.294471
 50
34.434949
 51
92.434948
  0
ARC
  8
0
  6
CONTINUOUS
 62
8
 10
72.367178
 20
21.882888
 40
11.642744
 50
167.000000
 51
193.000000
  0
ARC
  8
0
  6
CONTINUOUS
 62
8
 10
63.948042
 20
19.869325
 40
2.987212
 50
191.694429
 51
268.694431
  0
LINE
  8
0
  6
CONTINUOUS
 62
8
 10
63.879980
 20
16.882888
 11
64.356170
 21
16.882888
  0
ARC
  8
0
  6
CONTINUOUS
 62
8
 10
64.118075
 20
19.978126
 40
3.104382
 50
274.398705
 51
4.398704
  0
ARC
  8
0
  6
CONTINUOUS
 62
8
 10
63.879980
 20
20.216221
 40
3.333333
 50
0.000000
 51
89.999999
  0
ARC
  8
0
  6
CONTINUOUS
 62
8
 10
63.966524
 20
20.508456
 40
3.042330
 50
91.630102
 51
194.630102
  0
ARC
  8
0
  6
CONTINUOUS
 62
8
 10
63.948042
 20
23.896452
 40
2.987212
 50
91.305571
 51
168.305574
  0
ARC
  8
0
  6
CONTINUOUS
 62
8
 10
64.019946
 20
23.591391
 40
3.294471
 50
34.434949
 51
92.434948
  0
LINE
  8
0
  6
CONTINUOUS
 62
8
 10
69.594266
 20
21.168602
 11
78.165694
 21
21.168602
  0
ARC
  8
0
  6
CONTINUOUS
 62
8
 10
83.641885
 20
23.787650
 40
3.104382
 50
94.398706
 51
184.398705
  0
ARC
  8
0
  6
CONTINUOUS
 62
8
 10
83.195333
 20
23.341099
 40
2.656877
 50
175.500001
 51
274.500000
  0
ARC
  8
0
  6
CONTINUOUS
 62
8
 10
83.317245
 20
23.733511
 40
3.042330
 50
271.630103
 51
14.630102
  0
ARC
  8
0
  6
CONTINUOUS
 62
8
 10
74.916591
 20
21.882888
 40
11.642744
 50
347.000000
 51
13.000000
  0
ARC
  8
0
  6
CONTINUOUS
 62
8
 10
83.335727
 20
19.869325
 40
2.987212
 50
271.305569
 51
348.305571
  0
ARC
  8
0
  6
CONTINUOUS
 62
8
 10
83.263823
 20
20.174385
 40
3.294471
 50
214.434950
 51
272.434949
  0
ARC
  8
0
  6
CONTINUOUS
 62
8
 10
83.335727
 20
23.896452
 40
2.987212
 50
11.694426
 51
88.694429
  0
ARC
  8
0
  6
CONTINUOUS
 62
8
 10
93.459148
 20
21.993605
 40
1.081177
 50
33.934948
 51
92.934949
  0
ARC
  8
0
  6
CONTINUOUS
 62
8
 10
88.742888
 20
20.236422
 40
6.089506
 50
359.809932
 51
22.809932
  0
ARC
  8
0
  6
CONTINUOUS
 62
8
 10
91.737123
 20
19.978126
 40
3.104382
 50
274.398706
 51
4.398705
  0
ARC
  8
0
  6
CONTINUOUS
 62
8
 10
92.043280
 20
19.869324
 40
2.987212
 50
191.694426
 51
268.694429
  0
LINE
  8
0
  6
CONTINUOUS
 62
8
 10
88.641885
 20
26.882888
 11
93.879980
 21
26.882888
  0
LINE
  8
0
  6
CONTINUOUS
 62
8
 10
93.879980
 20
26.882888
 11
91.022837
 21
23.073364
  0
LINE
  8
0
  6
CONTINUOUS
 62
8
 10
91.022837
 20
23.073364
 11
93.403789
 21
23.073364
  0
LINE
  8
0
  6
CONTINUOUS
 62
8
 10
101.975218
 20
16.882888
 11
101.975218
 21
26.882888
  0
LINE
  8
0
  6
CONTINUOUS
 62
8
 10
101.975218
 20
26.882888
 11
97.213313
 21
20.216221
  0
LINE
  8
0
  6
CONTINUOUS
 62
8
 10
97.213313
 20
20.216221
 11
104.356170
 21
20.216221
  0
ARC
  8
0
  6
CONTINUOUS
 62
8
 10
109.832361
 20
23.787650
 40
3.104382
 50
94.398706
 51
184.398705
  0
ARC
  8
0
  6
CONTINUOUS
 62
8
 10
109.385809
 20
23.341099
 40
2.656877
 50
175.500001
 51
274.500000
  0
ARC
  8
0
  6
CONTINUOUS
 62
8
 10
109.507721
 20
23.733511
 40
3.042330
 50
271.630103
 51
14.630102
  0
ARC
  8
0
  6
CONTINUOUS
 62
8
 10
109.454300
 20
20.174385
 40
3.294471
 50
214.434950
 51
272.434949
  0
ARC
  8
0
  6
CONTINUOUS
 62
8
 10
109.526203
 20
19.869325
 40
2.987212
 50
271.305569
 51
348.305571
  0
ARC
  8
0
  6
CONTINUOUS
 62
8
 10
101.107067
 20
21.882888
 40
11.642744
 50
347.000000
 51
13.000000
  0
ARC
  8
0
  6
CONTINUOUS
 62
8
 10
109.526203
 20
23.896452
 40
2.987212
 50
11.694426
 51
88.694429
  0
ENDBLK
  0
BLOCK
  2
5651336-00
  8
0
 70
0
 10
0.0
 20
0.0
 30
0.0
  0
LINE
  8
0
  6
CONTINUOUS
 62
1
 10
5.000000
 20
205.399955
 11
0.000000
 21
200.399955
  0
LINE
  8
0
  6
CONTINUOUS
 62
1
 10
0.000000
 20
200.399955
 11
0.000000
 21
7.000000
  0
LINE
  8
0
  6
CONTINUOUS
 62
1
 10
0.000000
 20
7.000000
 11
5.000000
 21
2.000000
  0
LINE
  8
0
  6
CONTINUOUS
 62
1
 10
5.000000
 20
2.000000
 11
24.000000
 21
2.000000
  0
ARC
  8
0
  6
CONTINUOUS
 62
1
 10
24.000000
 20
1.000000
 40
1.000000
 50
0.000000
 51
90.000000
  0
ARC
  8
0
  6
CONTINUOUS
 62
1
 10
26.000000
 20
1.000000
 40
1.000000
 50
180.000000
 51
270.000000
  0
LINE
  8
0
  6
CONTINUOUS
 62
1
 10
26.000000
 20
0.000000
 11
49.000000
 21
0.000000
  0
ARC
  8
0
  6
CONTINUOUS
 62
1
 10
49.000000
 20
1.000000
 40
1.000000
 50
270.000000
 51
0.000000
  0
ARC
  8
0
  6
CONTINUOUS
 62
1
 10
51.000000
 20
1.000000
 40
1.000000
 50
90.000000
 51
180.000000
  0
LINE
  8
0
  6
CONTINUOUS
 62
1
 10
51.000000
 20
2.000000
 11
325.000000
 21
2.000000
  0
ARC
  8
0
  6
CONTINUOUS
 62
1
 10
325.000000
 20
7.000000
 40
5.000000
 50
270.000000
 51
0.000000
  0
LINE
  8
0
  6
CONTINUOUS
 62
1
 10
330.000000
 20
7.000000
 11
330.000000
 21
8.000000
  0
ARC
  8
0
  6
CONTINUOUS
 62
1
 10
335.000000
 20
8.000000
 40
5.000000
 50
90.000000
 51
180.000000
  0
LINE
  8
0
  6
CONTINUOUS
 62
1
 10
335.000000
 20
13.000000
 11
355.000000
 21
13.000000
  0
ARC
  8
0
  6
CONTINUOUS
 62
1
 10
355.000000
 20
8.000000
 40
5.000000
 50
0.000000
 51
90.000000
  0
LINE
  8
0
  6
CONTINUOUS
 62
1
 10
360.000000
 20
8.000000
 11
360.000000
 21
7.000000
  0
ARC
  8
0
  6
CONTINUOUS
 62
1
 10
365.000000
 20
7.000000
 40
5.000000
 50
180.000000
 51
270.000000
  0
LINE
  8
0
  6
CONTINUOUS
 62
1
 10
365.000000
 20
2.000000
 11
465.000000
 21
2.000000
  0
ARC
  8
0
  6
CONTINUOUS
 62
1
 10
465.000000
 20
7.000000
 40
5.000000
 50
270.000000
 51
0.000000
  0
LINE
  8
0
  6
CONTINUOUS
 62
1
 10
470.000000
 20
7.000000
 11
470.000000
 21
8.000000
  0
ARC
  8
0
  6
CONTINUOUS
 62
1
 10
475.000000
 20
8.000000
 40
5.000000
 50
90.000000
 51
180.000000
  0
LINE
  8
0
  6
CONTINUOUS
 62
1
 10
475.000000
 20
13.000000
 11
495.000000
 21
13.000000
  0
ARC
  8
0
  6
CONTINUOUS
 62
1
 10
495.000000
 20
8.000000
 40
5.000000
 50
0.000000
 51
90.000000
  0
LINE
  8
0
  6
CONTINUOUS
 62
1
 10
500.000000
 20
8.000000
 11
500.000000
 21
7.000000
  0
ARC
  8
0
  6
CONTINUOUS
 62
1
 10
505.000000
 20
7.000000
 40
5.000000
 50
180.000000
 51
270.000000
  0
LINE
  8
0
  6
CONTINUOUS
 62
1
 10
505.000000
 20
2.000000
 11
573.000000
 21
2.000000
  0
ARC
  8
0
  6
CONTINUOUS
 62
1
 10
573.000000
 20
1.000000
 40
1.000000
 50
0.000000
 51
90.000000
  0
ARC
  8
0
  6
CONTINUOUS
 62
1
 10
575.000000
 20
1.000000
 40
1.000000
 50
180.000000
 51
270.000000
  0
LINE
  8
0
  6
CONTINUOUS
 62
1
 10
575.000000
 20
0.000000
 11
598.000000
 21
0.000000
  0
ARC
  8
0
  6
CONTINUOUS
 62
1
 10
598.000000
 20
1.000000
 40
1.000000
 50
270.000000
 51
0.000000
  0
ARC
  8
0
  6
CONTINUOUS
 62
1
 10
600.000000
 20
1.000000
 40
1.000000
 50
90.000000
 51
180.000000
  0
LINE
  8
0
  6
CONTINUOUS
 62
1
 10
600.000000
 20
2.000000
 11
624.000000
 21
2.000000
  0
LINE
  8
0
  6
CONTINUOUS
 62
1
 10
624.000000
 20
2.000000
 11
624.000000
 21
33.649977
  0
ARC
  8
0
  6
CONTINUOUS
 62
1
 10
619.000000
 20
33.649977
 40
5.000000
 50
0.000000
 51
90.000000
  0
LINE
  8
0
  6
CONTINUOUS
 62
1
 10
619.000000
 20
38.649977
 11
457.000000
 21
38.649977
  0
ARC
  8
0
  6
CONTINUOUS
 62
1
 10
457.000000
 20
43.649977
 40
5.000000
 50
180.000000
 51
270.000000
  0
LINE
  8
0
  6
CONTINUOUS
 62
1
 10
452.000000
 20
43.649977
 11
452.000000
 21
168.449977
  0
ARC
  8
0
  6
CONTINUOUS
 62
1
 10
457.000000
 20
168.449977
 40
5.000000
 50
90.000000
 51
180.000000
  0
LINE
  8
0
  6
CONTINUOUS
 62
1
 10
457.000000
 20
173.449977
 11
619.000000
 21
173.449977
  0
ARC
  8
0
  6
CONTINUOUS
 62
1
 10
619.000000
 20
178.449977
 40
5.000000
 50
270.000000
 51
0.000000
  0
LINE
  8
0
  6
CONTINUOUS
 62
1
 10
624.000000
 20
178.449977
 11
624.000000
 21
205.399955
  0
LINE
  8
0
  6
CONTINUOUS
 62
1
 10
624.000000
 20
205.399955
 11
505.000000
 21
205.399955
  0
ARC
  8
0
  6
CONTINUOUS
 62
1
 10
505.000000
 20
200.399955
 40
5.000000
 50
90.000000
 51
180.000000
  0
LINE
  8
0
  6
CONTINUOUS
 62
1
 10
500.000000
 20
200.399955
 11
500.000000
 21
199.399955
  0
ARC
  8
0
  6
CONTINUOUS
 62
1
 10
495.000000
 20
199.399955
 40
5.000000
 50
270.000000
 51
0.000000
  0
LINE
  8
0
  6
CONTINUOUS
 62
1
 10
495.000000
 20
194.399955
 11
475.000000
 21
194.399955
  0
ARC
  8
0
  6
CONTINUOUS
 62
1
 10
475.000000
 20
199.399955
 40
5.000000
 50
180.000000
 51
270.000000
  0
LINE
  8
0
  6
CONTINUOUS
 62
1
 10
470.000000
 20
199.399955
 11
470.000000
 21
200.399955
  0
ARC
  8
0
  6
CONTINUOUS
 62
1
 10
465.000000
 20
200.399955
 40
5.000000
 50
0.000000
 51
90.000000
  0
LINE
  8
0
  6
CONTINUOUS
 62
1
 10
465.000000
 20
205.399955
 11
365.000000
 21
205.399955
  0
ARC
  8
0
  6
CONTINUOUS
 62
1
 10
365.000000
 20
200.399955
 40
5.000000
 50
90.000000
 51
180.000000
  0
LINE
  8
0
  6
CONTINUOUS
 62
1
 10
360.000000
 20
200.399955
 11
360.000000
 21
199.399955
  0
ARC
  8
0
  6
CONTINUOUS
 62
1
 10
355.000000
 20
199.399955
 40
5.000000
 50
270.000000
 51
0.000000
  0
LINE
  8
0
  6
CONTINUOUS
 62
1
 10
355.000000
 20
194.399955
 11
335.000000
 21
194.399955
  0
ARC
  8
0
  6
CONTINUOUS
 62
1
 10
335.000000
 20
199.399955
 40
5.000000
 50
180.000000
 51
270.000000
  0
LINE
  8
0
  6
CONTINUOUS
 62
1
 10
330.000000
 20
199.399955
 11
330.000000
 21
200.399955
  0
ARC
  8
0
  6
CONTINUOUS
 62
1
 10
325.000000
 20
200.399955
 40
5.000000
 50
0.000000
 51
90.000000
  0
LINE
  8
0
  6
CONTINUOUS
 62
1
 10
325.000000
 20
205.399955
 11
5.000000
 21
205.399955
  0
LINE
  8
0
  6
CONTINUOUS
 62
1
 10
217.500000
 20
43.649977
 11
217.500000
 21
168.449977
  0
ARC
  8
0
  6
CONTINUOUS
 62
1
 10
212.500000
 20
168.449977
 40
5.000000
 50
0.000000
 51
90.000000
  0
LINE
  8
0
  6
CONTINUOUS
 62
1
 10
212.500000
 20
173.449977
 11
92.300000
 21
173.449977
  0
ARC
  8
0
  6
CONTINUOUS
 62
1
 10
92.300000
 20
168.449977
 40
5.000000
 50
90.000000
 51
180.000000
  0
LINE
  8
0
  6
CONTINUOUS
 62
1
 10
87.300000
 20
168.449977
 11
87.300000
 21
43.649977
  0
ARC
  8
0
  6
CONTINUOUS
 62
1
 10
92.300000
 20
43.649977
 40
5.000000
 50
180.000000
 51
270.000000
  0
LINE
  8
0
  6
CONTINUOUS
 62
1
 10
92.300000
 20
38.649977
 11
212.500000
 21
38.649977
  0
ARC
  8
0
  6
CONTINUOUS
 62
1
 10
212.500000
 20
43.649977
 40
5.000000
 50
270.000000
 51
0.000000
  0
LINE
  8
0
  6
CONTINUOUS
 62
1
 10
422.000000
 20
43.649977
 11
422.000000
 21
168.449977
  0
ARC
  8
0
  6
CONTINUOUS
 62
1
 10
417.000000
 20
168.449977
 40
5.000000
 50
0.000000
 51
90.000000
  0
LINE
  8
0
  6
CONTINUOUS
 62
1
 10
417.000000
 20
173.449977
 11
296.800000
 21
173.449977
  0
ARC
  8
0
  6
CONTINUOUS
 62
1
 10
296.800000
 20
168.449977
 40
5.000000
 50
90.000000
 51
180.000000
  0
LINE
  8
0
  6
CONTINUOUS
 62
1
 10
291.800000
 20
168.449977
 11
291.800000
 21
43.649977
  0
ARC
  8
0
  6
CONTINUOUS
 62
1
 10
296.800000
 20
43.649977
 40
5.000000
 50
180.000000
 51
270.000000
  0
LINE
  8
0
  6
CONTINUOUS
 62
1
 10
296.800000
 20
38.649977
 11
417.000000
 21
38.649977
  0
ARC
  8
0
  6
CONTINUOUS
 62
1
 10
417.000000
 20
43.649977
 40
5.000000
 50
270.000000
 51
0.000000
  0
CIRCLE
  8
0
  6
CONTINUOUS
 62
1
 10
67.500000
 20
33.749977
 40
4.750000
  0
CIRCLE
  8
0
  6
CONTINUOUS
 62
1
 10
67.500000
 20
173.749977
 40
4.750000
  0
CIRCLE
  8
0
  6
CONTINUOUS
 62
1
 10
232.500000
 20
33.749977
 40
4.750000
  0
CIRCLE
  8
0
  6
CONTINUOUS
 62
1
 10
232.500000
 20
173.749977
 40
4.750000
  0
CIRCLE
  8
0
  6
CONTINUOUS
 62
1
 10
272.000000
 20
33.749977
 40
4.750000
  0
CIRCLE
  8
0
  6
CONTINUOUS
 62
1
 10
272.000000
 20
173.749977
 40
4.750000
  0
CIRCLE
  8
0
  6
CONTINUOUS
 62
1
 10
437.000000
 20
33.749977
 40
4.750000
  0
CIRCLE
  8
0
  6
CONTINUOUS
 62
1
 10
437.000000
 20
173.749977
 40
4.750000
  0
LINE
  8
0
  6
DASHED
 62
3
 10
624.000000
 20
19.200000
 11
0.000000
 21
19.200000
  0
LINE
  8
0
  6
DASHED
 62
3
 10
0.000000
 20
188.199955
 11
624.000000
 21
188.199955
  0
ENDBLK
  0
BLOCK
  2
433-6158-01
  8
0
 70
0
 10
0.0
 20
0.0
 30
0.0
  0
LINE
  8
0
  6
CONTINUOUS
 62
1
 10
1430.380622
 20
48.018217
 11
1427.241217
 21
8.018217
  0
LINE
  8
0
  6
CONTINUOUS
 62
1
 10
1427.241217
 20
8.018217
 11
1403.969872
 21
8.018217
  0
LINE
  8
0
  6
CONTINUOUS
 62
1
 10
1403.969872
 20
8.018217
 11
1404.715399
 21
17.517182
  0
LINE
  8
0
  6
CONTINUOUS
 62
1
 10
1404.715399
 20
17.517182
 11
1244.309918
 21
17.503424
  0
LINE
  8
0
  6
CONTINUOUS
 62
1
 10
1244.309918
 20
17.503424
 11
1244.309695
 21
20.103424
  0
ARC
  8
0
  6
CONTINUOUS
 62
1
 10
1242.809695
 20
20.103295
 40
1.500000
 50
0.004927
 51
180.004915
  0
LINE
  8
0
  6
CONTINUOUS
 62
1
 10
1241.309695
 20
20.103166
 11
1241.311444
 21
0.000000
  0
LINE
  8
0
  6
CONTINUOUS
 62
1
 10
1241.311444
 20
0.000000
 11
38.551439
 21
0.000000
  0
LINE
  8
0
  6
CONTINUOUS
 62
1
 10
38.551439
 20
0.000000
 11
38.549700
 21
20.000000
  0
ARC
  8
0
  6
CONTINUOUS
 62
1
 10
37.049700
 20
19.999871
 40
1.500000
 50
0.004927
 51
180.004915
  0
LINE
  8
0
  6
CONTINUOUS
 62
1
 10
35.549700
 20
19.999742
 11
35.550154
 21
14.699743
  0
LINE
  8
0
  6
CONTINUOUS
 62
1
 10
35.550154
 20
14.699743
 11
0.000000
 21
16.496693
  0
LINE
  8
0
  6
CONTINUOUS
 62
1
 10
0.000000
 20
16.496693
 11
1.796912
 21
52.496848
  0
LINE
  8
0
  6
CONTINUOUS
 62
1
 10
1.796912
 20
52.496848
 11
36.997049
 21
50.899867
  0
LINE
  8
0
  6
CONTINUOUS
 62
1
 10
36.997049
 20
50.899867
 11
1249.597045
 21
51.003877
  0
LINE
  8
0
  6
CONTINUOUS
 62
1
 10
1249.597045
 20
51.003877
 11
1406.428823
 21
39.348373
  0
LINE
  8
0
  6
CONTINUOUS
 62
1
 10
1406.428823
 20
39.348373
 11
1407.109277
 21
48.018217
  0
LINE
  8
0
  6
CONTINUOUS
 62
1
 10
1407.109277
 20
48.018217
 11
1430.380622
 21
48.018217
  0
LINE
  8
0
  6
DASHED
 62
3
 10
24.668511
 20
15.249776
 11
26.471785
 21
51.377383
  0
LINE
  8
0
  6
DASHED
 62
3
 10
31.859332
 20
14.886302
 11
33.664460
 21
51.051062
  0
LINE
  8
0
  6
DASHED
 62
3
 10
1241.310038
 20
16.103166
 11
38.550043
 21
16.000000
  0
LINE
  8
0
  6
DASHED
 62
3
 10
1251.554606
 20
50.858394
 11
1248.936768
 21
17.503821
  0
LINE
  8
0
  6
DASHED
 62
3
 10
1258.734865
 20
50.324768
 11
1256.158958
 21
17.504440
  0
LINE
  8
0
  6
CONTINUOUS
 62
11
 10
1410.890543
 20
44.861285
 11
1407.860269
 21
42.250263
  0
LINE
  8
0
  6
CONTINUOUS
 62
11
 10
1407.860269
 20
42.250263
 11
1407.625533
 21
39.259435
  0
LINE
  8
0
  6
CONTINUOUS
 62
11
 10
1407.625533
 20
39.259435
 11
1417.598116
 21
38.518288
  0
LINE
  8
0
  6
CONTINUOUS
 62
11
 10
1417.598116
 20
38.518288
 11
1415.949918
 21
17.518146
  0
LINE
  8
0
  6
CONTINUOUS
 62
11
 10
1415.949918
 20
17.518146
 11
1405.919098
 21
17.517286
  0
LINE
  8
0
  6
CONTINUOUS
 62
11
 10
1405.919098
 20
17.517286
 11
1405.674178
 21
14.396693
  0
LINE
  8
0
  6
CONTINUOUS
 62
11
 10
1405.674178
 20
14.396693
 11
1408.502605
 21
11.568266
  0
ENDBLK
  0
BLOCK
  2
6173573ITEM01-00
  8
0
 70
0
 10
0.0
 20
0.0
 30
0.0
  0
ARC
  8
0
  6
CONTINUOUS
 62
1
 10
119.349864
 20
79.358947
 40
1.440879
 50
177.579211
 51
267.172429
  0
ARC
  8
0
  6
CONTINUOUS
 62
1
 10
119.410271
 20
79.419823
 40
1.500000
 50
90.000000
 51
180.000590
  0
LINE
  8
0
  6
CONTINUOUS
 62
1
 10
119.410271
 20
80.919823
 11
120.910271
 21
80.919823
  0
LINE
  8
0
  6
CONTINUOUS
 62
1
 10
120.910271
 20
80.919823
 11
120.910271
 21
92.679643
  0
LINE
  8
0
  6
CONTINUOUS
 62
1
 10
120.910271
 20
92.679643
 11
119.410271
 21
92.679643
  0
ARC
  8
0
  6
CONTINUOUS
 62
1
 10
119.410271
 20
94.179643
 40
1.500000
 50
180.000000
 51
270.000000
  0
ARC
  8
0
  6
CONTINUOUS
 62
1
 10
119.349919
 20
94.240467
 40
1.440932
 50
92.829637
 51
182.419289
  0
LINE
  8
0
  6
CONTINUOUS
 62
1
 10
119.278785
 20
95.679643
 11
148.130625
 21
95.679643
  0
ARC
  8
0
  6
CONTINUOUS
 62
1
 10
148.130625
 20
98.679643
 40
3.000000
 50
270.000000
 51
0.000000
  0
LINE
  8
0
  6
CONTINUOUS
 62
1
 10
151.130626
 20
98.679643
 11
151.130626
 21
117.679644
  0
ARC
  8
0
  6
CONTINUOUS
 62
1
 10
148.130625
 20
117.679644
 40
3.000000
 50
0.000000
 51
90.000000
  0
LINE
  8
0
  6
CONTINUOUS
 62
1
 10
148.130625
 20
120.679644
 11
80.189915
 21
120.679644
  0
ARC
  8
0
  6
CONTINUOUS
 62
1
 10
80.189915
 20
117.679644
 40
3.000000
 50
90.000000
 51
180.000000
  0
LINE
  8
0
  6
CONTINUOUS
 62
1
 10
77.189915
 20
117.679644
 11
77.189915
 21
108.679643
  0
ARC
  8
0
  6
CONTINUOUS
 62
1
 10
80.189915
 20
108.679643
 40
3.000000
 50
180.000000
 51
270.000000
  0
LINE
  8
0
  6
CONTINUOUS
 62
1
 10
80.189915
 20
105.679643
 11
94.041755
 21
105.679643
  0
ARC
  8
0
  6
CONTINUOUS
 62
1
 10
93.970682
 20
104.240524
 40
1.440874
 50
357.579006
 51
87.172634
  0
ARC
  8
0
  6
CONTINUOUS
 62
1
 10
93.910270
 20
104.179643
 40
1.500000
 50
270.000000
 51
0.000590
  0
LINE
  8
0
  6
CONTINUOUS
 62
1
 10
93.910270
 20
102.679643
 11
92.410269
 21
102.679643
  0
LINE
  8
0
  6
CONTINUOUS
 62
1
 10
92.410269
 20
102.679643
 11
92.410269
 21
87.919823
  0
ARC
  8
0
  6
CONTINUOUS
 62
1
 10
90.910269
 20
87.919823
 40
1.500000
 50
180.000000
 51
0.000000
  0
LINE
  8
0
  6
CONTINUOUS
 62
1
 10
89.410269
 20
87.919823
 11
89.410269
 21
95.914824
  0
ARC
  8
0
  6
CONTINUOUS
 62
1
 10
84.410269
 20
95.914824
 40
5.000000
 50
0.000000
 51
90.000000
  0
LINE
  8
0
  6
CONTINUOUS
 62
1
 10
84.410269
 20
100.914824
 11
5.000000
 21
100.914824
  0
ARC
  8
0
  6
CONTINUOUS
 62
1
 10
5.000000
 20
95.914824
 40
5.000000
 50
90.000000
 51
180.000000
  0
LINE
  8
0
  6
CONTINUOUS
 62
1
 10
0.000000
 20
95.914824
 11
0.000000
 21
82.638926
  0
ARC
  8
0
  6
CONTINUOUS
 62
1
 10
5.000000
 20
82.638926
 40
5.000000
 50
180.000000
 51
262.337744
  0
ARC
  8
0
  6
CONTINUOUS
 62
1
 10
2.000000
 20
60.339822
 40
17.500001
 50
277.662256
 51
82.337744
  0
ARC
  8
0
  6
CONTINUOUS
 62
1
 10
5.000000
 20
38.040718
 40
5.000000
 50
97.662256
 51
180.000000
  0
LINE
  8
0
  6
CONTINUOUS
 62
1
 10
0.000000
 20
38.040718
 11
0.000000
 21
24.764820
  0
ARC
  8
0
  6
CONTINUOUS
 62
1
 10
5.000000
 20
24.764820
 40
5.000000
 50
180.000000
 51
270.000000
  0
LINE
  8
0
  6
CONTINUOUS
 62
1
 10
5.000000
 20
19.764820
 11
84.410269
 21
19.764820
  0
ARC
  8
0
  6
CONTINUOUS
 62
1
 10
84.410269
 20
24.764820
 40
5.000000
 50
270.000000
 51
0.000000
  0
LINE
  8
0
  6
CONTINUOUS
 62
1
 10
89.410269
 20
24.764820
 11
89.410269
 21
32.759821
  0
ARC
  8
0
  6
CONTINUOUS
 62
1
 10
90.910269
 20
32.759821
 40
1.500000
 50
0.000000
 51
180.000000
  0
LINE
  8
0
  6
CONTINUOUS
 62
1
 10
92.410269
 20
32.759821
 11
92.410269
 21
18.000001
  0
LINE
  8
0
  6
CONTINUOUS
 62
1
 10
92.410269
 20
18.000001
 11
93.910270
 21
18.000001
  0
ARC
  8
0
  6
CONTINUOUS
 62
1
 10
93.910270
 20
16.500001
 40
1.500000
 50
0.000000
 51
90.000000
  0
ARC
  8
0
  6
CONTINUOUS
 62
1
 10
93.970622
 20
16.439176
 40
1.440932
 50
272.829631
 51
2.419295
  0
LINE
  8
0
  6
CONTINUOUS
 62
1
 10
94.041755
 20
15.000001
 11
80.189915
 21
15.000001
  0
ARC
  8
0
  6
CONTINUOUS
 62
1
 10
80.189915
 20
12.000001
 40
3.000000
 50
90.000000
 51
180.000000
  0
LINE
  8
0
  6
CONTINUOUS
 62
1
 10
77.189915
 20
12.000001
 11
77.189915
 21
3.000000
  0
ARC
  8
0
  6
CONTINUOUS
 62
1
 10
80.189915
 20
3.000000
 40
3.000000
 50
180.000000
 51
270.000000
  0
LINE
  8
0
  6
CONTINUOUS
 62
1
 10
80.189915
 20
0.000000
 11
133.130625
 21
0.000000
  0
ARC
  8
0
  6
CONTINUOUS
 62
1
 10
133.130625
 20
3.000000
 40
3.000000
 50
270.000000
 51
0.000000
  0
LINE
  8
0
  6
CONTINUOUS
 62
1
 10
136.130625
 20
3.000000
 11
136.130625
 21
12.000001
  0
ARC
  8
0
  6
CONTINUOUS
 62
1
 10
133.130625
 20
12.000001
 40
3.000000
 50
0.000000
 51
90.000000
  0
LINE
  8
0
  6
CONTINUOUS
 62
1
 10
133.130625
 20
15.000001
 11
119.278785
 21
15.000001
  0
ARC
  8
0
  6
CONTINUOUS
 62
1
 10
119.349864
 20
16.439125
 40
1.440879
 50
177.579224
 51
267.172421
  0
ARC
  8
0
  6
CONTINUOUS
 62
1
 10
119.410271
 20
16.500001
 40
1.500000
 50
90.000000
 51
180.000595
  0
LINE
  8
0
  6
CONTINUOUS
 62
1
 10
119.410271
 20
18.000001
 11
120.910271
 21
18.000001
  0
LINE
  8
0
  6
CONTINUOUS
 62
1
 10
120.910271
 20
18.000001
 11
120.910271
 21
38.759821
  0
LINE
  8
0
  6
CONTINUOUS
 62
1
 10
120.910271
 20
38.759821
 11
119.410271
 21
38.759821
  0
ARC
  8
0
  6
CONTINUOUS
 62
1
 10
119.410271
 20
40.259821
 40
1.500000
 50
180.000000
 51
270.000000
  0
ARC
  8
0
  6
CONTINUOUS
 62
1
 10
119.349918
 20
40.320646
 40
1.440932
 50
92.829631
 51
182.419295
  0
LINE
  8
0
  6
CONTINUOUS
 62
1
 10
119.278785
 20
41.759821
 11
128.130625
 21
41.759821
  0
ARC
  8
0
  6
CONTINUOUS
 62
1
 10
128.130625
 20
44.759821
 40
3.000000
 50
270.000000
 51
0.000000
  0
LINE
  8
0
  6
CONTINUOUS
 62
1
 10
131.130625
 20
44.759821
 11
131.130625
 21
74.919823
  0
ARC
  8
0
  6
CONTINUOUS
 62
1
 10
128.130625
 20
74.919823
 40
3.000000
 50
0.000000
 51
90.000000
  0
LINE
  8
0
  6
CONTINUOUS
 62
1
 10
128.130625
 20
77.919823
 11
119.278785
 21
77.919823
  0
CIRCLE
  8
0
  6
CONTINUOUS
 62
1
 10
137.630625
 20
108.179643
 40
6.900000
  0
CIRCLE
  8
0
  6
CONTINUOUS
 62
1
 10
13.100001
 20
34.279821
 40
6.750000
  0
CIRCLE
  8
0
  6
CONTINUOUS
 62
1
 10
13.100001
 20
86.399823
 40
6.750000
  0
LINE
  8
0
  6
DASHED
 62
3
 10
34.640651
 20
19.764820
 11
34.640651
 21
100.914824
  0
LINE
  8
0
  6
DASHED
 62
3
 10
66.994221
 20
19.764820
 11
66.994221
 21
100.914824
  0
LINE
  8
0
  6
DASHED
 62
3
 10
92.300093
 20
0.000000
 11
92.300093
 21
15.000001
  0
LINE
  8
0
  6
DASHED
 62
3
 10
92.300093
 20
105.679643
 11
92.300093
 21
120.679644
  0
LINE
  8
0
  6
DASHED
 62
3
 10
120.910271
 20
30.888670
 11
92.410269
 21
30.888670
  0
LINE
  8
0
  6
DASHED
 62
3
 10
92.410269
 20
89.790973
 11
120.910271
 21
89.790973
  0
LINE
  8
0
  6
DASHED
 62
3
 10
121.020448
 20
15.000001
 11
121.020448
 21
0.000000
  0
LINE
  8
0
  6
DASHED
 62
3
 10
121.020448
 20
77.919823
 11
121.020448
 21
41.759821
  0
LINE
  8
0
  6
DASHED
 62
3
 10
121.020448
 20
120.679644
 11
121.020448
 21
95.679643
  0
ARC
  8
0
  6
CONTINUOUS
 62
8
 10
68.194221
 20
53.666955
 40
1.200000
 50
90.000000
 51
179.999999
  0
LINE
  8
0
  6
CONTINUOUS
 62
8
 10
68.194221
 20
54.866955
 11
68.794221
 21
54.866955
  0
ARC
  8
0
  6
CONTINUOUS
 62
8
 10
68.794221
 20
53.666955
 40
1.200000
 50
0.000000
 51
89.999999
  0
LINE
  8
0
  6
CONTINUOUS
 62
8
 10
69.994221
 20
53.666955
 11
69.994221
 21
52.766955
  0
ARC
  8
0
  6
CONTINUOUS
 62
8
 10
68.794221
 20
52.766955
 40
1.200000
 50
270.000000
 51
359.999999
  0
LINE
  8
0
  6
CONTINUOUS
 62
8
 10
68.794221
 20
51.566955
 11
68.194221
 21
51.566955
  0
ARC
  8
0
  6
CONTINUOUS
 62
8
 10
68.194221
 20
52.766955
 40
1.200000
 50
180.000000
 51
269.999999
  0
LINE
  8
0
  6
CONTINUOUS
 62
8
 10
66.994221
 20
52.766955
 11
66.994221
 21
53.966955
  0
LINE
  8
0
  6
CONTINUOUS
 62
8
 10
66.994221
 20
53.966955
 11
68.794221
 21
57.566955
  0
LINE
  8
0
  6
CONTINUOUS
 62
8
 10
72.394221
 20
56.366955
 11
73.594221
 21
57.566955
  0
LINE
  8
0
  6
CONTINUOUS
 62
8
 10
73.594221
 20
57.566955
 11
73.594221
 21
51.566955
  0
LINE
  8
0
  6
CONTINUOUS
 62
8
 10
76.594221
 20
56.666955
 11
76.594221
 21
57.566955
  0
LINE
  8
0
  6
CONTINUOUS
 62
8
 10
76.594221
 20
57.566955
 11
79.594221
 21
57.566955
  0
LINE
  8
0
  6
CONTINUOUS
 62
8
 10
79.594221
 20
57.566955
 11
79.594221
 21
56.666955
  0
LINE
  8
0
  6
CONTINUOUS
 62
8
 10
79.594221
 20
56.666955
 11
77.494221
 21
51.566955
  0
LINE
  8
0
  6
CONTINUOUS
 62
8
 10
81.394221
 20
51.566955
 11
83.194221
 21
51.566955
  0
ARC
  8
0
  6
CONTINUOUS
 62
8
 10
83.194221
 20
52.766955
 40
1.200000
 50
270.000000
 51
359.999999
  0
LINE
  8
0
  6
CONTINUOUS
 62
8
 10
84.394221
 20
52.766955
 11
84.394221
 21
53.666955
  0
ARC
  8
0
  6
CONTINUOUS
 62
8
 10
83.194221
 20
53.666955
 40
1.200000
 50
0.000000
 51
89.999999
  0
LINE
  8
0
  6
CONTINUOUS
 62
8
 10
81.394221
 20
57.566955
 11
83.194221
 21
57.566955
  0
ARC
  8
0
  6
CONTINUOUS
 62
8
 10
83.194221
 20
56.366955
 40
1.200000
 50
0.000000
 51
89.999999
  0
LINE
  8
0
  6
CONTINUOUS
 62
8
 10
84.394221
 20
56.366955
 11
84.394221
 21
56.066955
  0
ARC
  8
0
  6
CONTINUOUS
 62
8
 10
83.194221
 20
56.066955
 40
1.200000
 50
270.000000
 51
359.999999
  0
LINE
  8
0
  6
CONTINUOUS
 62
8
 10
81.994221
 20
54.866955
 11
83.194221
 21
54.866955
  0
LINE
  8
0
  6
CONTINUOUS
 62
8
 10
86.194221
 20
51.566955
 11
87.994221
 21
51.566955
  0
ARC
  8
0
  6
CONTINUOUS
 62
8
 10
87.994221
 20
52.766955
 40
1.200000
 50
270.000000
 51
359.999999
  0
LINE
  8
0
  6
CONTINUOUS
 62
8
 10
89.194221
 20
52.766955
 11
89.194221
 21
53.966955
  0
ARC
  8
0
  6
CONTINUOUS
 62
8
 10
87.994221
 20
53.966955
 40
1.200000
 50
0.000000
 51
89.999999
  0
LINE
  8
0
  6
CONTINUOUS
 62
8
 10
87.994221
 20
55.166955
 11
86.194221
 21
55.166955
  0
LINE
  8
0
  6
CONTINUOUS
 62
8
 10
86.194221
 20
55.166955
 11
86.194221
 21
57.566955
  0
LINE
  8
0
  6
CONTINUOUS
 62
8
 10
86.194221
 20
57.566955
 11
89.194221
 21
57.566955
  0
LINE
  8
0
  6
CONTINUOUS
 62
8
 10
90.994221
 20
56.666955
 11
90.994221
 21
57.566955
  0
LINE
  8
0
  6
CONTINUOUS
 62
8
 10
90.994221
 20
57.566955
 11
93.994221
 21
57.566955
  0
LINE
  8
0
  6
CONTINUOUS
 62
8
 10
93.994221
 20
57.566955
 11
93.994221
 21
56.666955
  0
LINE
  8
0
  6
CONTINUOUS
 62
8
 10
93.994221
 20
56.666955
 11
91.894221
 21
51.566955
  0
LINE
  8
0
  6
CONTINUOUS
 62
8
 10
95.794221
 20
51.566955
 11
97.594221
 21
51.566955
  0
ARC
  8
0
  6
CONTINUOUS
 62
8
 10
97.594221
 20
52.766955
 40
1.200000
 50
270.000000
 51
359.999999
  0
LINE
  8
0
  6
CONTINUOUS
 62
8
 10
98.794221
 20
52.766955
 11
98.794221
 21
53.666955
  0
ARC
  8
0
  6
CONTINUOUS
 62
8
 10
97.594221
 20
53.666955
 40
1.200000
 50
0.000000
 51
89.999999
  0
LINE
  8
0
  6
CONTINUOUS
 62
8
 10
95.794221
 20
57.566955
 11
97.594221
 21
57.566955
  0
ARC
  8
0
  6
CONTINUOUS
 62
8
 10
97.594221
 20
56.366955
 40
1.200000
 50
0.000000
 51
89.999999
  0
LINE
  8
0
  6
CONTINUOUS
 62
8
 10
98.794221
 20
56.366955
 11
98.794221
 21
56.066955
  0
ARC
  8
0
  6
CONTINUOUS
 62
8
 10
97.594221
 20
56.066955
 40
1.200000
 50
270.000000
 51
359.999999
  0
LINE
  8
0
  6
CONTINUOUS
 62
8
 10
96.394221
 20
54.866955
 11
97.594221
 21
54.866955
  0
LINE
  8
0
  6
CONTINUOUS
 62
8
 10
100.594221
 20
54.266955
 11
103.594221
 21
54.266955
  0
ARC
  8
0
  6
CONTINUOUS
 62
8
 10
106.894221
 20
52.766955
 40
1.200000
 50
180.000001
 51
270.000000
  0
LINE
  8
0
  6
CONTINUOUS
 62
8
 10
106.894221
 20
51.566955
 11
107.194221
 21
51.566955
  0
ARC
  8
0
  6
CONTINUOUS
 62
8
 10
107.194221
 20
52.766955
 40
1.200000
 50
270.000001
 51
0.000000
  0
LINE
  8
0
  6
CONTINUOUS
 62
8
 10
108.394221
 20
52.766955
 11
108.394221
 21
56.366955
  0
ARC
  8
0
  6
CONTINUOUS
 62
8
 10
107.194221
 20
56.366955
 40
1.200000
 50
0.000001
 51
90.000000
  0
LINE
  8
0
  6
CONTINUOUS
 62
8
 10
107.194221
 20
57.566955
 11
106.894221
 21
57.566955
  0
ARC
  8
0
  6
CONTINUOUS
 62
8
 10
106.894221
 20
56.366955
 40
1.200000
 50
90.000001
 51
180.000000
  0
LINE
  8
0
  6
CONTINUOUS
 62
8
 10
105.694221
 20
56.366955
 11
105.694221
 21
52.766955
  0
ARC
  8
0
  6
CONTINUOUS
 62
8
 10
111.694221
 20
52.766955
 40
1.200000
 50
180.000001
 51
270.000000
  0
LINE
  8
0
  6
CONTINUOUS
 62
8
 10
111.694221
 20
51.566955
 11
111.994221
 21
51.566955
  0
ARC
  8
0
  6
CONTINUOUS
 62
8
 10
111.994221
 20
52.766955
 40
1.200000
 50
270.000001
 51
0.000000
  0
LINE
  8
0
  6
CONTINUOUS
 62
8
 10
113.194221
 20
52.766955
 11
113.194221
 21
56.366955
  0
ARC
  8
0
  6
CONTINUOUS
 62
8
 10
111.994221
 20
56.366955
 40
1.200000
 50
0.000001
 51
90.000000
  0
LINE
  8
0
  6
CONTINUOUS
 62
8
 10
111.994221
 20
57.566955
 11
111.694221
 21
57.566955
  0
ARC
  8
0
  6
CONTINUOUS
 62
8
 10
111.694221
 20
56.366955
 40
1.200000
 50
90.000001
 51
180.000000
  0
LINE
  8
0
  6
CONTINUOUS
 62
8
 10
110.494221
 20
56.366955
 11
110.494221
 21
52.766955
  0
ENDBLK
  0
BLOCK
  2
87603496-A
  8
0
 70
0
 10
0.0
 20
0.0
 30
0.0
  0
ARC
  8
0
  6
CONTINUOUS
 62
1
 10
83.000000
 20
35.348341
 40
2.000000
 50
180.000000
 51
270.000000
  0
LINE
  8
0
  6
CONTINUOUS
 62
1
 10
83.000000
 20
33.348341
 11
107.348341
 21
33.348341
  0
LINE
  8
0
  6
CONTINUOUS
 62
1
 10
107.348341
 20
33.348341
 11
107.348341
 21
23.348341
  0
LINE
  8
0
  6
CONTINUOUS
 62
1
 10
107.348341
 20
23.348341
 11
72.000000
 21
23.348341
  0
ARC
  8
0
  6
CONTINUOUS
 62
1
 10
72.000000
 20
21.348341
 40
2.000000
 50
90.000000
 51
180.000000
  0
LINE
  8
0
  6
CONTINUOUS
 62
1
 10
70.000000
 20
21.348341
 11
70.000000
 21
13.000000
  0
ARC
  8
0
  6
CONTINUOUS
 62
1
 10
67.000000
 20
13.000000
 40
3.000000
 50
270.000000
 51
0.000000
  0
LINE
  8
0
  6
CONTINUOUS
 62
1
 10
67.000000
 20
10.000000
 11
36.000000
 21
10.000000
  0
ARC
  8
0
  6
CONTINUOUS
 62
1
 10
36.000000
 20
13.000000
 40
3.000000
 50
180.000000
 51
270.000000
  0
LINE
  8
0
  6
CONTINUOUS
 62
1
 10
33.000000
 20
13.000000
 11
33.000000
 21
21.348341
  0
ARC
  8
0
  6
CONTINUOUS
 62
1
 10
31.000000
 20
21.348341
 40
2.000000
 50
0.000000
 51
90.000000
  0
LINE
  8
0
  6
CONTINUOUS
 62
1
 10
31.000000
 20
23.348341
 11
25.000000
 21
23.348341
  0
ARC
  8
0
  6
CONTINUOUS
 62
1
 10
25.000000
 20
21.348341
 40
2.000000
 50
90.000000
 51
180.000000
  0
LINE
  8
0
  6
CONTINUOUS
 62
1
 10
23.000000
 20
21.348341
 11
23.000000
 21
0.000000
  0
LINE
  8
0
  6
CONTINUOUS
 62
1
 10
23.000000
 20
0.000000
 11
0.000000
 21
0.000000
  0
LINE
  8
0
  6
CONTINUOUS
 62
1
 10
0.000000
 20
0.000000
 11
0.000000
 21
56.696681
  0
LINE
  8
0
  6
CONTINUOUS
 62
1
 10
0.000000
 20
56.696681
 11
81.000000
 21
56.696681
  0
LINE
  8
0
  6
CONTINUOUS
 62
1
 10
81.000000
 20
56.696681
 11
81.000000
 21
35.348341
  0
LINE
  8
0
  6
DASHED
 62
3
 10
23.000000
 20
19.174170
 11
0.000000
 21
19.174170
  0
LINE
  8
0
  6
DASHED
 62
3
 10
0.000000
 20
37.522511
 11
81.000000
 21
37.522511
  0
LINE
  8
0
  6
DASHED
 62
3
 10
70.000000
 20
19.174170
 11
33.000000
 21
19.174170
  0
LINE
  8
0
  6
DASHED
 62
3
 10
89.174170
 20
33.348341
 11
89.174170
 21
23.348341
  0
ENDBLK
  0
BLOCK
  2
470-8278-02
  8
0
 70
0
 10
0.0
 20
0.0
 30
0.0
  0
LINE
  8
0
  6
CONTINUOUS
 62
1
 10
2.000000
 20
316.800000
 11
534.300000
 21
316.800000
  0
ARC
  8
0
  6
CONTINUOUS
 62
1
 10
534.300000
 20
296.800000
 40
20.000000
 50
53.311988
 51
90.000000
  0
LINE
  8
0
  6
CONTINUOUS
 62
1
 10
546.249148
 20
312.838013
 11
965.605085
 21
0.396199
  0
ARC
  8
0
  6
CONTINUOUS
 62
1
 10
966.800000
 20
2.000000
 40
2.000000
 50
233.311988
 51
328.319168
  0
LINE
  8
0
  6
CONTINUOUS
 62
1
 10
968.501974
 20
0.949626
 11
1139.419737
 21
277.896260
  0
ARC
  8
0
  6
CONTINUOUS
 62
1
 10
1122.400000
 20
288.400000
 40
20.000000
 50
328.319168
 51
0.000000
  0
LINE
  8
0
  6
CONTINUOUS
 62
1
 10
1142.400000
 20
288.400000
 11
1142.400000
 21
344.500000
  0
ARC
  8
0
  6
CONTINUOUS
 62
1
 10
1140.400000
 20
344.500000
 40
2.000000
 50
0.000000
 51
82.689068
  0
LINE
  8
0
  6
CONTINUOUS
 62
1
 10
1140.654508
 20
346.483740
 11
770.945492
 21
393.916260
  0
ARC
  8
0
  6
CONTINUOUS
 62
1
 10
771.200000
 20
395.900000
 40
2.000000
 50
232.755728
 51
262.689068
  0
LINE
  8
0
  6
CONTINUOUS
 62
1
 10
769.989571
 20
394.307875
 11
540.895712
 21
568.478750
  0
ARC
  8
0
  6
CONTINUOUS
 62
1
 10
553.000000
 20
584.400000
 40
20.000000
 50
122.796378
 51
232.755728
  0
LINE
  8
0
  6
CONTINUOUS
 62
1
 10
542.166898
 20
601.212017
 11
893.316690
 21
827.481202
  0
ARC
  8
0
  6
CONTINUOUS
 62
1
 10
894.400000
 20
825.800000
 40
2.000000
 50
105.957019
 51
122.796378
  0
LINE
  8
0
  6
CONTINUOUS
 62
1
 10
893.850168
 20
827.722936
 11
1140.949832
 21
898.377064
  0
ARC
  8
0
  6
CONTINUOUS
 62
1
 10
1140.400000
 20
900.300000
 40
2.000000
 50
285.957019
 51
0.000000
  0
LINE
  8
0
  6
CONTINUOUS
 62
1
 10
1142.400000
 20
900.300000
 11
1142.400000
 21
945.200000
  0
ARC
  8
0
  6
CONTINUOUS
 62
1
 10
1122.400000
 20
945.200000
 40
20.000000
 50
0.000000
 51
31.680832
  0
LINE
  8
0
  6
CONTINUOUS
 62
1
 10
1139.419737
 20
955.703740
 11
968.501974
 21
1232.650374
  0
ARC
  8
0
  6
CONTINUOUS
 62
1
 10
966.800000
 20
1231.600000
 40
2.000000
 50
31.680832
 51
126.688012
  0
LINE
  8
0
  6
CONTINUOUS
 62
1
 10
965.605085
 20
1233.203801
 11
546.249148
 21
920.761987
  0
ARC
  8
0
  6
CONTINUOUS
 62
1
 10
534.300000
 20
936.800000
 40
20.000000
 50
270.000000
 51
306.688012
  0
LINE
  8
0
  6
CONTINUOUS
 62
1
 10
534.300000
 20
916.800000
 11
2.000000
 21
916.800000
  0
ARC
  8
0
  6
CONTINUOUS
 62
1
 10
2.000000
 20
914.800000
 40
2.000000
 50
90.000000
 51
180.000000
  0
LINE
  8
0
  6
CONTINUOUS
 62
1
 10
0.000000
 20
914.800000
 11
0.000000
 21
318.800000
  0
ARC
  8
0
  6
CONTINUOUS
 62
1
 10
2.000000
 20
318.800000
 40
2.000000
 50
180.000000
 51
270.000000
  0
CIRCLE
  8
0
  6
CONTINUOUS
 62
1
 10
16.500000
 20
339.200000
 40
6.600000
  0
CIRCLE
  8
0
  6
CONTINUOUS
 62
1
 10
16.500000
 20
616.800000
 40
6.600000
  0
CIRCLE
  8
0
  6
CONTINUOUS
 62
1
 10
16.500000
 20
894.400000
 40
6.600000
  0
CIRCLE
  8
0
  6
CONTINUOUS
 62
1
 10
241.500000
 20
339.200000
 40
6.600000
  0
CIRCLE
  8
0
  6
CONTINUOUS
 62
1
 10
241.500000
 20
894.400000
 40
6.600000
  0
CIRCLE
  8
0
  6
CONTINUOUS
 62
1
 10
466.500000
 20
339.200000
 40
6.600000
  0
CIRCLE
  8
0
  6
CONTINUOUS
 62
1
 10
466.500000
 20
894.400000
 40
6.600000
  0
CIRCLE
  8
0
  6
CONTINUOUS
 62
1
 10
537.300000
 20
545.700000
 40
6.600000
  0
CIRCLE
  8
0
  6
CONTINUOUS
 62
1
 10
545.600000
 20
627.800000
 40
6.600000
  0
CIRCLE
  8
0
  6
CONTINUOUS
 62
1
 10
612.400000
 20
288.800000
 40
6.600000
  0
CIRCLE
  8
0
  6
CONTINUOUS
 62
1
 10
612.400000
 20
944.800000
 40
6.600000
  0
CIRCLE
  8
0
  6
CONTINUOUS
 62
1
 10
704.500000
 20
418.600000
 40
6.600000
  0
CIRCLE
  8
0
  6
CONTINUOUS
 62
1
 10
730.500000
 20
747.000000
 40
6.600000
  0
CIRCLE
  8
0
  6
CONTINUOUS
 62
1
 10
784.800000
 20
160.400000
 40
6.600000
  0
CIRCLE
  8
0
  6
CONTINUOUS
 62
1
 10
784.800000
 20
1073.200000
 40
6.600000
  0
CIRCLE
  8
0
  6
CONTINUOUS
 62
1
 10
905.000000
 20
356.100000
 40
6.600000
  0
CIRCLE
  8
0
  6
CONTINUOUS
 62
1
 10
911.400000
 20
854.100000
 40
6.600000
  0
CIRCLE
  8
0
  6
CONTINUOUS
 62
1
 10
955.400000
 20
33.300000
 40
6.600000
  0
CIRCLE
  8
0
  6
CONTINUOUS
 62
1
 10
955.400000
 20
1200.300000
 40
6.600000
  0
CIRCLE
  8
0
  6
CONTINUOUS
 62
1
 10
1033.100000
 20
1070.600000
 40
6.600000
  0
CIRCLE
  8
0
  6
CONTINUOUS
 62
1
 10
1039.100000
 20
172.600000
 40
6.600000
  0
CIRCLE
  8
0
  6
CONTINUOUS
 62
1
 10
1113.300000
 20
329.300000
 40
6.600000
  0
CIRCLE
  8
0
  6
CONTINUOUS
 62
1
 10
1115.800000
 20
936.300000
 40
6.600000
  0
ENDBLK
  0
BLOCK
  2
9Y9194-00
  8
0
 70
0
 10
0.0
 20
0.0
 30
0.0
  0
LINE
  8
0
  6
CONTINUOUS
 62
1
 10
0.000000
 20
10.500000
 11
0.000000
 21
95.660911
  0
ARC
  8
0
  6
CONTINUOUS
 62
1
 10
3.000000
 20
95.660911
 40
3.000000
 50
90.000000
 51
180.000000
  0
LINE
  8
0
  6
CONTINUOUS
 62
1
 10
3.000000
 20
98.660911
 11
18.000000
 21
98.660911
  0
ARC
  8
0
  6
CONTINUOUS
 62
1
 10
18.000000
 20
95.660911
 40
3.000000
 50
0.000000
 51
90.000000
  0
LINE
  8
0
  6
CONTINUOUS
 62
1
 10
21.000000
 20
95.660911
 11
21.000000
 21
10.500000
  0
ARC
  8
0
  6
CONTINUOUS
 62
1
 10
10.500000
 20
10.500000
 40
10.500000
 50
180.000000
 51
0.000000
  0
LINE
  8
0
  6
CONTINUOUS
 62
1
 10
4.945000
 20
86.045911
 11
4.945000
 21
81.275911
  0
ARC
  8
0
  6
CONTINUOUS
 62
1
 10
10.500000
 20
81.275911
 40
5.555000
 50
180.000000
 51
0.000000
  0
LINE
  8
0
  6
CONTINUOUS
 62
1
 10
16.055000
 20
81.275911
 11
16.055000
 21
86.045911
  0
ARC
  8
0
  6
CONTINUOUS
 62
1
 10
10.500000
 20
86.045911
 40
5.555000
 50
0.000000
 51
180.000000
  0
CIRCLE
  8
0
  6
CONTINUOUS
 62
1
 10
10.500000
 20
10.500000
 40
5.250000
  0
LINE
  8
0
  6
DASHED
 62
3
 10
0.000000
 20
41.830455
 11
21.000000
 21
41.830455
  0
ARC
  8
0
  6
CONTINUOUS
 62
8
 10
6.203263
 20
34.327270
 40
1.552191
 50
184.398706
 51
274.398705
  0
ARC
  8
0
  6
CONTINUOUS
 62
8
 10
6.426539
 20
34.103994
 40
1.328438
 50
265.500001
 51
4.500000
  0
ARC
  8
0
  6
CONTINUOUS
 62
8
 10
6.230333
 20
34.164950
 40
1.521165
 50
1.630103
 51
104.630102
  0
ARC
  8
0
  6
CONTINUOUS
 62
8
 10
6.148862
 20
34.174191
 40
1.493606
 50
101.694426
 51
178.694429
  0
LINE
  8
0
  6
CONTINUOUS
 62
8
 10
4.655644
 20
36.827270
 11
7.036596
 21
38.732032
  0
LINE
  8
0
  6
CONTINUOUS
 62
8
 10
4.655644
 20
40.636794
 11
7.036596
 21
38.732032
  0
ARC
  8
0
  6
CONTINUOUS
 62
8
 10
6.203263
 20
43.374889
 40
1.552191
 50
184.398706
 51
274.398705
  0
ARC
  8
0
  6
CONTINUOUS
 62
8
 10
6.426539
 20
43.151614
 40
1.328438
 50
265.500001
 51
4.500000
  0
ARC
  8
0
  6
CONTINUOUS
 62
8
 10
6.230333
 20
43.212569
 40
1.521165
 50
1.630103
 51
104.630102
  0
ARC
  8
0
  6
CONTINUOUS
 62
8
 10
7.155644
 20
39.012242
 40
5.821372
 50
77.000000
 51
103.000000
  0
ARC
  8
0
  6
CONTINUOUS
 62
8
 10
8.162426
 20
43.221811
 40
1.493606
 50
1.305569
 51
78.305571
  0
ARC
  8
0
  6
CONTINUOUS
 62
8
 10
8.009896
 20
43.185859
 40
1.647236
 50
304.434950
 51
2.434949
  0
ARC
  8
0
  6
CONTINUOUS
 62
8
 10
6.148862
 20
43.221810
 40
1.493606
 50
101.694426
 51
178.694429
  0
ARC
  8
0
  6
CONTINUOUS
 62
8
 10
3.863161
 20
45.488861
 40
1.555432
 50
14.369898
 51
59.369897
  0
LINE
  8
0
  6
CONTINUOUS
 62
8
 10
4.655644
 20
46.827270
 11
9.655644
 21
46.827270
  0
ARC
  8
0
  6
CONTINUOUS
 62
8
 10
6.203263
 20
49.565365
 40
1.552191
 50
184.398706
 51
274.398705
  0
ARC
  8
0
  6
CONTINUOUS
 62
8
 10
6.426539
 20
49.342090
 40
1.328438
 50
265.500001
 51
4.500000
  0
ARC
  8
0
  6
CONTINUOUS
 62
8
 10
6.230333
 20
49.403045
 40
1.521165
 50
1.630103
 51
104.630102
  0
ARC
  8
0
  6
CONTINUOUS
 62
8
 10
7.155644
 20
45.202719
 40
5.821372
 50
77.000000
 51
103.000000
  0
ARC
  8
0
  6
CONTINUOUS
 62
8
 10
8.162426
 20
49.412287
 40
1.493606
 50
1.305569
 51
78.305571
  0
ARC
  8
0
  6
CONTINUOUS
 62
8
 10
8.009896
 20
49.376335
 40
1.647236
 50
304.434950
 51
2.434949
  0
ARC
  8
0
  6
CONTINUOUS
 62
8
 10
6.148862
 20
49.412287
 40
1.493606
 50
101.694426
 51
178.694429
  0
LINE
  8
0
  6
CONTINUOUS
 62
8
 10
9.655644
 20
54.446318
 11
4.655644
 21
54.446318
  0
LINE
  8
0
  6
CONTINUOUS
 62
8
 10
4.655644
 20
54.446318
 11
7.988977
 21
52.065365
  0
LINE
  8
0
  6
CONTINUOUS
 62
8
 10
7.988977
 20
52.065365
 11
7.988977
 21
55.636794
  0
ARC
  8
0
  6
CONTINUOUS
 62
8
 10
6.322311
 20
63.970127
 40
1.666667
 50
90.000001
 51
270.000000
  0
LINE
  8
0
  6
CONTINUOUS
 62
8
 10
6.322311
 20
62.303461
 11
7.988977
 21
62.303461
  0
ARC
  8
0
  6
CONTINUOUS
 62
8
 10
7.988977
 20
63.970127
 40
1.666667
 50
270.000001
 51
90.000000
  0
LINE
  8
0
  6
CONTINUOUS
 62
8
 10
7.988977
 20
65.636794
 11
6.322311
 21
65.636794
  0
ARC
  8
0
  6
CONTINUOUS
 62
8
 10
6.322311
 20
68.493937
 40
1.666667
 50
90.000001
 51
270.000000
  0
LINE
  8
0
  6
CONTINUOUS
 62
8
 10
6.322311
 20
66.827270
 11
7.988977
 21
66.827270
  0
ARC
  8
0
  6
CONTINUOUS
 62
8
 10
7.988977
 20
68.493937
 40
1.666667
 50
270.000001
 51
90.000000
  0
LINE
  8
0
  6
CONTINUOUS
 62
8
 10
7.988977
 20
70.160604
 11
6.322311
 21
70.160604
  0
ARC
  8
0
  6
CONTINUOUS
 62
8
 10
7.155644
 20
29.964623
 40
5.821372
 50
77.000000
 51
103.000000
  0
ARC
  8
0
  6
CONTINUOUS
 62
8
 10
8.162426
 20
34.174192
 40
1.493606
 50
1.305569
 51
78.305571
  0
ARC
  8
0
  6
CONTINUOUS
 62
8
 10
8.009896
 20
34.138240
 40
1.647236
 50
304.434950
 51
2.434949
  0
LINE
  8
0
  6
CONTINUOUS
 62
8
 10
7.036596
 20
38.732032
 11
9.655644
 21
38.732032
  0
LINE
  8
0
  6
CONTINUOUS
 62
8
 10
7.512787
 20
56.827270
 11
7.512787
 21
61.112984
  0
ENDBLK
  0
BLOCK
  2
5683207-01
  8
0
 70
0
 10
0.0
 20
0.0
 30
0.0
  0
LINE
  8
0
  6
CONTINUOUS
 62
1
 10
250.000000
 20
10.000000
 11
250.000000
 21
120.000000
  0
ARC
  8
0
  6
CONTINUOUS
 62
1
 10
240.000000
 20
120.000000
 40
10.000000
 50
0.000000
 51
90.000000
  0
LINE
  8
0
  6
CONTINUOUS
 62
1
 10
240.000000
 20
130.000000
 11
10.000000
 21
130.000000
  0
ARC
  8
0
  6
CONTINUOUS
 62
1
 10
10.000000
 20
120.000000
 40
10.000000
 50
90.000000
 51
180.000000
  0
LINE
  8
0
  6
CONTINUOUS
 62
1
 10
0.000000
 20
120.000000
 11
0.000000
 21
10.000000
  0
ARC
  8
0
  6
CONTINUOUS
 62
1
 10
10.000000
 20
10.000000
 40
10.000000
 50
180.000000
 51
270.000000
  0
LINE
  8
0
  6
CONTINUOUS
 62
1
 10
10.000000
 20
0.000000
 11
240.000000
 21
0.000000
  0
ARC
  8
0
  6
CONTINUOUS
 62
1
 10
240.000000
 20
10.000000
 40
10.000000
 50
270.000000
 51
0.000000
  0
LINE
  8
0
  6
CONTINUOUS
 62
1
 10
175.600000
 20
25.000000
 11
205.000000
 21
25.000000
  0
ARC
  8
0
  6
CONTINUOUS
 62
1
 10
205.000000
 20
35.000000
 40
10.000000
 50
270.000000
 51
0.000000
  0
LINE
  8
0
  6
CONTINUOUS
 62
1
 10
215.000000
 20
35.000000
 11
215.000000
 21
94.900000
  0
ARC
  8
0
  6
CONTINUOUS
 62
1
 10
205.000000
 20
94.900000
 40
10.000000
 50
0.000000
 51
90.000000
  0
LINE
  8
0
  6
CONTINUOUS
 62
1
 10
205.000000
 20
104.900000
 11
175.600000
 21
104.900000
  0
ARC
  8
0
  6
CONTINUOUS
 62
1
 10
175.600000
 20
94.900000
 40
10.000000
 50
90.000000
 51
180.000000
  0
LINE
  8
0
  6
CONTINUOUS
 62
1
 10
165.600000
 20
94.900000
 11
165.600000
 21
35.000000
  0
ARC
  8
0
  6
CONTINUOUS
 62
1
 10
175.600000
 20
35.000000
 40
10.000000
 50
180.000000
 51
270.000000
  0
LINE
  8
0
  6
CONTINUOUS
 62
1
 10
39.300000
 20
55.000000
 11
48.600000
 21
55.000000
  0
ARC
  8
0
  6
CONTINUOUS
 62
1
 10
48.600000
 20
61.400000
 40
6.400000
 50
270.000000
 51
0.000000
  0
LINE
  8
0
  6
CONTINUOUS
 62
1
 10
55.000000
 20
61.400000
 11
55.000000
 21
69.500000
  0
ARC
  8
0
  6
CONTINUOUS
 62
1
 10
48.600000
 20
69.500000
 40
6.400000
 50
0.000000
 51
90.000000
  0
LINE
  8
0
  6
CONTINUOUS
 62
1
 10
48.600000
 20
75.900000
 11
39.300000
 21
75.900000
  0
ARC
  8
0
  6
CONTINUOUS
 62
1
 10
39.300000
 20
69.500000
 40
6.400000
 50
90.000000
 51
180.000000
  0
LINE
  8
0
  6
CONTINUOUS
 62
1
 10
32.900000
 20
69.500000
 11
32.900000
 21
61.400000
  0
ARC
  8
0
  6
CONTINUOUS
 62
1
 10
39.300000
 20
61.400000
 40
6.400000
 50
180.000000
 51
270.000000
  0
LINE
  8
0
  6
CONTINUOUS
 62
1
 10
141.604228
 20
84.704888
 11
138.604886
 21
95.898585
  0
ARC
  8
0
  6
CONTINUOUS
 62
1
 10
134.500000
 20
88.800000
 40
8.200000
 50
59.960569
 51
330.039431
  0
LINE
  8
0
  6
CONTINUOUS
 62
1
 10
141.602628
 20
34.702112
 11
138.602112
 21
45.900188
  0
ARC
  8
0
  6
CONTINUOUS
 62
1
 10
134.500000
 20
38.800000
 40
8.200000
 50
59.982958
 51
330.017042
  0
CIRCLE
  8
0
  6
CONTINUOUS
 62
1
 10
10.000000
 20
10.000000
 40
4.100000
  0
CIRCLE
  8
0
  6
CONTINUOUS
 62
1
 10
10.000000
 20
120.000000
 40
4.100000
  0
CIRCLE
  8
0
  6
CONTINUOUS
 62
1
 10
125.000000
 20
10.000000
 40
4.100000
  0
CIRCLE
  8
0
  6
CONTINUOUS
 62
1
 10
125.000000
 20
120.000000
 40
4.100000
  0
CIRCLE
  8
0
  6
CONTINUOUS
 62
1
 10
240.000000
 20
10.000000
 40
4.100000
  0
CIRCLE
  8
0
  6
CONTINUOUS
 62
1
 10
240.000000
 20
120.000000
 40
4.100000
  0
CIRCLE
  8
0
  6
CONTINUOUS
 62
1
 10
160.100000
 20
20.200000
 40
3.500000
  0
CIRCLE
  8
0
  6
CONTINUOUS
 62
1
 10
160.100000
 20
109.700000
 40
3.500000
  0
CIRCLE
  8
0
  6
CONTINUOUS
 62
1
 10
220.500000
 20
20.200000
 40
3.500000
  0
CIRCLE
  8
0
  6
CONTINUOUS
 62
1
 10
220.500000
 20
109.700000
 40
3.500000
  0
CIRCLE
  8
0
  6
CONTINUOUS
 62
1
 10
28.700000
 20
54.400000
 40
2.150000
  0
CIRCLE
  8
0
  6
CONTINUOUS
 62
1
 10
28.700000
 20
76.900000
 40
2.150000
  0
CIRCLE
  8
0
  6
CONTINUOUS
 62
1
 10
59.100000
 20
54.400000
 40
2.150000
  0
CIRCLE
  8
0
  6
CONTINUOUS
 62
1
 10
59.100000
 20
76.900000
 40
2.150000
  0
ENDBLK
  0
BLOCK
  2
5901142ITEM-01
  8
0
 70
0
 10
0.0
 20
0.0
 30
0.0
  0
LINE
  8
0
  6
CONTINUOUS
 62
1
 10
12.923482
 20
49.893721
 11
6.874118
 21
36.907751
  0
ARC
  8
0
  6
CONTINUOUS
 62
1
 10
10.500000
 20
35.218676
 40
4.000000
 50
155.022083
 51
180.000000
  0
LINE
  8
0
  6
CONTINUOUS
 62
1
 10
6.500000
 20
35.218676
 11
6.500000
 21
22.306502
  0
ARC
  8
0
  6
CONTINUOUS
 62
1
 10
2.500000
 20
22.306502
 40
4.000000
 50
304.316116
 51
0.000000
  0
ARC
  8
0
  6
CONTINUOUS
 62
1
 10
10.900000
 20
10.000000
 40
10.900000
 50
124.316116
 51
240.408154
  0
ARC
  8
0
  6
CONTINUOUS
 62
1
 10
7.492655
 20
4.000000
 40
4.000000
 50
240.408154
 51
270.000000
  0
LINE
  8
0
  6
CONTINUOUS
 62
1
 10
7.492655
 20
0.000000
 11
96.500000
 21
0.000000
  0
LINE
  8
0
  6
CONTINUOUS
 62
1
 10
96.500000
 20
0.000000
 11
96.500000
 21
21.000000
  0
LINE
  8
0
  6
CONTINUOUS
 62
1
 10
96.500000
 20
21.000000
 11
94.651836
 21
27.204645
  0
LINE
  8
0
  6
CONTINUOUS
 62
1
 10
94.651836
 20
27.204645
 11
93.212335
 21
28.372968
  0
ARC
  8
0
  6
CONTINUOUS
 62
1
 10
95.100000
 20
30.704645
 40
3.000000
 50
161.793275
 51
231.007282
  0
ARC
  8
0
  6
CONTINUOUS
 62
1
 10
90.825291
 20
32.110654
 40
1.500000
 50
341.793275
 51
29.679297
  0
LINE
  8
0
  6
CONTINUOUS
 62
1
 10
92.128506
 20
32.853372
 11
81.100000
 21
52.204645
  0
LINE
  8
0
  6
CONTINUOUS
 62
1
 10
81.100000
 20
52.204645
 11
16.549365
 21
52.204645
  0
ARC
  8
0
  6
CONTINUOUS
 62
1
 10
16.549365
 20
48.204645
 40
4.000000
 50
90.000000
 51
155.022083
  0
CIRCLE
  8
0
  6
CONTINUOUS
 62
1
 10
8.600000
 20
10.000000
 40
4.750000
  0
CIRCLE
  8
0
  6
CONTINUOUS
 62
1
 10
52.400000
 20
10.000000
 40
4.750000
  0
LINE
  8
0
  6
DASHED
 62
3
 10
95.575918
 20
24.102323
 11
6.500000
 21
24.102323
  0
INSERT
  2
TDATUM
  8
0
 10
85.135366
 20
45.123951
 41
1.000000
 42
1.000000
 50
120.000000
  0
ENDBLK
  0
BLOCK
  2
TDATUM
  8
0
 70
0
 10
0.0
 20
0.0
 30
0.0
  0
LINE
  8
0
  6
CONTINUOUS
 62
6
 10
0.500000
 20
-1.500000
 11
0.500000
 21
-3.000000
  0
LINE
  8
0
  6
CONTINUOUS
 62
6
 10
1.500000
 20
-0.500000
 11
3.000000
 21
-0.500000
  0
LINE
  8
0
  6
CONTINUOUS
 62
6
 10
3.000000
 20
-1.500000
 11
1.500000
 21
-1.500000
  0
LINE
  8
0
  6
CONTINUOUS
 62
6
 10
1.500000
 20
-3.000000
 11
1.500000
 21
-1.500000
  0
CIRCLE
  8
0
  6
CONTINUOUS
 62
6
 10
1.000000
 20
-3.000000
 40
0.500000
  0
LINE
  8
0
  6
CONTINUOUS
 62
6
 10
-0.500000
 20
-1.500000
 11
-0.500000
 21
-3.000000
  0
LINE
  8
0
  6
CONTINUOUS
 62
6
 10
-1.500000
 20
-0.500000
 11
-3.000000
 21
-0.500000
  0
LINE
  8
0
  6
CONTINUOUS
 62
6
 10
-3.000000
 20
-1.500000
 11
-1.500000
 21
-1.500000
  0
LINE
  8
0
  6
CONTINUOUS
 62
6
 10
-1.500000
 20
-3.000000
 11
-1.500000
 21
-1.500000
  0
CIRCLE
  8
0
  6
CONTINUOUS
 62
6
 10
-1.000000
 20
-3.000000
 40
0.500000
  0
LINE
  8
0
  6
CONTINUOUS
 62
5
 10
1.000000
 20
-1.000000
 11
-1.000000
 21
1.000000
  0
LINE
  8
0
  6
CONTINUOUS
 62
5
 10
1.000000
 20
1.000000
 11
-1.000000
 21
-1.000000
  0
ARC
  8
0
  6
CONTINUOUS
 62
6
 10
1.500000
 20
-1.500000
 40
1.000000
 50
90.000000
 51
180.000000
  0
ARC
  8
0
  6
CONTINUOUS
 62
6
 10
-1.500000
 20
-1.500000
 40
1.000000
 50
0.000000
 51
90.000000
  0
LINE
  8
0
  6
CONTINUOUS
 62
6
 10
3.000000
 20
-1.500000
 11
3.000000
 21
-0.500000
  0
LINE
  8
0
  6
CONTINUOUS
 62
6
 10
-3.000000
 20
-1.500000
 11
-3.000000
 21
-0.500000
  0
ENDBLK
  0
BLOCK
  2
BASE14-32ITEM03-5-
  8
0
 70
0
 10
0.0
 20
0.0
 30
0.0
  0
LINE
  8
0
  6
CONTINUOUS
 62
1
 10
0.000000
 20
84.000000
 11
310.000000
 21
84.000000
  0
LINE
  8
0
  6
CONTINUOUS
 62
1
 10
310.000000
 20
84.000000
 11
310.000000
 21
0.000000
  0
LINE
  8
0
  6
CONTINUOUS
 62
1
 10
310.000000
 20
0.000000
 11
0.000000
 21
0.000000
  0
LINE
  8
0
  6
CONTINUOUS
 62
1
 10
0.000000
 20
0.000000
 11
0.000000
 21
84.000000
  0
ENDBLK
  0
BLOCK
  2
5592193ITEM02-02
  8
0
 70
0
 10
0.0
 20
0.0
 30
0.0
  0
LINE
  8
0
  6
CONTINUOUS
 62
1
 10
247.896072
 20
145.172475
 11
259.829629
 21
100.635833
  0
ARC
  8
0
  6
CONTINUOUS
 62
1
 10
255.000000
 20
99.341738
 40
5.000000
 50
0.000000
 51
15.000000
  0
LINE
  8
0
  6
CONTINUOUS
 62
1
 10
260.000000
 20
99.341738
 11
260.000000
 21
5.000000
  0
ARC
  8
0
  6
CONTINUOUS
 62
1
 10
255.000000
 20
5.000000
 40
5.000000
 50
270.000000
 51
0.000000
  0
LINE
  8
0
  6
CONTINUOUS
 62
1
 10
255.000000
 20
0.000000
 11
121.836635
 21
0.000000
  0
ARC
  8
0
  6
CONTINUOUS
 62
1
 10
121.836635
 20
5.000000
 40
5.000000
 50
195.000000
 51
270.000000
  0
LINE
  8
0
  6
CONTINUOUS
 62
1
 10
117.007006
 20
3.705905
 11
80.810234
 21
138.794095
  0
ARC
  8
0
  6
CONTINUOUS
 62
1
 10
75.980605
 20
137.500000
 40
5.000000
 50
15.000000
 51
90.000000
  0
LINE
  8
0
  6
CONTINUOUS
 62
1
 10
75.980605
 20
142.500000
 11
15.000000
 21
142.500000
  0
ARC
  8
0
  6
CONTINUOUS
 62
1
 10
15.000000
 20
157.500000
 40
15.000000
 50
120.000000
 51
270.000000
  0
LINE
  8
0
  6
CONTINUOUS
 62
1
 10
7.500000
 20
170.490381
 11
60.310753
 21
200.980684
  0
ARC
  8
0
  6
CONTINUOUS
 62
1
 10
57.810753
 20
205.310811
 40
5.000000
 50
300.000000
 51
15.000000
  0
LINE
  8
0
  6
CONTINUOUS
 62
1
 10
62.640382
 20
206.604906
 11
37.766096
 21
299.437006
  0
ARC
  8
0
  6
CONTINUOUS
 62
1
 10
42.595725
 20
300.731101
 40
5.000000
 50
105.000000
 51
195.000000
  0
LINE
  8
0
  6
CONTINUOUS
 62
1
 10
41.301630
 20
305.560731
 11
189.130175
 21
345.171270
  0
ARC
  8
0
  6
CONTINUOUS
 62
1
 10
190.424271
 20
340.341641
 40
5.000000
 50
15.000000
 51
105.000000
  0
LINE
  8
0
  6
CONTINUOUS
 62
1
 10
195.253900
 20
341.635736
 11
239.156487
 21
177.789050
  0
ARC
  8
0
  6
CONTINUOUS
 62
1
 10
243.986116
 20
179.083145
 40
5.000000
 50
195.000000
 51
252.584087
  0
ARC
  8
0
  6
CONTINUOUS
 62
1
 10
238.000000
 20
160.000000
 40
15.000000
 50
317.415913
 51
72.584087
  0
ARC
  8
0
  6
CONTINUOUS
 62
1
 10
252.725701
 20
146.466570
 40
5.000000
 50
137.415913
 51
195.000000
  0
LINE
  8
0
  6
CONTINUOUS
 62
1
 10
146.000000
 20
190.850000
 11
125.250000
 21
190.850000
  0
ARC
  8
0
  6
CONTINUOUS
 62
1
 10
125.250000
 20
204.350000
 40
13.500000
 50
180.000000
 51
270.000000
  0
LINE
  8
0
  6
CONTINUOUS
 62
1
 10
111.750000
 20
204.350000
 11
111.750000
 21
258.350000
  0
ARC
  8
0
  6
CONTINUOUS
 62
1
 10
125.250000
 20
258.350000
 40
13.500000
 50
90.000000
 51
180.000000
  0
LINE
  8
0
  6
CONTINUOUS
 62
1
 10
125.250000
 20
271.850000
 11
174.750000
 21
271.850000
  0
ARC
  8
0
  6
CONTINUOUS
 62
1
 10
174.750000
 20
258.350000
 40
13.500000
 50
0.000000
 51
90.000000
  0
LINE
  8
0
  6
CONTINUOUS
 62
1
 10
188.250000
 20
258.350000
 11
188.250000
 21
204.350000
  0
ARC
  8
0
  6
CONTINUOUS
 62
1
 10
174.750000
 20
204.350000
 40
13.500000
 50
270.000000
 51
0.000000
  0
LINE
  8
0
  6
CONTINUOUS
 62
1
 10
174.750000
 20
190.850000
 11
154.000000
 21
190.850000
  0
ARC
  8
0
  6
CONTINUOUS
 62
1
 10
154.000000
 20
189.850000
 40
1.000000
 50
90.000000
 51
180.000000
  0
ARC
  8
0
  6
CONTINUOUS
 62
1
 10
151.000000
 20
189.850000
 40
2.000000
 50
270.000000
 51
0.000000
  0
LINE
  8
0
  6
CONTINUOUS
 62
1
 10
151.000000
 20
187.850000
 11
149.000000
 21
187.850000
  0
ARC
  8
0
  6
CONTINUOUS
 62
1
 10
149.000000
 20
189.850000
 40
2.000000
 50
180.000000
 51
270.000000
  0
ARC
  8
0
  6
CONTINUOUS
 62
1
 10
146.000000
 20
189.850000
 40
1.000000
 50
0.000000
 51
90.000000
  0
LINE
  8
0
  6
CONTINUOUS
 62
1
 10
183.000000
 20
124.150000
 11
203.750000
 21
124.150000
  0
ARC
  8
0
  6
CONTINUOUS
 62
1
 10
203.750000
 20
110.650000
 40
13.500000
 50
0.000000
 51
90.000000
  0
LINE
  8
0
  6
CONTINUOUS
 62
1
 10
217.250000
 20
110.650000
 11
217.250000
 21
56.650000
  0
ARC
  8
0
  6
CONTINUOUS
 62
1
 10
203.750000
 20
56.650000
 40
13.500000
 50
270.000000
 51
0.000000
  0
LINE
  8
0
  6
CONTINUOUS
 62
1
 10
203.750000
 20
43.150000
 11
154.250000
 21
43.150000
  0
ARC
  8
0
  6
CONTINUOUS
 62
1
 10
154.250000
 20
56.650000
 40
13.500000
 50
180.000000
 51
270.000000
  0
LINE
  8
0
  6
CONTINUOUS
 62
1
 10
140.750000
 20
56.650000
 11
140.750000
 21
110.650000
  0
ARC
  8
0
  6
CONTINUOUS
 62
1
 10
154.250000
 20
110.650000
 40
13.500000
 50
90.000000
 51
180.000000
  0
LINE
  8
0
  6
CONTINUOUS
 62
1
 10
154.250000
 20
124.150000
 11
175.000000
 21
124.150000
  0
ARC
  8
0
  6
CONTINUOUS
 62
1
 10
175.000000
 20
125.150000
 40
1.000000
 50
270.000000
 51
0.000000
  0
ARC
  8
0
  6
CONTINUOUS
 62
1
 10
178.000000
 20
125.150000
 40
2.000000
 50
90.000000
 51
180.000000
  0
LINE
  8
0
  6
CONTINUOUS
 62
1
 10
178.000000
 20
127.150000
 11
180.000000
 21
127.150000
  0
ARC
  8
0
  6
CONTINUOUS
 62
1
 10
180.000000
 20
125.150000
 40
2.000000
 50
0.000000
 51
90.000000
  0
ARC
  8
0
  6
CONTINUOUS
 62
1
 10
183.000000
 20
125.150000
 40
1.000000
 50
180.000000
 51
270.000000
  0
LINE
  8
0
  6
CONTINUOUS
 62
1
 10
159.689339
 20
163.250000
 11
170.310661
 21
163.250000
  0
ARC
  8
0
  6
CONTINUOUS
 62
1
 10
170.310661
 20
162.250000
 40
1.000000
 50
41.810315
 51
90.000000
  0
ARC
  8
0
  6
CONTINUOUS
 62
1
 10
165.000000
 20
157.500000
 40
8.125000
 50
138.189685
 51
41.810315
  0
ARC
  8
0
  6
CONTINUOUS
 62
1
 10
159.689339
 20
162.250000
 40
1.000000
 50
90.000000
 51
138.189685
  0
CIRCLE
  8
0
  6
CONTINUOUS
 62
1
 10
81.628381
 20
193.696278
 40
5.100000
  0
CIRCLE
  8
0
  6
CONTINUOUS
 62
1
 10
129.509905
 20
15.000000
 40
5.100000
  0
CIRCLE
  8
0
  6
CONTINUOUS
 62
1
 10
178.462433
 20
307.754167
 40
5.100000
  0
CIRCLE
  8
0
  6
CONTINUOUS
 62
1
 10
245.000000
 20
15.000000
 40
5.100000
  0
CIRCLE
  8
0
  6
CONTINUOUS
 62
1
 10
112.500000
 20
168.650000
 40
3.500000
  0
CIRCLE
  8
0
  6
CONTINUOUS
 62
1
 10
212.500000
 20
168.650000
 40
3.500000
  0
CIRCLE
  8
0
  6
CONTINUOUS
 62
1
 10
106.650000
 20
185.000000
 40
3.250000
  0
CIRCLE
  8
0
  6
CONTINUOUS
 62
1
 10
106.650000
 20
277.700000
 40
3.250000
  0
CIRCLE
  8
0
  6
CONTINUOUS
 62
1
 10
135.650000
 20
37.300000
 40
3.250000
  0
CIRCLE
  8
0
  6
CONTINUOUS
 62
1
 10
135.650000
 20
130.000000
 40
3.250000
  0
CIRCLE
  8
0
  6
CONTINUOUS
 62
1
 10
193.350000
 20
185.000000
 40
3.250000
  0
CIRCLE
  8
0
  6
CONTINUOUS
 62
1
 10
193.350000
 20
277.700000
 40
3.250000
  0
CIRCLE
  8
0
  6
CONTINUOUS
 62
1
 10
222.350000
 20
37.300000
 40
3.250000
  0
CIRCLE
  8
0
  6
CONTINUOUS
 62
1
 10
222.350000
 20
130.000000
 40
3.250000
  0
CIRCLE
  8
0
  6
CONTINUOUS
 62
8
 10
15.000000
 20
157.500000
 40
10.000000
  0
CIRCLE
  8
0
  6
CONTINUOUS
 62
8
 10
57.905036
 20
291.892267
 40
12.500000
  0
CIRCLE
  8
0
  6
CONTINUOUS
 62
8
 10
81.628381
 20
193.696278
 40
11.500000
  0
CIRCLE
  8
0
  6
CONTINUOUS
 62
8
 10
129.509905
 20
15.000000
 40
11.500000
  0
CIRCLE
  8
0
  6
CONTINUOUS
 62
8
 10
149.687227
 20
303.658060
 40
10.000000
  0
CIRCLE
  8
0
  6
CONTINUOUS
 62
8
 10
178.462433
 20
307.754167
 40
11.500000
  0
CIRCLE
  8
0
  6
CONTINUOUS
 62
8
 10
238.000000
 20
160.000000
 40
10.000000
  0
CIRCLE
  8
0
  6
CONTINUOUS
 62
8
 10
245.000000
 20
15.000000
 40
11.500000
  0
ARC
  8
0
  6
CONTINUOUS
 62
8
 10
195.490345
 20
11.154241
 40
1.610650
 50
129.000000
 51
141.000000
  0
ARC
  8
0
  6
CONTINUOUS
 62
8
 10
195.278165
 20
11.192123
 40
1.454536
 50
93.434949
 51
123.434949
  0
ARC
  8
0
  6
CONTINUOUS
 62
8
 10
195.786254
 20
10.065787
 40
2.646078
 50
77.000000
 51
103.000000
  0
ARC
  8
0
  6
CONTINUOUS
 62
8
 10
195.917263
 20
11.465531
 40
1.266652
 50
21.499998
 51
68.500000
  0
ARC
  8
0
  6
CONTINUOUS
 62
8
 10
194.765038
 20
10.841123
 40
2.572446
 50
3.036243
 51
25.036243
  0
ARC
  8
0
  6
CONTINUOUS
 62
8
 10
195.786254
 20
10.858332
 40
1.552191
 50
274.398706
 51
4.398705
  0
ARC
  8
0
  6
CONTINUOUS
 62
8
 10
195.939333
 20
10.803931
 40
1.493606
 50
191.694426
 51
268.694429
  0
LINE
  8
0
  6
CONTINUOUS
 62
8
 10
196.857683
 20
14.310713
 11
194.476730
 21
14.310713
  0
LINE
  8
0
  6
CONTINUOUS
 62
8
 10
194.476730
 20
14.310713
 11
194.238635
 21
12.167856
  0
ARC
  8
0
  6
CONTINUOUS
 62
8
 10
200.014155
 20
11.154241
 40
1.610650
 50
129.000000
 51
141.000000
  0
ARC
  8
0
  6
CONTINUOUS
 62
8
 10
199.801975
 20
11.192123
 40
1.454536
 50
93.434949
 51
123.434949
  0
ARC
  8
0
  6
CONTINUOUS
 62
8
 10
200.310064
 20
10.065787
 40
2.646078
 50
77.000000
 51
103.000000
  0
ARC
  8
0
  6
CONTINUOUS
 62
8
 10
200.441072
 20
11.465531
 40
1.266652
 50
21.499998
 51
68.500000
  0
ARC
  8
0
  6
CONTINUOUS
 62
8
 10
199.288848
 20
10.841123
 40
2.572446
 50
3.036243
 51
25.036243
  0
ARC
  8
0
  6
CONTINUOUS
 62
8
 10
200.310064
 20
10.858332
 40
1.552191
 50
274.398706
 51
4.398705
  0
ARC
  8
0
  6
CONTINUOUS
 62
8
 10
200.463143
 20
10.803931
 40
1.493606
 50
191.694426
 51
268.694429
  0
LINE
  8
0
  6
CONTINUOUS
 62
8
 10
201.381492
 20
14.310713
 11
199.000540
 21
14.310713
  0
LINE
  8
0
  6
CONTINUOUS
 62
8
 10
199.000540
 20
14.310713
 11
198.762445
 21
12.167856
  0
ARC
  8
0
  6
CONTINUOUS
 62
8
 10
204.595778
 20
12.763094
 40
1.552191
 50
94.398706
 51
184.398705
  0
ARC
  8
0
  6
CONTINUOUS
 62
8
 10
204.372502
 20
12.539818
 40
1.328438
 50
175.500001
 51
274.500000
  0
ARC
  8
0
  6
CONTINUOUS
 62
8
 10
204.433458
 20
12.736024
 40
1.521165
 50
271.630103
 51
14.630102
  0
ARC
  8
0
  6
CONTINUOUS
 62
8
 10
204.406748
 20
10.956461
 40
1.647236
 50
214.434950
 51
272.434949
  0
ARC
  8
0
  6
CONTINUOUS
 62
8
 10
204.442699
 20
10.803931
 40
1.493606
 50
271.305569
 51
348.305571
  0
ARC
  8
0
  6
CONTINUOUS
 62
8
 10
200.233131
 20
11.810713
 40
5.821372
 50
347.000000
 51
13.000000
  0
ARC
  8
0
  6
CONTINUOUS
 62
8
 10
204.442699
 20
12.817495
 40
1.493606
 50
11.694426
 51
88.694429
  0
LINE
  8
0
  6
CONTINUOUS
 62
8
 10
207.095778
 20
11.453570
 11
211.381492
 21
11.453570
  0
ARC
  8
0
  6
CONTINUOUS
 62
8
 10
213.959049
 20
12.908122
 40
1.403205
 50
88.305569
 51
171.305571
  0
ARC
  8
0
  6
CONTINUOUS
 62
8
 10
213.964530
 20
12.901490
 40
1.409683
 50
29.536243
 51
88.536243
  0
ARC
  8
0
  6
CONTINUOUS
 62
8
 10
213.075476
 20
12.763094
 40
2.273753
 50
338.500002
 51
21.500000
  0
ARC
  8
0
  6
CONTINUOUS
 62
8
 10
212.133263
 20
13.479028
 40
3.427840
 50
313.130102
 51
333.130102
  0
LINE
  8
0
  6
CONTINUOUS
 62
8
 10
214.476730
 20
10.977380
 11
212.810064
 21
9.310713
  0
LINE
  8
0
  6
CONTINUOUS
 62
8
 10
212.810064
 20
9.310713
 11
215.191016
 21
9.310713
  0
ARC
  8
0
  6
CONTINUOUS
 62
8
 10
215.995464
 20
15.103196
 40
1.555432
 50
284.369898
 51
329.369897
  0
LINE
  8
0
  6
CONTINUOUS
 62
8
 10
217.333873
 20
14.310713
 11
217.333873
 21
9.310713
  0
ARC
  8
0
  6
CONTINUOUS
 62
8
 10
220.071969
 20
12.763094
 40
1.552191
 50
94.398706
 51
184.398705
  0
ARC
  8
0
  6
CONTINUOUS
 62
8
 10
219.848693
 20
12.539818
 40
1.328438
 50
175.500001
 51
274.500000
  0
ARC
  8
0
  6
CONTINUOUS
 62
8
 10
219.909649
 20
12.736024
 40
1.521165
 50
271.630103
 51
14.630102
  0
ARC
  8
0
  6
CONTINUOUS
 62
8
 10
219.882938
 20
10.956461
 40
1.647236
 50
214.434950
 51
272.434949
  0
ARC
  8
0
  6
CONTINUOUS
 62
8
 10
219.918890
 20
10.803931
 40
1.493606
 50
271.305569
 51
348.305571
  0
ARC
  8
0
  6
CONTINUOUS
 62
8
 10
215.709322
 20
11.810713
 40
5.821372
 50
347.000000
 51
13.000000
  0
ARC
  8
0
  6
CONTINUOUS
 62
8
 10
219.918890
 20
12.817495
 40
1.493606
 50
11.694426
 51
88.694429
  0
ARC
  8
0
  6
CONTINUOUS
 62
8
 10
224.980600
 20
11.866072
 40
0.540589
 50
33.934948
 51
92.934949
  0
ARC
  8
0
  6
CONTINUOUS
 62
8
 10
222.622470
 20
10.987480
 40
3.044753
 50
359.809932
 51
22.809932
  0
ARC
  8
0
  6
CONTINUOUS
 62
8
 10
224.119588
 20
10.858332
 40
1.552191
 50
274.398706
 51
4.398705
  0
ARC
  8
0
  6
CONTINUOUS
 62
8
 10
224.272666
 20
10.803931
 40
1.493606
 50
191.694426
 51
268.694429
  0
LINE
  8
0
  6
CONTINUOUS
 62
8
 10
222.571969
 20
14.310713
 11
225.191016
 21
14.310713
  0
LINE
  8
0
  6
CONTINUOUS
 62
8
 10
225.191016
 20
14.310713
 11
223.762445
 21
12.405951
  0
LINE
  8
0
  6
CONTINUOUS
 62
8
 10
223.762445
 20
12.405951
 11
224.952921
 21
12.405951
  0
ENDBLK
  0
BLOCK
  2
5283647-00
  8
0
 70
0
 10
0.0
 20
0.0
 30
0.0
  0
LINE
  8
0
  6
CONTINUOUS
 62
1
 10
1195.000000
 20
117.208572
 11
1079.414214
 21
117.208572
  0
ARC
  8
0
  6
CONTINUOUS
 62
1
 10
1079.414214
 20
118.208572
 40
1.000000
 50
225.000000
 51
270.000000
  0
LINE
  8
0
  6
CONTINUOUS
 62
1
 10
1078.707107
 20
117.501466
 11
1050.292893
 21
145.915679
  0
ARC
  8
0
  6
CONTINUOUS
 62
1
 10
1049.585786
 20
145.208572
 40
1.000000
 50
45.000000
 51
90.000000
  0
LINE
  8
0
  6
CONTINUOUS
 62
1
 10
1049.585786
 20
146.208572
 11
1020.414214
 21
146.208572
  0
ARC
  8
0
  6
CONTINUOUS
 62
1
 10
1020.414214
 20
145.208572
 40
1.000000
 50
90.000000
 51
135.000000
  0
LINE
  8
0
  6
CONTINUOUS
 62
1
 10
1019.707107
 20
145.915679
 11
991.292893
 21
117.501466
  0
ARC
  8
0
  6
CONTINUOUS
 62
1
 10
990.585786
 20
118.208572
 40
1.000000
 50
270.000000
 51
315.000000
  0
LINE
  8
0
  6
CONTINUOUS
 62
1
 10
990.585786
 20
117.208572
 11
824.914214
 21
117.208572
  0
ARC
  8
0
  6
CONTINUOUS
 62
1
 10
824.914214
 20
118.208572
 40
1.000000
 50
225.000000
 51
270.000000
  0
LINE
  8
0
  6
CONTINUOUS
 62
1
 10
824.207107
 20
117.501466
 11
804.792893
 21
136.915679
  0
ARC
  8
0
  6
CONTINUOUS
 62
1
 10
804.085786
 20
136.208572
 40
1.000000
 50
45.000000
 51
90.000000
  0
LINE
  8
0
  6
CONTINUOUS
 62
1
 10
804.085786
 20
137.208572
 11
774.914214
 21
137.208572
  0
ARC
  8
0
  6
CONTINUOUS
 62
1
 10
774.914214
 20
136.208572
 40
1.000000
 50
90.000000
 51
135.000000
  0
LINE
  8
0
  6
CONTINUOUS
 62
1
 10
774.207107
 20
136.915679
 11
754.792893
 21
117.501466
  0
ARC
  8
0
  6
CONTINUOUS
 62
1
 10
754.085786
 20
118.208572
 40
1.000000
 50
270.000000
 51
315.000000
  0
LINE
  8
0
  6
CONTINUOUS
 62
1
 10
754.085786
 20
117.208572
 11
5.000000
 21
117.208572
  0
LINE
  8
0
  6
CONTINUOUS
 62
1
 10
5.000000
 20
117.208572
 11
0.000000
 21
112.208572
  0
LINE
  8
0
  6
CONTINUOUS
 62
1
 10
0.000000
 20
112.208572
 11
0.000000
 21
5.000000
  0
LINE
  8
0
  6
CONTINUOUS
 62
1
 10
0.000000
 20
5.000000
 11
5.000000
 21
0.000000
  0
LINE
  8
0
  6
CONTINUOUS
 62
1
 10
5.000000
 20
0.000000
 11
1195.000000
 21
0.000000
  0
LINE
  8
0
  6
CONTINUOUS
 62
1
 10
1195.000000
 20
0.000000
 11
1200.000000
 21
5.000000
  0
LINE
  8
0
  6
CONTINUOUS
 62
1
 10
1200.000000
 20
5.000000
 11
1200.000000
 21
112.208572
  0
LINE
  8
0
  6
CONTINUOUS
 62
1
 10
1200.000000
 20
112.208572
 11
1195.000000
 21
117.208572
  0
LINE
  8
0
  6
CONTINUOUS
 62
1
 10
41.000000
 20
44.000000
 11
29.000000
 21
44.000000
  0
ARC
  8
0
  6
CONTINUOUS
 62
1
 10
29.000000
 20
30.000000
 40
14.000000
 50
90.000000
 51
270.000000
  0
LINE
  8
0
  6
CONTINUOUS
 62
1
 10
29.000000
 20
16.000000
 11
41.000000
 21
16.000000
  0
ARC
  8
0
  6
CONTINUOUS
 62
1
 10
41.000000
 20
30.000000
 40
14.000000
 50
270.000000
 51
90.000000
  0
LINE
  8
0
  6
CONTINUOUS
 62
1
 10
347.250000
 20
37.750000
 11
337.750000
 21
37.750000
  0
ARC
  8
0
  6
CONTINUOUS
 62
1
 10
337.750000
 20
30.000000
 40
7.750000
 50
90.000000
 51
270.000000
  0
LINE
  8
0
  6
CONTINUOUS
 62
1
 10
337.750000
 20
22.250000
 11
347.250000
 21
22.250000
  0
ARC
  8
0
  6
CONTINUOUS
 62
1
 10
347.250000
 20
30.000000
 40
7.750000
 50
270.000000
 51
90.000000
  0
CIRCLE
  8
0
  6
CONTINUOUS
 62
1
 10
1115.000000
 20
30.000000
 40
9.000000
  0
CIRCLE
  8
0
  6
CONTINUOUS
 62
1
 10
165.000000
 20
30.000000
 40
8.375000
  0
CIRCLE
  8
0
  6
CONTINUOUS
 62
1
 10
273.000000
 20
88.208572
 40
8.375000
  0
CIRCLE
  8
0
  6
CONTINUOUS
 62
1
 10
640.000000
 20
30.000000
 40
8.375000
  0
CIRCLE
  8
0
  6
CONTINUOUS
 62
1
 10
1165.000000
 20
30.000000
 40
7.750000
  0
CIRCLE
  8
0
  6
CONTINUOUS
 62
1
 10
305.000000
 20
88.208572
 40
5.000000
  0
CIRCLE
  8
0
  6
CONTINUOUS
 62
1
 10
789.500000
 20
128.208572
 40
4.500000
  0
CIRCLE
  8
0
  6
CONTINUOUS
 62
1
 10
1035.000000
 20
137.208572
 40
3.450000
  0
LINE
  8
0
  6
DASHED
 62
3
 10
1200.000000
 20
60.104286
 11
0.000000
 21
60.104286
  0
ARC
  8
0
  6
CONTINUOUS
 62
8
 10
73.818437
 20
31.843528
 40
1.610650
 50
129.000000
 51
141.000000
  0
ARC
  8
0
  6
CONTINUOUS
 62
8
 10
73.606256
 20
31.881410
 40
1.454536
 50
93.434949
 51
123.434949
  0
ARC
  8
0
  6
CONTINUOUS
 62
8
 10
74.114346
 20
30.755074
 40
2.646078
 50
77.000000
 51
103.000000
  0
ARC
  8
0
  6
CONTINUOUS
 62
8
 10
74.245354
 20
32.154818
 40
1.266652
 50
21.499998
 51
68.500000
  0
ARC
  8
0
  6
CONTINUOUS
 62
8
 10
73.093129
 20
31.530410
 40
2.572446
 50
3.036243
 51
25.036243
  0
ARC
  8
0
  6
CONTINUOUS
 62
8
 10
74.114346
 20
31.547619
 40
1.552191
 50
274.398706
 51
4.398705
  0
ARC
  8
0
  6
CONTINUOUS
 62
8
 10
74.267424
 20
31.493218
 40
1.493606
 50
191.694426
 51
268.694429
  0
LINE
  8
0
  6
CONTINUOUS
 62
8
 10
72.566727
 20
32.857143
 11
72.804822
 21
35.000000
  0
LINE
  8
0
  6
CONTINUOUS
 62
8
 10
72.804822
 20
35.000000
 11
75.185774
 21
35.000000
  0
ARC
  8
0
  6
CONTINUOUS
 62
8
 10
78.239521
 20
33.597409
 40
1.403205
 50
88.305569
 51
171.305571
  0
ARC
  8
0
  6
CONTINUOUS
 62
8
 10
78.245003
 20
33.590777
 40
1.409683
 50
29.536243
 51
88.536243
  0
ARC
  8
0
  6
CONTINUOUS
 62
8
 10
77.355949
 20
33.452381
 40
2.273753
 50
338.500002
 51
21.500000
  0
ARC
  8
0
  6
CONTINUOUS
 62
8
 10
76.413735
 20
34.168315
 40
3.427840
 50
313.130102
 51
333.130102
  0
LINE
  8
0
  6
CONTINUOUS
 62
8
 10
78.757203
 20
31.666667
 11
77.090536
 21
30.000000
  0
LINE
  8
0
  6
CONTINUOUS
 62
8
 10
77.090536
 20
30.000000
 11
79.471489
 21
30.000000
  0
ARC
  8
0
  6
CONTINUOUS
 62
8
 10
81.614346
 20
31.190476
 40
0.858465
 50
123.690069
 51
213.690068
  0
ARC
  8
0
  6
CONTINUOUS
 62
8
 10
82.013065
 20
31.749820
 40
1.520234
 50
222.934948
 51
263.934949
  0
ARC
  8
0
  6
CONTINUOUS
 62
8
 10
82.447679
 20
32.384454
 40
2.227368
 50
254.500000
 51
285.500000
  0
ARC
  8
0
  6
CONTINUOUS
 62
8
 10
82.882293
 20
31.749820
 40
1.520234
 50
276.065050
 51
317.065051
  0
ARC
  8
0
  6
CONTINUOUS
 62
8
 10
83.281012
 20
31.190476
 40
0.858465
 50
326.309933
 51
56.309932
  0
LINE
  8
0
  6
CONTINUOUS
 62
8
 10
83.757203
 20
31.904762
 11
81.614346
 21
33.333333
  0
ARC
  8
0
  6
CONTINUOUS
 62
8
 10
81.911965
 20
34.047619
 40
0.773810
 50
112.619865
 51
247.380135
  0
ARC
  8
0
  6
CONTINUOUS
 62
8
 10
82.431812
 20
33.499983
 40
1.503561
 50
93.934949
 51
122.934949
  0
ARC
  8
0
  6
CONTINUOUS
 62
8
 10
82.225451
 20
33.499983
 40
1.503561
 50
57.065051
 51
86.065052
  0
ARC
  8
0
  6
CONTINUOUS
 62
8
 10
82.745298
 20
34.047619
 40
0.773810
 50
292.619864
 51
67.380136
  0
LINE
  8
0
  6
CONTINUOUS
 62
8
 10
83.042917
 20
33.333333
 11
81.138155
 21
31.904762
  0
LINE
  8
0
  6
CONTINUOUS
 62
8
 10
85.185774
 20
32.142857
 11
89.471489
 21
32.142857
  0
ARC
  8
0
  6
CONTINUOUS
 62
8
 10
93.070596
 20
32.555359
 40
0.540589
 50
33.934948
 51
92.934949
  0
ARC
  8
0
  6
CONTINUOUS
 62
8
 10
90.712467
 20
31.676767
 40
3.044753
 50
359.809932
 51
22.809932
  0
ARC
  8
0
  6
CONTINUOUS
 62
8
 10
92.209584
 20
31.547619
 40
1.552191
 50
274.398706
 51
4.398705
  0
ARC
  8
0
  6
CONTINUOUS
 62
8
 10
92.362663
 20
31.493218
 40
1.493606
 50
191.694426
 51
268.694429
  0
LINE
  8
0
  6
CONTINUOUS
 62
8
 10
90.661965
 20
35.000000
 11
93.281012
 21
35.000000
  0
LINE
  8
0
  6
CONTINUOUS
 62
8
 10
93.281012
 20
35.000000
 11
91.852441
 21
33.095238
  0
LINE
  8
0
  6
CONTINUOUS
 62
8
 10
91.852441
 20
33.095238
 11
93.042917
 21
33.095238
  0
ARC
  8
0
  6
CONTINUOUS
 62
8
 10
96.437484
 20
31.843528
 40
1.610650
 50
129.000000
 51
141.000000
  0
ARC
  8
0
  6
CONTINUOUS
 62
8
 10
96.225304
 20
31.881410
 40
1.454536
 50
93.434949
 51
123.434949
  0
ARC
  8
0
  6
CONTINUOUS
 62
8
 10
96.733393
 20
30.755074
 40
2.646078
 50
77.000000
 51
103.000000
  0
ARC
  8
0
  6
CONTINUOUS
 62
8
 10
96.864402
 20
32.154818
 40
1.266652
 50
21.499998
 51
68.500000
  0
ARC
  8
0
  6
CONTINUOUS
 62
8
 10
95.712177
 20
31.530410
 40
2.572446
 50
3.036243
 51
25.036243
  0
ARC
  8
0
  6
CONTINUOUS
 62
8
 10
96.733393
 20
31.547619
 40
1.552191
 50
274.398706
 51
4.398705
  0
ARC
  8
0
  6
CONTINUOUS
 62
8
 10
96.886472
 20
31.493218
 40
1.493606
 50
191.694426
 51
268.694429
  0
LINE
  8
0
  6
CONTINUOUS
 62
8
 10
97.804822
 20
35.000000
 11
95.423869
 21
35.000000
  0
LINE
  8
0
  6
CONTINUOUS
 62
8
 10
95.423869
 20
35.000000
 11
95.185774
 21
32.857143
  0
ARC
  8
0
  6
CONTINUOUS
 62
8
 10
105.143659
 20
32.500000
 40
5.821372
 50
167.000000
 51
193.000000
  0
ARC
  8
0
  6
CONTINUOUS
 62
8
 10
100.934091
 20
31.493218
 40
1.493606
 50
191.694429
 51
268.694431
  0
LINE
  8
0
  6
CONTINUOUS
 62
8
 10
100.900060
 20
30.000000
 11
101.138155
 21
30.000000
  0
ARC
  8
0
  6
CONTINUOUS
 62
8
 10
101.019108
 20
31.547619
 40
1.552191
 50
274.398705
 51
4.398704
  0
ARC
  8
0
  6
CONTINUOUS
 62
8
 10
100.900060
 20
31.666667
 40
1.666667
 50
0.000000
 51
89.999999
  0
ARC
  8
0
  6
CONTINUOUS
 62
8
 10
100.943332
 20
31.812784
 40
1.521165
 50
91.630102
 51
194.630102
  0
ARC
  8
0
  6
CONTINUOUS
 62
8
 10
100.934091
 20
33.506782
 40
1.493606
 50
91.305571
 51
168.305574
  0
ARC
  8
0
  6
CONTINUOUS
 62
8
 10
100.970043
 20
33.354252
 40
1.647236
 50
34.434949
 51
92.434948
  0
ARC
  8
0
  6
CONTINUOUS
 62
8
 10
103.371174
 20
35.792483
 40
1.555432
 50
284.369898
 51
329.369897
  0
LINE
  8
0
  6
CONTINUOUS
 62
8
 10
104.709584
 20
35.000000
 11
104.709584
 21
30.000000
  0
LINE
  8
0
  6
CONTINUOUS
 62
8
 10
105.900060
 20
28.333333
 11
110.185774
 21
35.952381
  0
ARC
  8
0
  6
CONTINUOUS
 62
8
 10
113.042917
 20
31.666667
 40
1.666667
 50
180.000001
 51
0.000000
  0
LINE
  8
0
  6
CONTINUOUS
 62
8
 10
114.709584
 20
31.666667
 11
114.709584
 21
33.333333
  0
ARC
  8
0
  6
CONTINUOUS
 62
8
 10
113.042917
 20
33.333333
 40
1.666667
 50
0.000001
 51
180.000000
  0
LINE
  8
0
  6
CONTINUOUS
 62
8
 10
111.376250
 20
33.333333
 11
111.376250
 21
31.666667
  0
ARC
  8
0
  6
CONTINUOUS
 62
8
 10
117.566727
 20
31.666667
 40
1.666667
 50
180.000001
 51
0.000000
  0
LINE
  8
0
  6
CONTINUOUS
 62
8
 10
119.233393
 20
31.666667
 11
119.233393
 21
33.333333
  0
ARC
  8
0
  6
CONTINUOUS
 62
8
 10
117.566727
 20
33.333333
 40
1.666667
 50
0.000001
 51
180.000000
  0
LINE
  8
0
  6
CONTINUOUS
 62
8
 10
115.900060
 20
33.333333
 11
115.900060
 21
31.666667
  0
INSERT
  2
TDATUM
  8
0
 10
600.000000
 20
0.000000
 41
1.000000
 42
1.000000
 50
0.000000
  0
INSERT
  2
TDATUM
  8
0
 10
16.537398
 20
117.208572
 41
1.000000
 42
1.000000
 50
180.000000
  0
INSERT
  2
TDATUM
  8
0
 10
1182.653407
 20
117.208572
 41
1.000000
 42
1.000000
 50
180.000000
  0
ENDBLK
  0
BLOCK
  2
4232214C1-A
  8
0
 70
0
 10
0.0
 20
0.0
 30
0.0
  0
LINE
  8
0
  6
CONTINUOUS
 62
1
 10
109.514601
 20
212.966369
 11
109.514601
 21
236.466369
  0
ARC
  8
0
  6
CONTINUOUS
 62
1
 10
99.514601
 20
236.466369
 40
10.000000
 50
0.000000
 51
90.000000
  0
LINE
  8
0
  6
CONTINUOUS
 62
1
 10
99.514601
 20
246.466369
 11
10.000000
 21
246.466369
  0
ARC
  8
0
  6
CONTINUOUS
 62
1
 10
10.000000
 20
236.466369
 40
10.000000
 50
90.000000
 51
180.000000
  0
LINE
  8
0
  6
CONTINUOUS
 62
1
 10
0.000000
 20
236.466369
 11
0.000000
 21
10.000000
  0
ARC
  8
0
  6
CONTINUOUS
 62
1
 10
10.000000
 20
10.000000
 40
10.000000
 50
180.000000
 51
270.000000
  0
LINE
  8
0
  6
CONTINUOUS
 62
1
 10
10.000000
 20
0.000000
 11
35.000000
 21
0.000000
  0
ARC
  8
0
  6
CONTINUOUS
 62
1
 10
35.000000
 20
10.000000
 40
10.000000
 50
270.000000
 51
0.000000
  0
LINE
  8
0
  6
CONTINUOUS
 62
1
 10
45.000000
 20
10.000000
 11
45.000000
 21
202.966369
  0
LINE
  8
0
  6
CONTINUOUS
 62
1
 10
45.000000
 20
202.966369
 11
99.514601
 21
202.966369
  0
ARC
  8
0
  6
CONTINUOUS
 62
1
 10
99.514601
 20
212.966369
 40
10.000000
 50
270.000000
 51
0.000000
  0
CIRCLE
  8
0
  6
CONTINUOUS
 62
1
 10
23.305494
 20
21.000046
 40
6.400000
  0
CIRCLE
  8
0
  6
CONTINUOUS
 62
1
 10
81.455894
 20
224.837649
 40
5.400000
  0
CIRCLE
  8
0
  6
CONTINUOUS
 62
1
 10
21.804007
 20
229.826065
 40
3.400000
  0
LINE
  8
0
  6
DASHED
 62
3
 10
0.000000
 20
97.237301
 11
45.000000
 21
97.237301
  0
LINE
  8
0
  6
DASHED
 62
3
 10
0.000000
 20
147.990485
 11
45.000000
 21
147.990485
  0
LINE
  8
0
  6
DASHED
 62
3
 10
50.257301
 20
202.966369
 11
50.257301
 21
246.466369
  0
INSERT
  2
TDATUM
  8
0
 10
20.145410
 20
246.466369
 41
1.000000
 42
1.000000
 50
180.000000
  0
INSERT
  2
TDATUM
  8
0
 10
45.000000
 20
31.527327
 41
1.000000
 42
1.000000
 50
90.000000
  0
ENDBLK
  0
BLOCK
  2
5256179-00
  8
0
 70
0
 10
0.0
 20
0.0
 30
0.0
  0
ARC
  8
0
  6
CONTINUOUS
 62
1
 10
200.000000
 20
50.000000
 40
10.000000
 50
90.000000
 51
180.000000
  0
LINE
  8
0
  6
CONTINUOUS
 62
1
 10
0.000000
 20
30.000000
 11
30.000000
 21
0.000000
  0
LINE
  8
0
  6
CONTINUOUS
 62
1
 10
30.000000
 20
0.000000
 11
180.000000
 21
0.000000
  0
LINE
  8
0
  6
CONTINUOUS
 62
1
 10
180.000000
 20
0.000000
 11
190.000000
 21
10.000000
  0
LINE
  8
0
  6
CONTINUOUS
 62
1
 10
190.000000
 20
10.000000
 11
190.000000
 21
50.000000
  0
LINE
  8
0
  6
CONTINUOUS
 62
1
 10
200.000000
 20
60.000000
 11
210.000000
 21
60.000000
  0
LINE
  8
0
  6
CONTINUOUS
 62
1
 10
210.000000
 20
60.000000
 11
220.000000
 21
70.000000
  0
LINE
  8
0
  6
CONTINUOUS
 62
1
 10
220.000000
 20
70.000000
 11
220.000000
 21
165.000000
  0
LINE
  8
0
  6
CONTINUOUS
 62
1
 10
220.000000
 20
165.000000
 11
180.000000
 21
235.000000
  0
LINE
  8
0
  6
CONTINUOUS
 62
1
 10
180.000000
 20
235.000000
 11
30.000000
 21
235.000000
  0
LINE
  8
0
  6
CONTINUOUS
 62
1
 10
30.000000
 20
235.000000
 11
0.000000
 21
205.000000
  0
LINE
  8
0
  6
CONTINUOUS
 62
1
 10
0.000000
 20
205.000000
 11
0.000000
 21
30.000000
  0
LINE
  8
0
  6
CONTINUOUS
 62
8
 10
11.255000
 20
161.700000
 11
14.955000
 21
155.290000
  0
LINE
  8
0
  6
CONTINUOUS
 62
8
 10
14.955000
 20
155.290000
 11
22.245000
 21
155.290000
  0
LINE
  8
0
  6
CONTINUOUS
 62
8
 10
22.245000
 20
155.290000
 11
25.945000
 21
161.700000
  0
LINE
  8
0
  6
CONTINUOUS
 62
8
 10
25.945000
 20
161.700000
 11
22.245000
 21
168.110000
  0
LINE
  8
0
  6
CONTINUOUS
 62
8
 10
22.245000
 20
168.110000
 11
14.955000
 21
168.110000
  0
LINE
  8
0
  6
CONTINUOUS
 62
8
 10
14.955000
 20
168.110000
 11
11.255000
 21
161.700000
  0
CIRCLE
  8
0
  6
CONTINUOUS
 62
1
 10
18.600000
 20
161.700000
 40
4.750000
  0
CIRCLE
  8
0
  6
CONTINUOUS
 62
1
 10
40.000000
 20
15.000000
 40
6.750000
  0
CIRCLE
  8
0
  6
CONTINUOUS
 62
1
 10
40.000000
 20
221.000000
 40
6.750000
  0
LINE
  8
0
  6
CONTINUOUS
 62
8
 10
77.055000
 20
217.000000
 11
80.755000
 21
210.590000
  0
LINE
  8
0
  6
CONTINUOUS
 62
8
 10
80.755000
 20
210.590000
 11
88.045000
 21
210.590000
  0
LINE
  8
0
  6
CONTINUOUS
 62
8
 10
88.045000
 20
210.590000
 11
91.745000
 21
217.000000
  0
LINE
  8
0
  6
CONTINUOUS
 62
8
 10
91.745000
 20
217.000000
 11
88.045000
 21
223.410000
  0
LINE
  8
0
  6
CONTINUOUS
 62
8
 10
88.045000
 20
223.410000
 11
80.755000
 21
223.410000
  0
LINE
  8
0
  6
CONTINUOUS
 62
8
 10
80.755000
 20
223.410000
 11
77.055000
 21
217.000000
  0
CIRCLE
  8
0
  6
CONTINUOUS
 62
1
 10
84.400000
 20
217.000000
 40
4.750000
  0
LINE
  8
0
  6
CONTINUOUS
 62
8
 10
131.255000
 20
18.700000
 11
134.955000
 21
12.290000
  0
LINE
  8
0
  6
CONTINUOUS
 62
8
 10
134.955000
 20
12.290000
 11
142.245000
 21
12.290000
  0
LINE
  8
0
  6
CONTINUOUS
 62
8
 10
142.245000
 20
12.290000
 11
145.945000
 21
18.700000
  0
LINE
  8
0
  6
CONTINUOUS
 62
8
 10
145.945000
 20
18.700000
 11
142.245000
 21
25.110000
  0
LINE
  8
0
  6
CONTINUOUS
 62
8
 10
142.245000
 20
25.110000
 11
134.955000
 21
25.110000
  0
LINE
  8
0
  6
CONTINUOUS
 62
8
 10
134.955000
 20
25.110000
 11
131.255000
 21
18.700000
  0
CIRCLE
  8
0
  6
CONTINUOUS
 62
1
 10
138.600000
 20
18.700000
 40
4.750000
  0
CIRCLE
  8
0
  6
CONTINUOUS
 62
1
 10
170.000000
 20
15.000000
 40
6.750000
  0
CIRCLE
  8
0
  6
CONTINUOUS
 62
1
 10
170.000000
 20
221.000000
 40
6.750000
  0
LINE
  8
0
  6
CONTINUOUS
 62
8
 10
197.155000
 20
74.000000
 11
200.855000
 21
67.590000
  0
LINE
  8
0
  6
CONTINUOUS
 62
8
 10
200.855000
 20
67.590000
 11
208.145000
 21
67.590000
  0
LINE
  8
0
  6
CONTINUOUS
 62
8
 10
208.145000
 20
67.590000
 11
211.845000
 21
74.000000
  0
LINE
  8
0
  6
CONTINUOUS
 62
8
 10
211.845000
 20
74.000000
 11
208.145000
 21
80.410000
  0
LINE
  8
0
  6
CONTINUOUS
 62
8
 10
208.145000
 20
80.410000
 11
200.855000
 21
80.410000
  0
LINE
  8
0
  6
CONTINUOUS
 62
8
 10
200.855000
 20
80.410000
 11
197.155000
 21
74.000000
  0
CIRCLE
  8
0
  6
CONTINUOUS
 62
1
 10
204.500000
 20
74.000000
 40
4.750000
  0
ARC
  8
0
  6
CONTINUOUS
 62
8
 10
66.442796
 20
28.134718
 40
1.932780
 50
129.000000
 51
141.000000
  0
ARC
  8
0
  6
CONTINUOUS
 62
8
 10
66.188180
 20
28.180177
 40
1.745443
 50
93.434949
 51
123.434949
  0
ARC
  8
0
  6
CONTINUOUS
 62
8
 10
66.797887
 20
26.828573
 40
3.175294
 50
77.000000
 51
103.000000
  0
ARC
  8
0
  6
CONTINUOUS
 62
8
 10
66.955097
 20
28.508266
 40
1.519982
 50
21.499998
 51
68.500000
  0
ARC
  8
0
  6
CONTINUOUS
 62
8
 10
65.572427
 20
27.758976
 40
3.086936
 50
3.036243
 51
25.036243
  0
ARC
  8
0
  6
CONTINUOUS
 62
8
 10
66.797887
 20
27.779627
 40
1.862629
 50
274.398706
 51
4.398705
  0
ARC
  8
0
  6
CONTINUOUS
 62
8
 10
66.981581
 20
27.714346
 40
1.792327
 50
191.694426
 51
268.694429
  0
LINE
  8
0
  6
CONTINUOUS
 62
8
 10
68.083601
 20
31.922484
 11
65.226458
 21
31.922484
  0
LINE
  8
0
  6
CONTINUOUS
 62
8
 10
65.226458
 20
31.922484
 11
64.940744
 21
29.351055
  0
ARC
  8
0
  6
CONTINUOUS
 62
8
 10
71.748097
 20
30.239375
 40
1.683846
 50
88.305569
 51
171.305571
  0
ARC
  8
0
  6
CONTINUOUS
 62
8
 10
71.754675
 20
30.231417
 40
1.691619
 50
29.536243
 51
88.536243
  0
ARC
  8
0
  6
CONTINUOUS
 62
8
 10
70.687810
 20
30.065341
 40
2.728504
 50
338.500002
 51
21.500000
  0
ARC
  8
0
  6
CONTINUOUS
 62
8
 10
69.557154
 20
30.924462
 40
4.113407
 50
313.130102
 51
333.130102
  0
LINE
  8
0
  6
CONTINUOUS
 62
8
 10
72.369315
 20
27.922484
 11
70.369315
 21
25.922484
  0
LINE
  8
0
  6
CONTINUOUS
 62
8
 10
70.369315
 20
25.922484
 11
73.226458
 21
25.922484
  0
ARC
  8
0
  6
CONTINUOUS
 62
8
 10
76.442796
 20
28.134718
 40
1.932780
 50
129.000000
 51
141.000000
  0
ARC
  8
0
  6
CONTINUOUS
 62
8
 10
76.188180
 20
28.180177
 40
1.745443
 50
93.434949
 51
123.434949
  0
ARC
  8
0
  6
CONTINUOUS
 62
8
 10
76.797887
 20
26.828573
 40
3.175294
 50
77.000000
 51
103.000000
  0
ARC
  8
0
  6
CONTINUOUS
 62
8
 10
76.955097
 20
28.508266
 40
1.519982
 50
21.499998
 51
68.500000
  0
ARC
  8
0
  6
CONTINUOUS
 62
8
 10
75.572427
 20
27.758976
 40
3.086936
 50
3.036243
 51
25.036243
  0
ARC
  8
0
  6
CONTINUOUS
 62
8
 10
76.797887
 20
27.779627
 40
1.862629
 50
274.398706
 51
4.398705
  0
ARC
  8
0
  6
CONTINUOUS
 62
8
 10
76.981581
 20
27.714346
 40
1.792327
 50
191.694426
 51
268.694429
  0
LINE
  8
0
  6
CONTINUOUS
 62
8
 10
78.083601
 20
31.922484
 11
75.226458
 21
31.922484
  0
LINE
  8
0
  6
CONTINUOUS
 62
8
 10
75.226458
 20
31.922484
 11
74.940744
 21
29.351055
  0
LINE
  8
0
  6
CONTINUOUS
 62
8
 10
80.083601
 20
28.493913
 11
85.226458
 21
28.493913
  0
ARC
  8
0
  6
CONTINUOUS
 62
8
 10
93.461635
 20
28.922484
 40
6.985646
 50
167.000000
 51
193.000000
  0
ARC
  8
0
  6
CONTINUOUS
 62
8
 10
88.410153
 20
27.714346
 40
1.792327
 50
191.694429
 51
268.694431
  0
LINE
  8
0
  6
CONTINUOUS
 62
8
 10
88.369315
 20
25.922484
 11
88.655030
 21
25.922484
  0
ARC
  8
0
  6
CONTINUOUS
 62
8
 10
88.512173
 20
27.779627
 40
1.862629
 50
274.398705
 51
4.398704
  0
ARC
  8
0
  6
CONTINUOUS
 62
8
 10
88.369315
 20
27.922484
 40
2.000000
 50
0.000000
 51
89.999999
  0
ARC
  8
0
  6
CONTINUOUS
 62
8
 10
88.421242
 20
28.097825
 40
1.825398
 50
91.630102
 51
194.630102
  0
ARC
  8
0
  6
CONTINUOUS
 62
8
 10
88.410153
 20
30.130622
 40
1.792327
 50
91.305571
 51
168.305574
  0
ARC
  8
0
  6
CONTINUOUS
 62
8
 10
88.453295
 20
29.947586
 40
1.976683
 50
34.434949
 51
92.434948
  0
ARC
  8
0
  6
CONTINUOUS
 62
8
 10
91.334652
 20
32.873463
 40
1.866519
 50
284.369898
 51
329.369897
  0
LINE
  8
0
  6
CONTINUOUS
 62
8
 10
92.940744
 20
31.922484
 11
92.940744
 21
25.922484
  0
LINE
  8
0
  6
CONTINUOUS
 62
8
 10
94.369315
 20
31.922484
 11
98.369315
 21
31.922484
  0
LINE
  8
0
  6
CONTINUOUS
 62
8
 10
98.369315
 20
31.922484
 11
95.512173
 21
25.922484
  0
ARC
  8
0
  6
CONTINUOUS
 62
8
 10
100.940744
 20
27.351055
 40
1.030158
 50
123.690069
 51
213.690068
  0
ARC
  8
0
  6
CONTINUOUS
 62
8
 10
101.419207
 20
28.022268
 40
1.824281
 50
222.934948
 51
263.934949
  0
ARC
  8
0
  6
CONTINUOUS
 62
8
 10
101.940744
 20
28.783829
 40
2.672841
 50
254.500000
 51
285.500000
  0
ARC
  8
0
  6
CONTINUOUS
 62
8
 10
102.462281
 20
28.022268
 40
1.824281
 50
276.065050
 51
317.065051
  0
ARC
  8
0
  6
CONTINUOUS
 62
8
 10
102.940744
 20
27.351055
 40
1.030158
 50
326.309933
 51
56.309932
  0
LINE
  8
0
  6
CONTINUOUS
 62
8
 10
103.512173
 20
28.208198
 11
100.940744
 21
29.922484
  0
ARC
  8
0
  6
CONTINUOUS
 62
8
 10
101.514611
 20
30.924110
 40
1.154373
 50
187.190068
 51
240.190067
  0
ARC
  8
0
  6
CONTINUOUS
 62
8
 10
101.382600
 20
30.723152
 40
1.014857
 50
115.809932
 51
176.809934
  0
ARC
  8
0
  6
CONTINUOUS
 62
8
 10
101.921703
 20
30.122464
 40
1.804273
 50
93.934949
 51
122.934949
  0
ARC
  8
0
  6
CONTINUOUS
 62
8
 10
101.674071
 20
30.122464
 40
1.804273
 50
57.065051
 51
86.065052
  0
ARC
  8
0
  6
CONTINUOUS
 62
8
 10
102.213174
 20
30.723152
 40
1.014857
 50
3.190068
 51
64.190069
  0
ARC
  8
0
  6
CONTINUOUS
 62
8
 10
102.081163
 20
30.924110
 40
1.154373
 50
299.809932
 51
352.809932
  0
LINE
  8
0
  6
CONTINUOUS
 62
8
 10
102.655030
 20
29.922484
 11
100.369315
 21
28.208198
  0
LINE
  8
0
  6
CONTINUOUS
 62
8
 10
105.226458
 20
28.493913
 11
110.369315
 21
28.493913
  0
ARC
  8
0
  6
CONTINUOUS
 62
8
 10
113.797887
 20
27.922484
 40
2.000000
 50
180.000001
 51
0.000000
  0
LINE
  8
0
  6
CONTINUOUS
 62
8
 10
115.797887
 20
27.922484
 11
115.797887
 21
29.922484
  0
ARC
  8
0
  6
CONTINUOUS
 62
8
 10
113.797887
 20
29.922484
 40
2.000000
 50
0.000001
 51
180.000000
  0
LINE
  8
0
  6
CONTINUOUS
 62
8
 10
111.797887
 20
29.922484
 11
111.797887
 21
27.922484
  0
ARC
  8
0
  6
CONTINUOUS
 62
8
 10
119.226458
 20
27.922484
 40
2.000000
 50
180.000001
 51
0.000000
  0
LINE
  8
0
  6
CONTINUOUS
 62
8
 10
121.226458
 20
27.922484
 11
121.226458
 21
29.922484
  0
ARC
  8
0
  6
CONTINUOUS
 62
8
 10
119.226458
 20
29.922484
 40
2.000000
 50
0.000001
 51
180.000000
  0
LINE
  8
0
  6
CONTINUOUS
 62
8
 10
117.226458
 20
29.922484
 11
117.226458
 21
27.922484
  0
ENDBLK
  0
BLOCK
  2
5555664-01
  8
0
 70
0
 10
0.0
 20
0.0
 30
0.0
  0
ARC
  8
0
  6
CONTINUOUS
 62
1
 10
959.333199
 20
953.115173
 40
12.515852
 50
255.329709
 51
270.596837
  0
LINE
  8
0
  6
CONTINUOUS
 62
1
 10
959.463571
 20
940.600000
 11
1030.745287
 21
940.600000
  0
LINE
  8
0
  6
CONTINUOUS
 62
1
 10
1030.745287
 20
940.600000
 11
1035.745287
 21
935.600000
  0
LINE
  8
0
  6
CONTINUOUS
 62
1
 10
1035.745287
 20
935.600000
 11
1035.745287
 21
5.000000
  0
LINE
  8
0
  6
CONTINUOUS
 62
1
 10
1035.745287
 20
5.000000
 11
1030.745287
 21
0.000000
  0
LINE
  8
0
  6
CONTINUOUS
 62
1
 10
1030.745287
 20
0.000000
 11
207.000000
 21
0.000000
  0
LINE
  8
0
  6
CONTINUOUS
 62
1
 10
207.000000
 20
0.000000
 11
202.000000
 21
5.000000
  0
LINE
  8
0
  6
CONTINUOUS
 62
1
 10
202.000000
 20
5.000000
 11
202.000000
 21
68.600000
  0
ARC
  8
0
  6
CONTINUOUS
 62
1
 10
192.000000
 20
68.600000
 40
10.000000
 50
0.000000
 51
90.000000
  0
LINE
  8
0
  6
CONTINUOUS
 62
1
 10
192.000000
 20
78.600000
 11
5.000000
 21
78.600000
  0
LINE
  8
0
  6
CONTINUOUS
 62
1
 10
5.000000
 20
78.600000
 11
0.000000
 21
83.600000
  0
LINE
  8
0
  6
CONTINUOUS
 62
1
 10
0.000000
 20
83.600000
 11
0.000000
 21
173.100000
  0
LINE
  8
0
  6
CONTINUOUS
 62
1
 10
0.000000
 20
173.100000
 11
5.000000
 21
178.100000
  0
LINE
  8
0
  6
CONTINUOUS
 62
1
 10
5.000000
 20
178.100000
 11
84.000000
 21
178.100000
  0
ARC
  8
0
  6
CONTINUOUS
 62
1
 10
84.000000
 20
200.600000
 40
22.500000
 50
270.000000
 51
90.000000
  0
LINE
  8
0
  6
CONTINUOUS
 62
1
 10
84.000000
 20
223.100000
 11
5.000000
 21
223.100000
  0
LINE
  8
0
  6
CONTINUOUS
 62
1
 10
5.000000
 20
223.100000
 11
0.000000
 21
228.100000
  0
LINE
  8
0
  6
CONTINUOUS
 62
1
 10
0.000000
 20
228.100000
 11
0.000000
 21
482.700000
  0
LINE
  8
0
  6
CONTINUOUS
 62
1
 10
0.000000
 20
482.700000
 11
5.000000
 21
487.700000
  0
LINE
  8
0
  6
CONTINUOUS
 62
1
 10
5.000000
 20
487.700000
 11
29.000000
 21
487.700000
  0
ARC
  8
0
  6
CONTINUOUS
 62
1
 10
29.000000
 20
510.200000
 40
22.500000
 50
270.000000
 51
0.000000
  0
LINE
  8
0
  6
CONTINUOUS
 62
1
 10
51.500000
 20
510.200000
 11
51.500000
 21
590.200000
  0
ARC
  8
0
  6
CONTINUOUS
 62
1
 10
29.000000
 20
590.200000
 40
22.500000
 50
0.000000
 51
90.000000
  0
LINE
  8
0
  6
CONTINUOUS
 62
1
 10
29.000000
 20
612.700000
 11
5.000000
 21
612.700000
  0
LINE
  8
0
  6
CONTINUOUS
 62
1
 10
5.000000
 20
612.700000
 11
0.000000
 21
617.700000
  0
LINE
  8
0
  6
CONTINUOUS
 62
1
 10
0.000000
 20
617.700000
 11
0.000000
 21
914.639380
  0
LINE
  8
0
  6
CONTINUOUS
 62
1
 10
0.000000
 20
914.639380
 11
5.000000
 21
919.639380
  0
LINE
  8
0
  6
CONTINUOUS
 62
1
 10
5.000000
 20
919.639380
 11
587.000000
 21
919.639380
  0
LINE
  8
0
  6
CONTINUOUS
 62
1
 10
587.000000
 20
919.639380
 11
587.000000
 21
901.544953
  0
ARC
  8
0
  6
CONTINUOUS
 62
1
 10
588.522822
 20
901.522813
 40
1.522983
 50
179.167012
 51
269.140585
  0
LINE
  8
0
  6
CONTINUOUS
 62
1
 10
588.499979
 20
900.000001
 11
589.940000
 21
900.000000
  0
ARC
  8
0
  6
CONTINUOUS
 62
1
 10
589.940000
 20
905.000000
 40
5.000000
 50
270.000000
 51
0.000000
  0
LINE
  8
0
  6
CONTINUOUS
 62
1
 10
594.940000
 20
905.000000
 11
594.940000
 21
926.553637
  0
LINE
  8
0
  6
CONTINUOUS
 62
1
 10
594.940000
 20
926.553637
 11
594.922724
 21
933.298008
  0
LINE
  8
0
  6
CONTINUOUS
 62
1
 10
594.922724
 20
933.298008
 11
594.922724
 21
953.475478
  0
LINE
  8
0
  6
CONTINUOUS
 62
1
 10
594.922724
 20
953.475478
 11
812.679508
 21
972.792105
  0
LINE
  8
0
  6
CONTINUOUS
 62
1
 10
812.679508
 20
972.792105
 11
826.013937
 21
953.797497
  0
LINE
  8
0
  6
CONTINUOUS
 62
1
 10
826.013937
 20
953.797497
 11
826.607676
 21
947.104262
  0
ARC
  8
0
  6
CONTINUOUS
 62
1
 10
830.592031
 20
947.457704
 40
4.000000
 50
185.069288
 51
216.001657
  0
ARC
  8
0
  6
CONTINUOUS
 62
1
 10
830.064704
 20
947.039529
 40
3.327706
 50
215.513772
 51
7.219129
  0
LINE
  8
0
  6
CONTINUOUS
 62
1
 10
833.366031
 20
947.457704
 11
833.366031
 21
954.418065
  0
LINE
  8
0
  6
CONTINUOUS
 62
1
 10
833.366031
 20
954.418065
 11
844.969932
 21
974.516612
  0
LINE
  8
0
  6
CONTINUOUS
 62
1
 10
844.969932
 20
974.516612
 11
953.140231
 21
974.516612
  0
LINE
  8
0
  6
CONTINUOUS
 62
1
 10
953.140231
 20
974.516612
 11
953.140231
 21
945.600000
  0
ARC
  8
0
  6
CONTINUOUS
 62
1
 10
958.140231
 20
945.600000
 40
5.000000
 50
180.000000
 51
246.712181
  0
LINE
  8
0
  6
CONTINUOUS
 62
1
 10
735.500000
 20
590.200000
 11
735.500000
 21
510.200000
  0
ARC
  8
0
  6
CONTINUOUS
 62
1
 10
713.000000
 20
510.200000
 40
22.500000
 50
180.000000
 51
0.000000
  0
LINE
  8
0
  6
CONTINUOUS
 62
1
 10
690.500000
 20
510.200000
 11
690.500000
 21
590.200000
  0
ARC
  8
0
  6
CONTINUOUS
 62
1
 10
713.000000
 20
590.200000
 40
22.500000
 50
0.000000
 51
180.000000
  0
CIRCLE
  8
0
  6
CONTINUOUS
 62
1
 10
55.000000
 20
745.600000
 40
36.000000
  0
LINE
  8
0
  6
CONTINUOUS
 62
1
 10
83.000000
 20
824.600000
 11
33.000000
 21
824.600000
  0
ARC
  8
0
  6
CONTINUOUS
 62
1
 10
33.000000
 20
847.100000
 40
22.500000
 50
90.000000
 51
270.000000
  0
LINE
  8
0
  6
CONTINUOUS
 62
1
 10
33.000000
 20
869.600000
 11
83.000000
 21
869.600000
  0
ARC
  8
0
  6
CONTINUOUS
 62
1
 10
83.000000
 20
847.100000
 40
22.500000
 50
270.000000
 51
90.000000
  0
LINE
  8
0
  6
CONTINUOUS
 62
1
 10
593.000000
 20
223.100000
 11
643.000000
 21
223.100000
  0
ARC
  8
0
  6
CONTINUOUS
 62
1
 10
643.000000
 20
200.600000
 40
22.500000
 50
270.000000
 51
90.000000
  0
LINE
  8
0
  6
CONTINUOUS
 62
1
 10
643.000000
 20
178.100000
 11
593.000000
 21
178.100000
  0
ARC
  8
0
  6
CONTINUOUS
 62
1
 10
593.000000
 20
200.600000
 40
22.500000
 50
90.000000
 51
270.000000
  0
LINE
  8
0
  6
CONTINUOUS
 62
1
 10
626.000000
 20
869.600000
 11
676.000000
 21
869.600000
  0
ARC
  8
0
  6
CONTINUOUS
 62
1
 10
676.000000
 20
847.100000
 40
22.500000
 50
270.000000
 51
90.000000
  0
LINE
  8
0
  6
CONTINUOUS
 62
1
 10
676.000000
 20
824.600000
 11
626.000000
 21
824.600000
  0
ARC
  8
0
  6
CONTINUOUS
 62
1
 10
626.000000
 20
847.100000
 40
22.500000
 50
90.000000
 51
270.000000
  0
CIRCLE
  8
0
  6
CONTINUOUS
 62
1
 10
777.000000
 20
384.600000
 40
22.500000
  0
CIRCLE
  8
0
  6
CONTINUOUS
 62
1
 10
777.000000
 20
669.600000
 40
22.500000
  0
CIRCLE
  8
0
  6
CONTINUOUS
 62
1
 10
217.500000
 20
760.300000
 40
14.500000
  0
CIRCLE
  8
0
  6
CONTINUOUS
 62
1
 10
692.500000
 20
760.300000
 40
14.500000
  0
CIRCLE
  8
0
  6
CONTINUOUS
 62
1
 10
109.000000
 20
500.200000
 40
9.000000
  0
CIRCLE
  8
0
  6
CONTINUOUS
 62
1
 10
171.000000
 20
847.100000
 40
9.000000
  0
CIRCLE
  8
0
  6
CONTINUOUS
 62
1
 10
339.000000
 20
194.600000
 40
9.000000
  0
CIRCLE
  8
0
  6
CONTINUOUS
 62
1
 10
538.000000
 20
847.100000
 40
9.000000
  0
CIRCLE
  8
0
  6
CONTINUOUS
 62
1
 10
777.000000
 20
334.600000
 40
9.000000
  0
CIRCLE
  8
0
  6
CONTINUOUS
 62
1
 10
777.000000
 20
719.600000
 40
9.000000
  0
LINE
  8
0
  6
CONTINUOUS
 62
1
 10
106.750000
 20
775.750000
 11
113.250000
 21
775.750000
  0
ARC
  8
0
  6
CONTINUOUS
 62
1
 10
113.250000
 20
769.000000
 40
6.750000
 50
270.000000
 51
90.000000
  0
LINE
  8
0
  6
CONTINUOUS
 62
1
 10
113.250000
 20
762.250000
 11
106.750000
 21
762.250000
  0
ARC
  8
0
  6
CONTINUOUS
 62
1
 10
106.750000
 20
769.000000
 40
6.750000
 50
90.000000
 51
270.000000
  0
LINE
  8
0
  6
CONTINUOUS
 62
1
 10
234.250060
 20
840.350000
 11
227.750060
 21
840.350000
  0
ARC
  8
0
  6
CONTINUOUS
 62
1
 10
227.750060
 20
847.100000
 40
6.750000
 50
90.000000
 51
270.000000
  0
LINE
  8
0
  6
CONTINUOUS
 62
1
 10
227.750060
 20
853.850000
 11
234.250060
 21
853.850000
  0
ARC
  8
0
  6
CONTINUOUS
 62
1
 10
234.250060
 20
847.100000
 40
6.750000
 50
270.000000
 51
90.000000
  0
LINE
  8
0
  6
DASHED
 62
3
 10
587.000000
 20
904.319690
 11
0.000000
 21
904.319690
  0
LINE
  8
0
  6
CONTINUOUS
 62
8
 10
197.500000
 20
690.300000
 11
187.500000
 21
690.300000
  0
LINE
  8
0
  6
CONTINUOUS
 62
8
 10
187.500000
 20
690.300000
 11
187.500000
 21
700.300000
  0
LINE
  8
0
  6
CONTINUOUS
 62
8
 10
197.500000
 20
790.300000
 11
187.500000
 21
790.300000
  0
LINE
  8
0
  6
CONTINUOUS
 62
8
 10
187.500000
 20
790.300000
 11
187.500000
 21
780.300000
  0
LINE
  8
0
  6
CONTINUOUS
 62
8
 10
237.500000
 20
690.300000
 11
247.500000
 21
690.300000
  0
LINE
  8
0
  6
CONTINUOUS
 62
8
 10
247.500000
 20
690.300000
 11
247.500000
 21
700.300000
  0
LINE
  8
0
  6
CONTINUOUS
 62
8
 10
237.500000
 20
790.300000
 11
247.500000
 21
790.300000
  0
LINE
  8
0
  6
CONTINUOUS
 62
8
 10
247.500000
 20
790.300000
 11
247.500000
 21
780.300000
  0
LINE
  8
0
  6
DASHED
 62
3
 10
826.310807
 20
950.450879
 11
594.931362
 21
929.925822
  0
LINE
  8
0
  6
CONTINUOUS
 62
8
 10
672.500000
 20
690.300000
 11
662.500000
 21
690.300000
  0
LINE
  8
0
  6
CONTINUOUS
 62
8
 10
662.500000
 20
690.300000
 11
662.500000
 21
700.300000
  0
LINE
  8
0
  6
CONTINUOUS
 62
8
 10
672.500000
 20
790.300000
 11
662.500000
 21
790.300000
  0
LINE
  8
0
  6
CONTINUOUS
 62
8
 10
662.500000
 20
790.300000
 11
662.500000
 21
780.300000
  0
LINE
  8
0
  6
CONTINUOUS
 62
8
 10
712.500000
 20
690.300000
 11
722.500000
 21
690.300000
  0
LINE
  8
0
  6
CONTINUOUS
 62
8
 10
722.500000
 20
690.300000
 11
722.500000
 21
700.300000
  0
LINE
  8
0
  6
CONTINUOUS
 62
8
 10
712.500000
 20
790.300000
 11
722.500000
 21
790.300000
  0
LINE
  8
0
  6
CONTINUOUS
 62
8
 10
722.500000
 20
790.300000
 11
722.500000
 21
780.300000
  0
LINE
  8
0
  6
DASHED
 62
3
 10
829.306031
 20
0.000000
 11
829.306031
 21
943.799460
  0
LINE
  8
0
  6
DASHED
 62
3
 10
953.140231
 20
951.058306
 11
833.366031
 21
951.058306
  0
LINE
  8
0
  6
DASHED
 62
3
 10
958.113479
 20
940.658896
 11
958.113479
 21
0.000000
  0
ENDBLK
  0
BLOCK
  2
R176526-B
  8
0
 70
0
 10
0.0
 20
0.0
 30
0.0
  0
LINE
  8
0
  6
CONTINUOUS
 62
1
 10
0.000000
 20
0.000000
 11
56.000000
 21
0.000000
  0
LINE
  8
0
  6
CONTINUOUS
 62
1
 10
56.000000
 20
0.000000
 11
56.000000
 21
20.000000
  0
LINE
  8
0
  6
CONTINUOUS
 62
1
 10
56.000000
 20
20.000000
 11
0.000000
 21
20.000000
  0
LINE
  8
0
  6
CONTINUOUS
 62
1
 10
0.000000
 20
20.000000
 11
0.000000
 21
0.000000
  0
LINE
  8
0
  6
DASHED
 62
3
 10
25.500000
 20
20.000000
 11
25.500000
 21
0.000000
  0
ENDBLK
  0
ENDSEC
  0
SECTION
  2
ENTITIES
  0
LINE
  8
DUMMY-LAYOUT-SHEET
  6
CONTINUOUS
 62
1
 10
2801.696970
 20
685.733913
 11
5849.696970
 21
685.733913
  0
LINE
  8
DUMMY-LAYOUT-SHEET
  6
CONTINUOUS
 62
1
 10
5849.696970
 20
685.733913
 11
5849.696970
 21
1904.933913
  0
LINE
  8
DUMMY-LAYOUT-SHEET
  6
CONTINUOUS
 62
1
 10
5849.696970
 20
1904.933913
 11
2801.696970
 21
1904.933913
  0
LINE
  8
DUMMY-LAYOUT-SHEET
  6
CONTINUOUS
 62
1
 10
2801.696970
 20
1904.933913
 11
2801.696970
 21
685.733913
  0
INSERT
  2
MDATUM
  8
DUMMY-LAYOUT-MC-MC4
 10
2801.696970
 20
685.733913
 41
1.000000
 42
1.000000
 50
0.000000
  0
INSERT
  2
ODATUM
  8
DUMMY-LAYOUT
 10
2808.821970
 20
692.858913
 41
1.000000
 42
1.000000
 50
0.000000
  0
INSERT
  2
BASE14-32ITEM01-5
  8
DUMMY-LAYOUT
 10
4667.134206
 20
1451.808913
 41
1.000000
 42
1.000000
 50
0.000000
  0
INSERT
  2
4669349ITEM01-02
  8
DUMMY-LAYOUT
 10
5005.009158
 20
997.983913
 41
1.000000
 42
1.000000
 50
0.000000
  0
INSERT
  2
5651336-00
  8
DUMMY-LAYOUT
 10
5024.718058
 20
752.480713
 41
1.000000
 42
1.000000
 50
0.000000
  0
INSERT
  2
433-6158-01
  8
DUMMY-LAYOUT
 10
5590.702400
 20
745.355761
 41
1.000000
 42
1.000000
 50
180.000000
  0
INSERT
  2
6173573ITEM01-00
  8
DUMMY-LAYOUT
 10
5160.748338
 20
1599.371513
 41
1.000000
 42
1.000000
 50
0.000000
  0
INSERT
  2
87603496-A
  8
DUMMY-LAYOUT
 10
5121.153618
 20
798.255713
 41
1.000000
 42
1.000000
 50
0.000000
  0
INSERT
  2
470-8278-02
  8
DUMMY-LAYOUT
 10
3707.276139
 20
1818.027129
 41
1.000000
 42
1.000000
 50
-85.000000
  0
INSERT
  2
9Y9194-00
  8
DUMMY-LAYOUT
 10
4919.220546
 20
1508.933913
 41
1.000000
 42
1.000000
 50
0.000000
  0
INSERT
  2
5683207-01
  8
DUMMY-LAYOUT
 10
4910.639026
 20
1508.933913
 41
1.000000
 42
1.000000
 50
90.000000
  0
INSERT
  2
5901142ITEM-01
  8
DUMMY-LAYOUT
 10
4780.647278
 20
1766.058913
 41
1.000000
 42
1.000000
 50
0.000000
  0
INSERT
  2
BASE14-32ITEM03-5-
  8
DUMMY-LAYOUT
 10
4349.056578
 20
752.480713
 41
1.000000
 42
1.000000
 50
0.000000
  0
INSERT
  2
5592193ITEM02-02
  8
DUMMY-LAYOUT
 10
4455.069875
 20
1028.921514
 41
1.000000
 42
1.000000
 50
164.999927
  0
INSERT
  2
5283647-00
  8
DUMMY-LAYOUT
 10
4008.821970
 20
1897.808885
 41
1.000000
 42
1.000000
 50
180.000000
  0
INSERT
  2
4232214C1-A
  8
DUMMY-LAYOUT
 10
3985.764259
 20
1586.226513
 41
1.000000
 42
1.000000
 50
90.000000
  0
INSERT
  2
4232214C1-A
  8
DUMMY-LAYOUT
 10
3985.764259
 20
1469.586913
 41
1.000000
 42
1.000000
 50
90.000000
  0
INSERT
  2
4232214C1-A
  8
DUMMY-LAYOUT
 10
3984.444457
 20
1352.947313
 41
1.000000
 42
1.000000
 50
90.000000
  0
INSERT
  2
4232214C1-A
  8
DUMMY-LAYOUT
 10
3735.338418
 20
1769.488614
 41
1.000000
 42
1.000000
 50
-90.000000
  0
INSERT
  2
5256179-00
  8
DUMMY-LAYOUT
 10
3737.977890
 20
1345.822313
 41
1.000000
 42
1.000000
 50
-90.000000
  0
INSERT
  2
5555664-01
  8
DUMMY-LAYOUT
 10
2808.821970
 20
1728.604200
 41
1.000000
 42
1.000000
 50
-90.000000
  0
INSERT
  2
R176526-B
  8
DUMMY-LAYOUT
 10
3311.674914
 20
1003.794813
 41
1.000000
 42
1.000000
 50
0.000000
  0
ENDSEC
  0
EOF
