  0
SECTION
  2
HEADER
  9
$LIMMIN
 10
0.000000
 20
0.000000
  9
$LIMMAX
 10
4926.060606
 20
3483.250859
  9
$EXTMIN
 10
0.000000
 20
0.000000
  9
$EXTMAX
 10
4926.060606
 20
3483.250859
  9
$ANGBASE
 50
0.0
  9
$ANGDIR
 70
0
  9
$DIMRND
 40
0.100000
  9
$DIMSE1
 70
0
  9
$DIMSE2
 70
0
  9
$DIMTXT
 40
3.500000
  9
$LTSCALE
 40
1.000000
  9
$LUPREC
 70
1
  9
$AUPREC
 70
1
  9
$PDMODE
 70
2
  9
$PDSIZE
 40
24.630303
  0
ENDSEC
  0
SECTION
  2
TABLES
  0
TABLE
  2
VPORT
  70
1
  0
VPORT
  2
*ACTIVE
 70
0
  10
0.0
 20
0.0
 11
1.0
 21
1.0
 12
594.0
 22
420.0
 13
0.0
 23
0.0
 14
10.0
 24
10.0
 15
10.0
 25
10.0
 16
0.0
 26
0.0
 36
1.0
 17
594.0
 27
420.0
 37
100.0
 40
1000.0
 41
1.0
 42
50.0
 43
0.0
 44
0.0
 50
0.0
 51
0.0
 71
0
 72
2000
 73
1
 74
3
 75
0
 76
0
 77
0
 78
1
  0
ENDTAB
  0
TABLE
  2
LTYPE
 70
4
  0
LTYPE
  2
CONTINUOUS
 70
0
  3
Solid line
 72
65
 73
0
 40
0.0
  0
LTYPE
  2
DASHED
 70
0
  3
Dashed line
 72
65
 73
2
 40
35.148638
 49
17.574319
 49
-17.574319
  0
LTYPE
  2
CENTER
 70
0
  3
Chain line
 72
65
 73
4
 40
140.594552
 49
87.871595
 49
-17.574319
 49
17.574319
 49
-17.574319
  0
LTYPE
  2
RANDOM
 70
0
  3
Random line
 72
65
 73
4
 40
131.807392
 49
35.148638
 49
-17.574319
 49
26.361478
 49
-52.722957
  0
ENDTAB
  0
TABLE
  2
STYLE
 70
9
  0
STYLE
  2
STANDARD
 40
0
 41
1.0
 50
0.0
 71
0
 42
0
  3
simplex
  4

 70
0
  0
ENDTAB
  0
TABLE
  2
LAYER
 70
11
  0
LAYER
  2
0
 70
0
 62
7
  6
CONTINUOUS
  0
LAYER
  2
0
 62
1
  6
CONTINUOUS
 70
0
  0
LAYER
  2
DUMMY
 62
1
  6
CONTINUOUS
 70
0
  0
LAYER
  2
DUMMY-LAYOUT
 62
1
  6
CONTINUOUS
 70
0
  0
LAYER
  2
DUMMY-LAYOUT-SHEET
 62
1
  6
CONTINUOUS
 70
0
  0
LAYER
  2
DUMMY-LAYOUT-MC
 62
1
  6
CONTINUOUS
 70
0
  0
LAYER
  2
DUMMY-LAYOUT-MC-MC12
 62
1
  6
CONTINUOUS
 70
0
  0
LAYER
  2
DUMMY-HCNUPDAR
 62
1
  6
CONTINUOUS
 70
0
  0
LAYER
  2
DUMMY-HCNUPDAR-ORDER
 62
1
  6
CONTINUOUS
 70
0
  0
LAYER
  2
DUMMY-HCNUPDAR-ORDER-MC
 62
1
  6
CONTINUOUS
 70
0
  0
LAYER
  2
DUMMY-HCNUPDAR-ORDER-MC-MC12
 62
1
  6
CONTINUOUS
 70
0
  0
ENDTAB
  0
ENDSEC
  0
SECTION
  2
BLOCKS
  0
BLOCK
  2
MDATUM
  8
0
 70
0
 10
0.0
 20
0.0
 30
0.0
  0
TEXT
  8
0
  6
CONTINUOUS
 62
6
 10
0.000000
 20
0.000000
 40
6.000000
  1
m
 50
0.000000
 41
1.000000
 51
0.000000
  7
STANDARD
  0
ENDBLK
  0
BLOCK
  2
ODATUM
  8
0
 70
0
 10
0.0
 20
0.0
 30
0.0
  0
TEXT
  8
0
  6
CONTINUOUS
 62
6
 10
0.000000
 20
0.000000
 40
6.000000
  1
o
 50
0.000000
 41
1.000000
 51
0.000000
  7
STANDARD
  0
ENDBLK
  0
BLOCK
  2
368-8221-01
  8
0
 70
0
 10
0.0
 20
0.0
 30
0.0
  0
CIRCLE
  8
0
  6
CONTINUOUS
 62
1
 10
72.000000
 20
72.000000
 40
72.000000
  0
CIRCLE
  8
0
  6
CONTINUOUS
 62
1
 10
72.000000
 20
72.000000
 40
35.400000
  0
ENDBLK
  0
BLOCK
  2
5051896-02
  8
0
 70
0
 10
0.0
 20
0.0
 30
0.0
  0
LINE
  8
0
  6
CONTINUOUS
 62
1
 10
196.250000
 20
213.000000
 11
196.250000
 21
190.000000
  0
ARC
  8
0
  6
CONTINUOUS
 62
1
 10
186.250000
 20
190.000000
 40
10.000000
 50
270.000000
 51
0.000000
  0
LINE
  8
0
  6
CONTINUOUS
 62
1
 10
186.250000
 20
180.000000
 11
122.050000
 21
180.000000
  0
ARC
  8
0
  6
CONTINUOUS
 62
1
 10
122.050000
 20
150.000000
 40
30.000000
 50
90.000000
 51
180.000000
  0
LINE
  8
0
  6
CONTINUOUS
 62
1
 10
92.050000
 20
150.000000
 11
92.050000
 21
132.000000
  0
ARC
  8
0
  6
CONTINUOUS
 62
1
 10
122.050000
 20
132.000000
 40
30.000000
 50
180.000000
 51
270.000000
  0
LINE
  8
0
  6
CONTINUOUS
 62
1
 10
122.050000
 20
102.000000
 11
176.050000
 21
102.000000
  0
LINE
  8
0
  6
CONTINUOUS
 62
1
 10
176.050000
 20
102.000000
 11
176.050000
 21
0.000000
  0
LINE
  8
0
  6
CONTINUOUS
 62
1
 10
176.050000
 20
0.000000
 11
10.000000
 21
0.000000
  0
ARC
  8
0
  6
CONTINUOUS
 62
1
 10
10.000000
 20
10.000000
 40
10.000000
 50
180.000000
 51
270.000000
  0
LINE
  8
0
  6
CONTINUOUS
 62
1
 10
0.000000
 20
10.000000
 11
0.000000
 21
213.000000
  0
LINE
  8
0
  6
CONTINUOUS
 62
1
 10
0.000000
 20
213.000000
 11
196.250000
 21
213.000000
  0
CIRCLE
  8
0
  6
CONTINUOUS
 62
8
 10
19.150000
 20
176.800000
 40
12.500000
  0
CIRCLE
  8
0
  6
CONTINUOUS
 62
8
 10
30.150000
 20
104.800000
 40
10.000000
  0
ENDBLK
  0
BLOCK
  2
51475986-A
  8
0
 70
0
 10
0.0
 20
0.0
 30
0.0
  0
ARC
  8
0
  6
CONTINUOUS
 62
1
 10
4.000000
 20
4.000000
 40
4.000000
 50
180.000000
 51
270.000000
  0
LINE
  8
0
  6
CONTINUOUS
 62
1
 10
4.000000
 20
0.000000
 11
692.000000
 21
0.000000
  0
ARC
  8
0
  6
CONTINUOUS
 62
1
 10
692.000000
 20
4.000000
 40
4.000000
 50
270.000000
 51
0.000000
  0
LINE
  8
0
  6
CONTINUOUS
 62
1
 10
696.000000
 20
4.000000
 11
696.000000
 21
87.260474
  0
ARC
  8
0
  6
CONTINUOUS
 62
1
 10
692.000000
 20
87.260474
 40
4.000000
 50
0.000000
 51
83.010042
  0
LINE
  8
0
  6
CONTINUOUS
 62
1
 10
692.486782
 20
91.230744
 11
402.073949
 21
126.837289
  0
ARC
  8
0
  6
CONTINUOUS
 62
1
 10
402.560731
 20
130.807559
 40
4.000000
 50
175.914383
 51
263.010042
  0
LINE
  8
0
  6
CONTINUOUS
 62
1
 10
398.570896
 20
131.092547
 11
399.019588
 21
137.374235
  0
ARC
  8
0
  6
CONTINUOUS
 62
1
 10
395.029753
 20
137.659223
 40
4.000000
 50
355.914383
 51
84.986886
  0
ARC
  8
0
  6
CONTINUOUS
 62
1
 10
300.826427
 20
137.662796
 40
4.000000
 50
94.993744
 51
184.899092
  0
LINE
  8
0
  6
CONTINUOUS
 62
1
 10
296.841041
 20
137.321192
 11
297.370639
 21
131.142540
  0
ARC
  8
0
  6
CONTINUOUS
 62
1
 10
293.385253
 20
130.800936
 40
4.000000
 50
276.989958
 51
4.899092
  0
LINE
  8
0
  6
CONTINUOUS
 62
1
 10
293.872034
 20
126.830666
 11
3.513218
 21
91.230744
  0
ARC
  8
0
  6
CONTINUOUS
 62
1
 10
4.000000
 20
87.260474
 40
4.000000
 50
96.989958
 51
180.000000
  0
LINE
  8
0
  6
CONTINUOUS
 62
1
 10
0.000000
 20
87.260474
 11
0.000000
 21
4.000000
  0
LINE
  8
0
  6
CONTINUOUS
 62
1
 10
395.379288
 20
141.643922
 11
348.000000
 21
145.800000
  0
LINE
  8
0
  6
CONTINUOUS
 62
1
 10
348.000000
 20
145.800000
 11
300.478239
 21
141.647613
  0
CIRCLE
  8
0
  6
CONTINUOUS
 62
1
 10
348.000000
 20
77.500000
 40
56.100000
  0
ENDBLK
  0
BLOCK
  2
1001080115-B
  8
0
 70
0
 10
0.0
 20
0.0
 30
0.0
  0
LINE
  8
0
  6
CONTINUOUS
 62
1
 10
200.500000
 20
86.475000
 11
161.025167
 21
68.963485
  0
ARC
  8
0
  6
CONTINUOUS
 62
1
 10
168.750000
 20
51.550000
 40
19.050000
 50
113.922655
 51
246.077345
  0
LINE
  8
0
  6
CONTINUOUS
 62
1
 10
161.025167
 20
34.136515
 11
200.500000
 21
16.625000
  0
LINE
  8
0
  6
CONTINUOUS
 62
1
 10
200.500000
 20
16.625000
 11
200.500000
 21
10.000000
  0
LINE
  8
0
  6
CONTINUOUS
 62
1
 10
200.500000
 20
10.000000
 11
20.435000
 21
10.000000
  0
LINE
  8
0
  6
CONTINUOUS
 62
1
 10
20.435000
 20
10.000000
 11
10.000000
 21
20.435000
  0
LINE
  8
0
  6
CONTINUOUS
 62
1
 10
10.000000
 20
20.435000
 11
10.000000
 21
82.665000
  0
LINE
  8
0
  6
CONTINUOUS
 62
1
 10
10.000000
 20
82.665000
 11
20.435000
 21
93.100000
  0
LINE
  8
0
  6
CONTINUOUS
 62
1
 10
20.435000
 20
93.100000
 11
200.500000
 21
93.100000
  0
LINE
  8
0
  6
CONTINUOUS
 62
1
 10
200.500000
 20
93.100000
 11
200.500000
 21
86.475000
  0
ENDBLK
  0
BLOCK
  2
254-2987-00
  8
0
 70
0
 10
0.0
 20
0.0
 30
0.0
  0
LINE
  8
0
  6
CONTINUOUS
 62
1
 10
70.000000
 20
110.000000
 11
0.000000
 21
110.000000
  0
LINE
  8
0
  6
CONTINUOUS
 62
1
 10
0.000000
 20
110.000000
 11
0.000000
 21
0.000000
  0
LINE
  8
0
  6
CONTINUOUS
 62
1
 10
0.000000
 20
0.000000
 11
70.000000
 21
0.000000
  0
LINE
  8
0
  6
CONTINUOUS
 62
1
 10
70.000000
 20
0.000000
 11
70.000000
 21
110.000000
  0
LINE
  8
0
  6
CONTINUOUS
 62
8
 10
20.000000
 20
18.000000
 11
20.000000
 21
8.000000
  0
LINE
  8
0
  6
CONTINUOUS
 62
8
 10
20.000000
 20
8.000000
 11
8.000000
 21
8.000000
  0
LINE
  8
0
  6
CONTINUOUS
 62
8
 10
8.000000
 20
8.000000
 11
8.000000
 21
18.000000
  0
LINE
  8
0
  6
CONTINUOUS
 62
8
 10
20.000000
 20
91.000000
 11
20.000000
 21
101.000000
  0
LINE
  8
0
  6
CONTINUOUS
 62
8
 10
20.000000
 20
101.000000
 11
8.000000
 21
101.000000
  0
LINE
  8
0
  6
CONTINUOUS
 62
8
 10
8.000000
 20
101.000000
 11
8.000000
 21
91.000000
  0
LINE
  8
0
  6
CONTINUOUS
 62
8
 10
31.500000
 20
30.000000
 11
38.500000
 21
30.000000
  0
LINE
  8
0
  6
CONTINUOUS
 62
8
 10
31.500000
 20
80.000000
 11
38.500000
 21
80.000000
  0
LINE
  8
0
  6
CONTINUOUS
 62
8
 10
35.000000
 20
26.500000
 11
35.000000
 21
33.500000
  0
LINE
  8
0
  6
CONTINUOUS
 62
8
 10
35.000000
 20
76.500000
 11
35.000000
 21
83.500000
  0
LINE
  8
0
  6
CONTINUOUS
 62
8
 10
62.000000
 20
18.000000
 11
62.000000
 21
8.000000
  0
LINE
  8
0
  6
CONTINUOUS
 62
8
 10
62.000000
 20
8.000000
 11
50.000000
 21
8.000000
  0
LINE
  8
0
  6
CONTINUOUS
 62
8
 10
50.000000
 20
8.000000
 11
50.000000
 21
18.000000
  0
LINE
  8
0
  6
CONTINUOUS
 62
8
 10
62.000000
 20
91.000000
 11
62.000000
 21
101.000000
  0
LINE
  8
0
  6
CONTINUOUS
 62
8
 10
62.000000
 20
101.000000
 11
50.000000
 21
101.000000
  0
LINE
  8
0
  6
CONTINUOUS
 62
8
 10
50.000000
 20
101.000000
 11
50.000000
 21
91.000000
  0
ENDBLK
  0
BLOCK
  2
5095732-01
  8
0
 70
0
 10
0.0
 20
0.0
 30
0.0
  0
LINE
  8
0
  6
CONTINUOUS
 62
1
 10
0.000000
 20
26.891224
 11
0.000000
 21
0.000000
  0
LINE
  8
0
  6
CONTINUOUS
 62
1
 10
0.000000
 20
0.000000
 11
894.300000
 21
0.000000
  0
LINE
  8
0
  6
CONTINUOUS
 62
1
 10
894.300000
 20
0.000000
 11
894.300000
 21
26.891224
  0
ARC
  8
0
  6
CONTINUOUS
 62
1
 10
844.300000
 20
26.891224
 40
50.000000
 50
0.000000
 51
68.757958
  0
LINE
  8
0
  6
CONTINUOUS
 62
1
 10
862.415429
 20
73.494133
 11
665.600000
 21
150.000000
  0
LINE
  8
0
  6
CONTINUOUS
 62
1
 10
665.600000
 20
150.000000
 11
228.700000
 21
150.000000
  0
LINE
  8
0
  6
CONTINUOUS
 62
1
 10
228.700000
 20
150.000000
 11
31.884571
 21
73.494133
  0
ARC
  8
0
  6
CONTINUOUS
 62
1
 10
50.000000
 20
26.891224
 40
50.000000
 50
111.242042
 51
180.000000
  0
LINE
  8
0
  6
CONTINUOUS
 62
1
 10
320.150000
 20
78.000000
 11
428.650000
 21
78.000000
  0
ARC
  8
0
  6
CONTINUOUS
 62
1
 10
428.650000
 20
68.000000
 40
10.000000
 50
0.000000
 51
90.000000
  0
LINE
  8
0
  6
CONTINUOUS
 62
1
 10
438.650000
 20
68.000000
 11
438.650000
 21
50.000000
  0
ARC
  8
0
  6
CONTINUOUS
 62
1
 10
428.650000
 20
50.000000
 40
10.000000
 50
270.000000
 51
0.000000
  0
LINE
  8
0
  6
CONTINUOUS
 62
1
 10
428.650000
 20
40.000000
 11
320.150000
 21
40.000000
  0
ARC
  8
0
  6
CONTINUOUS
 62
1
 10
320.150000
 20
50.000000
 40
10.000000
 50
180.000000
 51
270.000000
  0
LINE
  8
0
  6
CONTINUOUS
 62
1
 10
310.150000
 20
50.000000
 11
310.150000
 21
68.000000
  0
ARC
  8
0
  6
CONTINUOUS
 62
1
 10
320.150000
 20
68.000000
 40
10.000000
 50
90.000000
 51
180.000000
  0
LINE
  8
0
  6
CONTINUOUS
 62
1
 10
320.150000
 20
133.000000
 11
428.650000
 21
133.000000
  0
ARC
  8
0
  6
CONTINUOUS
 62
1
 10
428.650000
 20
123.000000
 40
10.000000
 50
0.000000
 51
90.000000
  0
LINE
  8
0
  6
CONTINUOUS
 62
1
 10
438.650000
 20
123.000000
 11
438.650000
 21
105.000000
  0
ARC
  8
0
  6
CONTINUOUS
 62
1
 10
428.650000
 20
105.000000
 40
10.000000
 50
270.000000
 51
0.000000
  0
LINE
  8
0
  6
CONTINUOUS
 62
1
 10
428.650000
 20
95.000000
 11
320.150000
 21
95.000000
  0
ARC
  8
0
  6
CONTINUOUS
 62
1
 10
320.150000
 20
105.000000
 40
10.000000
 50
180.000000
 51
270.000000
  0
LINE
  8
0
  6
CONTINUOUS
 62
1
 10
310.150000
 20
105.000000
 11
310.150000
 21
123.000000
  0
ARC
  8
0
  6
CONTINUOUS
 62
1
 10
320.150000
 20
123.000000
 40
10.000000
 50
90.000000
 51
180.000000
  0
LINE
  8
0
  6
CONTINUOUS
 62
1
 10
465.650000
 20
78.000000
 11
574.150000
 21
78.000000
  0
ARC
  8
0
  6
CONTINUOUS
 62
1
 10
574.150000
 20
68.000000
 40
10.000000
 50
0.000000
 51
90.000000
  0
LINE
  8
0
  6
CONTINUOUS
 62
1
 10
584.150000
 20
68.000000
 11
584.150000
 21
50.000000
  0
ARC
  8
0
  6
CONTINUOUS
 62
1
 10
574.150000
 20
50.000000
 40
10.000000
 50
270.000000
 51
0.000000
  0
LINE
  8
0
  6
CONTINUOUS
 62
1
 10
574.150000
 20
40.000000
 11
465.650000
 21
40.000000
  0
ARC
  8
0
  6
CONTINUOUS
 62
1
 10
465.650000
 20
50.000000
 40
10.000000
 50
180.000000
 51
270.000000
  0
LINE
  8
0
  6
CONTINUOUS
 62
1
 10
455.650000
 20
50.000000
 11
455.650000
 21
68.000000
  0
ARC
  8
0
  6
CONTINUOUS
 62
1
 10
465.650000
 20
68.000000
 40
10.000000
 50
90.000000
 51
180.000000
  0
LINE
  8
0
  6
CONTINUOUS
 62
1
 10
465.650000
 20
133.000000
 11
574.150000
 21
133.000000
  0
ARC
  8
0
  6
CONTINUOUS
 62
1
 10
574.150000
 20
123.000000
 40
10.000000
 50
0.000000
 51
90.000000
  0
LINE
  8
0
  6
CONTINUOUS
 62
1
 10
584.150000
 20
123.000000
 11
584.150000
 21
105.000000
  0
ARC
  8
0
  6
CONTINUOUS
 62
1
 10
574.150000
 20
105.000000
 40
10.000000
 50
270.000000
 51
0.000000
  0
LINE
  8
0
  6
CONTINUOUS
 62
1
 10
574.150000
 20
95.000000
 11
465.650000
 21
95.000000
  0
ARC
  8
0
  6
CONTINUOUS
 62
1
 10
465.650000
 20
105.000000
 40
10.000000
 50
180.000000
 51
270.000000
  0
LINE
  8
0
  6
CONTINUOUS
 62
1
 10
455.650000
 20
105.000000
 11
455.650000
 21
123.000000
  0
ARC
  8
0
  6
CONTINUOUS
 62
1
 10
465.650000
 20
123.000000
 40
10.000000
 50
90.000000
 51
180.000000
  0
LINE
  8
0
  6
DASHED
 62
3
 10
285.700000
 20
150.000000
 11
285.700000
 21
0.000000
  0
LINE
  8
0
  6
DASHED
 62
3
 10
608.600000
 20
0.000000
 11
608.600000
 21
150.000000
  0
ARC
  8
0
  6
CONTINUOUS
 62
8
 10
125.456869
 20
49.285688
 40
1.932780
 50
129.000000
 51
141.000000
  0
ARC
  8
0
  6
CONTINUOUS
 62
8
 10
125.202252
 20
49.331147
 40
1.745443
 50
93.434949
 51
123.434949
  0
ARC
  8
0
  6
CONTINUOUS
 62
8
 10
125.811959
 20
47.979543
 40
3.175294
 50
77.000000
 51
103.000000
  0
ARC
  8
0
  6
CONTINUOUS
 62
8
 10
125.969170
 20
49.659236
 40
1.519982
 50
21.499998
 51
68.500000
  0
ARC
  8
0
  6
CONTINUOUS
 62
8
 10
124.586500
 20
48.909946
 40
3.086936
 50
3.036243
 51
25.036243
  0
ARC
  8
0
  6
CONTINUOUS
 62
8
 10
125.811959
 20
48.930597
 40
1.862629
 50
274.398706
 51
4.398705
  0
ARC
  8
0
  6
CONTINUOUS
 62
8
 10
125.995654
 20
48.865316
 40
1.792327
 50
191.694426
 51
268.694429
  0
LINE
  8
0
  6
CONTINUOUS
 62
8
 10
127.097674
 20
53.073454
 11
124.240531
 21
53.073454
  0
LINE
  8
0
  6
CONTINUOUS
 62
8
 10
124.240531
 20
53.073454
 11
123.954817
 21
50.502025
  0
ARC
  8
0
  6
CONTINUOUS
 62
8
 10
131.988032
 20
50.139884
 40
0.648706
 50
33.934948
 51
92.934949
  0
ARC
  8
0
  6
CONTINUOUS
 62
8
 10
129.158276
 20
49.085574
 40
3.653704
 50
359.809932
 51
22.809932
  0
ARC
  8
0
  6
CONTINUOUS
 62
8
 10
130.954817
 20
48.930597
 40
1.862629
 50
274.398706
 51
4.398705
  0
ARC
  8
0
  6
CONTINUOUS
 62
8
 10
131.138511
 20
48.865316
 40
1.792327
 50
191.694426
 51
268.694429
  0
LINE
  8
0
  6
CONTINUOUS
 62
8
 10
129.097674
 20
53.073454
 11
132.240531
 21
53.073454
  0
LINE
  8
0
  6
CONTINUOUS
 62
8
 10
132.240531
 20
53.073454
 11
130.526245
 21
50.787740
  0
LINE
  8
0
  6
CONTINUOUS
 62
8
 10
130.526245
 20
50.787740
 11
131.954817
 21
50.787740
  0
ARC
  8
0
  6
CONTINUOUS
 62
8
 10
136.097674
 20
51.216311
 40
1.862629
 50
94.398706
 51
184.398705
  0
ARC
  8
0
  6
CONTINUOUS
 62
8
 10
135.829743
 20
50.948380
 40
1.594126
 50
175.500001
 51
274.500000
  0
ARC
  8
0
  6
CONTINUOUS
 62
8
 10
135.902890
 20
51.183828
 40
1.825398
 50
271.630103
 51
14.630102
  0
ARC
  8
0
  6
CONTINUOUS
 62
8
 10
130.862497
 20
50.073454
 40
6.985646
 50
347.000000
 51
13.000000
  0
ARC
  8
0
  6
CONTINUOUS
 62
8
 10
135.913979
 20
48.865316
 40
1.792327
 50
271.305569
 51
348.305571
  0
ARC
  8
0
  6
CONTINUOUS
 62
8
 10
135.870837
 20
49.048352
 40
1.976683
 50
214.434950
 51
272.434949
  0
ARC
  8
0
  6
CONTINUOUS
 62
8
 10
135.913979
 20
51.281592
 40
1.792327
 50
11.694426
 51
88.694429
  0
ARC
  8
0
  6
CONTINUOUS
 62
8
 10
140.762170
 20
51.390345
 40
1.683846
 50
88.305569
 51
171.305571
  0
ARC
  8
0
  6
CONTINUOUS
 62
8
 10
140.768748
 20
51.382387
 40
1.691619
 50
29.536243
 51
88.536243
  0
ARC
  8
0
  6
CONTINUOUS
 62
8
 10
139.701883
 20
51.216311
 40
2.728504
 50
338.500002
 51
21.500000
  0
ARC
  8
0
  6
CONTINUOUS
 62
8
 10
138.571227
 20
52.075432
 40
4.113407
 50
313.130102
 51
333.130102
  0
LINE
  8
0
  6
CONTINUOUS
 62
8
 10
141.383388
 20
49.073454
 11
139.383388
 21
47.073454
  0
LINE
  8
0
  6
CONTINUOUS
 62
8
 10
139.383388
 20
47.073454
 11
142.240531
 21
47.073454
  0
LINE
  8
0
  6
CONTINUOUS
 62
8
 10
143.669102
 20
53.073454
 11
147.669102
 21
53.073454
  0
LINE
  8
0
  6
CONTINUOUS
 62
8
 10
147.669102
 20
53.073454
 11
144.811959
 21
47.073454
  0
ARC
  8
0
  6
CONTINUOUS
 62
8
 10
150.240531
 20
48.502025
 40
1.030158
 50
123.690069
 51
213.690068
  0
ARC
  8
0
  6
CONTINUOUS
 62
8
 10
150.718994
 20
49.173238
 40
1.824281
 50
222.934948
 51
263.934949
  0
ARC
  8
0
  6
CONTINUOUS
 62
8
 10
151.240531
 20
49.934799
 40
2.672841
 50
254.500000
 51
285.500000
  0
ARC
  8
0
  6
CONTINUOUS
 62
8
 10
151.762068
 20
49.173238
 40
1.824281
 50
276.065050
 51
317.065051
  0
ARC
  8
0
  6
CONTINUOUS
 62
8
 10
152.240531
 20
48.502025
 40
1.030158
 50
326.309933
 51
56.309932
  0
LINE
  8
0
  6
CONTINUOUS
 62
8
 10
152.811959
 20
49.359168
 11
150.240531
 21
51.073454
  0
ARC
  8
0
  6
CONTINUOUS
 62
8
 10
150.814398
 20
52.075080
 40
1.154373
 50
187.190068
 51
240.190067
  0
ARC
  8
0
  6
CONTINUOUS
 62
8
 10
150.682386
 20
51.874122
 40
1.014857
 50
115.809932
 51
176.809934
  0
ARC
  8
0
  6
CONTINUOUS
 62
8
 10
151.221490
 20
51.273434
 40
1.804273
 50
93.934949
 51
122.934949
  0
ARC
  8
0
  6
CONTINUOUS
 62
8
 10
150.973858
 20
51.273434
 40
1.804273
 50
57.065051
 51
86.065052
  0
ARC
  8
0
  6
CONTINUOUS
 62
8
 10
151.512961
 20
51.874122
 40
1.014857
 50
3.190068
 51
64.190069
  0
ARC
  8
0
  6
CONTINUOUS
 62
8
 10
151.380950
 20
52.075080
 40
1.154373
 50
299.809932
 51
352.809932
  0
LINE
  8
0
  6
CONTINUOUS
 62
8
 10
151.954817
 20
51.073454
 11
149.669102
 21
49.359168
  0
ARC
  8
0
  6
CONTINUOUS
 62
8
 10
156.314011
 20
49.285688
 40
1.932780
 50
129.000000
 51
141.000000
  0
ARC
  8
0
  6
CONTINUOUS
 62
8
 10
156.059395
 20
49.331147
 40
1.745443
 50
93.434949
 51
123.434949
  0
ARC
  8
0
  6
CONTINUOUS
 62
8
 10
156.669102
 20
47.979543
 40
3.175294
 50
77.000000
 51
103.000000
  0
ARC
  8
0
  6
CONTINUOUS
 62
8
 10
156.826313
 20
49.659236
 40
1.519982
 50
21.499998
 51
68.500000
  0
ARC
  8
0
  6
CONTINUOUS
 62
8
 10
155.443643
 20
48.909946
 40
3.086936
 50
3.036243
 51
25.036243
  0
ARC
  8
0
  6
CONTINUOUS
 62
8
 10
156.669102
 20
48.930597
 40
1.862629
 50
274.398706
 51
4.398705
  0
ARC
  8
0
  6
CONTINUOUS
 62
8
 10
156.852797
 20
48.865316
 40
1.792327
 50
191.694426
 51
268.694429
  0
LINE
  8
0
  6
CONTINUOUS
 62
8
 10
154.811959
 20
50.502025
 11
155.097674
 21
53.073454
  0
LINE
  8
0
  6
CONTINUOUS
 62
8
 10
155.097674
 20
53.073454
 11
157.954817
 21
53.073454
  0
LINE
  8
0
  6
CONTINUOUS
 62
8
 10
159.954817
 20
49.644883
 11
165.097674
 21
49.644883
  0
ARC
  8
0
  6
CONTINUOUS
 62
8
 10
168.526245
 20
49.073454
 40
2.000000
 50
180.000001
 51
0.000000
  0
LINE
  8
0
  6
CONTINUOUS
 62
8
 10
170.526245
 20
49.073454
 11
170.526245
 21
51.073454
  0
ARC
  8
0
  6
CONTINUOUS
 62
8
 10
168.526245
 20
51.073454
 40
2.000000
 50
0.000001
 51
180.000000
  0
LINE
  8
0
  6
CONTINUOUS
 62
8
 10
166.526245
 20
51.073454
 11
166.526245
 21
49.073454
  0
ARC
  8
0
  6
CONTINUOUS
 62
8
 10
171.491582
 20
54.024433
 40
1.866519
 50
284.369898
 51
329.369897
  0
LINE
  8
0
  6
CONTINUOUS
 62
8
 10
173.097674
 20
53.073454
 11
173.097674
 21
47.073454
  0
INSERT
  2
LDATUM
  8
0
 10
80.030356
 20
92.209307
 41
1.000000
 42
1.000000
 50
0.000000
  0
ENDBLK
  0
BLOCK
  2
LDATUM
  8
0
 70
0
 10
0.0
 20
0.0
 30
0.0
  0
LINE
  8
0
  6
CONTINUOUS
 62
6
 10
-3.085786
 20
-2.000000
 11
0.500000
 21
-2.000000
  0
LINE
  8
0
  6
CONTINUOUS
 62
6
 10
-2.500000
 20
1.000000
 11
-2.500000
 21
-1.000000
  0
LINE
  8
0
  6
CONTINUOUS
 62
6
 10
0.500000
 20
-1.000000
 11
-3.085786
 21
-1.000000
  0
LINE
  8
0
  6
CONTINUOUS
 62
6
 10
-1.500000
 20
-1.000000
 11
-1.500000
 21
1.000000
  0
LINE
  8
0
  6
CONTINUOUS
 62
6
 10
-3.792893
 20
-1.292893
 11
-4.621320
 21
-2.121320
  0
LINE
  8
0
  6
CONTINUOUS
 62
6
 10
-3.914214
 20
-2.828427
 11
-3.085786
 21
-2.000000
  0
CIRCLE
  8
0
  6
CONTINUOUS
 62
6
 10
-4.267767
 20
-2.474874
 40
0.500000
  0
LINE
  8
0
  6
CONTINUOUS
 62
6
 10
1.000000
 20
-1.000000
 11
-1.000000
 21
1.000000
  0
LINE
  8
0
  6
CONTINUOUS
 62
6
 10
-1.000000
 20
-1.000000
 11
1.000000
 21
1.000000
  0
ARC
  8
0
  6
CONTINUOUS
 62
6
 10
-3.085786
 20
-2.000000
 40
1.000000
 50
90.000000
 51
135.000000
  0
LINE
  8
0
  6
CONTINUOUS
 62
6
 10
0.500000
 20
-2.000000
 11
0.500000
 21
-1.000000
  0
LINE
  8
0
  6
CONTINUOUS
 62
6
 10
-1.500000
 20
1.000000
 11
-2.500000
 21
1.000000
  0
ENDBLK
  0
BLOCK
  2
5199948ITEM02-00
  8
0
 70
0
 10
0.0
 20
0.0
 30
0.0
  0
LINE
  8
0
  6
CONTINUOUS
 62
1
 10
0.000000
 20
360.000000
 11
0.000000
 21
0.000000
  0
LINE
  8
0
  6
CONTINUOUS
 62
1
 10
0.000000
 20
0.000000
 11
819.600000
 21
0.000000
  0
LINE
  8
0
  6
CONTINUOUS
 62
1
 10
819.600000
 20
0.000000
 11
819.600000
 21
360.000000
  0
ARC
  8
0
  6
CONTINUOUS
 62
1
 10
789.600000
 20
360.000000
 40
30.000000
 50
0.000000
 51
90.000000
  0
LINE
  8
0
  6
CONTINUOUS
 62
1
 10
789.600000
 20
390.000000
 11
30.000000
 21
390.000000
  0
ARC
  8
0
  6
CONTINUOUS
 62
1
 10
30.000000
 20
360.000000
 40
30.000000
 50
90.000000
 51
180.000000
  0
CIRCLE
  8
0
  6
CONTINUOUS
 62
1
 10
244.800000
 20
125.000000
 40
12.250000
  0
CIRCLE
  8
0
  6
CONTINUOUS
 62
1
 10
244.800000
 20
361.000000
 40
12.250000
  0
CIRCLE
  8
0
  6
CONTINUOUS
 62
1
 10
574.800000
 20
125.000000
 40
12.250000
  0
CIRCLE
  8
0
  6
CONTINUOUS
 62
1
 10
574.800000
 20
361.000000
 40
12.250000
  0
LINE
  8
0
  6
CONTINUOUS
 62
8
 10
163.800000
 20
30.000000
 11
351.100000
 21
30.000000
  0
LINE
  8
0
  6
CONTINUOUS
 62
8
 10
351.100000
 20
30.000000
 11
351.100000
 21
14.000000
  0
LINE
  8
0
  6
CONTINUOUS
 62
8
 10
351.100000
 20
14.000000
 11
163.800000
 21
14.000000
  0
LINE
  8
0
  6
CONTINUOUS
 62
8
 10
655.800000
 20
14.000000
 11
468.500000
 21
14.000000
  0
LINE
  8
0
  6
CONTINUOUS
 62
8
 10
468.500000
 20
14.000000
 11
468.500000
 21
30.000000
  0
LINE
  8
0
  6
CONTINUOUS
 62
8
 10
468.500000
 20
30.000000
 11
655.800000
 21
30.000000
  0
LINE
  8
0
  6
DASHED
 62
3
 10
650.600000
 20
0.000000
 11
650.600000
 21
390.000000
  0
LINE
  8
0
  6
DASHED
 62
3
 10
169.000000
 20
0.000000
 11
169.000000
 21
390.000000
  0
ARC
  8
0
  6
CONTINUOUS
 62
8
 10
359.811072
 20
352.806947
 40
3.221300
 50
129.000000
 51
141.000000
  0
ARC
  8
0
  6
CONTINUOUS
 62
8
 10
359.386712
 20
352.882712
 40
2.909072
 50
93.434949
 51
123.434949
  0
ARC
  8
0
  6
CONTINUOUS
 62
8
 10
360.402890
 20
350.630039
 40
5.292156
 50
77.000000
 51
103.000000
  0
ARC
  8
0
  6
CONTINUOUS
 62
8
 10
360.664907
 20
353.429527
 40
2.533304
 50
21.499998
 51
68.500000
  0
ARC
  8
0
  6
CONTINUOUS
 62
8
 10
358.360458
 20
352.180711
 40
5.144893
 50
3.036243
 51
25.036243
  0
ARC
  8
0
  6
CONTINUOUS
 62
8
 10
360.402890
 20
352.215129
 40
3.104382
 50
274.398706
 51
4.398705
  0
ARC
  8
0
  6
CONTINUOUS
 62
8
 10
360.709048
 20
352.106327
 40
2.987212
 50
191.694426
 51
268.694429
  0
LINE
  8
0
  6
CONTINUOUS
 62
8
 10
357.307652
 20
354.834177
 11
357.783842
 21
359.119891
  0
LINE
  8
0
  6
CONTINUOUS
 62
8
 10
357.783842
 20
359.119891
 11
362.545747
 21
359.119891
  0
ARC
  8
0
  6
CONTINUOUS
 62
8
 10
365.107023
 20
360.704856
 40
3.110864
 50
284.369898
 51
329.369897
  0
LINE
  8
0
  6
CONTINUOUS
 62
8
 10
367.783842
 20
359.119891
 11
367.783842
 21
349.119891
  0
ARC
  8
0
  6
CONTINUOUS
 62
8
 10
373.260033
 20
356.024653
 40
3.104382
 50
94.398706
 51
184.398705
  0
ARC
  8
0
  6
CONTINUOUS
 62
8
 10
372.813482
 20
355.578102
 40
2.656877
 50
175.500001
 51
274.500000
  0
ARC
  8
0
  6
CONTINUOUS
 62
8
 10
372.935393
 20
355.970514
 40
3.042330
 50
271.630103
 51
14.630102
  0
ARC
  8
0
  6
CONTINUOUS
 62
8
 10
364.534739
 20
354.119891
 40
11.642744
 50
347.000000
 51
13.000000
  0
ARC
  8
0
  6
CONTINUOUS
 62
8
 10
372.953876
 20
352.106328
 40
2.987212
 50
271.305569
 51
348.305571
  0
ARC
  8
0
  6
CONTINUOUS
 62
8
 10
372.881972
 20
352.411388
 40
3.294471
 50
214.434950
 51
272.434949
  0
ARC
  8
0
  6
CONTINUOUS
 62
8
 10
372.953875
 20
356.133455
 40
2.987212
 50
11.694426
 51
88.694429
  0
ARC
  8
0
  6
CONTINUOUS
 62
8
 10
393.260033
 20
356.024653
 40
3.104382
 50
94.398706
 51
184.398705
  0
ARC
  8
0
  6
CONTINUOUS
 62
8
 10
392.813482
 20
355.578102
 40
2.656877
 50
175.500001
 51
274.500000
  0
ARC
  8
0
  6
CONTINUOUS
 62
8
 10
392.935393
 20
355.970514
 40
3.042330
 50
271.630103
 51
14.630102
  0
ARC
  8
0
  6
CONTINUOUS
 62
8
 10
384.534739
 20
354.119891
 40
11.642744
 50
347.000000
 51
13.000000
  0
ARC
  8
0
  6
CONTINUOUS
 62
8
 10
392.953876
 20
352.106328
 40
2.987212
 50
271.305569
 51
348.305571
  0
ARC
  8
0
  6
CONTINUOUS
 62
8
 10
392.881972
 20
352.411388
 40
3.294471
 50
214.434950
 51
272.434949
  0
ARC
  8
0
  6
CONTINUOUS
 62
8
 10
392.953875
 20
356.133455
 40
2.987212
 50
11.694426
 51
88.694429
  0
ARC
  8
0
  6
CONTINUOUS
 62
8
 10
401.355271
 20
356.024653
 40
3.104382
 50
94.398706
 51
184.398705
  0
ARC
  8
0
  6
CONTINUOUS
 62
8
 10
400.908720
 20
355.578102
 40
2.656877
 50
175.500001
 51
274.500000
  0
ARC
  8
0
  6
CONTINUOUS
 62
8
 10
401.030631
 20
355.970514
 40
3.042330
 50
271.630103
 51
14.630102
  0
ARC
  8
0
  6
CONTINUOUS
 62
8
 10
400.977210
 20
352.411388
 40
3.294471
 50
214.434950
 51
272.434949
  0
ARC
  8
0
  6
CONTINUOUS
 62
8
 10
401.049114
 20
352.106328
 40
2.987212
 50
271.305569
 51
348.305571
  0
ARC
  8
0
  6
CONTINUOUS
 62
8
 10
392.629977
 20
354.119891
 40
11.642744
 50
347.000000
 51
13.000000
  0
ARC
  8
0
  6
CONTINUOUS
 62
8
 10
401.049114
 20
356.133455
 40
2.987212
 50
11.694426
 51
88.694429
  0
LINE
  8
0
  6
CONTINUOUS
 62
8
 10
411.117176
 20
349.119891
 11
411.117176
 21
359.119891
  0
LINE
  8
0
  6
CONTINUOUS
 62
8
 10
411.117176
 20
359.119891
 11
406.355271
 21
352.453224
  0
LINE
  8
0
  6
CONTINUOUS
 62
8
 10
406.355271
 20
352.453224
 11
413.498128
 21
352.453224
  0
ARC
  8
0
  6
CONTINUOUS
 62
8
 10
417.783843
 20
351.500843
 40
1.716929
 50
123.690069
 51
213.690068
  0
ARC
  8
0
  6
CONTINUOUS
 62
8
 10
418.581281
 20
352.619530
 40
3.040468
 50
222.934948
 51
263.934949
  0
ARC
  8
0
  6
CONTINUOUS
 62
8
 10
419.450509
 20
353.888800
 40
4.454735
 50
254.500000
 51
285.500000
  0
ARC
  8
0
  6
CONTINUOUS
 62
8
 10
420.319737
 20
352.619530
 40
3.040468
 50
276.065050
 51
317.065051
  0
ARC
  8
0
  6
CONTINUOUS
 62
8
 10
421.117176
 20
351.500843
 40
1.716929
 50
326.309933
 51
56.309932
  0
LINE
  8
0
  6
CONTINUOUS
 62
8
 10
422.069557
 20
352.929415
 11
417.783842
 21
355.786558
  0
ARC
  8
0
  6
CONTINUOUS
 62
8
 10
418.740288
 20
357.455934
 40
1.923955
 50
187.190068
 51
240.190067
  0
ARC
  8
0
  6
CONTINUOUS
 62
8
 10
418.520268
 20
357.121004
 40
1.691428
 50
115.809932
 51
176.809934
  0
ARC
  8
0
  6
CONTINUOUS
 62
8
 10
419.418774
 20
356.119858
 40
3.007122
 50
93.934949
 51
122.934949
  0
ARC
  8
0
  6
CONTINUOUS
 62
8
 10
419.006054
 20
356.119858
 40
3.007122
 50
57.065051
 51
86.065052
  0
ARC
  8
0
  6
CONTINUOUS
 62
8
 10
419.904559
 20
357.121004
 40
1.691428
 50
3.190068
 51
64.190069
  0
ARC
  8
0
  6
CONTINUOUS
 62
8
 10
419.684540
 20
357.455934
 40
1.923955
 50
299.809932
 51
352.809932
  0
LINE
  8
0
  6
CONTINUOUS
 62
8
 10
420.640985
 20
355.786558
 11
416.831462
 21
352.929415
  0
LINE
  8
0
  6
CONTINUOUS
 62
8
 10
436.831462
 20
349.119891
 11
436.831462
 21
359.119891
  0
LINE
  8
0
  6
CONTINUOUS
 62
8
 10
436.831462
 20
359.119891
 11
443.021938
 21
359.119891
  0
LINE
  8
0
  6
CONTINUOUS
 62
8
 10
436.831462
 20
354.357986
 11
440.640985
 21
354.357986
  0
ARC
  8
0
  6
CONTINUOUS
 62
8
 10
448.736223
 20
352.453224
 40
3.333333
 50
180.000001
 51
0.000000
  0
LINE
  8
0
  6
CONTINUOUS
 62
8
 10
452.069557
 20
352.453224
 11
452.069557
 21
355.786558
  0
ARC
  8
0
  6
CONTINUOUS
 62
8
 10
448.736223
 20
355.786558
 40
3.333333
 50
0.000001
 51
180.000000
  0
LINE
  8
0
  6
CONTINUOUS
 62
8
 10
445.402890
 20
355.786558
 11
445.402890
 21
352.453224
  0
ARC
  8
0
  6
CONTINUOUS
 62
8
 10
457.783842
 20
352.453224
 40
3.333333
 50
180.000001
 51
0.000000
  0
LINE
  8
0
  6
CONTINUOUS
 62
8
 10
461.117176
 20
352.453224
 11
461.117176
 21
355.786558
  0
ARC
  8
0
  6
CONTINUOUS
 62
8
 10
457.783843
 20
355.786558
 40
3.333333
 50
0.000001
 51
180.000000
  0
LINE
  8
0
  6
CONTINUOUS
 62
8
 10
454.450509
 20
355.786558
 11
454.450509
 21
352.453224
  0
ENDBLK
  0
BLOCK
  2
3637516-00
  8
0
 70
0
 10
0.0
 20
0.0
 30
0.0
  0
LINE
  8
0
  6
CONTINUOUS
 62
1
 10
30.000000
 20
315.000000
 11
20.000000
 21
315.000000
  0
ARC
  8
0
  6
CONTINUOUS
 62
1
 10
20.000000
 20
295.000000
 40
20.000000
 50
90.000000
 51
180.000000
  0
LINE
  8
0
  6
CONTINUOUS
 62
1
 10
0.000000
 20
295.000000
 11
0.000000
 21
20.000000
  0
ARC
  8
0
  6
CONTINUOUS
 62
1
 10
20.000000
 20
20.000000
 40
20.000000
 50
180.000000
 51
270.000000
  0
LINE
  8
0
  6
CONTINUOUS
 62
1
 10
20.000000
 20
0.000000
 11
30.000000
 21
0.000000
  0
ARC
  8
0
  6
CONTINUOUS
 62
1
 10
30.000000
 20
20.000000
 40
20.000000
 50
270.000000
 51
0.000000
  0
LINE
  8
0
  6
CONTINUOUS
 62
1
 10
50.000000
 20
20.000000
 11
50.000000
 21
295.000000
  0
ARC
  8
0
  6
CONTINUOUS
 62
1
 10
30.000000
 20
295.000000
 40
20.000000
 50
0.000000
 51
90.000000
  0
CIRCLE
  8
0
  6
CONTINUOUS
 62
1
 10
25.000000
 20
25.000000
 40
13.500000
  0
CIRCLE
  8
0
  6
CONTINUOUS
 62
1
 10
25.000000
 20
290.000000
 40
13.500000
  0
CIRCLE
  8
0
  6
CONTINUOUS
 62
8
 10
25.000000
 20
77.500000
 40
6.900000
  0
CIRCLE
  8
0
  6
CONTINUOUS
 62
8
 10
25.000000
 20
237.500000
 40
6.900000
  0
ARC
  8
0
  6
CONTINUOUS
 62
8
 10
21.369561
 20
161.000034
 40
1.647236
 50
124.434949
 51
182.434948
  0
ARC
  8
0
  6
CONTINUOUS
 62
8
 10
21.217031
 20
160.964082
 40
1.493606
 50
181.305571
 51
258.305574
  0
ARC
  8
0
  6
CONTINUOUS
 62
8
 10
22.223813
 20
165.173650
 40
5.821372
 50
257.000000
 51
283.000000
  0
ARC
  8
0
  6
CONTINUOUS
 62
8
 10
23.230595
 20
160.964082
 40
1.493606
 50
281.694429
 51
358.694431
  0
LINE
  8
0
  6
CONTINUOUS
 62
8
 10
24.723813
 20
160.930051
 11
24.723813
 21
161.168146
  0
ARC
  8
0
  6
CONTINUOUS
 62
8
 10
23.176194
 20
161.049099
 40
1.552191
 50
4.398705
 51
94.398704
  0
ARC
  8
0
  6
CONTINUOUS
 62
8
 10
23.057146
 20
160.930051
 40
1.666667
 50
90.000000
 51
179.999999
  0
ARC
  8
0
  6
CONTINUOUS
 62
8
 10
22.911029
 20
160.973323
 40
1.521165
 50
181.630102
 51
284.630102
  0
ARC
  8
0
  6
CONTINUOUS
 62
8
 10
22.880285
 20
135.991285
 40
1.610650
 50
219.000000
 51
231.000000
  0
ARC
  8
0
  6
CONTINUOUS
 62
8
 10
22.842403
 20
135.779105
 40
1.454536
 50
183.434949
 51
213.434949
  0
ARC
  8
0
  6
CONTINUOUS
 62
8
 10
23.968739
 20
136.287194
 40
2.646078
 50
167.000000
 51
193.000000
  0
ARC
  8
0
  6
CONTINUOUS
 62
8
 10
22.568995
 20
136.418202
 40
1.266652
 50
111.499998
 51
158.500000
  0
ARC
  8
0
  6
CONTINUOUS
 62
8
 10
23.193403
 20
135.265978
 40
2.572446
 50
93.036243
 51
115.036243
  0
ARC
  8
0
  6
CONTINUOUS
 62
8
 10
23.176194
 20
136.287194
 40
1.552191
 50
4.398706
 51
94.398705
  0
ARC
  8
0
  6
CONTINUOUS
 62
8
 10
23.230595
 20
136.440273
 40
1.493606
 50
281.694426
 51
358.694429
  0
LINE
  8
0
  6
CONTINUOUS
 62
8
 10
19.723813
 20
137.358622
 11
19.723813
 21
134.977670
  0
LINE
  8
0
  6
CONTINUOUS
 62
8
 10
19.723813
 20
134.977670
 11
21.866670
 21
134.739575
  0
LINE
  8
0
  6
CONTINUOUS
 62
8
 10
24.723813
 20
141.406241
 11
19.723813
 21
141.406241
  0
LINE
  8
0
  6
CONTINUOUS
 62
8
 10
19.723813
 20
141.406241
 11
23.057146
 21
139.025289
  0
LINE
  8
0
  6
CONTINUOUS
 62
8
 10
23.057146
 20
139.025289
 11
23.057146
 21
142.596718
  0
ARC
  8
0
  6
CONTINUOUS
 62
8
 10
18.931330
 20
143.401165
 40
1.555432
 50
14.369898
 51
59.369897
  0
LINE
  8
0
  6
CONTINUOUS
 62
8
 10
19.723813
 20
144.739575
 11
24.723813
 21
144.739575
  0
LINE
  8
0
  6
CONTINUOUS
 62
8
 10
19.723813
 20
145.930051
 11
19.723813
 21
149.263384
  0
LINE
  8
0
  6
CONTINUOUS
 62
8
 10
19.723813
 20
149.263384
 11
24.723813
 21
146.882432
  0
LINE
  8
0
  6
CONTINUOUS
 62
8
 10
19.723813
 20
150.453860
 11
19.723813
 21
153.787194
  0
LINE
  8
0
  6
CONTINUOUS
 62
8
 10
19.723813
 20
153.787194
 11
24.723813
 21
151.406241
  0
ARC
  8
0
  6
CONTINUOUS
 62
8
 10
21.223830
 20
156.747517
 40
1.503561
 50
183.934949
 51
212.934949
  0
ARC
  8
0
  6
CONTINUOUS
 62
8
 10
20.676194
 20
156.227670
 40
0.773810
 50
202.619867
 51
337.380133
  0
LINE
  8
0
  6
CONTINUOUS
 62
8
 10
21.390480
 20
155.930051
 11
22.819051
 21
158.072908
  0
ARC
  8
0
  6
CONTINUOUS
 62
8
 10
23.533337
 20
157.596718
 40
0.858465
 50
56.309933
 51
146.309932
  0
ARC
  8
0
  6
CONTINUOUS
 62
8
 10
22.973993
 20
157.197998
 40
1.520234
 50
6.065050
 51
47.065051
  0
ARC
  8
0
  6
CONTINUOUS
 62
8
 10
22.339359
 20
156.763384
 40
2.227368
 50
344.500000
 51
15.500000
  0
ARC
  8
0
  6
CONTINUOUS
 62
8
 10
22.973993
 20
156.328770
 40
1.520234
 50
312.934948
 51
353.934949
  0
ARC
  8
0
  6
CONTINUOUS
 62
8
 10
23.533337
 20
155.930051
 40
0.858465
 50
213.690069
 51
303.690068
  0
LINE
  8
0
  6
CONTINUOUS
 62
8
 10
22.819051
 20
155.453860
 11
21.390480
 21
157.358622
  0
ARC
  8
0
  6
CONTINUOUS
 62
8
 10
20.676194
 20
157.061003
 40
0.773810
 50
22.619864
 51
157.380137
  0
ARC
  8
0
  6
CONTINUOUS
 62
8
 10
21.223830
 20
156.541157
 40
1.503561
 50
147.065051
 51
176.065052
  0
ARC
  8
0
  6
CONTINUOUS
 62
8
 10
21.390480
 20
170.930051
 40
1.666667
 50
90.000001
 51
270.000000
  0
LINE
  8
0
  6
CONTINUOUS
 62
8
 10
21.390480
 20
169.263384
 11
23.057146
 21
169.263384
  0
ARC
  8
0
  6
CONTINUOUS
 62
8
 10
23.057146
 20
170.930051
 40
1.666667
 50
270.000001
 51
90.000000
  0
LINE
  8
0
  6
CONTINUOUS
 62
8
 10
23.057146
 20
172.596718
 11
21.390480
 21
172.596718
  0
ARC
  8
0
  6
CONTINUOUS
 62
8
 10
21.390480
 20
175.453861
 40
1.666667
 50
90.000001
 51
270.000000
  0
LINE
  8
0
  6
CONTINUOUS
 62
8
 10
21.390480
 20
173.787194
 11
23.057146
 21
173.787194
  0
ARC
  8
0
  6
CONTINUOUS
 62
8
 10
23.057146
 20
175.453860
 40
1.666667
 50
270.000001
 51
90.000000
  0
LINE
  8
0
  6
CONTINUOUS
 62
8
 10
23.057146
 20
177.120527
 11
21.390480
 21
177.120527
  0
LINE
  8
0
  6
CONTINUOUS
 62
8
 10
22.580956
 20
163.787194
 11
22.580956
 21
168.072908
  0
ENDBLK
  0
BLOCK
  2
3741778ITEM01-02
  8
0
 70
0
 10
0.0
 20
0.0
 30
0.0
  0
LINE
  8
0
  6
CONTINUOUS
 62
1
 10
0.000000
 20
0.000000
 11
103.000000
 21
0.000000
  0
LINE
  8
0
  6
CONTINUOUS
 62
1
 10
103.000000
 20
0.000000
 11
103.000000
 21
40.000000
  0
LINE
  8
0
  6
CONTINUOUS
 62
1
 10
103.000000
 20
40.000000
 11
0.000000
 21
40.000000
  0
LINE
  8
0
  6
CONTINUOUS
 62
1
 10
0.000000
 20
40.000000
 11
0.000000
 21
0.000000
  0
LINE
  8
0
  6
CONTINUOUS
 62
8
 10
7.150000
 20
20.000000
 11
15.850000
 21
20.000000
  0
LINE
  8
0
  6
CONTINUOUS
 62
8
 10
11.500000
 20
15.650000
 11
11.500000
 21
24.350000
  0
LINE
  8
0
  6
CONTINUOUS
 62
8
 10
87.150000
 20
20.000000
 11
95.850000
 21
20.000000
  0
LINE
  8
0
  6
CONTINUOUS
 62
8
 10
91.500000
 20
15.650000
 11
91.500000
 21
24.350000
  0
ENDBLK
  0
BLOCK
  2
5585156-00
  8
0
 70
0
 10
0.0
 20
0.0
 30
0.0
  0
LINE
  8
0
  6
CONTINUOUS
 62
1
 10
0.000000
 20
100.000000
 11
387.000000
 21
100.000000
  0
LINE
  8
0
  6
CONTINUOUS
 62
1
 10
387.000000
 20
100.000000
 11
397.000000
 21
90.000000
  0
LINE
  8
0
  6
CONTINUOUS
 62
1
 10
397.000000
 20
90.000000
 11
397.000000
 21
10.000000
  0
LINE
  8
0
  6
CONTINUOUS
 62
1
 10
397.000000
 20
10.000000
 11
387.000000
 21
0.000000
  0
LINE
  8
0
  6
CONTINUOUS
 62
1
 10
387.000000
 20
0.000000
 11
0.000000
 21
0.000000
  0
LINE
  8
0
  6
CONTINUOUS
 62
1
 10
0.000000
 20
0.000000
 11
0.000000
 21
100.000000
  0
ARC
  8
0
  6
CONTINUOUS
 62
1
 10
315.500000
 20
24.500000
 40
9.000000
 50
270.000000
 51
90.000000
  0
LINE
  8
0
  6
CONTINUOUS
 62
1
 10
315.500000
 20
33.500000
 11
307.500000
 21
33.500000
  0
ARC
  8
0
  6
CONTINUOUS
 62
1
 10
307.500000
 20
24.500000
 40
9.000000
 50
90.000000
 51
270.000000
  0
LINE
  8
0
  6
CONTINUOUS
 62
1
 10
307.500000
 20
15.500000
 11
315.500000
 21
15.500000
  0
ARC
  8
0
  6
CONTINUOUS
 62
1
 10
315.500000
 20
75.500000
 40
9.000000
 50
270.000000
 51
90.000000
  0
LINE
  8
0
  6
CONTINUOUS
 62
1
 10
315.500000
 20
84.500000
 11
307.500000
 21
84.500000
  0
ARC
  8
0
  6
CONTINUOUS
 62
1
 10
307.500000
 20
75.500000
 40
9.000000
 50
90.000000
 51
270.000000
  0
LINE
  8
0
  6
CONTINUOUS
 62
1
 10
307.500000
 20
66.500000
 11
315.500000
 21
66.500000
  0
CIRCLE
  8
0
  6
CONTINUOUS
 62
1
 10
107.500000
 20
24.500000
 40
9.000000
  0
CIRCLE
  8
0
  6
CONTINUOUS
 62
1
 10
107.500000
 20
75.500000
 40
9.000000
  0
CIRCLE
  8
0
  6
CONTINUOUS
 62
8
 10
16.000000
 20
24.500000
 40
7.125000
  0
CIRCLE
  8
0
  6
CONTINUOUS
 62
8
 10
16.000000
 20
75.500000
 40
7.125000
  0
CIRCLE
  8
0
  6
CONTINUOUS
 62
8
 10
381.000000
 20
24.500000
 40
7.125000
  0
CIRCLE
  8
0
  6
CONTINUOUS
 62
8
 10
381.000000
 20
75.500000
 40
7.125000
  0
ENDBLK
  0
BLOCK
  2
5391613-00
  8
0
 70
0
 10
0.0
 20
0.0
 30
0.0
  0
LINE
  8
0
  6
CONTINUOUS
 62
1
 10
147.000000
 20
0.000000
 11
150.000000
 21
3.000000
  0
LINE
  8
0
  6
CONTINUOUS
 62
1
 10
150.000000
 20
3.000000
 11
150.000000
 21
194.100000
  0
LINE
  8
0
  6
CONTINUOUS
 62
1
 10
150.000000
 20
194.100000
 11
147.000000
 21
197.100000
  0
LINE
  8
0
  6
CONTINUOUS
 62
1
 10
147.000000
 20
197.100000
 11
3.000000
 21
197.100000
  0
LINE
  8
0
  6
CONTINUOUS
 62
1
 10
3.000000
 20
197.100000
 11
0.000000
 21
194.100000
  0
LINE
  8
0
  6
CONTINUOUS
 62
1
 10
0.000000
 20
194.100000
 11
0.000000
 21
3.000000
  0
LINE
  8
0
  6
CONTINUOUS
 62
1
 10
0.000000
 20
3.000000
 11
3.000000
 21
0.000000
  0
LINE
  8
0
  6
CONTINUOUS
 62
1
 10
3.000000
 20
0.000000
 11
8.000000
 21
0.000000
  0
LINE
  8
0
  6
CONTINUOUS
 62
1
 10
8.000000
 20
0.000000
 11
8.000000
 21
20.000000
  0
ARC
  8
0
  6
CONTINUOUS
 62
1
 10
15.000000
 20
20.000000
 40
7.000000
 50
0.000000
 51
180.000000
  0
LINE
  8
0
  6
CONTINUOUS
 62
1
 10
22.000000
 20
20.000000
 11
22.000000
 21
0.000000
  0
LINE
  8
0
  6
CONTINUOUS
 62
1
 10
22.000000
 20
0.000000
 11
128.000000
 21
0.000000
  0
LINE
  8
0
  6
CONTINUOUS
 62
1
 10
128.000000
 20
0.000000
 11
128.000000
 21
20.000000
  0
ARC
  8
0
  6
CONTINUOUS
 62
1
 10
135.000000
 20
20.000000
 40
7.000000
 50
0.000000
 51
180.000000
  0
LINE
  8
0
  6
CONTINUOUS
 62
1
 10
142.000000
 20
20.000000
 11
142.000000
 21
0.000000
  0
LINE
  8
0
  6
CONTINUOUS
 62
1
 10
142.000000
 20
0.000000
 11
147.000000
 21
0.000000
  0
CIRCLE
  8
0
  6
CONTINUOUS
 62
1
 10
15.000000
 20
70.000000
 40
7.000000
  0
CIRCLE
  8
0
  6
CONTINUOUS
 62
1
 10
28.100000
 20
116.100000
 40
7.000000
  0
CIRCLE
  8
0
  6
CONTINUOUS
 62
1
 10
28.100000
 20
147.100000
 40
7.000000
  0
CIRCLE
  8
0
  6
CONTINUOUS
 62
1
 10
28.100000
 20
177.100000
 40
7.000000
  0
CIRCLE
  8
0
  6
CONTINUOUS
 62
1
 10
91.100000
 20
147.100000
 40
7.000000
  0
CIRCLE
  8
0
  6
CONTINUOUS
 62
1
 10
91.100000
 20
177.100000
 40
7.000000
  0
CIRCLE
  8
0
  6
CONTINUOUS
 62
1
 10
135.000000
 20
70.000000
 40
7.000000
  0
ENDBLK
  0
ENDSEC
  0
SECTION
  2
ENTITIES
  0
LINE
  8
DUMMY-LAYOUT-SHEET
  6
CONTINUOUS
 62
1
 10
2241.357576
 20
274.267131
 11
4679.757576
 21
274.267131
  0
LINE
  8
DUMMY-LAYOUT-SHEET
  6
CONTINUOUS
 62
1
 10
4679.757576
 20
274.267131
 11
4679.757576
 21
1798.267131
  0
LINE
  8
DUMMY-LAYOUT-SHEET
  6
CONTINUOUS
 62
1
 10
4679.757576
 20
1798.267131
 11
2241.357576
 21
1798.267131
  0
LINE
  8
DUMMY-LAYOUT-SHEET
  6
CONTINUOUS
 62
1
 10
2241.357576
 20
1798.267131
 11
2241.357576
 21
274.267131
  0
INSERT
  2
MDATUM
  8
DUMMY-LAYOUT-MC-MC12
 10
2241.357576
 20
274.267131
 41
1.000000
 42
1.000000
 50
0.000000
  0
INSERT
  2
ODATUM
  8
DUMMY-LAYOUT
 10
2246.357576
 20
281.767131
 41
1.000000
 42
1.000000
 50
0.000000
  0
INSERT
  2
368-8221-01
  8
DUMMY-LAYOUT
 10
3123.207606
 20
1253.779557
 41
1.000000
 42
1.000000
 50
0.000000
  0
INSERT
  2
368-8221-01
  8
DUMMY-LAYOUT
 10
3123.207606
 20
1098.779557
 41
1.000000
 42
1.000000
 50
0.000000
  0
INSERT
  2
368-8221-01
  8
DUMMY-LAYOUT
 10
3123.207606
 20
726.858413
 41
1.000000
 42
1.000000
 50
0.000000
  0
INSERT
  2
5051896-02
  8
DUMMY-LAYOUT
 10
3070.957576
 20
281.767131
 41
1.000000
 42
1.000000
 50
0.000000
  0
INSERT
  2
51475986-A
  8
DUMMY-LAYOUT
 10
3262.357576
 20
1628.510610
 41
1.000000
 42
1.000000
 50
180.000000
  0
INSERT
  2
1001080115-B
  8
DUMMY-LAYOUT
 10
3271.457576
 20
592.867131
 41
1.000000
 42
1.000000
 50
180.000000
  0
INSERT
  2
254-2987-00
  8
DUMMY-LAYOUT
 10
3255.657576
 20
1015.369514
 41
1.000000
 42
1.000000
 50
90.000000
  0
INSERT
  2
368-8221-01
  8
DUMMY-LAYOUT
 10
3070.957576
 20
866.398578
 41
1.000000
 42
1.000000
 50
0.000000
  0
INSERT
  2
368-8221-01
  8
DUMMY-LAYOUT
 10
3069.469767
 20
587.867131
 41
1.000000
 42
1.000000
 50
0.000000
  0
INSERT
  2
254-2987-00
  8
DUMMY-LAYOUT
 10
3206.357576
 20
1402.779557
 41
1.000000
 42
1.000000
 50
90.000000
  0
INSERT
  2
5095732-01
  8
DUMMY-LAYOUT
 10
2246.357576
 20
1226.767131
 41
1.000000
 42
1.000000
 50
0.000000
  0
INSERT
  2
5095732-01
  8
DUMMY-LAYOUT
 10
2246.357576
 20
1071.767131
 41
1.000000
 42
1.000000
 50
0.000000
  0
INSERT
  2
368-8221-01
  8
DUMMY-LAYOUT
 10
2947.357576
 20
1345.646789
 41
1.000000
 42
1.000000
 50
0.000000
  0
INSERT
  2
5199948ITEM02-00
  8
DUMMY-LAYOUT
 10
2246.357576
 20
676.767131
 41
1.000000
 42
1.000000
 50
0.000000
  0
INSERT
  2
5199948ITEM02-00
  8
DUMMY-LAYOUT
 10
2246.357576
 20
281.767131
 41
1.000000
 42
1.000000
 50
0.000000
  0
INSERT
  2
51475986-A
  8
DUMMY-LAYOUT
 10
2246.357576
 20
1381.767131
 41
1.000000
 42
1.000000
 50
0.000000
  0
INSERT
  2
3637516-00
  8
DUMMY-LAYOUT
 10
2561.357576
 20
1527.878765
 41
1.000000
 42
1.000000
 50
90.000000
  0
INSERT
  2
3741778ITEM01-02
  8
DUMMY-LAYOUT
 10
2246.357576
 20
1333.280710
 41
1.000000
 42
1.000000
 50
0.000000
  0
INSERT
  2
3741778ITEM01-02
  8
DUMMY-LAYOUT
 10
2246.357576
 20
1178.280710
 41
1.000000
 42
1.000000
 50
0.000000
  0
INSERT
  2
5585156-00
  8
DUMMY-LAYOUT
 10
2246.357576
 20
1633.510610
 41
1.000000
 42
1.000000
 50
0.000000
  0
INSERT
  2
3637516-00
  8
DUMMY-LAYOUT
 10
2561.357576
 20
1738.510610
 41
1.000000
 42
1.000000
 50
90.000000
  0
INSERT
  2
5391613-00
  8
DUMMY-LAYOUT
 10
2648.357576
 20
1783.510610
 41
1.000000
 42
1.000000
 50
-90.000000
  0
INSERT
  2
5391613-00
  8
DUMMY-LAYOUT
 10
2850.457576
 20
1783.510610
 41
1.000000
 42
1.000000
 50
-90.000000
  0
INSERT
  2
368-8221-01
  8
DUMMY-LAYOUT
 10
3052.557576
 20
1633.510610
 41
1.000000
 42
1.000000
 50
0.000000
  0
ENDSEC
  0
EOF
