  0
SECTION
  2
HEADER
  9
$LIMMIN
 10
0.000000
 20
0.000000
  9
$LIMMAX
 10
6157.575758
 20
4354.063574
  9
$EXTMIN
 10
0.000000
 20
0.000000
  9
$EXTMAX
 10
6157.575758
 20
4354.063574
  9
$ANGBASE
 50
0.0
  9
$ANGDIR
 70
0
  9
$DIMRND
 40
0.100000
  9
$DIMSE1
 70
0
  9
$DIMSE2
 70
0
  9
$DIMTXT
 40
3.500000
  9
$LTSCALE
 40
1.000000
  9
$LUPREC
 70
1
  9
$AUPREC
 70
1
  9
$PDMODE
 70
2
  9
$PDSIZE
 40
30.787879
  0
ENDSEC
  0
SECTION
  2
TABLES
  0
TABLE
  2
VPORT
  70
1
  0
VPORT
  2
*ACTIVE
 70
0
  10
0.0
 20
0.0
 11
1.0
 21
1.0
 12
594.0
 22
420.0
 13
0.0
 23
0.0
 14
10.0
 24
10.0
 15
10.0
 25
10.0
 16
0.0
 26
0.0
 36
1.0
 17
594.0
 27
420.0
 37
100.0
 40
1000.0
 41
1.0
 42
50.0
 43
0.0
 44
0.0
 50
0.0
 51
0.0
 71
0
 72
2000
 73
1
 74
3
 75
0
 76
0
 77
0
 78
1
  0
ENDTAB
  0
TABLE
  2
LTYPE
 70
4
  0
LTYPE
  2
CONTINUOUS
 70
0
  3
Solid line
 72
65
 73
0
 40
0.0
  0
LTYPE
  2
DASHED
 70
0
  3
Dashed line
 72
65
 73
2
 40
43.935797
 49
21.967899
 49
-21.967899
  0
LTYPE
  2
CENTER
 70
0
  3
Chain line
 72
65
 73
4
 40
175.743190
 49
109.839494
 49
-21.967899
 49
21.967899
 49
-21.967899
  0
LTYPE
  2
RANDOM
 70
0
  3
Random line
 72
65
 73
4
 40
164.759240
 49
43.935797
 49
-21.967899
 49
32.951848
 49
-65.903696
  0
ENDTAB
  0
TABLE
  2
STYLE
 70
9
  0
STYLE
  2
STANDARD
 40
0
 41
1.0
 50
0.0
 71
0
 42
0
  3
simplex
  4

 70
0
  0
ENDTAB
  0
TABLE
  2
LAYER
 70
11
  0
LAYER
  2
0
 70
0
 62
7
  6
CONTINUOUS
  0
LAYER
  2
0
 62
1
  6
CONTINUOUS
 70
0
  0
LAYER
  2
DUMMY
 62
1
  6
CONTINUOUS
 70
0
  0
LAYER
  2
DUMMY-LAYOUT
 62
1
  6
CONTINUOUS
 70
0
  0
LAYER
  2
DUMMY-LAYOUT-SHEET
 62
1
  6
CONTINUOUS
 70
0
  0
LAYER
  2
DUMMY-LAYOUT-MC
 62
1
  6
CONTINUOUS
 70
0
  0
LAYER
  2
DUMMY-LAYOUT-MC-MC4
 62
1
  6
CONTINUOUS
 70
0
  0
LAYER
  2
DUMMY-HCNUPDAR
 62
1
  6
CONTINUOUS
 70
0
  0
LAYER
  2
DUMMY-HCNUPDAR-ORDER
 62
1
  6
CONTINUOUS
 70
0
  0
LAYER
  2
DUMMY-HCNUPDAR-ORDER-MC
 62
1
  6
CONTINUOUS
 70
0
  0
LAYER
  2
DUMMY-HCNUPDAR-ORDER-MC-MC4
 62
1
  6
CONTINUOUS
 70
0
  0
ENDTAB
  0
ENDSEC
  0
SECTION
  2
BLOCKS
  0
BLOCK
  2
MDATUM
  8
0
 70
0
 10
0.0
 20
0.0
 30
0.0
  0
TEXT
  8
0
  6
CONTINUOUS
 62
6
 10
0.000000
 20
0.000000
 40
6.000000
  1
m
 50
0.000000
 41
1.000000
 51
0.000000
  7
STANDARD
  0
ENDBLK
  0
BLOCK
  2
ODATUM
  8
0
 70
0
 10
0.0
 20
0.0
 30
0.0
  0
TEXT
  8
0
  6
CONTINUOUS
 62
6
 10
0.000000
 20
0.000000
 40
6.000000
  1
o
 50
0.000000
 41
1.000000
 51
0.000000
  7
STANDARD
  0
ENDBLK
  0
BLOCK
  2
470-8278-02
  8
0
 70
0
 10
0.0
 20
0.0
 30
0.0
  0
LINE
  8
0
  6
CONTINUOUS
 62
1
 10
2.000000
 20
316.800000
 11
534.300000
 21
316.800000
  0
ARC
  8
0
  6
CONTINUOUS
 62
1
 10
534.300000
 20
296.800000
 40
20.000000
 50
53.311988
 51
90.000000
  0
LINE
  8
0
  6
CONTINUOUS
 62
1
 10
546.249148
 20
312.838013
 11
965.605085
 21
0.396199
  0
ARC
  8
0
  6
CONTINUOUS
 62
1
 10
966.800000
 20
2.000000
 40
2.000000
 50
233.311988
 51
328.319168
  0
LINE
  8
0
  6
CONTINUOUS
 62
1
 10
968.501974
 20
0.949626
 11
1139.419737
 21
277.896260
  0
ARC
  8
0
  6
CONTINUOUS
 62
1
 10
1122.400000
 20
288.400000
 40
20.000000
 50
328.319168
 51
0.000000
  0
LINE
  8
0
  6
CONTINUOUS
 62
1
 10
1142.400000
 20
288.400000
 11
1142.400000
 21
344.500000
  0
ARC
  8
0
  6
CONTINUOUS
 62
1
 10
1140.400000
 20
344.500000
 40
2.000000
 50
0.000000
 51
82.689068
  0
LINE
  8
0
  6
CONTINUOUS
 62
1
 10
1140.654508
 20
346.483740
 11
770.945492
 21
393.916260
  0
ARC
  8
0
  6
CONTINUOUS
 62
1
 10
771.200000
 20
395.900000
 40
2.000000
 50
232.755728
 51
262.689068
  0
LINE
  8
0
  6
CONTINUOUS
 62
1
 10
769.989571
 20
394.307875
 11
540.895712
 21
568.478750
  0
ARC
  8
0
  6
CONTINUOUS
 62
1
 10
553.000000
 20
584.400000
 40
20.000000
 50
122.796378
 51
232.755728
  0
LINE
  8
0
  6
CONTINUOUS
 62
1
 10
542.166898
 20
601.212017
 11
893.316690
 21
827.481202
  0
ARC
  8
0
  6
CONTINUOUS
 62
1
 10
894.400000
 20
825.800000
 40
2.000000
 50
105.957019
 51
122.796378
  0
LINE
  8
0
  6
CONTINUOUS
 62
1
 10
893.850168
 20
827.722936
 11
1140.949832
 21
898.377064
  0
ARC
  8
0
  6
CONTINUOUS
 62
1
 10
1140.400000
 20
900.300000
 40
2.000000
 50
285.957019
 51
0.000000
  0
LINE
  8
0
  6
CONTINUOUS
 62
1
 10
1142.400000
 20
900.300000
 11
1142.400000
 21
945.200000
  0
ARC
  8
0
  6
CONTINUOUS
 62
1
 10
1122.400000
 20
945.200000
 40
20.000000
 50
0.000000
 51
31.680832
  0
LINE
  8
0
  6
CONTINUOUS
 62
1
 10
1139.419737
 20
955.703740
 11
968.501974
 21
1232.650374
  0
ARC
  8
0
  6
CONTINUOUS
 62
1
 10
966.800000
 20
1231.600000
 40
2.000000
 50
31.680832
 51
126.688012
  0
LINE
  8
0
  6
CONTINUOUS
 62
1
 10
965.605085
 20
1233.203801
 11
546.249148
 21
920.761987
  0
ARC
  8
0
  6
CONTINUOUS
 62
1
 10
534.300000
 20
936.800000
 40
20.000000
 50
270.000000
 51
306.688012
  0
LINE
  8
0
  6
CONTINUOUS
 62
1
 10
534.300000
 20
916.800000
 11
2.000000
 21
916.800000
  0
ARC
  8
0
  6
CONTINUOUS
 62
1
 10
2.000000
 20
914.800000
 40
2.000000
 50
90.000000
 51
180.000000
  0
LINE
  8
0
  6
CONTINUOUS
 62
1
 10
0.000000
 20
914.800000
 11
0.000000
 21
318.800000
  0
ARC
  8
0
  6
CONTINUOUS
 62
1
 10
2.000000
 20
318.800000
 40
2.000000
 50
180.000000
 51
270.000000
  0
CIRCLE
  8
0
  6
CONTINUOUS
 62
1
 10
16.500000
 20
339.200000
 40
6.600000
  0
CIRCLE
  8
0
  6
CONTINUOUS
 62
1
 10
16.500000
 20
616.800000
 40
6.600000
  0
CIRCLE
  8
0
  6
CONTINUOUS
 62
1
 10
16.500000
 20
894.400000
 40
6.600000
  0
CIRCLE
  8
0
  6
CONTINUOUS
 62
1
 10
241.500000
 20
339.200000
 40
6.600000
  0
CIRCLE
  8
0
  6
CONTINUOUS
 62
1
 10
241.500000
 20
894.400000
 40
6.600000
  0
CIRCLE
  8
0
  6
CONTINUOUS
 62
1
 10
466.500000
 20
339.200000
 40
6.600000
  0
CIRCLE
  8
0
  6
CONTINUOUS
 62
1
 10
466.500000
 20
894.400000
 40
6.600000
  0
CIRCLE
  8
0
  6
CONTINUOUS
 62
1
 10
537.300000
 20
545.700000
 40
6.600000
  0
CIRCLE
  8
0
  6
CONTINUOUS
 62
1
 10
545.600000
 20
627.800000
 40
6.600000
  0
CIRCLE
  8
0
  6
CONTINUOUS
 62
1
 10
612.400000
 20
288.800000
 40
6.600000
  0
CIRCLE
  8
0
  6
CONTINUOUS
 62
1
 10
612.400000
 20
944.800000
 40
6.600000
  0
CIRCLE
  8
0
  6
CONTINUOUS
 62
1
 10
704.500000
 20
418.600000
 40
6.600000
  0
CIRCLE
  8
0
  6
CONTINUOUS
 62
1
 10
730.500000
 20
747.000000
 40
6.600000
  0
CIRCLE
  8
0
  6
CONTINUOUS
 62
1
 10
784.800000
 20
160.400000
 40
6.600000
  0
CIRCLE
  8
0
  6
CONTINUOUS
 62
1
 10
784.800000
 20
1073.200000
 40
6.600000
  0
CIRCLE
  8
0
  6
CONTINUOUS
 62
1
 10
905.000000
 20
356.100000
 40
6.600000
  0
CIRCLE
  8
0
  6
CONTINUOUS
 62
1
 10
911.400000
 20
854.100000
 40
6.600000
  0
CIRCLE
  8
0
  6
CONTINUOUS
 62
1
 10
955.400000
 20
33.300000
 40
6.600000
  0
CIRCLE
  8
0
  6
CONTINUOUS
 62
1
 10
955.400000
 20
1200.300000
 40
6.600000
  0
CIRCLE
  8
0
  6
CONTINUOUS
 62
1
 10
1033.100000
 20
1070.600000
 40
6.600000
  0
CIRCLE
  8
0
  6
CONTINUOUS
 62
1
 10
1039.100000
 20
172.600000
 40
6.600000
  0
CIRCLE
  8
0
  6
CONTINUOUS
 62
1
 10
1113.300000
 20
329.300000
 40
6.600000
  0
CIRCLE
  8
0
  6
CONTINUOUS
 62
1
 10
1115.800000
 20
936.300000
 40
6.600000
  0
ENDBLK
  0
BLOCK
  2
543-2433-00
  8
0
 70
0
 10
0.0
 20
0.0
 30
0.0
  0
LINE
  8
0
  6
CONTINUOUS
 62
1
 10
0.000000
 20
18.000000
 11
42.934899
 21
18.000000
  0
ARC
  8
0
  6
CONTINUOUS
 62
1
 10
42.934899
 20
8.000000
 40
10.000000
 50
69.979652
 51
90.000000
  0
LINE
  8
0
  6
CONTINUOUS
 62
1
 10
46.358438
 20
17.395711
 11
92.441562
 21
0.604289
  0
ARC
  8
0
  6
CONTINUOUS
 62
1
 10
95.865101
 20
10.000000
 40
10.000000
 50
249.979652
 51
270.000000
  0
LINE
  8
0
  6
CONTINUOUS
 62
1
 10
95.865101
 20
0.000000
 11
233.934899
 21
0.000000
  0
ARC
  8
0
  6
CONTINUOUS
 62
1
 10
233.934899
 20
10.000000
 40
10.000000
 50
270.000000
 51
290.020348
  0
LINE
  8
0
  6
CONTINUOUS
 62
1
 10
237.358438
 20
0.604289
 11
283.441562
 21
17.395711
  0
ARC
  8
0
  6
CONTINUOUS
 62
1
 10
286.865101
 20
8.000000
 40
10.000000
 50
90.000000
 51
110.020348
  0
LINE
  8
0
  6
CONTINUOUS
 62
1
 10
286.865101
 20
18.000000
 11
315.000000
 21
18.000000
  0
LINE
  8
0
  6
CONTINUOUS
 62
1
 10
315.000000
 20
18.000000
 11
315.000000
 21
48.042897
  0
ARC
  8
0
  6
CONTINUOUS
 62
1
 10
305.000000
 20
48.042897
 40
10.000000
 50
0.000000
 51
95.308938
  0
LINE
  8
0
  6
CONTINUOUS
 62
1
 10
304.074741
 20
58.000000
 11
296.780905
 21
57.322224
  0
ARC
  8
0
  6
CONTINUOUS
 62
1
 10
311.400000
 20
-100.000000
 40
158.000000
 50
95.308938
 51
110.020348
  0
LINE
  8
0
  6
CONTINUOUS
 62
1
 10
257.308093
 20
48.452233
 11
253.440229
 21
47.042890
  0
ARC
  8
0
  6
CONTINUOUS
 62
1
 10
219.204845
 20
141.000000
 40
100.000000
 50
270.000000
 51
290.020348
  0
LINE
  8
0
  6
CONTINUOUS
 62
1
 10
219.204845
 20
41.000000
 11
113.299853
 21
41.000000
  0
ARC
  8
0
  6
CONTINUOUS
 62
1
 10
113.299853
 20
141.000000
 40
100.000000
 50
249.979652
 51
270.000000
  0
LINE
  8
0
  6
CONTINUOUS
 62
1
 10
79.064469
 20
47.042890
 11
70.221292
 21
50.265100
  0
ARC
  8
0
  6
CONTINUOUS
 62
1
 10
26.400000
 20
-70.000000
 40
128.000000
 50
69.979652
 51
90.000000
  0
LINE
  8
0
  6
CONTINUOUS
 62
1
 10
26.400000
 20
58.000000
 11
10.000000
 21
58.000000
  0
ARC
  8
0
  6
CONTINUOUS
 62
1
 10
10.000000
 20
48.000000
 40
10.000000
 50
90.000000
 51
180.000000
  0
LINE
  8
0
  6
CONTINUOUS
 62
1
 10
0.000000
 20
48.000000
 11
0.000000
 21
18.000000
  0
LINE
  8
0
  6
CONTINUOUS
 62
1
 10
165.550000
 20
6.625000
 11
175.050000
 21
6.625000
  0
ARC
  8
0
  6
CONTINUOUS
 62
1
 10
175.050000
 20
15.000000
 40
8.375000
 50
270.000000
 51
90.000000
  0
LINE
  8
0
  6
CONTINUOUS
 62
1
 10
175.050000
 20
23.375000
 11
165.550000
 21
23.375000
  0
ARC
  8
0
  6
CONTINUOUS
 62
1
 10
165.550000
 20
15.000000
 40
8.375000
 50
90.000000
 51
270.000000
  0
LINE
  8
0
  6
CONTINUOUS
 62
8
 10
0.000000
 20
23.000000
 11
3.000000
 21
23.000000
  0
LINE
  8
0
  6
CONTINUOUS
 62
8
 10
3.000000
 20
45.000000
 11
0.000000
 21
45.000000
  0
LINE
  8
0
  6
CONTINUOUS
 62
8
 10
10.000000
 20
55.000000
 11
10.000000
 21
58.000000
  0
LINE
  8
0
  6
CONTINUOUS
 62
8
 10
60.230000
 20
53.448496
 11
60.230000
 21
50.335078
  0
LINE
  8
0
  6
CONTINUOUS
 62
8
 10
119.210000
 20
38.000000
 11
119.210000
 21
41.000000
  0
LINE
  8
0
  6
CONTINUOUS
 62
8
 10
144.210000
 20
41.000000
 11
144.210000
 21
38.000000
  0
LINE
  8
0
  6
CONTINUOUS
 62
8
 10
186.460000
 20
41.000000
 11
186.460000
 21
38.000000
  0
LINE
  8
0
  6
CONTINUOUS
 62
8
 10
211.460000
 20
38.000000
 11
211.460000
 21
41.000000
  0
LINE
  8
0
  6
CONTINUOUS
 62
8
 10
269.936000
 20
52.462247
 11
269.936000
 21
49.351052
  0
LINE
  8
0
  6
CONTINUOUS
 62
8
 10
305.000000
 20
55.042897
 11
305.000000
 21
58.042897
  0
LINE
  8
0
  6
CONTINUOUS
 62
8
 10
315.000000
 20
23.000000
 11
312.000000
 21
23.000000
  0
LINE
  8
0
  6
CONTINUOUS
 62
8
 10
312.000000
 20
45.000000
 11
315.000000
 21
45.000000
  0
INSERT
  2
TDATUM
  8
0
 10
297.012560
 20
18.000000
 41
1.000000
 42
1.000000
 50
0.000000
  0
INSERT
  2
TDATUM
  8
0
 10
21.519022
 20
58.000000
 41
1.000000
 42
1.000000
 50
180.000000
  0
ENDBLK
  0
BLOCK
  2
TDATUM
  8
0
 70
0
 10
0.0
 20
0.0
 30
0.0
  0
LINE
  8
0
  6
CONTINUOUS
 62
6
 10
0.500000
 20
-1.500000
 11
0.500000
 21
-3.000000
  0
LINE
  8
0
  6
CONTINUOUS
 62
6
 10
1.500000
 20
-0.500000
 11
3.000000
 21
-0.500000
  0
LINE
  8
0
  6
CONTINUOUS
 62
6
 10
3.000000
 20
-1.500000
 11
1.500000
 21
-1.500000
  0
LINE
  8
0
  6
CONTINUOUS
 62
6
 10
1.500000
 20
-3.000000
 11
1.500000
 21
-1.500000
  0
CIRCLE
  8
0
  6
CONTINUOUS
 62
6
 10
1.000000
 20
-3.000000
 40
0.500000
  0
LINE
  8
0
  6
CONTINUOUS
 62
6
 10
-0.500000
 20
-1.500000
 11
-0.500000
 21
-3.000000
  0
LINE
  8
0
  6
CONTINUOUS
 62
6
 10
-1.500000
 20
-0.500000
 11
-3.000000
 21
-0.500000
  0
LINE
  8
0
  6
CONTINUOUS
 62
6
 10
-3.000000
 20
-1.500000
 11
-1.500000
 21
-1.500000
  0
LINE
  8
0
  6
CONTINUOUS
 62
6
 10
-1.500000
 20
-3.000000
 11
-1.500000
 21
-1.500000
  0
CIRCLE
  8
0
  6
CONTINUOUS
 62
6
 10
-1.000000
 20
-3.000000
 40
0.500000
  0
LINE
  8
0
  6
CONTINUOUS
 62
5
 10
1.000000
 20
-1.000000
 11
-1.000000
 21
1.000000
  0
LINE
  8
0
  6
CONTINUOUS
 62
5
 10
1.000000
 20
1.000000
 11
-1.000000
 21
-1.000000
  0
ARC
  8
0
  6
CONTINUOUS
 62
6
 10
1.500000
 20
-1.500000
 40
1.000000
 50
90.000000
 51
180.000000
  0
ARC
  8
0
  6
CONTINUOUS
 62
6
 10
-1.500000
 20
-1.500000
 40
1.000000
 50
0.000000
 51
90.000000
  0
LINE
  8
0
  6
CONTINUOUS
 62
6
 10
3.000000
 20
-1.500000
 11
3.000000
 21
-0.500000
  0
LINE
  8
0
  6
CONTINUOUS
 62
6
 10
-3.000000
 20
-1.500000
 11
-3.000000
 21
-0.500000
  0
ENDBLK
  0
BLOCK
  2
87603496-A
  8
0
 70
0
 10
0.0
 20
0.0
 30
0.0
  0
ARC
  8
0
  6
CONTINUOUS
 62
1
 10
83.000000
 20
35.348341
 40
2.000000
 50
180.000000
 51
270.000000
  0
LINE
  8
0
  6
CONTINUOUS
 62
1
 10
83.000000
 20
33.348341
 11
107.348341
 21
33.348341
  0
LINE
  8
0
  6
CONTINUOUS
 62
1
 10
107.348341
 20
33.348341
 11
107.348341
 21
23.348341
  0
LINE
  8
0
  6
CONTINUOUS
 62
1
 10
107.348341
 20
23.348341
 11
72.000000
 21
23.348341
  0
ARC
  8
0
  6
CONTINUOUS
 62
1
 10
72.000000
 20
21.348341
 40
2.000000
 50
90.000000
 51
180.000000
  0
LINE
  8
0
  6
CONTINUOUS
 62
1
 10
70.000000
 20
21.348341
 11
70.000000
 21
13.000000
  0
ARC
  8
0
  6
CONTINUOUS
 62
1
 10
67.000000
 20
13.000000
 40
3.000000
 50
270.000000
 51
0.000000
  0
LINE
  8
0
  6
CONTINUOUS
 62
1
 10
67.000000
 20
10.000000
 11
36.000000
 21
10.000000
  0
ARC
  8
0
  6
CONTINUOUS
 62
1
 10
36.000000
 20
13.000000
 40
3.000000
 50
180.000000
 51
270.000000
  0
LINE
  8
0
  6
CONTINUOUS
 62
1
 10
33.000000
 20
13.000000
 11
33.000000
 21
21.348341
  0
ARC
  8
0
  6
CONTINUOUS
 62
1
 10
31.000000
 20
21.348341
 40
2.000000
 50
0.000000
 51
90.000000
  0
LINE
  8
0
  6
CONTINUOUS
 62
1
 10
31.000000
 20
23.348341
 11
25.000000
 21
23.348341
  0
ARC
  8
0
  6
CONTINUOUS
 62
1
 10
25.000000
 20
21.348341
 40
2.000000
 50
90.000000
 51
180.000000
  0
LINE
  8
0
  6
CONTINUOUS
 62
1
 10
23.000000
 20
21.348341
 11
23.000000
 21
0.000000
  0
LINE
  8
0
  6
CONTINUOUS
 62
1
 10
23.000000
 20
0.000000
 11
0.000000
 21
0.000000
  0
LINE
  8
0
  6
CONTINUOUS
 62
1
 10
0.000000
 20
0.000000
 11
0.000000
 21
56.696681
  0
LINE
  8
0
  6
CONTINUOUS
 62
1
 10
0.000000
 20
56.696681
 11
81.000000
 21
56.696681
  0
LINE
  8
0
  6
CONTINUOUS
 62
1
 10
81.000000
 20
56.696681
 11
81.000000
 21
35.348341
  0
LINE
  8
0
  6
DASHED
 62
3
 10
23.000000
 20
19.174170
 11
0.000000
 21
19.174170
  0
LINE
  8
0
  6
DASHED
 62
3
 10
0.000000
 20
37.522511
 11
81.000000
 21
37.522511
  0
LINE
  8
0
  6
DASHED
 62
3
 10
70.000000
 20
19.174170
 11
33.000000
 21
19.174170
  0
LINE
  8
0
  6
DASHED
 62
3
 10
89.174170
 20
33.348341
 11
89.174170
 21
23.348341
  0
ENDBLK
  0
BLOCK
  2
9Y9194-00
  8
0
 70
0
 10
0.0
 20
0.0
 30
0.0
  0
LINE
  8
0
  6
CONTINUOUS
 62
1
 10
0.000000
 20
10.500000
 11
0.000000
 21
95.660911
  0
ARC
  8
0
  6
CONTINUOUS
 62
1
 10
3.000000
 20
95.660911
 40
3.000000
 50
90.000000
 51
180.000000
  0
LINE
  8
0
  6
CONTINUOUS
 62
1
 10
3.000000
 20
98.660911
 11
18.000000
 21
98.660911
  0
ARC
  8
0
  6
CONTINUOUS
 62
1
 10
18.000000
 20
95.660911
 40
3.000000
 50
0.000000
 51
90.000000
  0
LINE
  8
0
  6
CONTINUOUS
 62
1
 10
21.000000
 20
95.660911
 11
21.000000
 21
10.500000
  0
ARC
  8
0
  6
CONTINUOUS
 62
1
 10
10.500000
 20
10.500000
 40
10.500000
 50
180.000000
 51
0.000000
  0
LINE
  8
0
  6
CONTINUOUS
 62
1
 10
4.945000
 20
86.045911
 11
4.945000
 21
81.275911
  0
ARC
  8
0
  6
CONTINUOUS
 62
1
 10
10.500000
 20
81.275911
 40
5.555000
 50
180.000000
 51
0.000000
  0
LINE
  8
0
  6
CONTINUOUS
 62
1
 10
16.055000
 20
81.275911
 11
16.055000
 21
86.045911
  0
ARC
  8
0
  6
CONTINUOUS
 62
1
 10
10.500000
 20
86.045911
 40
5.555000
 50
0.000000
 51
180.000000
  0
CIRCLE
  8
0
  6
CONTINUOUS
 62
1
 10
10.500000
 20
10.500000
 40
5.250000
  0
LINE
  8
0
  6
DASHED
 62
3
 10
0.000000
 20
41.830455
 11
21.000000
 21
41.830455
  0
ARC
  8
0
  6
CONTINUOUS
 62
8
 10
6.203263
 20
34.327270
 40
1.552191
 50
184.398706
 51
274.398705
  0
ARC
  8
0
  6
CONTINUOUS
 62
8
 10
6.426539
 20
34.103994
 40
1.328438
 50
265.500001
 51
4.500000
  0
ARC
  8
0
  6
CONTINUOUS
 62
8
 10
6.230333
 20
34.164950
 40
1.521165
 50
1.630103
 51
104.630102
  0
ARC
  8
0
  6
CONTINUOUS
 62
8
 10
6.148862
 20
34.174191
 40
1.493606
 50
101.694426
 51
178.694429
  0
LINE
  8
0
  6
CONTINUOUS
 62
8
 10
4.655644
 20
36.827270
 11
7.036596
 21
38.732032
  0
LINE
  8
0
  6
CONTINUOUS
 62
8
 10
4.655644
 20
40.636794
 11
7.036596
 21
38.732032
  0
ARC
  8
0
  6
CONTINUOUS
 62
8
 10
6.203263
 20
43.374889
 40
1.552191
 50
184.398706
 51
274.398705
  0
ARC
  8
0
  6
CONTINUOUS
 62
8
 10
6.426539
 20
43.151614
 40
1.328438
 50
265.500001
 51
4.500000
  0
ARC
  8
0
  6
CONTINUOUS
 62
8
 10
6.230333
 20
43.212569
 40
1.521165
 50
1.630103
 51
104.630102
  0
ARC
  8
0
  6
CONTINUOUS
 62
8
 10
7.155644
 20
39.012242
 40
5.821372
 50
77.000000
 51
103.000000
  0
ARC
  8
0
  6
CONTINUOUS
 62
8
 10
8.162426
 20
43.221811
 40
1.493606
 50
1.305569
 51
78.305571
  0
ARC
  8
0
  6
CONTINUOUS
 62
8
 10
8.009896
 20
43.185859
 40
1.647236
 50
304.434950
 51
2.434949
  0
ARC
  8
0
  6
CONTINUOUS
 62
8
 10
6.148862
 20
43.221810
 40
1.493606
 50
101.694426
 51
178.694429
  0
ARC
  8
0
  6
CONTINUOUS
 62
8
 10
3.863161
 20
45.488861
 40
1.555432
 50
14.369898
 51
59.369897
  0
LINE
  8
0
  6
CONTINUOUS
 62
8
 10
4.655644
 20
46.827270
 11
9.655644
 21
46.827270
  0
ARC
  8
0
  6
CONTINUOUS
 62
8
 10
6.203263
 20
49.565365
 40
1.552191
 50
184.398706
 51
274.398705
  0
ARC
  8
0
  6
CONTINUOUS
 62
8
 10
6.426539
 20
49.342090
 40
1.328438
 50
265.500001
 51
4.500000
  0
ARC
  8
0
  6
CONTINUOUS
 62
8
 10
6.230333
 20
49.403045
 40
1.521165
 50
1.630103
 51
104.630102
  0
ARC
  8
0
  6
CONTINUOUS
 62
8
 10
7.155644
 20
45.202719
 40
5.821372
 50
77.000000
 51
103.000000
  0
ARC
  8
0
  6
CONTINUOUS
 62
8
 10
8.162426
 20
49.412287
 40
1.493606
 50
1.305569
 51
78.305571
  0
ARC
  8
0
  6
CONTINUOUS
 62
8
 10
8.009896
 20
49.376335
 40
1.647236
 50
304.434950
 51
2.434949
  0
ARC
  8
0
  6
CONTINUOUS
 62
8
 10
6.148862
 20
49.412287
 40
1.493606
 50
101.694426
 51
178.694429
  0
LINE
  8
0
  6
CONTINUOUS
 62
8
 10
9.655644
 20
54.446318
 11
4.655644
 21
54.446318
  0
LINE
  8
0
  6
CONTINUOUS
 62
8
 10
4.655644
 20
54.446318
 11
7.988977
 21
52.065365
  0
LINE
  8
0
  6
CONTINUOUS
 62
8
 10
7.988977
 20
52.065365
 11
7.988977
 21
55.636794
  0
ARC
  8
0
  6
CONTINUOUS
 62
8
 10
6.322311
 20
63.970127
 40
1.666667
 50
90.000001
 51
270.000000
  0
LINE
  8
0
  6
CONTINUOUS
 62
8
 10
6.322311
 20
62.303461
 11
7.988977
 21
62.303461
  0
ARC
  8
0
  6
CONTINUOUS
 62
8
 10
7.988977
 20
63.970127
 40
1.666667
 50
270.000001
 51
90.000000
  0
LINE
  8
0
  6
CONTINUOUS
 62
8
 10
7.988977
 20
65.636794
 11
6.322311
 21
65.636794
  0
ARC
  8
0
  6
CONTINUOUS
 62
8
 10
6.322311
 20
68.493937
 40
1.666667
 50
90.000001
 51
270.000000
  0
LINE
  8
0
  6
CONTINUOUS
 62
8
 10
6.322311
 20
66.827270
 11
7.988977
 21
66.827270
  0
ARC
  8
0
  6
CONTINUOUS
 62
8
 10
7.988977
 20
68.493937
 40
1.666667
 50
270.000001
 51
90.000000
  0
LINE
  8
0
  6
CONTINUOUS
 62
8
 10
7.988977
 20
70.160604
 11
6.322311
 21
70.160604
  0
ARC
  8
0
  6
CONTINUOUS
 62
8
 10
7.155644
 20
29.964623
 40
5.821372
 50
77.000000
 51
103.000000
  0
ARC
  8
0
  6
CONTINUOUS
 62
8
 10
8.162426
 20
34.174192
 40
1.493606
 50
1.305569
 51
78.305571
  0
ARC
  8
0
  6
CONTINUOUS
 62
8
 10
8.009896
 20
34.138240
 40
1.647236
 50
304.434950
 51
2.434949
  0
LINE
  8
0
  6
CONTINUOUS
 62
8
 10
7.036596
 20
38.732032
 11
9.655644
 21
38.732032
  0
LINE
  8
0
  6
CONTINUOUS
 62
8
 10
7.512787
 20
56.827270
 11
7.512787
 21
61.112984
  0
ENDBLK
  0
BLOCK
  2
433-6158-01
  8
0
 70
0
 10
0.0
 20
0.0
 30
0.0
  0
LINE
  8
0
  6
CONTINUOUS
 62
1
 10
1430.380622
 20
48.018217
 11
1427.241217
 21
8.018217
  0
LINE
  8
0
  6
CONTINUOUS
 62
1
 10
1427.241217
 20
8.018217
 11
1403.969872
 21
8.018217
  0
LINE
  8
0
  6
CONTINUOUS
 62
1
 10
1403.969872
 20
8.018217
 11
1404.715399
 21
17.517182
  0
LINE
  8
0
  6
CONTINUOUS
 62
1
 10
1404.715399
 20
17.517182
 11
1244.309918
 21
17.503424
  0
LINE
  8
0
  6
CONTINUOUS
 62
1
 10
1244.309918
 20
17.503424
 11
1244.309695
 21
20.103424
  0
ARC
  8
0
  6
CONTINUOUS
 62
1
 10
1242.809695
 20
20.103295
 40
1.500000
 50
0.004927
 51
180.004915
  0
LINE
  8
0
  6
CONTINUOUS
 62
1
 10
1241.309695
 20
20.103166
 11
1241.311444
 21
0.000000
  0
LINE
  8
0
  6
CONTINUOUS
 62
1
 10
1241.311444
 20
0.000000
 11
38.551439
 21
0.000000
  0
LINE
  8
0
  6
CONTINUOUS
 62
1
 10
38.551439
 20
0.000000
 11
38.549700
 21
20.000000
  0
ARC
  8
0
  6
CONTINUOUS
 62
1
 10
37.049700
 20
19.999871
 40
1.500000
 50
0.004927
 51
180.004915
  0
LINE
  8
0
  6
CONTINUOUS
 62
1
 10
35.549700
 20
19.999742
 11
35.550154
 21
14.699743
  0
LINE
  8
0
  6
CONTINUOUS
 62
1
 10
35.550154
 20
14.699743
 11
0.000000
 21
16.496693
  0
LINE
  8
0
  6
CONTINUOUS
 62
1
 10
0.000000
 20
16.496693
 11
1.796912
 21
52.496848
  0
LINE
  8
0
  6
CONTINUOUS
 62
1
 10
1.796912
 20
52.496848
 11
36.997049
 21
50.899867
  0
LINE
  8
0
  6
CONTINUOUS
 62
1
 10
36.997049
 20
50.899867
 11
1249.597045
 21
51.003877
  0
LINE
  8
0
  6
CONTINUOUS
 62
1
 10
1249.597045
 20
51.003877
 11
1406.428823
 21
39.348373
  0
LINE
  8
0
  6
CONTINUOUS
 62
1
 10
1406.428823
 20
39.348373
 11
1407.109277
 21
48.018217
  0
LINE
  8
0
  6
CONTINUOUS
 62
1
 10
1407.109277
 20
48.018217
 11
1430.380622
 21
48.018217
  0
LINE
  8
0
  6
DASHED
 62
3
 10
24.668511
 20
15.249776
 11
26.471785
 21
51.377383
  0
LINE
  8
0
  6
DASHED
 62
3
 10
31.859332
 20
14.886302
 11
33.664460
 21
51.051062
  0
LINE
  8
0
  6
DASHED
 62
3
 10
1241.310038
 20
16.103166
 11
38.550043
 21
16.000000
  0
LINE
  8
0
  6
DASHED
 62
3
 10
1251.554606
 20
50.858394
 11
1248.936768
 21
17.503821
  0
LINE
  8
0
  6
DASHED
 62
3
 10
1258.734865
 20
50.324768
 11
1256.158958
 21
17.504440
  0
LINE
  8
0
  6
CONTINUOUS
 62
11
 10
1410.890543
 20
44.861285
 11
1407.860269
 21
42.250263
  0
LINE
  8
0
  6
CONTINUOUS
 62
11
 10
1407.860269
 20
42.250263
 11
1407.625533
 21
39.259435
  0
LINE
  8
0
  6
CONTINUOUS
 62
11
 10
1407.625533
 20
39.259435
 11
1417.598116
 21
38.518288
  0
LINE
  8
0
  6
CONTINUOUS
 62
11
 10
1417.598116
 20
38.518288
 11
1415.949918
 21
17.518146
  0
LINE
  8
0
  6
CONTINUOUS
 62
11
 10
1415.949918
 20
17.518146
 11
1405.919098
 21
17.517286
  0
LINE
  8
0
  6
CONTINUOUS
 62
11
 10
1405.919098
 20
17.517286
 11
1405.674178
 21
14.396693
  0
LINE
  8
0
  6
CONTINUOUS
 62
11
 10
1405.674178
 20
14.396693
 11
1408.502605
 21
11.568266
  0
ENDBLK
  0
BLOCK
  2
BASE14-32ITEM01-5
  8
0
 70
0
 10
0.0
 20
0.0
 30
0.0
  0
LINE
  8
0
  6
CONTINUOUS
 62
1
 10
0.000000
 20
446.000000
 11
1149.000000
 21
446.000000
  0
LINE
  8
0
  6
CONTINUOUS
 62
1
 10
1149.000000
 20
446.000000
 11
1149.000000
 21
0.000000
  0
LINE
  8
0
  6
CONTINUOUS
 62
1
 10
1149.000000
 20
0.000000
 11
0.000000
 21
0.000000
  0
LINE
  8
0
  6
CONTINUOUS
 62
1
 10
0.000000
 20
0.000000
 11
0.000000
 21
446.000000
  0
LINE
  8
0
  6
CONTINUOUS
 62
1
 10
333.500000
 20
396.000000
 11
333.500000
 21
50.000000
  0
LINE
  8
0
  6
CONTINUOUS
 62
1
 10
333.500000
 20
50.000000
 11
103.500000
 21
50.000000
  0
LINE
  8
0
  6
CONTINUOUS
 62
1
 10
103.500000
 20
50.000000
 11
103.500000
 21
396.000000
  0
LINE
  8
0
  6
CONTINUOUS
 62
1
 10
103.500000
 20
396.000000
 11
333.500000
 21
396.000000
  0
LINE
  8
0
  6
CONTINUOUS
 62
1
 10
1045.500000
 20
396.000000
 11
1045.500000
 21
50.000000
  0
LINE
  8
0
  6
CONTINUOUS
 62
1
 10
1045.500000
 20
50.000000
 11
815.500000
 21
50.000000
  0
LINE
  8
0
  6
CONTINUOUS
 62
1
 10
815.500000
 20
50.000000
 11
815.500000
 21
396.000000
  0
LINE
  8
0
  6
CONTINUOUS
 62
1
 10
815.500000
 20
396.000000
 11
1045.500000
 21
396.000000
  0
CIRCLE
  8
0
  6
CONTINUOUS
 62
1
 10
574.500000
 20
211.020000
 40
100.000000
  0
LINE
  8
0
  6
CONTINUOUS
 62
1
 10
35.200000
 20
95.000000
 11
35.200000
 21
55.000000
  0
ARC
  8
0
  6
CONTINUOUS
 62
1
 10
40.200000
 20
55.000000
 40
5.000000
 50
180.000000
 51
0.000000
  0
LINE
  8
0
  6
CONTINUOUS
 62
1
 10
45.200000
 20
55.000000
 11
45.200000
 21
95.000000
  0
ARC
  8
0
  6
CONTINUOUS
 62
1
 10
40.200000
 20
95.000000
 40
5.000000
 50
0.000000
 51
180.000000
  0
ARC
  8
0
  6
CONTINUOUS
 62
1
 10
40.200000
 20
391.000000
 40
5.000000
 50
0.000000
 51
180.000000
  0
LINE
  8
0
  6
CONTINUOUS
 62
1
 10
35.200000
 20
391.000000
 11
35.200000
 21
351.000000
  0
ARC
  8
0
  6
CONTINUOUS
 62
1
 10
40.200000
 20
351.000000
 40
5.000000
 50
180.000000
 51
0.000000
  0
LINE
  8
0
  6
CONTINUOUS
 62
1
 10
45.200000
 20
351.000000
 11
45.200000
 21
391.000000
  0
ARC
  8
0
  6
CONTINUOUS
 62
1
 10
1108.800000
 20
95.000000
 40
5.000000
 50
0.000000
 51
180.000000
  0
LINE
  8
0
  6
CONTINUOUS
 62
1
 10
1103.800000
 20
95.000000
 11
1103.800000
 21
55.000000
  0
ARC
  8
0
  6
CONTINUOUS
 62
1
 10
1108.800000
 20
55.000000
 40
5.000000
 50
180.000000
 51
0.000000
  0
LINE
  8
0
  6
CONTINUOUS
 62
1
 10
1113.800000
 20
55.000000
 11
1113.800000
 21
95.000000
  0
ARC
  8
0
  6
CONTINUOUS
 62
1
 10
1108.800000
 20
391.000000
 40
5.000000
 50
0.000000
 51
180.000000
  0
LINE
  8
0
  6
CONTINUOUS
 62
1
 10
1103.800000
 20
391.000000
 11
1103.800000
 21
351.000000
  0
ARC
  8
0
  6
CONTINUOUS
 62
1
 10
1108.800000
 20
351.000000
 40
5.000000
 50
180.000000
 51
0.000000
  0
LINE
  8
0
  6
CONTINUOUS
 62
1
 10
1113.800000
 20
351.000000
 11
1113.800000
 21
391.000000
  0
CIRCLE
  8
0
  6
CONTINUOUS
 62
1
 10
448.990000
 20
96.990000
 40
3.175000
  0
CIRCLE
  8
0
  6
CONTINUOUS
 62
1
 10
448.990000
 20
349.010000
 40
3.175000
  0
CIRCLE
  8
0
  6
CONTINUOUS
 62
1
 10
574.500000
 20
46.000000
 40
3.175000
  0
CIRCLE
  8
0
  6
CONTINUOUS
 62
1
 10
574.500000
 20
55.000000
 40
3.175000
  0
CIRCLE
  8
0
  6
CONTINUOUS
 62
1
 10
574.500000
 20
417.500000
 40
3.175000
  0
CIRCLE
  8
0
  6
CONTINUOUS
 62
1
 10
574.500000
 20
431.200000
 40
3.175000
  0
CIRCLE
  8
0
  6
CONTINUOUS
 62
1
 10
700.010000
 20
96.990000
 40
3.175000
  0
CIRCLE
  8
0
  6
CONTINUOUS
 62
1
 10
700.010000
 20
349.010000
 40
3.175000
  0
ENDBLK
  0
BLOCK
  2
466-9350-00
  8
0
 70
0
 10
0.0
 20
0.0
 30
0.0
  0
ARC
  8
0
  6
CONTINUOUS
 62
1
 10
660.100000
 20
363.700000
 40
4.000000
 50
0.000000
 51
90.000000
  0
LINE
  8
0
  6
CONTINUOUS
 62
1
 10
660.100000
 20
367.700000
 11
4.000000
 21
367.700000
  0
ARC
  8
0
  6
CONTINUOUS
 62
1
 10
4.000000
 20
363.700000
 40
4.000000
 50
90.000000
 51
180.000000
  0
LINE
  8
0
  6
CONTINUOUS
 62
1
 10
0.000000
 20
363.700000
 11
0.000000
 21
14.830060
  0
ARC
  8
0
  6
CONTINUOUS
 62
1
 10
4.000000
 20
14.830060
 40
4.000000
 50
180.000000
 51
250.559965
  0
LINE
  8
0
  6
CONTINUOUS
 62
1
 10
2.668720
 20
11.058099
 11
33.353890
 21
0.228039
  0
ARC
  8
0
  6
CONTINUOUS
 62
1
 10
34.685171
 20
4.000000
 40
4.000000
 50
250.559965
 51
270.000000
  0
LINE
  8
0
  6
CONTINUOUS
 62
1
 10
34.685171
 20
0.000000
 11
678.600000
 21
0.000000
  0
ARC
  8
0
  6
CONTINUOUS
 62
1
 10
678.600000
 20
4.000000
 40
4.000000
 50
270.000000
 51
0.000000
  0
LINE
  8
0
  6
CONTINUOUS
 62
1
 10
682.600000
 20
4.000000
 11
682.600000
 21
7.500000
  0
ARC
  8
0
  6
CONTINUOUS
 62
1
 10
678.600000
 20
7.500000
 40
4.000000
 50
0.000000
 51
90.000000
  0
LINE
  8
0
  6
CONTINUOUS
 62
1
 10
678.600000
 20
11.500000
 11
675.600000
 21
11.500000
  0
ARC
  8
0
  6
CONTINUOUS
 62
1
 10
675.600000
 20
18.000000
 40
6.500000
 50
90.000000
 51
270.000000
  0
LINE
  8
0
  6
CONTINUOUS
 62
1
 10
675.600000
 20
24.500000
 11
678.600000
 21
24.500000
  0
ARC
  8
0
  6
CONTINUOUS
 62
1
 10
678.600000
 20
28.500000
 40
4.000000
 50
270.000000
 51
0.000000
  0
LINE
  8
0
  6
CONTINUOUS
 62
1
 10
682.600000
 20
28.500000
 11
682.600000
 21
55.000000
  0
ARC
  8
0
  6
CONTINUOUS
 62
1
 10
678.600000
 20
55.000000
 40
4.000000
 50
0.000000
 51
90.000000
  0
LINE
  8
0
  6
CONTINUOUS
 62
1
 10
678.600000
 20
59.000000
 11
676.100000
 21
59.000000
  0
ARC
  8
0
  6
CONTINUOUS
 62
1
 10
676.100000
 20
68.000000
 40
9.000000
 50
180.000000
 51
270.000000
  0
LINE
  8
0
  6
CONTINUOUS
 62
1
 10
667.100000
 20
68.000000
 11
667.100000
 21
93.000000
  0
ARC
  8
0
  6
CONTINUOUS
 62
1
 10
676.100000
 20
93.000000
 40
9.000000
 50
90.000000
 51
180.000000
  0
LINE
  8
0
  6
CONTINUOUS
 62
1
 10
676.100000
 20
102.000000
 11
678.600000
 21
102.000000
  0
ARC
  8
0
  6
CONTINUOUS
 62
1
 10
678.600000
 20
106.000000
 40
4.000000
 50
270.000000
 51
0.000000
  0
LINE
  8
0
  6
CONTINUOUS
 62
1
 10
682.600000
 20
106.000000
 11
682.600000
 21
176.300000
  0
ARC
  8
0
  6
CONTINUOUS
 62
1
 10
678.600000
 20
176.300000
 40
4.000000
 50
0.000000
 51
90.000000
  0
LINE
  8
0
  6
CONTINUOUS
 62
1
 10
678.600000
 20
180.300000
 11
668.100000
 21
180.300000
  0
ARC
  8
0
  6
CONTINUOUS
 62
1
 10
668.100000
 20
184.300000
 40
4.000000
 50
180.000000
 51
270.000000
  0
LINE
  8
0
  6
CONTINUOUS
 62
1
 10
664.100000
 20
184.300000
 11
664.100000
 21
363.700000
  0
CIRCLE
  8
0
  6
CONTINUOUS
 62
1
 10
394.000000
 20
38.900000
 40
6.800000
  0
CIRCLE
  8
0
  6
CONTINUOUS
 62
1
 10
45.500000
 20
353.000000
 40
6.550000
  0
CIRCLE
  8
0
  6
CONTINUOUS
 62
1
 10
102.500000
 20
38.000000
 40
6.550000
  0
CIRCLE
  8
0
  6
CONTINUOUS
 62
1
 10
235.500000
 20
353.000000
 40
6.550000
  0
CIRCLE
  8
0
  6
CONTINUOUS
 62
1
 10
425.500000
 20
353.000000
 40
6.550000
  0
CIRCLE
  8
0
  6
CONTINUOUS
 62
1
 10
615.500000
 20
353.000000
 40
6.550000
  0
LINE
  8
0
  6
CONTINUOUS
 62
8
 10
565.187071
 20
25.534066
 11
565.187071
 21
35.534066
  0
LINE
  8
0
  6
CONTINUOUS
 62
8
 10
565.187071
 20
35.534066
 11
560.425167
 21
28.867399
  0
LINE
  8
0
  6
CONTINUOUS
 62
8
 10
560.425167
 20
28.867399
 11
567.568024
 21
28.867399
  0
ARC
  8
0
  6
CONTINUOUS
 62
8
 10
581.293318
 20
30.534066
 40
11.642744
 50
167.000000
 51
193.000000
  0
ARC
  8
0
  6
CONTINUOUS
 62
8
 10
572.874181
 20
28.520503
 40
2.987212
 50
191.694429
 51
268.694431
  0
LINE
  8
0
  6
CONTINUOUS
 62
8
 10
572.806119
 20
25.534066
 11
573.282310
 21
25.534066
  0
ARC
  8
0
  6
CONTINUOUS
 62
8
 10
573.044214
 20
28.629304
 40
3.104382
 50
274.398705
 51
4.398704
  0
ARC
  8
0
  6
CONTINUOUS
 62
8
 10
572.806119
 20
28.867399
 40
3.333333
 50
0.000000
 51
89.999999
  0
ARC
  8
0
  6
CONTINUOUS
 62
8
 10
572.892664
 20
29.159634
 40
3.042330
 50
91.630102
 51
194.630102
  0
ARC
  8
0
  6
CONTINUOUS
 62
8
 10
572.874181
 20
32.547630
 40
2.987212
 50
91.305571
 51
168.305574
  0
ARC
  8
0
  6
CONTINUOUS
 62
8
 10
572.946085
 20
32.242569
 40
3.294471
 50
34.434949
 51
92.434948
  0
ARC
  8
0
  6
CONTINUOUS
 62
8
 10
589.864746
 20
30.534066
 40
11.642744
 50
167.000000
 51
193.000000
  0
ARC
  8
0
  6
CONTINUOUS
 62
8
 10
581.445610
 20
28.520503
 40
2.987212
 50
191.694429
 51
268.694431
  0
LINE
  8
0
  6
CONTINUOUS
 62
8
 10
581.377548
 20
25.534066
 11
581.853738
 21
25.534066
  0
ARC
  8
0
  6
CONTINUOUS
 62
8
 10
581.615643
 20
28.629304
 40
3.104382
 50
274.398705
 51
4.398704
  0
ARC
  8
0
  6
CONTINUOUS
 62
8
 10
581.377548
 20
28.867399
 40
3.333333
 50
0.000000
 51
89.999999
  0
ARC
  8
0
  6
CONTINUOUS
 62
8
 10
581.464092
 20
29.159634
 40
3.042330
 50
91.630102
 51
194.630102
  0
ARC
  8
0
  6
CONTINUOUS
 62
8
 10
581.445610
 20
32.547630
 40
2.987212
 50
91.305571
 51
168.305574
  0
ARC
  8
0
  6
CONTINUOUS
 62
8
 10
581.517513
 20
32.242569
 40
3.294471
 50
34.434949
 51
92.434948
  0
LINE
  8
0
  6
CONTINUOUS
 62
8
 10
587.091833
 20
29.819780
 11
595.663262
 21
29.819780
  0
ARC
  8
0
  6
CONTINUOUS
 62
8
 10
601.139452
 20
32.438828
 40
3.104382
 50
94.398706
 51
184.398705
  0
ARC
  8
0
  6
CONTINUOUS
 62
8
 10
600.692901
 20
31.992277
 40
2.656877
 50
175.500001
 51
274.500000
  0
ARC
  8
0
  6
CONTINUOUS
 62
8
 10
600.814813
 20
32.384689
 40
3.042330
 50
271.630103
 51
14.630102
  0
ARC
  8
0
  6
CONTINUOUS
 62
8
 10
600.761391
 20
28.825563
 40
3.294471
 50
214.434950
 51
272.434949
  0
ARC
  8
0
  6
CONTINUOUS
 62
8
 10
600.833295
 20
28.520503
 40
2.987212
 50
271.305569
 51
348.305571
  0
ARC
  8
0
  6
CONTINUOUS
 62
8
 10
592.414159
 20
30.534066
 40
11.642744
 50
347.000000
 51
13.000000
  0
ARC
  8
0
  6
CONTINUOUS
 62
8
 10
600.833295
 20
32.547630
 40
2.987212
 50
11.694426
 51
88.694429
  0
ARC
  8
0
  6
CONTINUOUS
 62
8
 10
610.956716
 20
30.644783
 40
1.081177
 50
33.934948
 51
92.934949
  0
ARC
  8
0
  6
CONTINUOUS
 62
8
 10
606.240456
 20
28.887600
 40
6.089506
 50
359.809932
 51
22.809932
  0
ARC
  8
0
  6
CONTINUOUS
 62
8
 10
609.234690
 20
28.629304
 40
3.104382
 50
274.398706
 51
4.398705
  0
ARC
  8
0
  6
CONTINUOUS
 62
8
 10
609.540848
 20
28.520502
 40
2.987212
 50
191.694426
 51
268.694429
  0
LINE
  8
0
  6
CONTINUOUS
 62
8
 10
606.139452
 20
35.534066
 11
611.377548
 21
35.534066
  0
LINE
  8
0
  6
CONTINUOUS
 62
8
 10
611.377548
 20
35.534066
 11
608.520405
 21
31.724542
  0
LINE
  8
0
  6
CONTINUOUS
 62
8
 10
608.520405
 20
31.724542
 11
610.901357
 21
31.724542
  0
ARC
  8
0
  6
CONTINUOUS
 62
8
 10
617.690492
 20
29.221122
 40
3.221300
 50
129.000000
 51
141.000000
  0
ARC
  8
0
  6
CONTINUOUS
 62
8
 10
617.266131
 20
29.296887
 40
2.909072
 50
93.434949
 51
123.434949
  0
ARC
  8
0
  6
CONTINUOUS
 62
8
 10
618.282310
 20
27.044214
 40
5.292156
 50
77.000000
 51
103.000000
  0
ARC
  8
0
  6
CONTINUOUS
 62
8
 10
618.544327
 20
29.843702
 40
2.533304
 50
21.499998
 51
68.500000
  0
ARC
  8
0
  6
CONTINUOUS
 62
8
 10
616.239877
 20
28.594886
 40
5.144893
 50
3.036243
 51
25.036243
  0
ARC
  8
0
  6
CONTINUOUS
 62
8
 10
618.282309
 20
28.629304
 40
3.104382
 50
274.398706
 51
4.398705
  0
ARC
  8
0
  6
CONTINUOUS
 62
8
 10
618.588467
 20
28.520502
 40
2.987212
 50
191.694426
 51
268.694429
  0
LINE
  8
0
  6
CONTINUOUS
 62
8
 10
615.187071
 20
31.248352
 11
615.663262
 21
35.534066
  0
LINE
  8
0
  6
CONTINUOUS
 62
8
 10
615.663262
 20
35.534066
 11
620.425167
 21
35.534066
  0
ARC
  8
0
  6
CONTINUOUS
 62
8
 10
627.091833
 20
28.867399
 40
3.333333
 50
180.000001
 51
0.000000
  0
LINE
  8
0
  6
CONTINUOUS
 62
8
 10
630.425167
 20
28.867399
 11
630.425167
 21
32.200733
  0
ARC
  8
0
  6
CONTINUOUS
 62
8
 10
627.091833
 20
32.200733
 40
3.333333
 50
0.000001
 51
180.000000
  0
LINE
  8
0
  6
CONTINUOUS
 62
8
 10
623.758500
 20
32.200733
 11
623.758500
 21
28.867399
  0
ENDBLK
  0
BLOCK
  2
5542190-01
  8
0
 70
0
 10
0.0
 20
0.0
 30
0.0
  0
ARC
  8
0
  6
CONTINUOUS
 62
1
 10
263.630741
 20
42.408955
 40
3.000005
 50
0.000093
 51
142.564106
  0
LINE
  8
0
  6
CONTINUOUS
 62
1
 10
266.630738
 20
42.408960
 11
266.630738
 21
5.000000
  0
LINE
  8
0
  6
CONTINUOUS
 62
1
 10
266.630738
 20
5.000000
 11
271.630738
 21
0.000000
  0
LINE
  8
0
  6
CONTINUOUS
 62
1
 10
271.630738
 20
0.000000
 11
300.630738
 21
0.000000
  0
LINE
  8
0
  6
CONTINUOUS
 62
1
 10
300.630738
 20
0.000000
 11
305.630738
 21
5.000000
  0
LINE
  8
0
  6
CONTINUOUS
 62
1
 10
305.630738
 20
5.000000
 11
305.630738
 21
62.818092
  0
ARC
  8
0
  6
CONTINUOUS
 62
1
 10
305.585218
 20
68.817919
 40
6.000000
 50
0.000000
 51
270.434691
  0
LINE
  8
0
  6
CONTINUOUS
 62
1
 10
311.585218
 20
68.817919
 11
336.539698
 21
68.817919
  0
LINE
  8
0
  6
CONTINUOUS
 62
1
 10
336.539698
 20
68.817919
 11
336.539698
 21
182.817919
  0
LINE
  8
0
  6
CONTINUOUS
 62
1
 10
336.539698
 20
182.817919
 11
311.585218
 21
182.817919
  0
ARC
  8
0
  6
CONTINUOUS
 62
1
 10
305.585218
 20
182.817919
 40
6.000000
 50
89.565309
 51
0.000000
  0
LINE
  8
0
  6
CONTINUOUS
 62
1
 10
305.630738
 20
188.817746
 11
305.630738
 21
246.135838
  0
LINE
  8
0
  6
CONTINUOUS
 62
1
 10
305.630738
 20
246.135838
 11
300.630738
 21
251.135838
  0
LINE
  8
0
  6
CONTINUOUS
 62
1
 10
300.630738
 20
251.135838
 11
86.630738
 21
251.135838
  0
LINE
  8
0
  6
CONTINUOUS
 62
1
 10
86.630738
 20
251.135838
 11
81.630738
 21
246.135838
  0
LINE
  8
0
  6
CONTINUOUS
 62
1
 10
81.630738
 20
246.135838
 11
81.630738
 21
207.976879
  0
ARC
  8
0
  6
CONTINUOUS
 62
1
 10
78.630738
 20
207.976879
 40
3.000000
 50
180.000000
 51
0.000000
  0
LINE
  8
0
  6
CONTINUOUS
 62
1
 10
75.630738
 20
207.976879
 11
75.630738
 21
218.776879
  0
LINE
  8
0
  6
CONTINUOUS
 62
1
 10
75.630738
 20
218.776879
 11
70.630738
 21
223.776879
  0
LINE
  8
0
  6
CONTINUOUS
 62
1
 10
70.630738
 20
223.776879
 11
21.330738
 21
223.776879
  0
LINE
  8
0
  6
CONTINUOUS
 62
1
 10
21.330738
 20
223.776879
 11
76.876096
 21
186.802721
  0
ARC
  8
0
  6
CONTINUOUS
 62
1
 10
81.361778
 20
182.817919
 40
6.000000
 50
180.000000
 51
138.384097
  0
LINE
  8
0
  6
CONTINUOUS
 62
1
 10
75.361778
 20
182.817919
 11
5.000000
 21
182.817919
  0
ARC
  8
0
  6
CONTINUOUS
 62
1
 10
5.000000
 20
177.817919
 40
5.000000
 50
90.000000
 51
180.000000
  0
LINE
  8
0
  6
CONTINUOUS
 62
1
 10
0.000000
 20
177.817919
 11
0.000000
 21
73.817919
  0
ARC
  8
0
  6
CONTINUOUS
 62
1
 10
5.000000
 20
73.817919
 40
5.000000
 50
180.000000
 51
270.000000
  0
LINE
  8
0
  6
CONTINUOUS
 62
1
 10
5.000000
 20
68.817919
 11
75.361778
 21
68.817919
  0
ARC
  8
0
  6
CONTINUOUS
 62
1
 10
81.361778
 20
68.817919
 40
6.000000
 50
221.615903
 51
180.000000
  0
LINE
  8
0
  6
CONTINUOUS
 62
1
 10
76.876096
 20
64.833117
 11
21.330738
 21
27.858960
  0
LINE
  8
0
  6
CONTINUOUS
 62
1
 10
21.330738
 20
27.858960
 11
31.130738
 21
27.858960
  0
LINE
  8
0
  6
CONTINUOUS
 62
1
 10
31.130738
 20
27.858960
 11
51.768757
 21
38.540039
  0
ARC
  8
0
  6
CONTINUOUS
 62
1
 10
56.365106
 20
29.658960
 40
10.000000
 50
90.000000
 51
117.363547
  0
LINE
  8
0
  6
CONTINUOUS
 62
1
 10
56.365106
 20
39.658960
 11
71.430738
 21
39.658960
  0
LINE
  8
0
  6
CONTINUOUS
 62
1
 10
71.430738
 20
39.658960
 11
76.318700
 21
45.570629
  0
ARC
  8
0
  6
CONTINUOUS
 62
1
 10
78.630738
 20
43.658960
 40
3.000000
 50
0.000000
 51
140.414943
  0
LINE
  8
0
  6
CONTINUOUS
 62
1
 10
81.630738
 20
43.658960
 11
81.630738
 21
7.500000
  0
LINE
  8
0
  6
CONTINUOUS
 62
1
 10
81.630738
 20
7.500000
 11
86.630738
 21
2.500000
  0
LINE
  8
0
  6
CONTINUOUS
 62
1
 10
86.630738
 20
2.500000
 11
133.630738
 21
2.500000
  0
LINE
  8
0
  6
CONTINUOUS
 62
1
 10
133.630738
 20
2.500000
 11
153.630738
 21
22.500000
  0
LINE
  8
0
  6
CONTINUOUS
 62
1
 10
153.630738
 20
22.500000
 11
255.630738
 21
22.500000
  0
LINE
  8
0
  6
CONTINUOUS
 62
1
 10
255.630738
 20
22.500000
 11
260.630738
 21
27.500000
  0
LINE
  8
0
  6
CONTINUOUS
 62
1
 10
260.630738
 20
27.500000
 11
260.630738
 21
42.408960
  0
ARC
  8
0
  6
CONTINUOUS
 62
1
 10
263.630741
 20
42.408955
 40
3.000003
 50
151.923054
 51
179.999907
  0
ARC
  8
0
  6
CONTINUOUS
 62
1
 10
263.617242
 20
42.417643
 40
2.984005
 50
142.539010
 51
151.948252
  0
CIRCLE
  8
0
  6
CONTINUOUS
 62
1
 10
98.630738
 20
17.500000
 40
6.850000
  0
CIRCLE
  8
0
  6
CONTINUOUS
 62
1
 10
193.630738
 20
236.135838
 40
6.850000
  0
CIRCLE
  8
0
  6
CONTINUOUS
 62
1
 10
288.630738
 20
15.000000
 40
6.850000
  0
LINE
  8
0
  6
DASHED
 62
3
 10
81.361778
 20
176.817919
 11
81.361778
 21
74.817919
  0
LINE
  8
0
  6
DASHED
 62
3
 10
81.630738
 20
34.704480
 11
260.630738
 21
34.704480
  0
LINE
  8
0
  6
DASHED
 62
3
 10
305.630738
 20
216.931358
 11
81.630738
 21
216.931358
  0
LINE
  8
0
  6
DASHED
 62
3
 10
87.361606
 20
68.863439
 11
299.585391
 21
68.863439
  0
LINE
  8
0
  6
DASHED
 62
3
 10
299.585391
 20
182.772399
 11
87.361606
 21
182.772399
  0
LINE
  8
0
  6
DASHED
 62
3
 10
266.630738
 20
34.704480
 11
305.630738
 21
34.704480
  0
LINE
  8
0
  6
DASHED
 62
3
 10
305.585218
 20
74.817919
 11
305.585218
 21
176.817919
  0
ARC
  8
0
  6
CONTINUOUS
 62
8
 10
257.332290
 20
85.166106
 40
2.254910
 50
129.000000
 51
141.000000
  0
ARC
  8
0
  6
CONTINUOUS
 62
8
 10
257.035237
 20
85.219142
 40
2.036350
 50
93.434949
 51
123.434949
  0
ARC
  8
0
  6
CONTINUOUS
 62
8
 10
257.746562
 20
83.642271
 40
3.704509
 50
77.000000
 51
103.000000
  0
ARC
  8
0
  6
CONTINUOUS
 62
8
 10
257.929974
 20
85.601912
 40
1.773313
 50
21.499998
 51
68.500000
  0
ARC
  8
0
  6
CONTINUOUS
 62
8
 10
256.316860
 20
84.727741
 40
3.601425
 50
3.036243
 51
25.036243
  0
ARC
  8
0
  6
CONTINUOUS
 62
8
 10
257.746562
 20
84.751834
 40
2.173068
 50
274.398706
 51
4.398705
  0
ARC
  8
0
  6
CONTINUOUS
 62
8
 10
257.960873
 20
84.675673
 40
2.091048
 50
191.694426
 51
268.694429
  0
LINE
  8
0
  6
CONTINUOUS
 62
8
 10
259.246562
 20
89.585167
 11
255.913229
 21
89.585167
  0
LINE
  8
0
  6
CONTINUOUS
 62
8
 10
255.913229
 20
89.585167
 11
255.579896
 21
86.585167
  0
ARC
  8
0
  6
CONTINUOUS
 62
8
 10
263.665623
 20
85.166106
 40
2.254910
 50
129.000000
 51
141.000000
  0
ARC
  8
0
  6
CONTINUOUS
 62
8
 10
263.368571
 20
85.219142
 40
2.036350
 50
93.434949
 51
123.434949
  0
ARC
  8
0
  6
CONTINUOUS
 62
8
 10
264.079896
 20
83.642271
 40
3.704509
 50
77.000000
 51
103.000000
  0
ARC
  8
0
  6
CONTINUOUS
 62
8
 10
264.263308
 20
85.601912
 40
1.773313
 50
21.499998
 51
68.500000
  0
ARC
  8
0
  6
CONTINUOUS
 62
8
 10
262.650193
 20
84.727741
 40
3.601425
 50
3.036243
 51
25.036243
  0
ARC
  8
0
  6
CONTINUOUS
 62
8
 10
264.079896
 20
84.751834
 40
2.173068
 50
274.398706
 51
4.398705
  0
ARC
  8
0
  6
CONTINUOUS
 62
8
 10
264.294206
 20
84.675673
 40
2.091048
 50
191.694426
 51
268.694429
  0
LINE
  8
0
  6
CONTINUOUS
 62
8
 10
265.579896
 20
89.585167
 11
262.246562
 21
89.585167
  0
LINE
  8
0
  6
CONTINUOUS
 62
8
 10
262.246562
 20
89.585167
 11
261.913229
 21
86.585167
  0
LINE
  8
0
  6
CONTINUOUS
 62
8
 10
271.246562
 20
82.585167
 11
271.246562
 21
89.585167
  0
LINE
  8
0
  6
CONTINUOUS
 62
8
 10
271.246562
 20
89.585167
 11
267.913229
 21
84.918500
  0
LINE
  8
0
  6
CONTINUOUS
 62
8
 10
267.913229
 20
84.918500
 11
272.913229
 21
84.918500
  0
LINE
  8
0
  6
CONTINUOUS
 62
8
 10
274.579896
 20
85.585167
 11
280.579896
 21
85.585167
  0
ARC
  8
0
  6
CONTINUOUS
 62
8
 10
284.188474
 20
87.621539
 40
1.964487
 50
88.305569
 51
171.305571
  0
ARC
  8
0
  6
CONTINUOUS
 62
8
 10
284.196149
 20
87.612255
 40
1.973556
 50
29.536243
 51
88.536243
  0
ARC
  8
0
  6
CONTINUOUS
 62
8
 10
282.951473
 20
87.418500
 40
3.183255
 50
338.500002
 51
21.500000
  0
ARC
  8
0
  6
CONTINUOUS
 62
8
 10
281.632374
 20
88.420808
 40
4.798975
 50
313.130102
 51
333.130102
  0
LINE
  8
0
  6
CONTINUOUS
 62
8
 10
284.913229
 20
84.918500
 11
282.579896
 21
82.585167
  0
LINE
  8
0
  6
CONTINUOUS
 62
8
 10
282.579896
 20
82.585167
 11
285.913229
 21
82.585167
  0
ARC
  8
0
  6
CONTINUOUS
 62
8
 10
287.039456
 20
90.694643
 40
2.177605
 50
284.369898
 51
329.369897
  0
LINE
  8
0
  6
CONTINUOUS
 62
8
 10
288.913229
 20
89.585167
 11
288.913229
 21
82.585167
  0
ARC
  8
0
  6
CONTINUOUS
 62
8
 10
292.746562
 20
87.418500
 40
2.173068
 50
94.398706
 51
184.398705
  0
ARC
  8
0
  6
CONTINUOUS
 62
8
 10
292.433976
 20
87.105914
 40
1.859814
 50
175.500001
 51
274.500000
  0
ARC
  8
0
  6
CONTINUOUS
 62
8
 10
292.519314
 20
87.380603
 40
2.129631
 50
271.630103
 51
14.630102
  0
ARC
  8
0
  6
CONTINUOUS
 62
8
 10
292.481920
 20
84.889215
 40
2.306130
 50
214.434950
 51
272.434949
  0
ARC
  8
0
  6
CONTINUOUS
 62
8
 10
292.532252
 20
84.675673
 40
2.091048
 50
271.305569
 51
348.305571
  0
ARC
  8
0
  6
CONTINUOUS
 62
8
 10
286.638857
 20
86.085167
 40
8.149921
 50
347.000000
 51
13.000000
  0
ARC
  8
0
  6
CONTINUOUS
 62
8
 10
292.532252
 20
87.494661
 40
2.091048
 50
11.694426
 51
88.694429
  0
ARC
  8
0
  6
CONTINUOUS
 62
8
 10
298.579896
 20
84.918500
 40
2.333333
 50
180.000001
 51
0.000000
  0
LINE
  8
0
  6
CONTINUOUS
 62
8
 10
300.913229
 20
84.918500
 11
300.913229
 21
87.251834
  0
ARC
  8
0
  6
CONTINUOUS
 62
8
 10
298.579896
 20
87.251834
 40
2.333333
 50
0.000001
 51
180.000000
  0
LINE
  8
0
  6
CONTINUOUS
 62
8
 10
296.246562
 20
87.251834
 11
296.246562
 21
84.918500
  0
INSERT
  2
TDATUM
  8
0
 10
213.344629
 20
22.500000
 41
1.000000
 42
1.000000
 50
0.000000
  0
INSERT
  2
TDATUM
  8
0
 10
31.022394
 20
182.817919
 41
1.000000
 42
1.000000
 50
180.000000
  0
ENDBLK
  0
BLOCK
  2
5256179-00
  8
0
 70
0
 10
0.0
 20
0.0
 30
0.0
  0
ARC
  8
0
  6
CONTINUOUS
 62
1
 10
200.000000
 20
50.000000
 40
10.000000
 50
90.000000
 51
180.000000
  0
LINE
  8
0
  6
CONTINUOUS
 62
1
 10
0.000000
 20
30.000000
 11
30.000000
 21
0.000000
  0
LINE
  8
0
  6
CONTINUOUS
 62
1
 10
30.000000
 20
0.000000
 11
180.000000
 21
0.000000
  0
LINE
  8
0
  6
CONTINUOUS
 62
1
 10
180.000000
 20
0.000000
 11
190.000000
 21
10.000000
  0
LINE
  8
0
  6
CONTINUOUS
 62
1
 10
190.000000
 20
10.000000
 11
190.000000
 21
50.000000
  0
LINE
  8
0
  6
CONTINUOUS
 62
1
 10
200.000000
 20
60.000000
 11
210.000000
 21
60.000000
  0
LINE
  8
0
  6
CONTINUOUS
 62
1
 10
210.000000
 20
60.000000
 11
220.000000
 21
70.000000
  0
LINE
  8
0
  6
CONTINUOUS
 62
1
 10
220.000000
 20
70.000000
 11
220.000000
 21
165.000000
  0
LINE
  8
0
  6
CONTINUOUS
 62
1
 10
220.000000
 20
165.000000
 11
180.000000
 21
235.000000
  0
LINE
  8
0
  6
CONTINUOUS
 62
1
 10
180.000000
 20
235.000000
 11
30.000000
 21
235.000000
  0
LINE
  8
0
  6
CONTINUOUS
 62
1
 10
30.000000
 20
235.000000
 11
0.000000
 21
205.000000
  0
LINE
  8
0
  6
CONTINUOUS
 62
1
 10
0.000000
 20
205.000000
 11
0.000000
 21
30.000000
  0
LINE
  8
0
  6
CONTINUOUS
 62
8
 10
11.255000
 20
161.700000
 11
14.955000
 21
155.290000
  0
LINE
  8
0
  6
CONTINUOUS
 62
8
 10
14.955000
 20
155.290000
 11
22.245000
 21
155.290000
  0
LINE
  8
0
  6
CONTINUOUS
 62
8
 10
22.245000
 20
155.290000
 11
25.945000
 21
161.700000
  0
LINE
  8
0
  6
CONTINUOUS
 62
8
 10
25.945000
 20
161.700000
 11
22.245000
 21
168.110000
  0
LINE
  8
0
  6
CONTINUOUS
 62
8
 10
22.245000
 20
168.110000
 11
14.955000
 21
168.110000
  0
LINE
  8
0
  6
CONTINUOUS
 62
8
 10
14.955000
 20
168.110000
 11
11.255000
 21
161.700000
  0
CIRCLE
  8
0
  6
CONTINUOUS
 62
1
 10
18.600000
 20
161.700000
 40
4.750000
  0
CIRCLE
  8
0
  6
CONTINUOUS
 62
1
 10
40.000000
 20
15.000000
 40
6.750000
  0
CIRCLE
  8
0
  6
CONTINUOUS
 62
1
 10
40.000000
 20
221.000000
 40
6.750000
  0
LINE
  8
0
  6
CONTINUOUS
 62
8
 10
77.055000
 20
217.000000
 11
80.755000
 21
210.590000
  0
LINE
  8
0
  6
CONTINUOUS
 62
8
 10
80.755000
 20
210.590000
 11
88.045000
 21
210.590000
  0
LINE
  8
0
  6
CONTINUOUS
 62
8
 10
88.045000
 20
210.590000
 11
91.745000
 21
217.000000
  0
LINE
  8
0
  6
CONTINUOUS
 62
8
 10
91.745000
 20
217.000000
 11
88.045000
 21
223.410000
  0
LINE
  8
0
  6
CONTINUOUS
 62
8
 10
88.045000
 20
223.410000
 11
80.755000
 21
223.410000
  0
LINE
  8
0
  6
CONTINUOUS
 62
8
 10
80.755000
 20
223.410000
 11
77.055000
 21
217.000000
  0
CIRCLE
  8
0
  6
CONTINUOUS
 62
1
 10
84.400000
 20
217.000000
 40
4.750000
  0
LINE
  8
0
  6
CONTINUOUS
 62
8
 10
131.255000
 20
18.700000
 11
134.955000
 21
12.290000
  0
LINE
  8
0
  6
CONTINUOUS
 62
8
 10
134.955000
 20
12.290000
 11
142.245000
 21
12.290000
  0
LINE
  8
0
  6
CONTINUOUS
 62
8
 10
142.245000
 20
12.290000
 11
145.945000
 21
18.700000
  0
LINE
  8
0
  6
CONTINUOUS
 62
8
 10
145.945000
 20
18.700000
 11
142.245000
 21
25.110000
  0
LINE
  8
0
  6
CONTINUOUS
 62
8
 10
142.245000
 20
25.110000
 11
134.955000
 21
25.110000
  0
LINE
  8
0
  6
CONTINUOUS
 62
8
 10
134.955000
 20
25.110000
 11
131.255000
 21
18.700000
  0
CIRCLE
  8
0
  6
CONTINUOUS
 62
1
 10
138.600000
 20
18.700000
 40
4.750000
  0
CIRCLE
  8
0
  6
CONTINUOUS
 62
1
 10
170.000000
 20
15.000000
 40
6.750000
  0
CIRCLE
  8
0
  6
CONTINUOUS
 62
1
 10
170.000000
 20
221.000000
 40
6.750000
  0
LINE
  8
0
  6
CONTINUOUS
 62
8
 10
197.155000
 20
74.000000
 11
200.855000
 21
67.590000
  0
LINE
  8
0
  6
CONTINUOUS
 62
8
 10
200.855000
 20
67.590000
 11
208.145000
 21
67.590000
  0
LINE
  8
0
  6
CONTINUOUS
 62
8
 10
208.145000
 20
67.590000
 11
211.845000
 21
74.000000
  0
LINE
  8
0
  6
CONTINUOUS
 62
8
 10
211.845000
 20
74.000000
 11
208.145000
 21
80.410000
  0
LINE
  8
0
  6
CONTINUOUS
 62
8
 10
208.145000
 20
80.410000
 11
200.855000
 21
80.410000
  0
LINE
  8
0
  6
CONTINUOUS
 62
8
 10
200.855000
 20
80.410000
 11
197.155000
 21
74.000000
  0
CIRCLE
  8
0
  6
CONTINUOUS
 62
1
 10
204.500000
 20
74.000000
 40
4.750000
  0
ARC
  8
0
  6
CONTINUOUS
 62
8
 10
66.442796
 20
28.134718
 40
1.932780
 50
129.000000
 51
141.000000
  0
ARC
  8
0
  6
CONTINUOUS
 62
8
 10
66.188180
 20
28.180177
 40
1.745443
 50
93.434949
 51
123.434949
  0
ARC
  8
0
  6
CONTINUOUS
 62
8
 10
66.797887
 20
26.828573
 40
3.175294
 50
77.000000
 51
103.000000
  0
ARC
  8
0
  6
CONTINUOUS
 62
8
 10
66.955097
 20
28.508266
 40
1.519982
 50
21.499998
 51
68.500000
  0
ARC
  8
0
  6
CONTINUOUS
 62
8
 10
65.572427
 20
27.758976
 40
3.086936
 50
3.036243
 51
25.036243
  0
ARC
  8
0
  6
CONTINUOUS
 62
8
 10
66.797887
 20
27.779627
 40
1.862629
 50
274.398706
 51
4.398705
  0
ARC
  8
0
  6
CONTINUOUS
 62
8
 10
66.981581
 20
27.714346
 40
1.792327
 50
191.694426
 51
268.694429
  0
LINE
  8
0
  6
CONTINUOUS
 62
8
 10
68.083601
 20
31.922484
 11
65.226458
 21
31.922484
  0
LINE
  8
0
  6
CONTINUOUS
 62
8
 10
65.226458
 20
31.922484
 11
64.940744
 21
29.351055
  0
ARC
  8
0
  6
CONTINUOUS
 62
8
 10
71.748097
 20
30.239375
 40
1.683846
 50
88.305569
 51
171.305571
  0
ARC
  8
0
  6
CONTINUOUS
 62
8
 10
71.754675
 20
30.231417
 40
1.691619
 50
29.536243
 51
88.536243
  0
ARC
  8
0
  6
CONTINUOUS
 62
8
 10
70.687810
 20
30.065341
 40
2.728504
 50
338.500002
 51
21.500000
  0
ARC
  8
0
  6
CONTINUOUS
 62
8
 10
69.557154
 20
30.924462
 40
4.113407
 50
313.130102
 51
333.130102
  0
LINE
  8
0
  6
CONTINUOUS
 62
8
 10
72.369315
 20
27.922484
 11
70.369315
 21
25.922484
  0
LINE
  8
0
  6
CONTINUOUS
 62
8
 10
70.369315
 20
25.922484
 11
73.226458
 21
25.922484
  0
ARC
  8
0
  6
CONTINUOUS
 62
8
 10
76.442796
 20
28.134718
 40
1.932780
 50
129.000000
 51
141.000000
  0
ARC
  8
0
  6
CONTINUOUS
 62
8
 10
76.188180
 20
28.180177
 40
1.745443
 50
93.434949
 51
123.434949
  0
ARC
  8
0
  6
CONTINUOUS
 62
8
 10
76.797887
 20
26.828573
 40
3.175294
 50
77.000000
 51
103.000000
  0
ARC
  8
0
  6
CONTINUOUS
 62
8
 10
76.955097
 20
28.508266
 40
1.519982
 50
21.499998
 51
68.500000
  0
ARC
  8
0
  6
CONTINUOUS
 62
8
 10
75.572427
 20
27.758976
 40
3.086936
 50
3.036243
 51
25.036243
  0
ARC
  8
0
  6
CONTINUOUS
 62
8
 10
76.797887
 20
27.779627
 40
1.862629
 50
274.398706
 51
4.398705
  0
ARC
  8
0
  6
CONTINUOUS
 62
8
 10
76.981581
 20
27.714346
 40
1.792327
 50
191.694426
 51
268.694429
  0
LINE
  8
0
  6
CONTINUOUS
 62
8
 10
78.083601
 20
31.922484
 11
75.226458
 21
31.922484
  0
LINE
  8
0
  6
CONTINUOUS
 62
8
 10
75.226458
 20
31.922484
 11
74.940744
 21
29.351055
  0
LINE
  8
0
  6
CONTINUOUS
 62
8
 10
80.083601
 20
28.493913
 11
85.226458
 21
28.493913
  0
ARC
  8
0
  6
CONTINUOUS
 62
8
 10
93.461635
 20
28.922484
 40
6.985646
 50
167.000000
 51
193.000000
  0
ARC
  8
0
  6
CONTINUOUS
 62
8
 10
88.410153
 20
27.714346
 40
1.792327
 50
191.694429
 51
268.694431
  0
LINE
  8
0
  6
CONTINUOUS
 62
8
 10
88.369315
 20
25.922484
 11
88.655030
 21
25.922484
  0
ARC
  8
0
  6
CONTINUOUS
 62
8
 10
88.512173
 20
27.779627
 40
1.862629
 50
274.398705
 51
4.398704
  0
ARC
  8
0
  6
CONTINUOUS
 62
8
 10
88.369315
 20
27.922484
 40
2.000000
 50
0.000000
 51
89.999999
  0
ARC
  8
0
  6
CONTINUOUS
 62
8
 10
88.421242
 20
28.097825
 40
1.825398
 50
91.630102
 51
194.630102
  0
ARC
  8
0
  6
CONTINUOUS
 62
8
 10
88.410153
 20
30.130622
 40
1.792327
 50
91.305571
 51
168.305574
  0
ARC
  8
0
  6
CONTINUOUS
 62
8
 10
88.453295
 20
29.947586
 40
1.976683
 50
34.434949
 51
92.434948
  0
ARC
  8
0
  6
CONTINUOUS
 62
8
 10
91.334652
 20
32.873463
 40
1.866519
 50
284.369898
 51
329.369897
  0
LINE
  8
0
  6
CONTINUOUS
 62
8
 10
92.940744
 20
31.922484
 11
92.940744
 21
25.922484
  0
LINE
  8
0
  6
CONTINUOUS
 62
8
 10
94.369315
 20
31.922484
 11
98.369315
 21
31.922484
  0
LINE
  8
0
  6
CONTINUOUS
 62
8
 10
98.369315
 20
31.922484
 11
95.512173
 21
25.922484
  0
ARC
  8
0
  6
CONTINUOUS
 62
8
 10
100.940744
 20
27.351055
 40
1.030158
 50
123.690069
 51
213.690068
  0
ARC
  8
0
  6
CONTINUOUS
 62
8
 10
101.419207
 20
28.022268
 40
1.824281
 50
222.934948
 51
263.934949
  0
ARC
  8
0
  6
CONTINUOUS
 62
8
 10
101.940744
 20
28.783829
 40
2.672841
 50
254.500000
 51
285.500000
  0
ARC
  8
0
  6
CONTINUOUS
 62
8
 10
102.462281
 20
28.022268
 40
1.824281
 50
276.065050
 51
317.065051
  0
ARC
  8
0
  6
CONTINUOUS
 62
8
 10
102.940744
 20
27.351055
 40
1.030158
 50
326.309933
 51
56.309932
  0
LINE
  8
0
  6
CONTINUOUS
 62
8
 10
103.512173
 20
28.208198
 11
100.940744
 21
29.922484
  0
ARC
  8
0
  6
CONTINUOUS
 62
8
 10
101.514611
 20
30.924110
 40
1.154373
 50
187.190068
 51
240.190067
  0
ARC
  8
0
  6
CONTINUOUS
 62
8
 10
101.382600
 20
30.723152
 40
1.014857
 50
115.809932
 51
176.809934
  0
ARC
  8
0
  6
CONTINUOUS
 62
8
 10
101.921703
 20
30.122464
 40
1.804273
 50
93.934949
 51
122.934949
  0
ARC
  8
0
  6
CONTINUOUS
 62
8
 10
101.674071
 20
30.122464
 40
1.804273
 50
57.065051
 51
86.065052
  0
ARC
  8
0
  6
CONTINUOUS
 62
8
 10
102.213174
 20
30.723152
 40
1.014857
 50
3.190068
 51
64.190069
  0
ARC
  8
0
  6
CONTINUOUS
 62
8
 10
102.081163
 20
30.924110
 40
1.154373
 50
299.809932
 51
352.809932
  0
LINE
  8
0
  6
CONTINUOUS
 62
8
 10
102.655030
 20
29.922484
 11
100.369315
 21
28.208198
  0
LINE
  8
0
  6
CONTINUOUS
 62
8
 10
105.226458
 20
28.493913
 11
110.369315
 21
28.493913
  0
ARC
  8
0
  6
CONTINUOUS
 62
8
 10
113.797887
 20
27.922484
 40
2.000000
 50
180.000001
 51
0.000000
  0
LINE
  8
0
  6
CONTINUOUS
 62
8
 10
115.797887
 20
27.922484
 11
115.797887
 21
29.922484
  0
ARC
  8
0
  6
CONTINUOUS
 62
8
 10
113.797887
 20
29.922484
 40
2.000000
 50
0.000001
 51
180.000000
  0
LINE
  8
0
  6
CONTINUOUS
 62
8
 10
111.797887
 20
29.922484
 11
111.797887
 21
27.922484
  0
ARC
  8
0
  6
CONTINUOUS
 62
8
 10
119.226458
 20
27.922484
 40
2.000000
 50
180.000001
 51
0.000000
  0
LINE
  8
0
  6
CONTINUOUS
 62
8
 10
121.226458
 20
27.922484
 11
121.226458
 21
29.922484
  0
ARC
  8
0
  6
CONTINUOUS
 62
8
 10
119.226458
 20
29.922484
 40
2.000000
 50
0.000001
 51
180.000000
  0
LINE
  8
0
  6
CONTINUOUS
 62
8
 10
117.226458
 20
29.922484
 11
117.226458
 21
27.922484
  0
ENDBLK
  0
BLOCK
  2
4975036ITEM06-01
  8
0
 70
0
 10
0.0
 20
0.0
 30
0.0
  0
LINE
  8
0
  6
CONTINUOUS
 62
1
 10
34.180299
 20
0.000000
 11
152.933406
 21
61.276603
  0
ARC
  8
0
  6
CONTINUOUS
 62
1
 10
151.557749
 20
63.942605
 40
3.000000
 50
297.293734
 51
25.591015
  0
LINE
  8
0
  6
CONTINUOUS
 62
1
 10
154.263450
 20
65.238438
 11
146.780070
 21
80.863743
  0
LINE
  8
0
  6
CONTINUOUS
 62
1
 10
146.780070
 20
80.863743
 11
144.989291
 21
91.006561
  0
LINE
  8
0
  6
CONTINUOUS
 62
1
 10
144.989291
 20
91.006561
 11
144.989291
 21
131.254879
  0
ARC
  8
0
  6
CONTINUOUS
 62
1
 10
141.989291
 20
131.254879
 40
3.000000
 50
0.000000
 51
90.000000
  0
LINE
  8
0
  6
CONTINUOUS
 62
1
 10
141.989291
 20
134.254879
 11
3.000000
 21
134.254879
  0
ARC
  8
0
  6
CONTINUOUS
 62
1
 10
3.000000
 20
131.254879
 40
3.000000
 50
90.000000
 51
180.000000
  0
LINE
  8
0
  6
CONTINUOUS
 62
1
 10
0.000000
 20
131.254879
 11
0.000000
 21
22.154879
  0
LINE
  8
0
  6
CONTINUOUS
 62
1
 10
0.000000
 20
22.154879
 11
19.040467
 21
22.154879
  0
LINE
  8
0
  6
CONTINUOUS
 62
1
 10
19.040467
 20
22.154879
 11
26.408952
 21
25.456388
  0
LINE
  8
0
  6
CONTINUOUS
 62
1
 10
26.408952
 20
25.456388
 11
26.904766
 21
15.191323
  0
LINE
  8
0
  6
CONTINUOUS
 62
1
 10
26.904766
 20
15.191323
 11
34.180299
 21
0.000000
  0
LINE
  8
0
  6
DASHED
 62
3
 10
24.494645
 20
24.598668
 11
24.494645
 21
29.332481
  0
LINE
  8
0
  6
DASHED
 62
3
 10
24.494645
 20
29.332481
 11
24.494646
 21
134.254879
  0
LINE
  8
0
  6
DASHED
 62
3
 10
146.002210
 20
85.269476
 11
26.498353
 21
23.605486
  0
ENDBLK
  0
BLOCK
  2
R176526-B
  8
0
 70
0
 10
0.0
 20
0.0
 30
0.0
  0
LINE
  8
0
  6
CONTINUOUS
 62
1
 10
0.000000
 20
0.000000
 11
56.000000
 21
0.000000
  0
LINE
  8
0
  6
CONTINUOUS
 62
1
 10
56.000000
 20
0.000000
 11
56.000000
 21
20.000000
  0
LINE
  8
0
  6
CONTINUOUS
 62
1
 10
56.000000
 20
20.000000
 11
0.000000
 21
20.000000
  0
LINE
  8
0
  6
CONTINUOUS
 62
1
 10
0.000000
 20
20.000000
 11
0.000000
 21
0.000000
  0
LINE
  8
0
  6
DASHED
 62
3
 10
25.500000
 20
20.000000
 11
25.500000
 21
0.000000
  0
ENDBLK
  0
BLOCK
  2
5555667-00
  8
0
 70
0
 10
0.0
 20
0.0
 30
0.0
  0
LINE
  8
0
  6
CONTINUOUS
 62
1
 10
0.000000
 20
10.000000
 11
0.000000
 21
612.500000
  0
LINE
  8
0
  6
CONTINUOUS
 62
1
 10
0.000000
 20
612.500000
 11
75.885398
 21
612.500000
  0
ARC
  8
0
  6
CONTINUOUS
 62
1
 10
84.885398
 20
612.500000
 40
9.000000
 50
180.000000
 51
0.000000
  0
LINE
  8
0
  6
CONTINUOUS
 62
1
 10
93.885398
 20
612.500000
 11
149.770795
 21
612.500000
  0
LINE
  8
0
  6
CONTINUOUS
 62
1
 10
149.770795
 20
612.500000
 11
149.770795
 21
10.000000
  0
LINE
  8
0
  6
CONTINUOUS
 62
1
 10
149.770795
 20
10.000000
 11
139.770795
 21
0.000000
  0
LINE
  8
0
  6
CONTINUOUS
 62
1
 10
139.770795
 20
0.000000
 11
93.885398
 21
0.000000
  0
ARC
  8
0
  6
CONTINUOUS
 62
1
 10
84.885398
 20
0.000000
 40
9.000000
 50
0.000000
 51
180.000000
  0
LINE
  8
0
  6
CONTINUOUS
 62
1
 10
75.885398
 20
0.000000
 11
10.000000
 21
0.000000
  0
LINE
  8
0
  6
CONTINUOUS
 62
1
 10
10.000000
 20
0.000000
 11
0.000000
 21
10.000000
  0
LINE
  8
0
  6
CONTINUOUS
 62
1
 10
10.000000
 20
98.500000
 11
10.000000
 21
268.500000
  0
ARC
  8
0
  6
CONTINUOUS
 62
1
 10
15.000000
 20
268.500000
 40
5.000000
 50
90.000000
 51
180.000000
  0
LINE
  8
0
  6
CONTINUOUS
 62
1
 10
15.000000
 20
273.500000
 11
60.885398
 21
273.500000
  0
ARC
  8
0
  6
CONTINUOUS
 62
1
 10
60.885398
 20
253.500000
 40
20.000000
 50
0.000000
 51
90.000000
  0
LINE
  8
0
  6
CONTINUOUS
 62
1
 10
80.885398
 20
253.500000
 11
80.885398
 21
113.500000
  0
ARC
  8
0
  6
CONTINUOUS
 62
1
 10
60.885398
 20
113.500000
 40
20.000000
 50
270.000000
 51
0.000000
  0
LINE
  8
0
  6
CONTINUOUS
 62
1
 10
60.885398
 20
93.500000
 11
15.000000
 21
93.500000
  0
ARC
  8
0
  6
CONTINUOUS
 62
1
 10
15.000000
 20
98.500000
 40
5.000000
 50
180.000000
 51
270.000000
  0
LINE
  8
0
  6
CONTINUOUS
 62
1
 10
10.000000
 20
398.500000
 11
10.000000
 21
568.500000
  0
ARC
  8
0
  6
CONTINUOUS
 62
1
 10
15.000000
 20
568.500000
 40
5.000000
 50
90.000000
 51
180.000000
  0
LINE
  8
0
  6
CONTINUOUS
 62
1
 10
15.000000
 20
573.500000
 11
60.885398
 21
573.500000
  0
ARC
  8
0
  6
CONTINUOUS
 62
1
 10
60.885398
 20
553.500000
 40
20.000000
 50
0.000000
 51
90.000000
  0
LINE
  8
0
  6
CONTINUOUS
 62
1
 10
80.885398
 20
553.500000
 11
80.885398
 21
413.500000
  0
ARC
  8
0
  6
CONTINUOUS
 62
1
 10
60.885398
 20
413.500000
 40
20.000000
 50
270.000000
 51
0.000000
  0
LINE
  8
0
  6
CONTINUOUS
 62
1
 10
60.885398
 20
393.500000
 11
15.000000
 21
393.500000
  0
ARC
  8
0
  6
CONTINUOUS
 62
1
 10
15.000000
 20
398.500000
 40
5.000000
 50
180.000000
 51
270.000000
  0
CIRCLE
  8
0
  6
CONTINUOUS
 62
1
 10
69.885398
 20
357.500000
 40
7.750000
  0
CIRCLE
  8
0
  6
CONTINUOUS
 62
1
 10
102.885398
 20
34.500000
 40
7.750000
  0
LINE
  8
0
  6
DASHED
 62
3
 10
21.942699
 20
0.000000
 11
21.942699
 21
93.500000
  0
LINE
  8
0
  6
DASHED
 62
3
 10
21.942699
 20
273.500000
 11
21.942699
 21
393.500000
  0
LINE
  8
0
  6
DASHED
 62
3
 10
21.942699
 20
573.500000
 11
21.942699
 21
612.500000
  0
LINE
  8
0
  6
DASHED
 62
3
 10
127.828096
 20
612.500000
 11
127.828096
 21
0.000000
  0
INSERT
  2
TDATUM
  8
0
 10
149.770795
 20
311.250000
 41
1.000000
 42
1.000000
 50
90.000000
  0
INSERT
  2
TDATUM
  8
0
 10
0.000000
 20
30.145874
 41
1.000000
 42
1.000000
 50
-90.000000
  0
INSERT
  2
TDATUM
  8
0
 10
0.000000
 20
592.672306
 41
1.000000
 42
1.000000
 50
-90.000000
  0
ENDBLK
  0
BLOCK
  2
5552385-00
  8
0
 70
0
 10
0.0
 20
0.0
 30
0.0
  0
LINE
  8
0
  6
CONTINUOUS
 62
1
 10
0.000000
 20
0.000000
 11
0.000000
 21
380.500000
  0
LINE
  8
0
  6
CONTINUOUS
 62
1
 10
0.000000
 20
380.500000
 11
36.385398
 21
380.500000
  0
ARC
  8
0
  6
CONTINUOUS
 62
1
 10
45.385398
 20
380.500000
 40
9.000000
 50
180.000000
 51
0.000000
  0
LINE
  8
0
  6
CONTINUOUS
 62
1
 10
54.385398
 20
380.500000
 11
90.770795
 21
380.500000
  0
LINE
  8
0
  6
CONTINUOUS
 62
1
 10
90.770795
 20
380.500000
 11
90.770795
 21
0.000000
  0
LINE
  8
0
  6
CONTINUOUS
 62
1
 10
90.770795
 20
0.000000
 11
0.000000
 21
0.000000
  0
CIRCLE
  8
0
  6
CONTINUOUS
 62
1
 10
45.385398
 20
36.000000
 40
7.750000
  0
LINE
  8
0
  6
DASHED
 62
3
 10
21.942699
 20
0.000000
 11
21.942699
 21
380.500000
  0
LINE
  8
0
  6
DASHED
 62
3
 10
68.828096
 20
380.500000
 11
68.828096
 21
0.000000
  0
INSERT
  2
TDATUM
  8
0
 10
90.770795
 20
26.774484
 41
1.000000
 42
1.000000
 50
90.000000
  0
INSERT
  2
TDATUM
  8
0
 10
13.106332
 20
380.500000
 41
1.000000
 42
1.000000
 50
180.000000
  0
ENDBLK
  0
BLOCK
  2
5679623-01
  8
0
 70
0
 10
0.0
 20
0.0
 30
0.0
  0
LINE
  8
0
  6
CONTINUOUS
 62
1
 10
75.000000
 20
169.249727
 11
75.000000
 21
126.489482
  0
ARC
  8
0
  6
CONTINUOUS
 62
1
 10
69.000000
 20
126.489482
 40
6.000000
 50
332.116659
 51
0.000000
  0
LINE
  8
0
  6
CONTINUOUS
 62
1
 10
74.303410
 20
123.683445
 11
65.696590
 21
107.416555
  0
ARC
  8
0
  6
CONTINUOUS
 62
1
 10
71.000000
 20
104.610518
 40
6.000000
 50
152.116659
 51
180.000000
  0
LINE
  8
0
  6
CONTINUOUS
 62
1
 10
65.000000
 20
104.610518
 11
65.000000
 21
75.389482
  0
ARC
  8
0
  6
CONTINUOUS
 62
1
 10
71.000000
 20
75.389482
 40
6.000000
 50
180.000000
 51
207.883341
  0
LINE
  8
0
  6
CONTINUOUS
 62
1
 10
65.696590
 20
72.583445
 11
74.303410
 21
56.316555
  0
ARC
  8
0
  6
CONTINUOUS
 62
1
 10
69.000000
 20
53.510518
 40
6.000000
 50
0.000000
 51
27.883341
  0
LINE
  8
0
  6
CONTINUOUS
 62
1
 10
75.000000
 20
53.510518
 11
75.000000
 21
26.891333
  0
ARC
  8
0
  6
CONTINUOUS
 62
1
 10
69.000000
 20
26.891333
 40
6.000000
 50
325.007980
 51
0.000000
  0
LINE
  8
0
  6
CONTINUOUS
 62
1
 10
73.915392
 20
23.450559
 11
59.291458
 21
2.559226
  0
ARC
  8
0
  6
CONTINUOUS
 62
1
 10
54.376067
 20
6.000000
 40
6.000000
 50
270.000000
 51
325.007980
  0
LINE
  8
0
  6
CONTINUOUS
 62
1
 10
54.376067
 20
0.000000
 11
20.623933
 21
0.000000
  0
ARC
  8
0
  6
CONTINUOUS
 62
1
 10
20.623933
 20
6.000000
 40
6.000000
 50
214.992020
 51
270.000000
  0
LINE
  8
0
  6
CONTINUOUS
 62
1
 10
15.708542
 20
2.559226
 11
1.084608
 21
23.450559
  0
ARC
  8
0
  6
CONTINUOUS
 62
1
 10
6.000000
 20
26.891333
 40
6.000000
 50
180.000000
 51
214.992020
  0
LINE
  8
0
  6
CONTINUOUS
 62
1
 10
0.000000
 20
26.891333
 11
0.000000
 21
53.510518
  0
ARC
  8
0
  6
CONTINUOUS
 62
1
 10
6.000000
 20
53.510518
 40
6.000000
 50
152.116659
 51
180.000000
  0
LINE
  8
0
  6
CONTINUOUS
 62
1
 10
0.696590
 20
56.316555
 11
9.303410
 21
72.583445
  0
ARC
  8
0
  6
CONTINUOUS
 62
1
 10
4.000000
 20
75.389482
 40
6.000000
 50
332.116659
 51
0.000000
  0
LINE
  8
0
  6
CONTINUOUS
 62
1
 10
10.000000
 20
75.389482
 11
10.000000
 21
104.610518
  0
ARC
  8
0
  6
CONTINUOUS
 62
1
 10
4.000000
 20
104.610518
 40
6.000000
 50
0.000000
 51
27.883341
  0
LINE
  8
0
  6
CONTINUOUS
 62
1
 10
9.303410
 20
107.416555
 11
0.696590
 21
123.683445
  0
ARC
  8
0
  6
CONTINUOUS
 62
1
 10
6.000000
 20
126.489482
 40
6.000000
 50
180.000000
 51
207.883341
  0
LINE
  8
0
  6
CONTINUOUS
 62
1
 10
0.000000
 20
126.489482
 11
0.000000
 21
169.249727
  0
ARC
  8
0
  6
CONTINUOUS
 62
1
 10
6.000000
 20
169.249727
 40
6.000000
 50
90.000000
 51
180.000000
  0
LINE
  8
0
  6
CONTINUOUS
 62
1
 10
6.000000
 20
175.249727
 11
69.000000
 21
175.249727
  0
ARC
  8
0
  6
CONTINUOUS
 62
1
 10
69.000000
 20
169.249727
 40
6.000000
 50
0.000000
 51
90.000000
  0
CIRCLE
  8
0
  6
CONTINUOUS
 62
1
 10
15.000000
 20
160.749727
 40
7.000000
  0
CIRCLE
  8
0
  6
CONTINUOUS
 62
1
 10
60.000000
 20
160.749727
 40
7.000000
  0
CIRCLE
  8
0
  6
CONTINUOUS
 62
1
 10
19.100000
 20
30.700000
 40
4.100000
  0
CIRCLE
  8
0
  6
CONTINUOUS
 62
1
 10
37.500000
 20
17.800000
 40
4.100000
  0
CIRCLE
  8
0
  6
CONTINUOUS
 62
1
 10
55.900000
 20
30.700000
 40
4.100000
  0
LINE
  8
0
  6
DASHED
 62
3
 10
75.000000
 20
139.194861
 11
0.000000
 21
139.194861
  0
INSERT
  2
TDATUM
  8
0
 10
68.265311
 20
15.379015
 41
1.000000
 42
1.000000
 50
55.000000
  0
ENDBLK
  0
BLOCK
  2
6173573ITEM01-00
  8
0
 70
0
 10
0.0
 20
0.0
 30
0.0
  0
ARC
  8
0
  6
CONTINUOUS
 62
1
 10
119.349864
 20
79.358947
 40
1.440879
 50
177.579211
 51
267.172429
  0
ARC
  8
0
  6
CONTINUOUS
 62
1
 10
119.410271
 20
79.419823
 40
1.500000
 50
90.000000
 51
180.000590
  0
LINE
  8
0
  6
CONTINUOUS
 62
1
 10
119.410271
 20
80.919823
 11
120.910271
 21
80.919823
  0
LINE
  8
0
  6
CONTINUOUS
 62
1
 10
120.910271
 20
80.919823
 11
120.910271
 21
92.679643
  0
LINE
  8
0
  6
CONTINUOUS
 62
1
 10
120.910271
 20
92.679643
 11
119.410271
 21
92.679643
  0
ARC
  8
0
  6
CONTINUOUS
 62
1
 10
119.410271
 20
94.179643
 40
1.500000
 50
180.000000
 51
270.000000
  0
ARC
  8
0
  6
CONTINUOUS
 62
1
 10
119.349919
 20
94.240467
 40
1.440932
 50
92.829637
 51
182.419289
  0
LINE
  8
0
  6
CONTINUOUS
 62
1
 10
119.278785
 20
95.679643
 11
148.130625
 21
95.679643
  0
ARC
  8
0
  6
CONTINUOUS
 62
1
 10
148.130625
 20
98.679643
 40
3.000000
 50
270.000000
 51
0.000000
  0
LINE
  8
0
  6
CONTINUOUS
 62
1
 10
151.130626
 20
98.679643
 11
151.130626
 21
117.679644
  0
ARC
  8
0
  6
CONTINUOUS
 62
1
 10
148.130625
 20
117.679644
 40
3.000000
 50
0.000000
 51
90.000000
  0
LINE
  8
0
  6
CONTINUOUS
 62
1
 10
148.130625
 20
120.679644
 11
80.189915
 21
120.679644
  0
ARC
  8
0
  6
CONTINUOUS
 62
1
 10
80.189915
 20
117.679644
 40
3.000000
 50
90.000000
 51
180.000000
  0
LINE
  8
0
  6
CONTINUOUS
 62
1
 10
77.189915
 20
117.679644
 11
77.189915
 21
108.679643
  0
ARC
  8
0
  6
CONTINUOUS
 62
1
 10
80.189915
 20
108.679643
 40
3.000000
 50
180.000000
 51
270.000000
  0
LINE
  8
0
  6
CONTINUOUS
 62
1
 10
80.189915
 20
105.679643
 11
94.041755
 21
105.679643
  0
ARC
  8
0
  6
CONTINUOUS
 62
1
 10
93.970682
 20
104.240524
 40
1.440874
 50
357.579006
 51
87.172634
  0
ARC
  8
0
  6
CONTINUOUS
 62
1
 10
93.910270
 20
104.179643
 40
1.500000
 50
270.000000
 51
0.000590
  0
LINE
  8
0
  6
CONTINUOUS
 62
1
 10
93.910270
 20
102.679643
 11
92.410269
 21
102.679643
  0
LINE
  8
0
  6
CONTINUOUS
 62
1
 10
92.410269
 20
102.679643
 11
92.410269
 21
87.919823
  0
ARC
  8
0
  6
CONTINUOUS
 62
1
 10
90.910269
 20
87.919823
 40
1.500000
 50
180.000000
 51
0.000000
  0
LINE
  8
0
  6
CONTINUOUS
 62
1
 10
89.410269
 20
87.919823
 11
89.410269
 21
95.914824
  0
ARC
  8
0
  6
CONTINUOUS
 62
1
 10
84.410269
 20
95.914824
 40
5.000000
 50
0.000000
 51
90.000000
  0
LINE
  8
0
  6
CONTINUOUS
 62
1
 10
84.410269
 20
100.914824
 11
5.000000
 21
100.914824
  0
ARC
  8
0
  6
CONTINUOUS
 62
1
 10
5.000000
 20
95.914824
 40
5.000000
 50
90.000000
 51
180.000000
  0
LINE
  8
0
  6
CONTINUOUS
 62
1
 10
0.000000
 20
95.914824
 11
0.000000
 21
82.638926
  0
ARC
  8
0
  6
CONTINUOUS
 62
1
 10
5.000000
 20
82.638926
 40
5.000000
 50
180.000000
 51
262.337744
  0
ARC
  8
0
  6
CONTINUOUS
 62
1
 10
2.000000
 20
60.339822
 40
17.500001
 50
277.662256
 51
82.337744
  0
ARC
  8
0
  6
CONTINUOUS
 62
1
 10
5.000000
 20
38.040718
 40
5.000000
 50
97.662256
 51
180.000000
  0
LINE
  8
0
  6
CONTINUOUS
 62
1
 10
0.000000
 20
38.040718
 11
0.000000
 21
24.764820
  0
ARC
  8
0
  6
CONTINUOUS
 62
1
 10
5.000000
 20
24.764820
 40
5.000000
 50
180.000000
 51
270.000000
  0
LINE
  8
0
  6
CONTINUOUS
 62
1
 10
5.000000
 20
19.764820
 11
84.410269
 21
19.764820
  0
ARC
  8
0
  6
CONTINUOUS
 62
1
 10
84.410269
 20
24.764820
 40
5.000000
 50
270.000000
 51
0.000000
  0
LINE
  8
0
  6
CONTINUOUS
 62
1
 10
89.410269
 20
24.764820
 11
89.410269
 21
32.759821
  0
ARC
  8
0
  6
CONTINUOUS
 62
1
 10
90.910269
 20
32.759821
 40
1.500000
 50
0.000000
 51
180.000000
  0
LINE
  8
0
  6
CONTINUOUS
 62
1
 10
92.410269
 20
32.759821
 11
92.410269
 21
18.000001
  0
LINE
  8
0
  6
CONTINUOUS
 62
1
 10
92.410269
 20
18.000001
 11
93.910270
 21
18.000001
  0
ARC
  8
0
  6
CONTINUOUS
 62
1
 10
93.910270
 20
16.500001
 40
1.500000
 50
0.000000
 51
90.000000
  0
ARC
  8
0
  6
CONTINUOUS
 62
1
 10
93.970622
 20
16.439176
 40
1.440932
 50
272.829631
 51
2.419295
  0
LINE
  8
0
  6
CONTINUOUS
 62
1
 10
94.041755
 20
15.000001
 11
80.189915
 21
15.000001
  0
ARC
  8
0
  6
CONTINUOUS
 62
1
 10
80.189915
 20
12.000001
 40
3.000000
 50
90.000000
 51
180.000000
  0
LINE
  8
0
  6
CONTINUOUS
 62
1
 10
77.189915
 20
12.000001
 11
77.189915
 21
3.000000
  0
ARC
  8
0
  6
CONTINUOUS
 62
1
 10
80.189915
 20
3.000000
 40
3.000000
 50
180.000000
 51
270.000000
  0
LINE
  8
0
  6
CONTINUOUS
 62
1
 10
80.189915
 20
0.000000
 11
133.130625
 21
0.000000
  0
ARC
  8
0
  6
CONTINUOUS
 62
1
 10
133.130625
 20
3.000000
 40
3.000000
 50
270.000000
 51
0.000000
  0
LINE
  8
0
  6
CONTINUOUS
 62
1
 10
136.130625
 20
3.000000
 11
136.130625
 21
12.000001
  0
ARC
  8
0
  6
CONTINUOUS
 62
1
 10
133.130625
 20
12.000001
 40
3.000000
 50
0.000000
 51
90.000000
  0
LINE
  8
0
  6
CONTINUOUS
 62
1
 10
133.130625
 20
15.000001
 11
119.278785
 21
15.000001
  0
ARC
  8
0
  6
CONTINUOUS
 62
1
 10
119.349864
 20
16.439125
 40
1.440879
 50
177.579224
 51
267.172421
  0
ARC
  8
0
  6
CONTINUOUS
 62
1
 10
119.410271
 20
16.500001
 40
1.500000
 50
90.000000
 51
180.000595
  0
LINE
  8
0
  6
CONTINUOUS
 62
1
 10
119.410271
 20
18.000001
 11
120.910271
 21
18.000001
  0
LINE
  8
0
  6
CONTINUOUS
 62
1
 10
120.910271
 20
18.000001
 11
120.910271
 21
38.759821
  0
LINE
  8
0
  6
CONTINUOUS
 62
1
 10
120.910271
 20
38.759821
 11
119.410271
 21
38.759821
  0
ARC
  8
0
  6
CONTINUOUS
 62
1
 10
119.410271
 20
40.259821
 40
1.500000
 50
180.000000
 51
270.000000
  0
ARC
  8
0
  6
CONTINUOUS
 62
1
 10
119.349918
 20
40.320646
 40
1.440932
 50
92.829631
 51
182.419295
  0
LINE
  8
0
  6
CONTINUOUS
 62
1
 10
119.278785
 20
41.759821
 11
128.130625
 21
41.759821
  0
ARC
  8
0
  6
CONTINUOUS
 62
1
 10
128.130625
 20
44.759821
 40
3.000000
 50
270.000000
 51
0.000000
  0
LINE
  8
0
  6
CONTINUOUS
 62
1
 10
131.130625
 20
44.759821
 11
131.130625
 21
74.919823
  0
ARC
  8
0
  6
CONTINUOUS
 62
1
 10
128.130625
 20
74.919823
 40
3.000000
 50
0.000000
 51
90.000000
  0
LINE
  8
0
  6
CONTINUOUS
 62
1
 10
128.130625
 20
77.919823
 11
119.278785
 21
77.919823
  0
CIRCLE
  8
0
  6
CONTINUOUS
 62
1
 10
137.630625
 20
108.179643
 40
6.900000
  0
CIRCLE
  8
0
  6
CONTINUOUS
 62
1
 10
13.100001
 20
34.279821
 40
6.750000
  0
CIRCLE
  8
0
  6
CONTINUOUS
 62
1
 10
13.100001
 20
86.399823
 40
6.750000
  0
LINE
  8
0
  6
DASHED
 62
3
 10
34.640651
 20
19.764820
 11
34.640651
 21
100.914824
  0
LINE
  8
0
  6
DASHED
 62
3
 10
66.994221
 20
19.764820
 11
66.994221
 21
100.914824
  0
LINE
  8
0
  6
DASHED
 62
3
 10
92.300093
 20
0.000000
 11
92.300093
 21
15.000001
  0
LINE
  8
0
  6
DASHED
 62
3
 10
92.300093
 20
105.679643
 11
92.300093
 21
120.679644
  0
LINE
  8
0
  6
DASHED
 62
3
 10
120.910271
 20
30.888670
 11
92.410269
 21
30.888670
  0
LINE
  8
0
  6
DASHED
 62
3
 10
92.410269
 20
89.790973
 11
120.910271
 21
89.790973
  0
LINE
  8
0
  6
DASHED
 62
3
 10
121.020448
 20
15.000001
 11
121.020448
 21
0.000000
  0
LINE
  8
0
  6
DASHED
 62
3
 10
121.020448
 20
77.919823
 11
121.020448
 21
41.759821
  0
LINE
  8
0
  6
DASHED
 62
3
 10
121.020448
 20
120.679644
 11
121.020448
 21
95.679643
  0
ARC
  8
0
  6
CONTINUOUS
 62
8
 10
68.194221
 20
53.666955
 40
1.200000
 50
90.000000
 51
179.999999
  0
LINE
  8
0
  6
CONTINUOUS
 62
8
 10
68.194221
 20
54.866955
 11
68.794221
 21
54.866955
  0
ARC
  8
0
  6
CONTINUOUS
 62
8
 10
68.794221
 20
53.666955
 40
1.200000
 50
0.000000
 51
89.999999
  0
LINE
  8
0
  6
CONTINUOUS
 62
8
 10
69.994221
 20
53.666955
 11
69.994221
 21
52.766955
  0
ARC
  8
0
  6
CONTINUOUS
 62
8
 10
68.794221
 20
52.766955
 40
1.200000
 50
270.000000
 51
359.999999
  0
LINE
  8
0
  6
CONTINUOUS
 62
8
 10
68.794221
 20
51.566955
 11
68.194221
 21
51.566955
  0
ARC
  8
0
  6
CONTINUOUS
 62
8
 10
68.194221
 20
52.766955
 40
1.200000
 50
180.000000
 51
269.999999
  0
LINE
  8
0
  6
CONTINUOUS
 62
8
 10
66.994221
 20
52.766955
 11
66.994221
 21
53.966955
  0
LINE
  8
0
  6
CONTINUOUS
 62
8
 10
66.994221
 20
53.966955
 11
68.794221
 21
57.566955
  0
LINE
  8
0
  6
CONTINUOUS
 62
8
 10
72.394221
 20
56.366955
 11
73.594221
 21
57.566955
  0
LINE
  8
0
  6
CONTINUOUS
 62
8
 10
73.594221
 20
57.566955
 11
73.594221
 21
51.566955
  0
LINE
  8
0
  6
CONTINUOUS
 62
8
 10
76.594221
 20
56.666955
 11
76.594221
 21
57.566955
  0
LINE
  8
0
  6
CONTINUOUS
 62
8
 10
76.594221
 20
57.566955
 11
79.594221
 21
57.566955
  0
LINE
  8
0
  6
CONTINUOUS
 62
8
 10
79.594221
 20
57.566955
 11
79.594221
 21
56.666955
  0
LINE
  8
0
  6
CONTINUOUS
 62
8
 10
79.594221
 20
56.666955
 11
77.494221
 21
51.566955
  0
LINE
  8
0
  6
CONTINUOUS
 62
8
 10
81.394221
 20
51.566955
 11
83.194221
 21
51.566955
  0
ARC
  8
0
  6
CONTINUOUS
 62
8
 10
83.194221
 20
52.766955
 40
1.200000
 50
270.000000
 51
359.999999
  0
LINE
  8
0
  6
CONTINUOUS
 62
8
 10
84.394221
 20
52.766955
 11
84.394221
 21
53.666955
  0
ARC
  8
0
  6
CONTINUOUS
 62
8
 10
83.194221
 20
53.666955
 40
1.200000
 50
0.000000
 51
89.999999
  0
LINE
  8
0
  6
CONTINUOUS
 62
8
 10
81.394221
 20
57.566955
 11
83.194221
 21
57.566955
  0
ARC
  8
0
  6
CONTINUOUS
 62
8
 10
83.194221
 20
56.366955
 40
1.200000
 50
0.000000
 51
89.999999
  0
LINE
  8
0
  6
CONTINUOUS
 62
8
 10
84.394221
 20
56.366955
 11
84.394221
 21
56.066955
  0
ARC
  8
0
  6
CONTINUOUS
 62
8
 10
83.194221
 20
56.066955
 40
1.200000
 50
270.000000
 51
359.999999
  0
LINE
  8
0
  6
CONTINUOUS
 62
8
 10
81.994221
 20
54.866955
 11
83.194221
 21
54.866955
  0
LINE
  8
0
  6
CONTINUOUS
 62
8
 10
86.194221
 20
51.566955
 11
87.994221
 21
51.566955
  0
ARC
  8
0
  6
CONTINUOUS
 62
8
 10
87.994221
 20
52.766955
 40
1.200000
 50
270.000000
 51
359.999999
  0
LINE
  8
0
  6
CONTINUOUS
 62
8
 10
89.194221
 20
52.766955
 11
89.194221
 21
53.966955
  0
ARC
  8
0
  6
CONTINUOUS
 62
8
 10
87.994221
 20
53.966955
 40
1.200000
 50
0.000000
 51
89.999999
  0
LINE
  8
0
  6
CONTINUOUS
 62
8
 10
87.994221
 20
55.166955
 11
86.194221
 21
55.166955
  0
LINE
  8
0
  6
CONTINUOUS
 62
8
 10
86.194221
 20
55.166955
 11
86.194221
 21
57.566955
  0
LINE
  8
0
  6
CONTINUOUS
 62
8
 10
86.194221
 20
57.566955
 11
89.194221
 21
57.566955
  0
LINE
  8
0
  6
CONTINUOUS
 62
8
 10
90.994221
 20
56.666955
 11
90.994221
 21
57.566955
  0
LINE
  8
0
  6
CONTINUOUS
 62
8
 10
90.994221
 20
57.566955
 11
93.994221
 21
57.566955
  0
LINE
  8
0
  6
CONTINUOUS
 62
8
 10
93.994221
 20
57.566955
 11
93.994221
 21
56.666955
  0
LINE
  8
0
  6
CONTINUOUS
 62
8
 10
93.994221
 20
56.666955
 11
91.894221
 21
51.566955
  0
LINE
  8
0
  6
CONTINUOUS
 62
8
 10
95.794221
 20
51.566955
 11
97.594221
 21
51.566955
  0
ARC
  8
0
  6
CONTINUOUS
 62
8
 10
97.594221
 20
52.766955
 40
1.200000
 50
270.000000
 51
359.999999
  0
LINE
  8
0
  6
CONTINUOUS
 62
8
 10
98.794221
 20
52.766955
 11
98.794221
 21
53.666955
  0
ARC
  8
0
  6
CONTINUOUS
 62
8
 10
97.594221
 20
53.666955
 40
1.200000
 50
0.000000
 51
89.999999
  0
LINE
  8
0
  6
CONTINUOUS
 62
8
 10
95.794221
 20
57.566955
 11
97.594221
 21
57.566955
  0
ARC
  8
0
  6
CONTINUOUS
 62
8
 10
97.594221
 20
56.366955
 40
1.200000
 50
0.000000
 51
89.999999
  0
LINE
  8
0
  6
CONTINUOUS
 62
8
 10
98.794221
 20
56.366955
 11
98.794221
 21
56.066955
  0
ARC
  8
0
  6
CONTINUOUS
 62
8
 10
97.594221
 20
56.066955
 40
1.200000
 50
270.000000
 51
359.999999
  0
LINE
  8
0
  6
CONTINUOUS
 62
8
 10
96.394221
 20
54.866955
 11
97.594221
 21
54.866955
  0
LINE
  8
0
  6
CONTINUOUS
 62
8
 10
100.594221
 20
54.266955
 11
103.594221
 21
54.266955
  0
ARC
  8
0
  6
CONTINUOUS
 62
8
 10
106.894221
 20
52.766955
 40
1.200000
 50
180.000001
 51
270.000000
  0
LINE
  8
0
  6
CONTINUOUS
 62
8
 10
106.894221
 20
51.566955
 11
107.194221
 21
51.566955
  0
ARC
  8
0
  6
CONTINUOUS
 62
8
 10
107.194221
 20
52.766955
 40
1.200000
 50
270.000001
 51
0.000000
  0
LINE
  8
0
  6
CONTINUOUS
 62
8
 10
108.394221
 20
52.766955
 11
108.394221
 21
56.366955
  0
ARC
  8
0
  6
CONTINUOUS
 62
8
 10
107.194221
 20
56.366955
 40
1.200000
 50
0.000001
 51
90.000000
  0
LINE
  8
0
  6
CONTINUOUS
 62
8
 10
107.194221
 20
57.566955
 11
106.894221
 21
57.566955
  0
ARC
  8
0
  6
CONTINUOUS
 62
8
 10
106.894221
 20
56.366955
 40
1.200000
 50
90.000001
 51
180.000000
  0
LINE
  8
0
  6
CONTINUOUS
 62
8
 10
105.694221
 20
56.366955
 11
105.694221
 21
52.766955
  0
ARC
  8
0
  6
CONTINUOUS
 62
8
 10
111.694221
 20
52.766955
 40
1.200000
 50
180.000001
 51
270.000000
  0
LINE
  8
0
  6
CONTINUOUS
 62
8
 10
111.694221
 20
51.566955
 11
111.994221
 21
51.566955
  0
ARC
  8
0
  6
CONTINUOUS
 62
8
 10
111.994221
 20
52.766955
 40
1.200000
 50
270.000001
 51
0.000000
  0
LINE
  8
0
  6
CONTINUOUS
 62
8
 10
113.194221
 20
52.766955
 11
113.194221
 21
56.366955
  0
ARC
  8
0
  6
CONTINUOUS
 62
8
 10
111.994221
 20
56.366955
 40
1.200000
 50
0.000001
 51
90.000000
  0
LINE
  8
0
  6
CONTINUOUS
 62
8
 10
111.994221
 20
57.566955
 11
111.694221
 21
57.566955
  0
ARC
  8
0
  6
CONTINUOUS
 62
8
 10
111.694221
 20
56.366955
 40
1.200000
 50
90.000001
 51
180.000000
  0
LINE
  8
0
  6
CONTINUOUS
 62
8
 10
110.494221
 20
56.366955
 11
110.494221
 21
52.766955
  0
ENDBLK
  0
BLOCK
  2
4232214C1-A
  8
0
 70
0
 10
0.0
 20
0.0
 30
0.0
  0
LINE
  8
0
  6
CONTINUOUS
 62
1
 10
109.514601
 20
212.966369
 11
109.514601
 21
236.466369
  0
ARC
  8
0
  6
CONTINUOUS
 62
1
 10
99.514601
 20
236.466369
 40
10.000000
 50
0.000000
 51
90.000000
  0
LINE
  8
0
  6
CONTINUOUS
 62
1
 10
99.514601
 20
246.466369
 11
10.000000
 21
246.466369
  0
ARC
  8
0
  6
CONTINUOUS
 62
1
 10
10.000000
 20
236.466369
 40
10.000000
 50
90.000000
 51
180.000000
  0
LINE
  8
0
  6
CONTINUOUS
 62
1
 10
0.000000
 20
236.466369
 11
0.000000
 21
10.000000
  0
ARC
  8
0
  6
CONTINUOUS
 62
1
 10
10.000000
 20
10.000000
 40
10.000000
 50
180.000000
 51
270.000000
  0
LINE
  8
0
  6
CONTINUOUS
 62
1
 10
10.000000
 20
0.000000
 11
35.000000
 21
0.000000
  0
ARC
  8
0
  6
CONTINUOUS
 62
1
 10
35.000000
 20
10.000000
 40
10.000000
 50
270.000000
 51
0.000000
  0
LINE
  8
0
  6
CONTINUOUS
 62
1
 10
45.000000
 20
10.000000
 11
45.000000
 21
202.966369
  0
LINE
  8
0
  6
CONTINUOUS
 62
1
 10
45.000000
 20
202.966369
 11
99.514601
 21
202.966369
  0
ARC
  8
0
  6
CONTINUOUS
 62
1
 10
99.514601
 20
212.966369
 40
10.000000
 50
270.000000
 51
0.000000
  0
CIRCLE
  8
0
  6
CONTINUOUS
 62
1
 10
23.305494
 20
21.000046
 40
6.400000
  0
CIRCLE
  8
0
  6
CONTINUOUS
 62
1
 10
81.455894
 20
224.837649
 40
5.400000
  0
CIRCLE
  8
0
  6
CONTINUOUS
 62
1
 10
21.804007
 20
229.826065
 40
3.400000
  0
LINE
  8
0
  6
DASHED
 62
3
 10
0.000000
 20
97.237301
 11
45.000000
 21
97.237301
  0
LINE
  8
0
  6
DASHED
 62
3
 10
0.000000
 20
147.990485
 11
45.000000
 21
147.990485
  0
LINE
  8
0
  6
DASHED
 62
3
 10
50.257301
 20
202.966369
 11
50.257301
 21
246.466369
  0
INSERT
  2
TDATUM
  8
0
 10
20.145410
 20
246.466369
 41
1.000000
 42
1.000000
 50
180.000000
  0
INSERT
  2
TDATUM
  8
0
 10
45.000000
 20
31.527327
 41
1.000000
 42
1.000000
 50
90.000000
  0
ENDBLK
  0
BLOCK
  2
5207863ITEM-01
  8
0
 70
0
 10
0.0
 20
0.0
 30
0.0
  0
ARC
  8
0
  6
CONTINUOUS
 62
1
 10
10.000000
 20
86.251568
 40
10.000000
 50
180.000000
 51
236.309932
  0
LINE
  8
0
  6
CONTINUOUS
 62
1
 10
4.452998
 20
77.931065
 11
34.664101
 21
57.790330
  0
ARC
  8
0
  6
CONTINUOUS
 62
1
 10
33.000000
 20
55.294179
 40
2.999999
 50
23.776564
 51
56.309932
  0
ARC
  8
0
  6
CONTINUOUS
 62
1
 10
29.740458
 20
54.732957
 40
6.260552
 50
1.029433
 51
16.429781
  0
LINE
  8
0
  6
CONTINUOUS
 62
1
 10
36.000000
 20
54.845434
 11
36.000000
 21
10.000000
  0
ARC
  8
0
  6
CONTINUOUS
 62
1
 10
46.000000
 20
10.000000
 40
10.000000
 50
180.000000
 51
270.000000
  0
LINE
  8
0
  6
CONTINUOUS
 62
1
 10
46.000000
 20
0.000000
 11
62.357864
 21
0.000000
  0
ARC
  8
0
  6
CONTINUOUS
 62
1
 10
62.357864
 20
10.000000
 40
10.000000
 50
270.000000
 51
340.528780
  0
ARC
  8
0
  6
CONTINUOUS
 62
1
 10
76.500000
 20
5.000000
 40
5.000000
 50
90.000000
 51
160.528779
  0
LINE
  8
0
  6
CONTINUOUS
 62
1
 10
76.500000
 20
10.000000
 11
138.500000
 21
10.000000
  0
ARC
  8
0
  6
CONTINUOUS
 62
1
 10
138.500000
 20
5.000000
 40
5.000000
 50
19.471218
 51
90.000000
  0
ARC
  8
0
  6
CONTINUOUS
 62
1
 10
152.642136
 20
10.000000
 40
10.000000
 50
199.471221
 51
270.000000
  0
LINE
  8
0
  6
CONTINUOUS
 62
1
 10
152.642136
 20
0.000000
 11
165.000000
 21
0.000000
  0
ARC
  8
0
  6
CONTINUOUS
 62
1
 10
165.000000
 20
10.000000
 40
10.000000
 50
270.000000
 51
0.000000
  0
ARC
  8
0
  6
CONTINUOUS
 62
1
 10
170.000000
 20
78.079332
 40
5.000000
 50
0.000000
 51
67.975689
  0
ARC
  8
0
  6
CONTINUOUS
 62
1
 10
173.000000
 20
85.495531
 40
3.000000
 50
180.000000
 51
247.975687
  0
ARC
  8
0
  6
CONTINUOUS
 62
1
 10
175.000000
 20
229.194783
 40
5.000000
 50
109.471218
 51
180.000000
  0
ARC
  8
0
  6
CONTINUOUS
 62
1
 10
170.000000
 20
243.336919
 40
10.000000
 50
289.471221
 51
0.000000
  0
LINE
  8
0
  6
CONTINUOUS
 62
1
 10
180.000000
 20
243.336919
 11
180.000000
 21
275.150962
  0
ARC
  8
0
  6
CONTINUOUS
 62
1
 10
175.000000
 20
275.150962
 40
5.000000
 50
0.000000
 51
90.000000
  0
LINE
  8
0
  6
CONTINUOUS
 62
1
 10
175.000000
 20
280.150962
 11
160.000000
 21
280.150962
  0
ARC
  8
0
  6
CONTINUOUS
 62
1
 10
160.000000
 20
275.150962
 40
5.000000
 50
90.000000
 51
180.000000
  0
LINE
  8
0
  6
CONTINUOUS
 62
1
 10
155.000000
 20
275.150962
 11
155.000000
 21
270.150962
  0
ARC
  8
0
  6
CONTINUOUS
 62
1
 10
150.000000
 20
270.150962
 40
5.000000
 50
270.000000
 51
0.000000
  0
LINE
  8
0
  6
CONTINUOUS
 62
1
 10
150.000000
 20
265.150962
 11
70.000000
 21
265.150962
  0
ARC
  8
0
  6
CONTINUOUS
 62
1
 10
70.000000
 20
270.150962
 40
5.000000
 50
180.000000
 51
270.000000
  0
LINE
  8
0
  6
CONTINUOUS
 62
1
 10
65.000000
 20
270.150962
 11
65.000000
 21
275.150962
  0
ARC
  8
0
  6
CONTINUOUS
 62
1
 10
60.000000
 20
275.150962
 40
5.000000
 50
0.000000
 51
90.000000
  0
LINE
  8
0
  6
CONTINUOUS
 62
1
 10
60.000000
 20
280.150962
 11
45.000000
 21
280.150962
  0
ARC
  8
0
  6
CONTINUOUS
 62
1
 10
45.000000
 20
275.150962
 40
5.000000
 50
90.000000
 51
180.000000
  0
LINE
  8
0
  6
CONTINUOUS
 62
1
 10
40.000000
 20
275.150962
 11
40.000000
 21
216.643900
  0
ARC
  8
0
  6
CONTINUOUS
 62
1
 10
30.000000
 20
216.643900
 40
10.000000
 50
329.036241
 51
0.000000
  0
ARC
  8
0
  6
CONTINUOUS
 62
1
 10
23.906455
 20
191.993502
 40
2.106434
 50
276.285358
 51
326.443766
  0
LINE
  8
0
  6
CONTINUOUS
 62
1
 10
24.137068
 20
189.899730
 11
10.000000
 21
189.899730
  0
ARC
  8
0
  6
CONTINUOUS
 62
1
 10
10.000000
 20
179.899730
 40
10.000000
 50
90.000000
 51
180.000000
  0
LINE
  8
0
  6
CONTINUOUS
 62
1
 10
0.000000
 20
179.899730
 11
0.000000
 21
86.251568
  0
LINE
  8
0
  6
CONTINUOUS
 62
1
 10
175.000000
 20
10.000000
 11
175.000000
 21
31.887637
  0
LINE
  8
0
  6
CONTINUOUS
 62
1
 10
175.000000
 20
31.887637
 11
171.800000
 21
31.887637
  0
LINE
  8
0
  6
CONTINUOUS
 62
1
 10
171.800000
 20
31.887637
 11
171.800000
 21
47.387637
  0
LINE
  8
0
  6
CONTINUOUS
 62
1
 10
171.800000
 20
47.387637
 11
175.000000
 21
47.387637
  0
LINE
  8
0
  6
CONTINUOUS
 62
1
 10
175.000000
 20
47.387637
 11
175.000000
 21
78.079332
  0
LINE
  8
0
  6
CONTINUOUS
 62
1
 10
170.000000
 20
85.495531
 11
170.000000
 21
202.993412
  0
LINE
  8
0
  6
CONTINUOUS
 62
1
 10
170.000000
 20
202.993412
 11
166.800000
 21
202.993412
  0
LINE
  8
0
  6
CONTINUOUS
 62
1
 10
166.800000
 20
202.993412
 11
166.800000
 21
222.718402
  0
LINE
  8
0
  6
CONTINUOUS
 62
1
 10
166.800000
 20
222.718402
 11
170.000000
 21
222.718402
  0
LINE
  8
0
  6
CONTINUOUS
 62
1
 10
170.000000
 20
222.718402
 11
170.000000
 21
229.194783
  0
LINE
  8
0
  6
CONTINUOUS
 62
1
 10
38.574929
 20
211.498942
 11
28.909676
 21
195.390187
  0
LINE
  8
0
  6
CONTINUOUS
 62
1
 10
28.909676
 20
195.390187
 11
25.661839
 21
190.829160
  0
ARC
  8
0
  6
CONTINUOUS
 62
1
 10
14.730000
 20
103.899730
 40
6.000000
 50
180.000000
 51
270.000000
  0
LINE
  8
0
  6
CONTINUOUS
 62
1
 10
14.730000
 20
97.899730
 11
39.730000
 21
97.899730
  0
ARC
  8
0
  6
CONTINUOUS
 62
1
 10
39.730000
 20
103.899730
 40
6.000000
 50
270.000000
 51
0.000000
  0
LINE
  8
0
  6
CONTINUOUS
 62
1
 10
45.730000
 20
103.899730
 11
45.730000
 21
163.899730
  0
ARC
  8
0
  6
CONTINUOUS
 62
1
 10
39.730000
 20
163.899730
 40
6.000000
 50
0.000000
 51
90.000000
  0
LINE
  8
0
  6
CONTINUOUS
 62
1
 10
39.730000
 20
169.899730
 11
14.730000
 21
169.899730
  0
ARC
  8
0
  6
CONTINUOUS
 62
1
 10
14.730000
 20
163.899730
 40
6.000000
 50
90.000000
 51
180.000000
  0
LINE
  8
0
  6
CONTINUOUS
 62
1
 10
8.730000
 20
163.899730
 11
8.730000
 21
103.899730
  0
CIRCLE
  8
0
  6
CONTINUOUS
 62
1
 10
16.230000
 20
89.899730
 40
3.300000
  0
CIRCLE
  8
0
  6
CONTINUOUS
 62
1
 10
18.230000
 20
177.899730
 40
3.300000
  0
CIRCLE
  8
0
  6
CONTINUOUS
 62
1
 10
36.230000
 20
177.899730
 40
3.300000
  0
CIRCLE
  8
0
  6
CONTINUOUS
 62
1
 10
38.230000
 20
89.899730
 40
3.300000
  0
CIRCLE
  8
0
  6
CONTINUOUS
 62
1
 10
52.500000
 20
12.800000
 40
4.100000
  0
CIRCLE
  8
0
  6
CONTINUOUS
 62
1
 10
52.500000
 20
271.150962
 40
4.100000
  0
CIRCLE
  8
0
  6
CONTINUOUS
 62
1
 10
55.637152
 20
69.899730
 40
4.750000
  0
ARC
  8
0
  6
CONTINUOUS
 62
1
 10
58.500000
 20
35.776902
 40
1.500000
 50
180.000000
 51
270.000000
  0
LINE
  8
0
  6
CONTINUOUS
 62
1
 10
58.500000
 20
34.276902
 11
90.500000
 21
34.276902
  0
ARC
  8
0
  6
CONTINUOUS
 62
1
 10
90.500000
 20
35.776902
 40
1.500000
 50
270.000000
 51
0.000000
  0
LINE
  8
0
  6
CONTINUOUS
 62
1
 10
92.000000
 20
35.776902
 11
92.000000
 21
42.776902
  0
ARC
  8
0
  6
CONTINUOUS
 62
1
 10
90.500000
 20
42.776902
 40
1.500000
 50
0.000000
 51
90.000000
  0
LINE
  8
0
  6
CONTINUOUS
 62
1
 10
90.500000
 20
44.276902
 11
58.500000
 21
44.276902
  0
ARC
  8
0
  6
CONTINUOUS
 62
1
 10
58.500000
 20
42.776902
 40
1.500000
 50
90.000000
 51
180.000000
  0
LINE
  8
0
  6
CONTINUOUS
 62
1
 10
57.000000
 20
42.776902
 11
57.000000
 21
35.776902
  0
ARC
  8
0
  6
CONTINUOUS
 62
1
 10
65.500000
 20
207.175363
 40
3.000000
 50
180.000000
 51
270.000000
  0
LINE
  8
0
  6
CONTINUOUS
 62
1
 10
65.500000
 20
204.175363
 11
74.500000
 21
204.175363
  0
ARC
  8
0
  6
CONTINUOUS
 62
1
 10
74.500000
 20
207.175363
 40
3.000000
 50
270.000000
 51
0.000000
  0
LINE
  8
0
  6
CONTINUOUS
 62
1
 10
77.500000
 20
207.175363
 11
77.500000
 21
241.175363
  0
ARC
  8
0
  6
CONTINUOUS
 62
1
 10
74.500000
 20
241.175363
 40
3.000000
 50
0.000000
 51
90.000000
  0
LINE
  8
0
  6
CONTINUOUS
 62
1
 10
74.500000
 20
244.175363
 11
65.500000
 21
244.175363
  0
ARC
  8
0
  6
CONTINUOUS
 62
1
 10
65.500000
 20
241.175363
 40
3.000000
 50
90.000000
 51
180.000000
  0
LINE
  8
0
  6
CONTINUOUS
 62
1
 10
62.500000
 20
241.175363
 11
62.500000
 21
207.175363
  0
ARC
  8
0
  6
CONTINUOUS
 62
1
 10
69.730000
 20
103.899730
 40
6.000000
 50
180.000000
 51
270.000000
  0
LINE
  8
0
  6
CONTINUOUS
 62
1
 10
69.730000
 20
97.899730
 11
94.730000
 21
97.899730
  0
ARC
  8
0
  6
CONTINUOUS
 62
1
 10
94.730000
 20
103.899730
 40
6.000000
 50
270.000000
 51
0.000000
  0
LINE
  8
0
  6
CONTINUOUS
 62
1
 10
100.730000
 20
103.899730
 11
100.730000
 21
163.899730
  0
ARC
  8
0
  6
CONTINUOUS
 62
1
 10
94.730000
 20
163.899730
 40
6.000000
 50
0.000000
 51
90.000000
  0
LINE
  8
0
  6
CONTINUOUS
 62
1
 10
94.730000
 20
169.899730
 11
69.730000
 21
169.899730
  0
ARC
  8
0
  6
CONTINUOUS
 62
1
 10
69.730000
 20
163.899730
 40
6.000000
 50
90.000000
 51
180.000000
  0
LINE
  8
0
  6
CONTINUOUS
 62
1
 10
63.730000
 20
163.899730
 11
63.730000
 21
103.899730
  0
CIRCLE
  8
0
  6
CONTINUOUS
 62
1
 10
71.230000
 20
89.899730
 40
3.300000
  0
CIRCLE
  8
0
  6
CONTINUOUS
 62
1
 10
73.230000
 20
177.899730
 40
3.300000
  0
CIRCLE
  8
0
  6
CONTINUOUS
 62
1
 10
91.230000
 20
177.899730
 40
3.300000
  0
CIRCLE
  8
0
  6
CONTINUOUS
 62
1
 10
93.230000
 20
89.899730
 40
3.300000
  0
ARC
  8
0
  6
CONTINUOUS
 62
1
 10
105.500000
 20
207.175363
 40
3.000000
 50
180.000000
 51
270.000000
  0
LINE
  8
0
  6
CONTINUOUS
 62
1
 10
105.500000
 20
204.175363
 11
114.500000
 21
204.175363
  0
ARC
  8
0
  6
CONTINUOUS
 62
1
 10
114.500000
 20
207.175363
 40
3.000000
 50
270.000000
 51
0.000000
  0
LINE
  8
0
  6
CONTINUOUS
 62
1
 10
117.500000
 20
207.175363
 11
117.500000
 21
241.175363
  0
ARC
  8
0
  6
CONTINUOUS
 62
1
 10
114.500000
 20
241.175363
 40
3.000000
 50
0.000000
 51
90.000000
  0
LINE
  8
0
  6
CONTINUOUS
 62
1
 10
114.500000
 20
244.175363
 11
105.500000
 21
244.175363
  0
ARC
  8
0
  6
CONTINUOUS
 62
1
 10
105.500000
 20
241.175363
 40
3.000000
 50
90.000000
 51
180.000000
  0
LINE
  8
0
  6
CONTINUOUS
 62
1
 10
102.500000
 20
241.175363
 11
102.500000
 21
207.175363
  0
ARC
  8
0
  6
CONTINUOUS
 62
1
 10
115.500000
 20
35.776902
 40
1.500000
 50
180.000000
 51
270.000000
  0
LINE
  8
0
  6
CONTINUOUS
 62
1
 10
115.500000
 20
34.276902
 11
147.500000
 21
34.276902
  0
ARC
  8
0
  6
CONTINUOUS
 62
1
 10
147.500000
 20
35.776902
 40
1.500000
 50
270.000000
 51
0.000000
  0
LINE
  8
0
  6
CONTINUOUS
 62
1
 10
149.000000
 20
35.776902
 11
149.000000
 21
42.776902
  0
ARC
  8
0
  6
CONTINUOUS
 62
1
 10
147.500000
 20
42.776902
 40
1.500000
 50
0.000000
 51
90.000000
  0
LINE
  8
0
  6
CONTINUOUS
 62
1
 10
147.500000
 20
44.276902
 11
115.500000
 21
44.276902
  0
ARC
  8
0
  6
CONTINUOUS
 62
1
 10
115.500000
 20
42.776902
 40
1.500000
 50
90.000000
 51
180.000000
  0
LINE
  8
0
  6
CONTINUOUS
 62
1
 10
114.000000
 20
42.776902
 11
114.000000
 21
35.776902
  0
ARC
  8
0
  6
CONTINUOUS
 62
1
 10
124.730000
 20
103.899730
 40
6.000000
 50
180.000000
 51
270.000000
  0
LINE
  8
0
  6
CONTINUOUS
 62
1
 10
124.730000
 20
97.899730
 11
149.730000
 21
97.899730
  0
ARC
  8
0
  6
CONTINUOUS
 62
1
 10
149.730000
 20
103.899730
 40
6.000000
 50
270.000000
 51
0.000000
  0
LINE
  8
0
  6
CONTINUOUS
 62
1
 10
155.730000
 20
103.899730
 11
155.730000
 21
163.899730
  0
ARC
  8
0
  6
CONTINUOUS
 62
1
 10
149.730000
 20
163.899730
 40
6.000000
 50
0.000000
 51
90.000000
  0
LINE
  8
0
  6
CONTINUOUS
 62
1
 10
149.730000
 20
169.899730
 11
124.730000
 21
169.899730
  0
ARC
  8
0
  6
CONTINUOUS
 62
1
 10
124.730000
 20
163.899730
 40
6.000000
 50
90.000000
 51
180.000000
  0
LINE
  8
0
  6
CONTINUOUS
 62
1
 10
118.730000
 20
163.899730
 11
118.730000
 21
103.899730
  0
CIRCLE
  8
0
  6
CONTINUOUS
 62
1
 10
126.230000
 20
89.899730
 40
3.300000
  0
CIRCLE
  8
0
  6
CONTINUOUS
 62
1
 10
128.230000
 20
177.899730
 40
3.300000
  0
CIRCLE
  8
0
  6
CONTINUOUS
 62
1
 10
137.130000
 20
69.899730
 40
4.750000
  0
ARC
  8
0
  6
CONTINUOUS
 62
1
 10
145.500000
 20
207.175363
 40
3.000000
 50
180.000000
 51
270.000000
  0
LINE
  8
0
  6
CONTINUOUS
 62
1
 10
145.500000
 20
204.175363
 11
154.500000
 21
204.175363
  0
ARC
  8
0
  6
CONTINUOUS
 62
1
 10
154.500000
 20
207.175363
 40
3.000000
 50
270.000000
 51
0.000000
  0
LINE
  8
0
  6
CONTINUOUS
 62
1
 10
157.500000
 20
207.175363
 11
157.500000
 21
241.175363
  0
ARC
  8
0
  6
CONTINUOUS
 62
1
 10
154.500000
 20
241.175363
 40
3.000000
 50
0.000000
 51
90.000000
  0
LINE
  8
0
  6
CONTINUOUS
 62
1
 10
154.500000
 20
244.175363
 11
145.500000
 21
244.175363
  0
ARC
  8
0
  6
CONTINUOUS
 62
1
 10
145.500000
 20
241.175363
 40
3.000000
 50
90.000000
 51
180.000000
  0
LINE
  8
0
  6
CONTINUOUS
 62
1
 10
142.500000
 20
241.175363
 11
142.500000
 21
207.175363
  0
CIRCLE
  8
0
  6
CONTINUOUS
 62
1
 10
146.230000
 20
177.899730
 40
3.300000
  0
CIRCLE
  8
0
  6
CONTINUOUS
 62
1
 10
148.230000
 20
89.899730
 40
3.300000
  0
CIRCLE
  8
0
  6
CONTINUOUS
 62
1
 10
162.500000
 20
12.800000
 40
4.100000
  0
CIRCLE
  8
0
  6
CONTINUOUS
 62
1
 10
167.500000
 20
271.150962
 40
4.100000
  0
ARC
  8
0
  6
CONTINUOUS
 62
8
 10
162.494737
 20
139.587336
 40
2.306130
 50
124.434949
 51
182.434948
  0
ARC
  8
0
  6
CONTINUOUS
 62
8
 10
162.281195
 20
139.537003
 40
2.091048
 50
181.305571
 51
258.305574
  0
ARC
  8
0
  6
CONTINUOUS
 62
8
 10
163.690689
 20
145.430399
 40
8.149921
 50
257.000000
 51
283.000000
  0
ARC
  8
0
  6
CONTINUOUS
 62
8
 10
165.100183
 20
139.537003
 40
2.091048
 50
281.694429
 51
358.694431
  0
LINE
  8
0
  6
CONTINUOUS
 62
8
 10
167.190689
 20
139.489360
 11
167.190689
 21
139.822693
  0
ARC
  8
0
  6
CONTINUOUS
 62
8
 10
165.024022
 20
139.656026
 40
2.173068
 50
4.398705
 51
94.398704
  0
ARC
  8
0
  6
CONTINUOUS
 62
8
 10
164.857356
 20
139.489360
 40
2.333333
 50
90.000000
 51
179.999999
  0
ARC
  8
0
  6
CONTINUOUS
 62
8
 10
164.652792
 20
139.549941
 40
2.129631
 50
181.630102
 51
284.630102
  0
ARC
  8
0
  6
CONTINUOUS
 62
8
 10
162.154317
 20
115.097938
 40
1.964487
 50
178.305569
 51
261.305571
  0
ARC
  8
0
  6
CONTINUOUS
 62
8
 10
162.154317
 20
165.431272
 40
1.964487
 50
178.305569
 51
261.305571
  0
ARC
  8
0
  6
CONTINUOUS
 62
8
 10
164.609750
 20
108.908420
 40
2.254910
 50
219.000000
 51
231.000000
  0
ARC
  8
0
  6
CONTINUOUS
 62
8
 10
164.556714
 20
108.611368
 40
2.036350
 50
183.434949
 51
213.434949
  0
ARC
  8
0
  6
CONTINUOUS
 62
8
 10
166.133585
 20
109.322693
 40
3.704509
 50
167.000000
 51
193.000000
  0
ARC
  8
0
  6
CONTINUOUS
 62
8
 10
164.173944
 20
109.506105
 40
1.773313
 50
111.499998
 51
158.500000
  0
ARC
  8
0
  6
CONTINUOUS
 62
8
 10
165.048115
 20
107.892990
 40
3.601425
 50
93.036243
 51
115.036243
  0
ARC
  8
0
  6
CONTINUOUS
 62
8
 10
165.024022
 20
109.322693
 40
2.173068
 50
4.398706
 51
94.398705
  0
ARC
  8
0
  6
CONTINUOUS
 62
8
 10
165.100183
 20
109.537003
 40
2.091048
 50
281.694426
 51
358.694429
  0
LINE
  8
0
  6
CONTINUOUS
 62
8
 10
160.190689
 20
110.822693
 11
160.190689
 21
107.489360
  0
LINE
  8
0
  6
CONTINUOUS
 62
8
 10
160.190689
 20
107.489360
 11
163.190689
 21
107.156026
  0
ARC
  8
0
  6
CONTINUOUS
 62
8
 10
162.163601
 20
115.105613
 40
1.973556
 50
119.536243
 51
178.536243
  0
ARC
  8
0
  6
CONTINUOUS
 62
8
 10
162.357356
 20
113.860937
 40
3.183255
 50
68.500002
 51
111.500000
  0
ARC
  8
0
  6
CONTINUOUS
 62
8
 10
161.355048
 20
112.541838
 40
4.798975
 50
43.130102
 51
63.130102
  0
LINE
  8
0
  6
CONTINUOUS
 62
8
 10
164.857356
 20
115.822693
 11
167.190689
 21
113.489360
  0
LINE
  8
0
  6
CONTINUOUS
 62
8
 10
167.190689
 20
113.489360
 11
167.190689
 21
116.822693
  0
ARC
  8
0
  6
CONTINUOUS
 62
8
 10
162.524022
 20
120.822693
 40
2.333333
 50
90.000001
 51
270.000000
  0
LINE
  8
0
  6
CONTINUOUS
 62
8
 10
162.524022
 20
118.489360
 11
164.857356
 21
118.489360
  0
ARC
  8
0
  6
CONTINUOUS
 62
8
 10
164.857356
 20
120.822693
 40
2.333333
 50
270.000001
 51
90.000000
  0
LINE
  8
0
  6
CONTINUOUS
 62
8
 10
164.857356
 20
123.156026
 11
162.524022
 21
123.156026
  0
LINE
  8
0
  6
CONTINUOUS
 62
8
 10
160.190689
 20
124.822693
 11
160.190689
 21
129.489360
  0
LINE
  8
0
  6
CONTINUOUS
 62
8
 10
160.190689
 20
129.489360
 11
167.190689
 21
126.156026
  0
ARC
  8
0
  6
CONTINUOUS
 62
8
 10
162.290712
 20
133.633812
 40
2.104985
 50
183.934949
 51
212.934949
  0
ARC
  8
0
  6
CONTINUOUS
 62
8
 10
161.589910
 20
133.004858
 40
1.184000
 50
205.809932
 51
266.809934
  0
ARC
  8
0
  6
CONTINUOUS
 62
8
 10
161.355459
 20
133.158871
 40
1.346769
 50
277.190068
 51
330.190067
  0
LINE
  8
0
  6
CONTINUOUS
 62
8
 10
162.524022
 20
132.489360
 11
164.524022
 21
135.489360
  0
ARC
  8
0
  6
CONTINUOUS
 62
8
 10
165.524022
 20
134.822693
 40
1.201850
 50
56.309933
 51
146.309932
  0
ARC
  8
0
  6
CONTINUOUS
 62
8
 10
164.740941
 20
134.264486
 40
2.128327
 50
6.065050
 51
47.065051
  0
ARC
  8
0
  6
CONTINUOUS
 62
8
 10
163.852453
 20
133.656026
 40
3.118315
 50
344.500000
 51
15.500000
  0
ARC
  8
0
  6
CONTINUOUS
 62
8
 10
164.740941
 20
133.047567
 40
2.128327
 50
312.934948
 51
353.934949
  0
ARC
  8
0
  6
CONTINUOUS
 62
8
 10
165.524022
 20
132.489360
 40
1.201850
 50
213.690069
 51
303.690068
  0
LINE
  8
0
  6
CONTINUOUS
 62
8
 10
164.524022
 20
131.822693
 11
162.524022
 21
134.489360
  0
ARC
  8
0
  6
CONTINUOUS
 62
8
 10
161.355459
 20
133.819848
 40
1.346769
 50
29.809932
 51
82.809932
  0
ARC
  8
0
  6
CONTINUOUS
 62
8
 10
161.589910
 20
133.973861
 40
1.184000
 50
93.190068
 51
154.190069
  0
ARC
  8
0
  6
CONTINUOUS
 62
8
 10
162.290712
 20
133.344908
 40
2.104985
 50
147.065051
 51
176.065052
  0
ARC
  8
0
  6
CONTINUOUS
 62
8
 10
163.613187
 20
146.861444
 40
0.756824
 50
123.934948
 51
182.934949
  0
ARC
  8
0
  6
CONTINUOUS
 62
8
 10
164.843215
 20
143.560062
 40
4.262654
 50
89.809932
 51
112.809932
  0
ARC
  8
0
  6
CONTINUOUS
 62
8
 10
165.024022
 20
145.656026
 40
2.173068
 50
4.398706
 51
94.398705
  0
ARC
  8
0
  6
CONTINUOUS
 62
8
 10
165.100183
 20
145.870337
 40
2.091048
 50
281.694426
 51
358.694429
  0
LINE
  8
0
  6
CONTINUOUS
 62
8
 10
160.190689
 20
143.489360
 11
160.190689
 21
147.156026
  0
LINE
  8
0
  6
CONTINUOUS
 62
8
 10
160.190689
 20
147.156026
 11
162.857356
 21
145.156026
  0
LINE
  8
0
  6
CONTINUOUS
 62
8
 10
162.857356
 20
145.156026
 11
162.857356
 21
146.822693
  0
ARC
  8
0
  6
CONTINUOUS
 62
8
 10
162.524022
 20
159.489360
 40
2.333333
 50
90.000001
 51
270.000000
  0
LINE
  8
0
  6
CONTINUOUS
 62
8
 10
162.524022
 20
157.156026
 11
164.857356
 21
157.156026
  0
ARC
  8
0
  6
CONTINUOUS
 62
8
 10
164.857356
 20
159.489360
 40
2.333333
 50
270.000001
 51
90.000000
  0
LINE
  8
0
  6
CONTINUOUS
 62
8
 10
164.857356
 20
161.822693
 11
162.524022
 21
161.822693
  0
ARC
  8
0
  6
CONTINUOUS
 62
8
 10
162.163601
 20
165.438946
 40
1.973556
 50
119.536243
 51
178.536243
  0
ARC
  8
0
  6
CONTINUOUS
 62
8
 10
162.357356
 20
164.194270
 40
3.183255
 50
68.500002
 51
111.500000
  0
ARC
  8
0
  6
CONTINUOUS
 62
8
 10
161.355048
 20
162.875172
 40
4.798975
 50
43.130102
 51
63.130102
  0
LINE
  8
0
  6
CONTINUOUS
 62
8
 10
164.857356
 20
166.156026
 11
167.190689
 21
163.822693
  0
LINE
  8
0
  6
CONTINUOUS
 62
8
 10
167.190689
 20
163.822693
 11
167.190689
 21
167.156026
  0
LINE
  8
0
  6
CONTINUOUS
 62
8
 10
164.190689
 20
149.489360
 11
164.190689
 21
155.489360
  0
ENDBLK
  0
BLOCK
  2
BASE14-32ITEM03-5-
  8
0
 70
0
 10
0.0
 20
0.0
 30
0.0
  0
LINE
  8
0
  6
CONTINUOUS
 62
1
 10
0.000000
 20
84.000000
 11
310.000000
 21
84.000000
  0
LINE
  8
0
  6
CONTINUOUS
 62
1
 10
310.000000
 20
84.000000
 11
310.000000
 21
0.000000
  0
LINE
  8
0
  6
CONTINUOUS
 62
1
 10
310.000000
 20
0.000000
 11
0.000000
 21
0.000000
  0
LINE
  8
0
  6
CONTINUOUS
 62
1
 10
0.000000
 20
0.000000
 11
0.000000
 21
84.000000
  0
ENDBLK
  0
ENDSEC
  0
SECTION
  2
ENTITIES
  0
LINE
  8
DUMMY-LAYOUT-SHEET
  6
CONTINUOUS
 62
1
 10
2801.696970
 20
685.733913
 11
5849.696970
 21
685.733913
  0
LINE
  8
DUMMY-LAYOUT-SHEET
  6
CONTINUOUS
 62
1
 10
5849.696970
 20
685.733913
 11
5849.696970
 21
1904.933913
  0
LINE
  8
DUMMY-LAYOUT-SHEET
  6
CONTINUOUS
 62
1
 10
5849.696970
 20
1904.933913
 11
2801.696970
 21
1904.933913
  0
LINE
  8
DUMMY-LAYOUT-SHEET
  6
CONTINUOUS
 62
1
 10
2801.696970
 20
1904.933913
 11
2801.696970
 21
685.733913
  0
INSERT
  2
MDATUM
  8
DUMMY-LAYOUT-MC-MC4
 10
2801.696970
 20
685.733913
 41
1.000000
 42
1.000000
 50
0.000000
  0
INSERT
  2
ODATUM
  8
DUMMY-LAYOUT
 10
2808.821970
 20
692.858913
 41
1.000000
 42
1.000000
 50
0.000000
  0
INSERT
  2
470-8278-02
  8
DUMMY-LAYOUT
 10
4042.465365
 20
692.858913
 41
1.000000
 42
1.000000
 50
90.000000
  0
INSERT
  2
543-2433-00
  8
DUMMY-LAYOUT
 10
2808.821970
 20
1829.914513
 41
1.000000
 42
1.000000
 50
0.000000
  0
INSERT
  2
87603496-A
  8
DUMMY-LAYOUT
 10
2808.821970
 20
1832.497554
 41
1.000000
 42
1.000000
 50
-90.000000
  0
INSERT
  2
9Y9194-00
  8
DUMMY-LAYOUT
 10
2829.821970
 20
1616.519324
 41
1.000000
 42
1.000000
 50
180.000000
  0
INSERT
  2
9Y9194-00
  8
DUMMY-LAYOUT
 10
2907.482881
 20
1489.733413
 41
1.000000
 42
1.000000
 50
90.000000
  0
INSERT
  2
433-6158-01
  8
DUMMY-LAYOUT
 10
3132.618799
 20
1845.312113
 41
1.000000
 42
1.000000
 50
0.000000
  0
INSERT
  2
470-8278-02
  8
DUMMY-LAYOUT
 10
3735.205661
 20
1835.258913
 41
1.000000
 42
1.000000
 50
-90.000000
  0
INSERT
  2
9Y9194-00
  8
DUMMY-LAYOUT
 10
2808.821970
 20
1482.608413
 41
1.000000
 42
1.000000
 50
-90.000000
  0
INSERT
  2
BASE14-32ITEM01-5
  8
DUMMY-LAYOUT
 10
4667.134206
 20
1451.808913
 41
1.000000
 42
1.000000
 50
0.000000
  0
INSERT
  2
466-9350-00
  8
DUMMY-LAYOUT
 10
4821.993559
 20
1076.983913
 41
1.000000
 42
1.000000
 50
0.000000
  0
INSERT
  2
5542190-01
  8
DUMMY-LAYOUT
 10
3059.957808
 20
692.858913
 41
1.000000
 42
1.000000
 50
90.000000
  0
INSERT
  2
5256179-00
  8
DUMMY-LAYOUT
 10
2808.821970
 20
1256.523613
 41
1.000000
 42
1.000000
 50
-90.000000
  0
INSERT
  2
4975036ITEM06-01
  8
DUMMY-LAYOUT
 10
2798.662761
 20
1279.322385
 41
1.000000
 42
1.000000
 50
-27.293843
  0
INSERT
  2
87603496-A
  8
DUMMY-LAYOUT
 10
3048.150061
 20
941.230754
 41
1.000000
 42
1.000000
 50
-90.000000
  0
INSERT
  2
9Y9194-00
  8
DUMMY-LAYOUT
 10
2808.821970
 20
1425.727713
 41
1.000000
 42
1.000000
 50
-90.000000
  0
INSERT
  2
R176526-B
  8
DUMMY-LAYOUT
 10
2856.978216
 20
1517.858413
 41
1.000000
 42
1.000000
 50
90.000000
  0
INSERT
  2
R176526-B
  8
DUMMY-LAYOUT
 10
2899.212585
 20
1727.116513
 41
1.000000
 42
1.000000
 50
90.000000
  0
INSERT
  2
R176526-B
  8
DUMMY-LAYOUT
 10
2927.368831
 20
1744.493113
 41
1.000000
 42
1.000000
 50
90.000000
  0
INSERT
  2
R176526-B
  8
DUMMY-LAYOUT
 10
2941.446954
 20
1376.449513
 41
1.000000
 42
1.000000
 50
90.000000
  0
INSERT
  2
R176526-B
  8
DUMMY-LAYOUT
 10
2955.525077
 20
1761.869813
 41
1.000000
 42
1.000000
 50
90.000000
  0
INSERT
  2
R176526-B
  8
DUMMY-LAYOUT
 10
2969.603200
 20
1361.920813
 41
1.000000
 42
1.000000
 50
90.000000
  0
INSERT
  2
R176526-B
  8
DUMMY-LAYOUT
 10
3025.915692
 20
1263.648613
 41
1.000000
 42
1.000000
 50
90.000000
  0
INSERT
  2
R176526-B
  8
DUMMY-LAYOUT
 10
3054.071938
 20
1248.436813
 41
1.000000
 42
1.000000
 50
90.000000
  0
INSERT
  2
R176526-B
  8
DUMMY-LAYOUT
 10
3068.150061
 20
692.858913
 41
1.000000
 42
1.000000
 50
90.000000
  0
INSERT
  2
5555667-00
  8
DUMMY-LAYOUT
 10
5561.196666
 20
692.858913
 41
1.000000
 42
1.000000
 50
90.000000
  0
INSERT
  2
5552385-00
  8
DUMMY-LAYOUT
 10
3558.168714
 20
1747.416313
 41
1.000000
 42
1.000000
 50
90.000000
  0
INSERT
  2
5256179-00
  8
DUMMY-LAYOUT
 10
3459.612442
 20
1740.291313
 41
1.000000
 42
1.000000
 50
180.000000
  0
INSERT
  2
4975036ITEM06-01
  8
DUMMY-LAYOUT
 10
3511.832897
 20
1348.339113
 41
1.000000
 42
1.000000
 50
90.000000
  0
INSERT
  2
5679623-01
  8
DUMMY-LAYOUT
 10
3470.493751
 20
1740.291313
 41
1.000000
 42
1.000000
 50
-90.000000
  0
INSERT
  2
5679623-01
  8
DUMMY-LAYOUT
 10
3470.493751
 20
1658.166313
 41
1.000000
 42
1.000000
 50
-90.000000
  0
INSERT
  2
6173573ITEM01-00
  8
DUMMY-LAYOUT
 10
3619.329641
 20
1419.098413
 41
1.000000
 42
1.000000
 50
90.000000
  0
INSERT
  2
4232214C1-A
  8
DUMMY-LAYOUT
 10
4350.475655
 20
692.858913
 41
1.000000
 42
1.000000
 50
90.000000
  0
INSERT
  2
5207863ITEM-01
  8
DUMMY-LAYOUT
 10
4120.902754
 20
744.994413
 41
1.000000
 42
1.000000
 50
0.000000
  0
INSERT
  2
5207863ITEM-01
  8
DUMMY-LAYOUT
 10
4783.626032
 20
1507.962796
 41
1.000000
 42
1.000000
 50
1.227163
  0
INSERT
  2
4232214C1-A
  8
DUMMY-LAYOUT
 10
4449.022516
 20
1037.695413
 41
1.000000
 42
1.000000
 50
90.000000
  0
INSERT
  2
5207863ITEM-01
  8
DUMMY-LAYOUT
 10
4484.310074
 20
1031.541537
 41
1.000000
 42
1.000000
 50
-178.772837
  0
INSERT
  2
5207863ITEM-01
  8
DUMMY-LAYOUT
 10
5672.503975
 20
1792.779037
 41
1.000000
 42
1.000000
 50
-178.772837
  0
INSERT
  2
5207863ITEM-01
  8
DUMMY-LAYOUT
 10
5214.769505
 20
889.315013
 41
1.000000
 42
1.000000
 50
90.000000
  0
INSERT
  2
543-2433-00
  8
DUMMY-LAYOUT
 10
5460.790388
 20
907.818946
 41
1.000000
 42
1.000000
 50
180.000000
  0
INSERT
  2
BASE14-32ITEM03-5-
  8
DUMMY-LAYOUT
 10
5224.627362
 20
914.943913
 41
1.000000
 42
1.000000
 50
0.000000
  0
INSERT
  2
543-2433-00
  8
DUMMY-LAYOUT
 10
5545.259126
 20
1064.133146
 41
1.000000
 42
1.000000
 50
180.000000
  0
INSERT
  2
4232214C1-A
  8
DUMMY-LAYOUT
 10
5744.209832
 20
1335.169313
 41
1.000000
 42
1.000000
 50
90.000000
  0
INSERT
  2
4232214C1-A
  8
DUMMY-LAYOUT
 10
5758.287955
 20
1218.529713
 41
1.000000
 42
1.000000
 50
90.000000
  0
INSERT
  2
4232214C1-A
  8
DUMMY-LAYOUT
 10
5758.287955
 20
1101.890113
 41
1.000000
 42
1.000000
 50
90.000000
  0
INSERT
  2
4232214C1-A
  8
DUMMY-LAYOUT
 10
5800.522324
 20
985.250513
 41
1.000000
 42
1.000000
 50
90.000000
  0
INSERT
  2
4232214C1-A
  8
DUMMY-LAYOUT
 10
5800.522324
 20
868.610913
 41
1.000000
 42
1.000000
 50
90.000000
  0
INSERT
  2
4232214C1-A
  8
DUMMY-LAYOUT
 10
5568.134078
 20
1432.294314
 41
1.000000
 42
1.000000
 50
-90.000000
  0
INSERT
  2
4232214C1-A
  8
DUMMY-LAYOUT
 10
5582.212201
 20
1315.654714
 41
1.000000
 42
1.000000
 50
-90.000000
  0
INSERT
  2
4232214C1-A
  8
DUMMY-LAYOUT
 10
5582.212201
 20
1199.015114
 41
1.000000
 42
1.000000
 50
-90.000000
  0
INSERT
  2
4232214C1-A
  8
DUMMY-LAYOUT
 10
5582.212201
 20
861.485914
 41
1.000000
 42
1.000000
 50
-90.000000
  0
INSERT
  2
4232214C1-A
  8
DUMMY-LAYOUT
 10
5828.678570
 20
692.858913
 41
1.000000
 42
1.000000
 50
90.000000
  0
ENDSEC
  0
EOF
