  0
SECTION
  2
HEADER
  9
$LIMMIN
 10
0.000000
 20
0.000000
  9
$LIMMAX
 10
6157.575758
 20
4354.063574
  9
$EXTMIN
 10
0.000000
 20
0.000000
  9
$EXTMAX
 10
6157.575758
 20
4354.063574
  9
$ANGBASE
 50
0.0
  9
$ANGDIR
 70
0
  9
$DIMRND
 40
0.100000
  9
$DIMSE1
 70
0
  9
$DIMSE2
 70
0
  9
$DIMTXT
 40
3.500000
  9
$LTSCALE
 40
1.000000
  9
$LUPREC
 70
1
  9
$AUPREC
 70
1
  9
$PDMODE
 70
2
  9
$PDSIZE
 40
30.787879
  0
ENDSEC
  0
SECTION
  2
TABLES
  0
TABLE
  2
VPORT
  70
1
  0
VPORT
  2
*ACTIVE
 70
0
  10
0.0
 20
0.0
 11
1.0
 21
1.0
 12
594.0
 22
420.0
 13
0.0
 23
0.0
 14
10.0
 24
10.0
 15
10.0
 25
10.0
 16
0.0
 26
0.0
 36
1.0
 17
594.0
 27
420.0
 37
100.0
 40
1000.0
 41
1.0
 42
50.0
 43
0.0
 44
0.0
 50
0.0
 51
0.0
 71
0
 72
2000
 73
1
 74
3
 75
0
 76
0
 77
0
 78
1
  0
ENDTAB
  0
TABLE
  2
LTYPE
 70
4
  0
LTYPE
  2
CONTINUOUS
 70
0
  3
Solid line
 72
65
 73
0
 40
0.0
  0
LTYPE
  2
DASHED
 70
0
  3
Dashed line
 72
65
 73
2
 40
43.935797
 49
21.967899
 49
-21.967899
  0
LTYPE
  2
CENTER
 70
0
  3
Chain line
 72
65
 73
4
 40
175.743190
 49
109.839494
 49
-21.967899
 49
21.967899
 49
-21.967899
  0
LTYPE
  2
RANDOM
 70
0
  3
Random line
 72
65
 73
4
 40
164.759240
 49
43.935797
 49
-21.967899
 49
32.951848
 49
-65.903696
  0
ENDTAB
  0
TABLE
  2
STYLE
 70
9
  0
STYLE
  2
STANDARD
 40
0
 41
1.0
 50
0.0
 71
0
 42
0
  3
simplex
  4

 70
0
  0
ENDTAB
  0
TABLE
  2
LAYER
 70
11
  0
LAYER
  2
0
 70
0
 62
7
  6
CONTINUOUS
  0
LAYER
  2
0
 62
1
  6
CONTINUOUS
 70
0
  0
LAYER
  2
DUMMY
 62
1
  6
CONTINUOUS
 70
0
  0
LAYER
  2
DUMMY-LAYOUT
 62
1
  6
CONTINUOUS
 70
0
  0
LAYER
  2
DUMMY-LAYOUT-SHEET
 62
1
  6
CONTINUOUS
 70
0
  0
LAYER
  2
DUMMY-LAYOUT-MC
 62
1
  6
CONTINUOUS
 70
0
  0
LAYER
  2
DUMMY-LAYOUT-MC-MC4
 62
1
  6
CONTINUOUS
 70
0
  0
LAYER
  2
DUMMY-HCNUPDAR
 62
1
  6
CONTINUOUS
 70
0
  0
LAYER
  2
DUMMY-HCNUPDAR-ORDER
 62
1
  6
CONTINUOUS
 70
0
  0
LAYER
  2
DUMMY-HCNUPDAR-ORDER-MC
 62
1
  6
CONTINUOUS
 70
0
  0
LAYER
  2
DUMMY-HCNUPDAR-ORDER-MC-MC4
 62
1
  6
CONTINUOUS
 70
0
  0
ENDTAB
  0
ENDSEC
  0
SECTION
  2
BLOCKS
  0
BLOCK
  2
MDATUM
  8
0
 70
0
 10
0.0
 20
0.0
 30
0.0
  0
TEXT
  8
0
  6
CONTINUOUS
 62
6
 10
0.000000
 20
0.000000
 40
6.000000
  1
m
 50
0.000000
 41
1.000000
 51
0.000000
  7
STANDARD
  0
ENDBLK
  0
BLOCK
  2
ODATUM
  8
0
 70
0
 10
0.0
 20
0.0
 30
0.0
  0
TEXT
  8
0
  6
CONTINUOUS
 62
6
 10
0.000000
 20
0.000000
 40
6.000000
  1
o
 50
0.000000
 41
1.000000
 51
0.000000
  7
STANDARD
  0
ENDBLK
  0
BLOCK
  2
514-3962-00
  8
0
 70
0
 10
0.0
 20
0.0
 30
0.0
  0
LINE
  8
0
  6
CONTINUOUS
 62
1
 10
780.854603
 20
29.347866
 11
778.752539
 21
25.449612
  0
LINE
  8
0
  6
CONTINUOUS
 62
1
 10
778.752539
 20
25.449612
 11
776.405061
 21
21.758042
  0
LINE
  8
0
  6
CONTINUOUS
 62
1
 10
776.405061
 20
21.758042
 11
773.826252
 21
18.295299
  0
LINE
  8
0
  6
CONTINUOUS
 62
1
 10
773.826252
 20
18.295299
 11
771.031580
 21
15.082157
  0
LINE
  8
0
  6
CONTINUOUS
 62
1
 10
771.031580
 20
15.082157
 11
768.037812
 21
12.137890
  0
LINE
  8
0
  6
CONTINUOUS
 62
1
 10
768.037812
 20
12.137890
 11
764.862906
 21
9.480161
  0
LINE
  8
0
  6
CONTINUOUS
 62
1
 10
764.862906
 20
9.480161
 11
761.525907
 21
7.124913
  0
LINE
  8
0
  6
CONTINUOUS
 62
1
 10
761.525907
 20
7.124913
 11
758.046834
 21
5.086274
  0
LINE
  8
0
  6
CONTINUOUS
 62
1
 10
758.046834
 20
5.086274
 11
754.446556
 21
3.376474
  0
LINE
  8
0
  6
CONTINUOUS
 62
1
 10
754.446556
 20
3.376474
 11
750.746672
 21
2.005769
  0
LINE
  8
0
  6
CONTINUOUS
 62
1
 10
750.746672
 20
2.005769
 11
746.969376
 21
0.982382
  0
LINE
  8
0
  6
CONTINUOUS
 62
1
 10
746.969376
 20
0.982382
 11
743.137327
 21
0.312453
  0
LINE
  8
0
  6
CONTINUOUS
 62
1
 10
743.137327
 20
0.312453
 11
739.273514
 21
0.000000
  0
LINE
  8
0
  6
CONTINUOUS
 62
1
 10
739.273514
 20
0.000000
 11
735.401113
 21
0.046897
  0
LINE
  8
0
  6
CONTINUOUS
 62
1
 10
735.401113
 20
0.046897
 11
731.543356
 21
0.452863
  0
LINE
  8
0
  6
CONTINUOUS
 62
1
 10
731.543356
 20
0.452863
 11
727.723384
 21
1.215463
  0
LINE
  8
0
  6
CONTINUOUS
 62
1
 10
727.723384
 20
1.215463
 11
723.964112
 21
2.330122
  0
LINE
  8
0
  6
CONTINUOUS
 62
1
 10
723.964112
 20
2.330122
 11
720.288092
 21
3.790154
  0
LINE
  8
0
  6
CONTINUOUS
 62
1
 10
720.288092
 20
3.790154
 11
716.717375
 21
5.586799
  0
LINE
  8
0
  6
CONTINUOUS
 62
1
 10
716.717375
 20
5.586799
 11
713.273382
 21
7.709281
  0
LINE
  8
0
  6
CONTINUOUS
 62
1
 10
713.273382
 20
7.709281
 11
473.000000
 21
170.184655
  0
LINE
  8
0
  6
CONTINUOUS
 62
1
 10
473.000000
 20
170.184655
 11
473.000000
 21
177.046210
  0
ARC
  8
0
  6
CONTINUOUS
 62
1
 10
470.000000
 20
177.046210
 40
3.000000
 50
0.000000
 51
180.000000
  0
LINE
  8
0
  6
CONTINUOUS
 62
1
 10
467.000000
 20
177.046210
 11
467.000000
 21
138.446210
  0
ARC
  8
0
  6
CONTINUOUS
 62
1
 10
437.000000
 20
138.446210
 40
30.000000
 50
270.000000
 51
0.000000
  0
LINE
  8
0
  6
CONTINUOUS
 62
1
 10
437.000000
 20
108.446210
 11
12.000000
 21
108.446210
  0
ARC
  8
0
  6
CONTINUOUS
 62
1
 10
12.000000
 20
120.446210
 40
12.000000
 50
180.000000
 51
270.000000
  0
LINE
  8
0
  6
CONTINUOUS
 62
1
 10
0.000000
 20
120.446210
 11
0.000000
 21
236.346210
  0
ARC
  8
0
  6
CONTINUOUS
 62
1
 10
12.000000
 20
236.346210
 40
12.000000
 50
90.000000
 51
180.000000
  0
LINE
  8
0
  6
CONTINUOUS
 62
1
 10
12.000000
 20
248.346210
 11
203.000000
 21
248.346210
  0
ARC
  8
0
  6
CONTINUOUS
 62
1
 10
203.000000
 20
260.346210
 40
12.000000
 50
270.000000
 51
0.000000
  0
LINE
  8
0
  6
CONTINUOUS
 62
1
 10
215.000000
 20
260.346210
 11
215.000000
 21
275.363519
  0
ARC
  8
0
  6
CONTINUOUS
 62
1
 10
227.000000
 20
275.363519
 40
12.000000
 50
85.494876
 51
180.000000
  0
LINE
  8
0
  6
CONTINUOUS
 62
1
 10
227.942579
 20
287.326443
 11
998.442579
 21
226.617443
  0
ARC
  8
0
  6
CONTINUOUS
 62
1
 10
997.500000
 20
214.654519
 40
12.000000
 50
0.000000
 51
85.494876
  0
LINE
  8
0
  6
CONTINUOUS
 62
1
 10
1009.500000
 20
214.654519
 11
1009.500000
 21
120.446210
  0
ARC
  8
0
  6
CONTINUOUS
 62
1
 10
997.500000
 20
120.446210
 40
12.000000
 50
270.000000
 51
0.000000
  0
LINE
  8
0
  6
CONTINUOUS
 62
1
 10
997.500000
 20
108.446210
 11
886.500000
 21
108.446210
  0
ARC
  8
0
  6
CONTINUOUS
 62
1
 10
886.500000
 20
138.446210
 40
30.000000
 50
180.000000
 51
270.000000
  0
LINE
  8
0
  6
CONTINUOUS
 62
1
 10
856.500000
 20
138.446210
 11
856.500000
 21
177.046210
  0
ARC
  8
0
  6
CONTINUOUS
 62
1
 10
853.500000
 20
177.046210
 40
3.000000
 50
0.000000
 51
180.000000
  0
LINE
  8
0
  6
CONTINUOUS
 62
1
 10
850.500000
 20
177.046210
 11
850.500000
 21
170.184655
  0
LINE
  8
0
  6
CONTINUOUS
 62
1
 10
850.500000
 20
170.184655
 11
780.854603
 21
29.347866
  0
LINE
  8
0
  6
CONTINUOUS
 62
1
 10
19.250000
 20
157.696210
 11
19.250000
 21
149.196210
  0
ARC
  8
0
  6
CONTINUOUS
 62
1
 10
25.000000
 20
149.196210
 40
5.750000
 50
180.000000
 51
0.000000
  0
LINE
  8
0
  6
CONTINUOUS
 62
1
 10
30.750000
 20
149.196210
 11
30.750000
 21
157.696210
  0
ARC
  8
0
  6
CONTINUOUS
 62
1
 10
25.000000
 20
157.696210
 40
5.750000
 50
0.000000
 51
180.000000
  0
LINE
  8
0
  6
CONTINUOUS
 62
1
 10
978.750000
 20
157.696210
 11
978.750000
 21
149.196210
  0
ARC
  8
0
  6
CONTINUOUS
 62
1
 10
984.500000
 20
149.196210
 40
5.750000
 50
180.000000
 51
0.000000
  0
LINE
  8
0
  6
CONTINUOUS
 62
1
 10
990.250000
 20
149.196210
 11
990.250000
 21
157.696210
  0
ARC
  8
0
  6
CONTINUOUS
 62
1
 10
984.500000
 20
157.696210
 40
5.750000
 50
0.000000
 51
180.000000
  0
LINE
  8
0
  6
DASHED
 62
3
 10
473.000000
 20
173.615433
 11
850.500000
 21
173.615433
  0
ENDBLK
  0
BLOCK
  2
690272ITEM01
  8
0
 70
0
 10
0.0
 20
0.0
 30
0.0
  0
ARC
  8
0
  6
CONTINUOUS
 62
1
 10
48.202163
 20
48.202163
 40
1.959488
 50
269.717580
 51
180.282420
  0
LINE
  8
0
  6
CONTINUOUS
 62
1
 10
46.242699
 20
48.192504
 11
0.000000
 21
48.192504
  0
LINE
  8
0
  6
CONTINUOUS
 62
1
 10
0.000000
 20
48.192504
 11
0.000000
 21
443.778291
  0
LINE
  8
0
  6
CONTINUOUS
 62
1
 10
0.000000
 20
443.778291
 11
46.242699
 21
443.778291
  0
ARC
  8
0
  6
CONTINUOUS
 62
1
 10
48.222643
 20
443.748152
 40
1.980174
 50
179.127900
 51
90.872100
  0
LINE
  8
0
  6
CONTINUOUS
 62
1
 10
48.192504
 20
445.728096
 11
48.192504
 21
491.970795
  0
LINE
  8
0
  6
CONTINUOUS
 62
1
 10
48.192504
 20
491.970795
 11
490.778291
 21
491.970795
  0
LINE
  8
0
  6
CONTINUOUS
 62
1
 10
490.778291
 20
491.970795
 11
490.778291
 21
445.728096
  0
ARC
  8
0
  6
CONTINUOUS
 62
1
 10
490.748539
 20
443.748539
 40
1.979781
 50
89.138946
 51
0.861054
  0
LINE
  8
0
  6
CONTINUOUS
 62
1
 10
492.728096
 20
443.778291
 11
538.970795
 21
443.778291
  0
LINE
  8
0
  6
CONTINUOUS
 62
1
 10
538.970795
 20
443.778291
 11
538.970795
 21
48.192504
  0
LINE
  8
0
  6
CONTINUOUS
 62
1
 10
538.970795
 20
48.192504
 11
492.728096
 21
48.192504
  0
ARC
  8
0
  6
CONTINUOUS
 62
1
 10
490.752655
 20
48.218140
 40
1.975607
 50
359.256515
 51
270.743485
  0
LINE
  8
0
  6
CONTINUOUS
 62
1
 10
490.778291
 20
46.242699
 11
490.778291
 21
0.000000
  0
LINE
  8
0
  6
CONTINUOUS
 62
1
 10
490.778291
 20
0.000000
 11
48.192504
 21
0.000000
  0
LINE
  8
0
  6
CONTINUOUS
 62
1
 10
48.192504
 20
0.000000
 11
48.192504
 21
46.242699
  0
CIRCLE
  8
0
  6
CONTINUOUS
 62
1
 10
119.485398
 20
174.485398
 40
25.000000
  0
CIRCLE
  8
0
  6
CONTINUOUS
 62
1
 10
119.485398
 20
274.485398
 40
25.000000
  0
CIRCLE
  8
0
  6
CONTINUOUS
 62
1
 10
119.485398
 20
374.485398
 40
25.000000
  0
CIRCLE
  8
0
  6
CONTINUOUS
 62
1
 10
149.485398
 20
224.485398
 40
25.000000
  0
CIRCLE
  8
0
  6
CONTINUOUS
 62
1
 10
149.485398
 20
324.485398
 40
25.000000
  0
CIRCLE
  8
0
  6
CONTINUOUS
 62
1
 10
179.485398
 20
174.485398
 40
25.000000
  0
CIRCLE
  8
0
  6
CONTINUOUS
 62
1
 10
179.485398
 20
274.485398
 40
25.000000
  0
CIRCLE
  8
0
  6
CONTINUOUS
 62
1
 10
179.485398
 20
374.485398
 40
25.000000
  0
CIRCLE
  8
0
  6
CONTINUOUS
 62
1
 10
209.485398
 20
224.485398
 40
25.000000
  0
CIRCLE
  8
0
  6
CONTINUOUS
 62
1
 10
209.485398
 20
324.485398
 40
25.000000
  0
CIRCLE
  8
0
  6
CONTINUOUS
 62
1
 10
239.485398
 20
174.485398
 40
25.000000
  0
CIRCLE
  8
0
  6
CONTINUOUS
 62
1
 10
239.485398
 20
274.485398
 40
25.000000
  0
CIRCLE
  8
0
  6
CONTINUOUS
 62
1
 10
239.485398
 20
374.485398
 40
25.000000
  0
CIRCLE
  8
0
  6
CONTINUOUS
 62
1
 10
269.485398
 20
224.485398
 40
25.000000
  0
CIRCLE
  8
0
  6
CONTINUOUS
 62
1
 10
269.485398
 20
324.485398
 40
25.000000
  0
CIRCLE
  8
0
  6
CONTINUOUS
 62
1
 10
299.485398
 20
174.485398
 40
25.000000
  0
CIRCLE
  8
0
  6
CONTINUOUS
 62
1
 10
299.485398
 20
274.485398
 40
25.000000
  0
CIRCLE
  8
0
  6
CONTINUOUS
 62
1
 10
299.485398
 20
374.485398
 40
25.000000
  0
CIRCLE
  8
0
  6
CONTINUOUS
 62
1
 10
329.485398
 20
224.485398
 40
25.000000
  0
CIRCLE
  8
0
  6
CONTINUOUS
 62
1
 10
329.485398
 20
324.485398
 40
25.000000
  0
CIRCLE
  8
0
  6
CONTINUOUS
 62
1
 10
359.485398
 20
174.485398
 40
25.000000
  0
CIRCLE
  8
0
  6
CONTINUOUS
 62
1
 10
359.485398
 20
274.485398
 40
25.000000
  0
CIRCLE
  8
0
  6
CONTINUOUS
 62
1
 10
359.485398
 20
374.485398
 40
25.000000
  0
CIRCLE
  8
0
  6
CONTINUOUS
 62
1
 10
389.485398
 20
224.485398
 40
25.000000
  0
CIRCLE
  8
0
  6
CONTINUOUS
 62
1
 10
389.485398
 20
324.485398
 40
25.000000
  0
CIRCLE
  8
0
  6
CONTINUOUS
 62
1
 10
419.485398
 20
174.485398
 40
25.000000
  0
CIRCLE
  8
0
  6
CONTINUOUS
 62
1
 10
419.485398
 20
274.485398
 40
25.000000
  0
CIRCLE
  8
0
  6
CONTINUOUS
 62
1
 10
419.485398
 20
374.485398
 40
25.000000
  0
CIRCLE
  8
0
  6
CONTINUOUS
 62
1
 10
169.485398
 20
476.970795
 40
5.000000
  0
CIRCLE
  8
0
  6
CONTINUOUS
 62
1
 10
269.485398
 20
476.970795
 40
5.000000
  0
CIRCLE
  8
0
  6
CONTINUOUS
 62
1
 10
369.485398
 20
476.970795
 40
5.000000
  0
LINE
  8
0
  6
CONTINUOUS
 62
8
 10
244.219408
 20
21.404361
 11
230.219408
 21
21.404361
  0
LINE
  8
0
  6
CONTINUOUS
 62
8
 10
230.219408
 20
21.404361
 11
233.219408
 21
28.404361
  0
LINE
  8
0
  6
CONTINUOUS
 62
8
 10
233.219408
 20
28.404361
 11
247.219408
 21
28.404361
  0
LINE
  8
0
  6
CONTINUOUS
 62
8
 10
247.219408
 20
28.404361
 11
244.219408
 21
21.404361
  0
LINE
  8
0
  6
CONTINUOUS
 62
8
 10
237.219408
 20
26.904361
 11
237.219408
 21
24.904361
  0
ARC
  8
0
  6
CONTINUOUS
 62
8
 10
236.719408
 20
24.904361
 40
0.500000
 50
270.000000
 51
0.000000
  0
LINE
  8
0
  6
CONTINUOUS
 62
8
 10
236.719408
 20
24.404361
 11
235.219408
 21
24.404361
  0
LINE
  8
0
  6
CONTINUOUS
 62
8
 10
235.219408
 20
24.404361
 11
235.219408
 21
22.404361
  0
LINE
  8
0
  6
CONTINUOUS
 62
8
 10
235.219408
 20
22.404361
 11
234.219408
 21
22.404361
  0
LINE
  8
0
  6
CONTINUOUS
 62
8
 10
234.219408
 20
22.404361
 11
234.219408
 21
27.404361
  0
LINE
  8
0
  6
CONTINUOUS
 62
8
 10
234.219408
 20
27.404361
 11
236.719408
 21
27.404361
  0
ARC
  8
0
  6
CONTINUOUS
 62
8
 10
236.719408
 20
26.904361
 40
0.500000
 50
0.000000
 51
90.000000
  0
LINE
  8
0
  6
CONTINUOUS
 62
8
 10
236.219408
 20
26.404361
 11
236.219408
 21
25.404361
  0
LINE
  8
0
  6
CONTINUOUS
 62
8
 10
236.219408
 20
25.404361
 11
235.219408
 21
25.404361
  0
LINE
  8
0
  6
CONTINUOUS
 62
8
 10
235.219408
 20
25.404361
 11
235.219408
 21
26.404361
  0
LINE
  8
0
  6
CONTINUOUS
 62
8
 10
235.219408
 20
26.404361
 11
236.219408
 21
26.404361
  0
LINE
  8
0
  6
CONTINUOUS
 62
8
 10
243.219408
 20
22.404361
 11
242.219408
 21
22.404361
  0
LINE
  8
0
  6
CONTINUOUS
 62
8
 10
242.219408
 20
22.404361
 11
242.219408
 21
25.904361
  0
ARC
  8
0
  6
CONTINUOUS
 62
8
 10
241.719408
 20
25.904361
 40
0.500000
 50
0.000000
 51
180.000000
  0
LINE
  8
0
  6
CONTINUOUS
 62
8
 10
241.219408
 20
25.904361
 11
241.219408
 21
22.904361
  0
ARC
  8
0
  6
CONTINUOUS
 62
8
 10
240.719408
 20
22.904361
 40
0.500000
 50
180.000000
 51
0.000000
  0
LINE
  8
0
  6
CONTINUOUS
 62
8
 10
240.219408
 20
22.904361
 11
240.219408
 21
25.904361
  0
ARC
  8
0
  6
CONTINUOUS
 62
8
 10
239.719408
 20
25.904361
 40
0.500000
 50
0.000000
 51
180.000000
  0
LINE
  8
0
  6
CONTINUOUS
 62
8
 10
239.219408
 20
25.904361
 11
239.219408
 21
22.904361
  0
ARC
  8
0
  6
CONTINUOUS
 62
8
 10
238.719408
 20
22.904361
 40
0.500000
 50
270.000000
 51
0.000000
  0
LINE
  8
0
  6
CONTINUOUS
 62
8
 10
238.719408
 20
22.404361
 11
236.219408
 21
22.404361
  0
LINE
  8
0
  6
CONTINUOUS
 62
8
 10
236.219408
 20
22.404361
 11
236.219408
 21
23.404361
  0
LINE
  8
0
  6
CONTINUOUS
 62
8
 10
236.219408
 20
23.404361
 11
237.719408
 21
23.404361
  0
ARC
  8
0
  6
CONTINUOUS
 62
8
 10
237.719408
 20
23.904361
 40
0.500000
 50
270.000000
 51
0.000000
  0
LINE
  8
0
  6
CONTINUOUS
 62
8
 10
238.219408
 20
23.904361
 11
238.219408
 21
26.904361
  0
ARC
  8
0
  6
CONTINUOUS
 62
8
 10
238.719408
 20
26.904361
 40
0.500000
 50
90.000000
 51
180.000000
  0
LINE
  8
0
  6
CONTINUOUS
 62
8
 10
238.719408
 20
27.404361
 11
240.012301
 21
27.404361
  0
ARC
  8
0
  6
CONTINUOUS
 62
8
 10
240.012301
 20
26.904361
 40
0.500000
 50
45.000000
 51
90.000000
  0
ARC
  8
0
  6
CONTINUOUS
 62
8
 10
240.719408
 20
27.611468
 40
0.500000
 50
225.000000
 51
315.000000
  0
ARC
  8
0
  6
CONTINUOUS
 62
8
 10
241.426515
 20
26.904361
 40
0.500000
 50
90.000000
 51
135.000000
  0
LINE
  8
0
  6
CONTINUOUS
 62
8
 10
241.426515
 20
27.404361
 11
242.719408
 21
27.404361
  0
ARC
  8
0
  6
CONTINUOUS
 62
8
 10
242.719408
 20
26.904361
 40
0.500000
 50
0.000000
 51
90.000000
  0
LINE
  8
0
  6
CONTINUOUS
 62
8
 10
243.219408
 20
26.904361
 11
243.219408
 21
22.404361
  0
LINE
  8
0
  6
DASHED
 62
3
 10
491.728096
 20
442.028075
 11
491.728096
 21
49.936144
  0
LINE
  8
0
  6
DASHED
 62
3
 10
49.943340
 20
444.728096
 11
489.028075
 21
444.728096
  0
LINE
  8
0
  6
DASHED
 62
3
 10
489.034651
 20
47.742699
 11
49.910677
 21
47.742699
  0
LINE
  8
0
  6
DASHED
 62
3
 10
47.242699
 20
49.910677
 11
47.242699
 21
442.027455
  0
ARC
  8
0
  6
CONTINUOUS
 62
8
 10
260.552538
 20
25.420449
 40
8.149921
 50
167.000000
 51
193.000000
  0
ARC
  8
0
  6
CONTINUOUS
 62
8
 10
254.659143
 20
24.010955
 40
2.091048
 50
191.694429
 51
268.694431
  0
LINE
  8
0
  6
CONTINUOUS
 62
8
 10
254.611499
 20
21.920449
 11
254.944833
 21
21.920449
  0
ARC
  8
0
  6
CONTINUOUS
 62
8
 10
254.778166
 20
24.087116
 40
2.173068
 50
274.398705
 51
4.398704
  0
ARC
  8
0
  6
CONTINUOUS
 62
8
 10
254.611499
 20
24.253782
 40
2.333333
 50
0.000000
 51
89.999999
  0
ARC
  8
0
  6
CONTINUOUS
 62
8
 10
254.672081
 20
24.458346
 40
2.129631
 50
91.630102
 51
194.630102
  0
ARC
  8
0
  6
CONTINUOUS
 62
8
 10
254.659143
 20
26.829943
 40
2.091048
 50
91.305571
 51
168.305574
  0
ARC
  8
0
  6
CONTINUOUS
 62
8
 10
254.709475
 20
26.616401
 40
2.306130
 50
34.434949
 51
92.434948
  0
ARC
  8
0
  6
CONTINUOUS
 62
8
 10
260.778166
 20
26.753782
 40
2.173068
 50
94.398706
 51
184.398705
  0
ARC
  8
0
  6
CONTINUOUS
 62
8
 10
260.465580
 20
26.441196
 40
1.859814
 50
175.500001
 51
274.500000
  0
ARC
  8
0
  6
CONTINUOUS
 62
8
 10
260.550918
 20
26.715885
 40
2.129631
 50
271.630103
 51
14.630102
  0
ARC
  8
0
  6
CONTINUOUS
 62
8
 10
254.670460
 20
25.420449
 40
8.149921
 50
347.000000
 51
13.000000
  0
ARC
  8
0
  6
CONTINUOUS
 62
8
 10
260.563856
 20
24.010955
 40
2.091048
 50
271.305569
 51
348.305571
  0
ARC
  8
0
  6
CONTINUOUS
 62
8
 10
260.513523
 20
24.224497
 40
2.306130
 50
214.434950
 51
272.434949
  0
ARC
  8
0
  6
CONTINUOUS
 62
8
 10
260.563856
 20
26.829943
 40
2.091048
 50
11.694426
 51
88.694429
  0
ARC
  8
0
  6
CONTINUOUS
 62
8
 10
266.611499
 20
24.253782
 40
2.333333
 50
180.000001
 51
0.000000
  0
LINE
  8
0
  6
CONTINUOUS
 62
8
 10
268.944833
 20
24.253782
 11
268.944833
 21
26.587116
  0
ARC
  8
0
  6
CONTINUOUS
 62
8
 10
266.611499
 20
26.587116
 40
2.333333
 50
0.000001
 51
180.000000
  0
LINE
  8
0
  6
CONTINUOUS
 62
8
 10
264.278166
 20
26.587116
 11
264.278166
 21
24.253782
  0
ARC
  8
0
  6
CONTINUOUS
 62
8
 10
272.553411
 20
26.956821
 40
1.964487
 50
88.305569
 51
171.305571
  0
ARC
  8
0
  6
CONTINUOUS
 62
8
 10
272.561086
 20
26.947537
 40
1.973556
 50
29.536243
 51
88.536243
  0
ARC
  8
0
  6
CONTINUOUS
 62
8
 10
271.316410
 20
26.753782
 40
3.183255
 50
338.500002
 51
21.500000
  0
ARC
  8
0
  6
CONTINUOUS
 62
8
 10
269.997311
 20
27.756090
 40
4.798975
 50
313.130102
 51
333.130102
  0
LINE
  8
0
  6
CONTINUOUS
 62
8
 10
273.278166
 20
24.253782
 11
270.944833
 21
21.920449
  0
LINE
  8
0
  6
CONTINUOUS
 62
8
 10
270.944833
 20
21.920449
 11
274.278166
 21
21.920449
  0
LINE
  8
0
  6
CONTINUOUS
 62
8
 10
275.944833
 20
28.920449
 11
280.611499
 21
28.920449
  0
LINE
  8
0
  6
CONTINUOUS
 62
8
 10
280.611499
 20
28.920449
 11
277.278166
 21
21.920449
  0
ARC
  8
0
  6
CONTINUOUS
 62
8
 10
284.220078
 20
26.956821
 40
1.964487
 50
88.305569
 51
171.305571
  0
ARC
  8
0
  6
CONTINUOUS
 62
8
 10
284.227752
 20
26.947537
 40
1.973556
 50
29.536243
 51
88.536243
  0
ARC
  8
0
  6
CONTINUOUS
 62
8
 10
282.983077
 20
26.753782
 40
3.183255
 50
338.500002
 51
21.500000
  0
ARC
  8
0
  6
CONTINUOUS
 62
8
 10
281.663978
 20
27.756090
 40
4.798975
 50
313.130102
 51
333.130102
  0
LINE
  8
0
  6
CONTINUOUS
 62
8
 10
284.944833
 20
24.253782
 11
282.611499
 21
21.920449
  0
LINE
  8
0
  6
CONTINUOUS
 62
8
 10
282.611499
 20
21.920449
 11
285.944833
 21
21.920449
  0
LINE
  8
0
  6
CONTINUOUS
 62
8
 10
300.278166
 20
28.920449
 11
295.944833
 21
28.920449
  0
LINE
  8
0
  6
CONTINUOUS
 62
8
 10
295.944833
 20
28.920449
 11
295.944833
 21
21.920449
  0
LINE
  8
0
  6
CONTINUOUS
 62
8
 10
295.944833
 20
21.920449
 11
300.278166
 21
21.920449
  0
LINE
  8
0
  6
CONTINUOUS
 62
8
 10
295.944833
 20
25.587116
 11
298.611499
 21
25.587116
  0
LINE
  8
0
  6
CONTINUOUS
 62
8
 10
301.944833
 20
21.920449
 11
301.944833
 21
28.920449
  0
LINE
  8
0
  6
CONTINUOUS
 62
8
 10
301.944833
 20
28.920449
 11
304.611499
 21
21.920449
  0
LINE
  8
0
  6
CONTINUOUS
 62
8
 10
304.611499
 20
21.920449
 11
307.278166
 21
28.920449
  0
LINE
  8
0
  6
CONTINUOUS
 62
8
 10
307.278166
 20
28.920449
 11
307.278166
 21
21.920449
  0
ARC
  8
0
  6
CONTINUOUS
 62
8
 10
311.180552
 20
26.684729
 40
2.237850
 50
87.500000
 51
182.499999
  0
LINE
  8
0
  6
CONTINUOUS
 62
8
 10
308.944833
 20
26.587116
 11
308.944833
 21
24.587116
  0
ARC
  8
0
  6
CONTINUOUS
 62
8
 10
312.765580
 20
24.749587
 40
3.824201
 50
182.434949
 51
214.434949
  0
ARC
  8
0
  6
CONTINUOUS
 62
8
 10
310.932370
 20
23.562189
 40
1.641788
 50
216.434949
 51
270.434948
  0
LINE
  8
0
  6
CONTINUOUS
 62
8
 10
310.944833
 20
21.920449
 11
311.611499
 21
21.920449
  0
ARC
  8
0
  6
CONTINUOUS
 62
8
 10
311.691303
 20
23.529028
 40
1.610557
 50
267.159808
 51
350.159810
  0
ARC
  8
0
  6
CONTINUOUS
 62
8
 10
311.778166
 20
25.932567
 40
3.029429
 50
80.500000
 51
99.499999
  0
ARC
  8
0
  6
CONTINUOUS
 62
8
 10
311.989491
 20
27.509765
 40
1.439917
 50
48.434949
 51
78.434949
  0
ARC
  8
0
  6
CONTINUOUS
 62
8
 10
311.909538
 20
27.652802
 40
1.394553
 50
11.065051
 51
42.065051
  0
ENDBLK
  0
BLOCK
  2
A920286-A
  8
0
 70
0
 10
0.0
 20
0.0
 30
0.0
  0
LINE
  8
0
  6
CONTINUOUS
 62
1
 10
1456.000000
 20
180.000000
 11
714.000000
 21
180.000000
  0
ARC
  8
0
  6
CONTINUOUS
 62
1
 10
694.000000
 20
180.000000
 40
20.000000
 50
180.000000
 51
0.000000
  0
LINE
  8
0
  6
CONTINUOUS
 62
1
 10
674.000000
 20
180.000000
 11
0.000000
 21
180.000000
  0
LINE
  8
0
  6
CONTINUOUS
 62
1
 10
0.000000
 20
180.000000
 11
0.000000
 21
0.000000
  0
LINE
  8
0
  6
CONTINUOUS
 62
1
 10
0.000000
 20
0.000000
 11
674.000000
 21
0.000000
  0
ARC
  8
0
  6
CONTINUOUS
 62
1
 10
694.000000
 20
0.000000
 40
20.000000
 50
0.000000
 51
180.000000
  0
LINE
  8
0
  6
CONTINUOUS
 62
1
 10
714.000000
 20
0.000000
 11
1456.000000
 21
0.000000
  0
LINE
  8
0
  6
CONTINUOUS
 62
1
 10
1456.000000
 20
0.000000
 11
1456.000000
 21
180.000000
  0
LINE
  8
0
  6
CONTINUOUS
 62
1
 10
797.000000
 20
40.000000
 11
1001.000000
 21
40.000000
  0
ARC
  8
0
  6
CONTINUOUS
 62
1
 10
1001.000000
 20
90.000000
 40
50.000000
 50
270.000000
 51
90.000000
  0
LINE
  8
0
  6
CONTINUOUS
 62
1
 10
1001.000000
 20
140.000000
 11
797.000000
 21
140.000000
  0
ARC
  8
0
  6
CONTINUOUS
 62
1
 10
797.000000
 20
90.000000
 40
50.000000
 50
90.000000
 51
270.000000
  0
LINE
  8
0
  6
CONTINUOUS
 62
1
 10
1151.000000
 20
40.000000
 11
1355.000000
 21
40.000000
  0
ARC
  8
0
  6
CONTINUOUS
 62
1
 10
1355.000000
 20
90.000000
 40
50.000000
 50
270.000000
 51
90.000000
  0
LINE
  8
0
  6
CONTINUOUS
 62
1
 10
1355.000000
 20
140.000000
 11
1151.000000
 21
140.000000
  0
ARC
  8
0
  6
CONTINUOUS
 62
1
 10
1151.000000
 20
90.000000
 40
50.000000
 50
90.000000
 51
270.000000
  0
LINE
  8
0
  6
DASHED
 62
3
 10
29.000000
 20
180.000000
 11
29.000000
 21
0.000000
  0
LINE
  8
0
  6
DASHED
 62
3
 10
120.000000
 20
0.000000
 11
120.000000
 21
180.000000
  0
LINE
  8
0
  6
DASHED
 62
3
 10
694.500000
 20
19.993749
 11
694.500000
 21
160.006251
  0
ENDBLK
  0
BLOCK
  2
4975036ITEM01-01
  8
0
 70
0
 10
0.0
 20
0.0
 30
0.0
  0
ARC
  8
0
  6
CONTINUOUS
 62
1
 10
855.351326
 20
35.526438
 40
1.182147
 50
80.137760
 51
192.186046
  0
LINE
  8
0
  6
CONTINUOUS
 62
1
 10
854.195816
 20
35.276902
 11
854.195816
 21
29.276902
  0
LINE
  8
0
  6
CONTINUOUS
 62
1
 10
854.195816
 20
29.276902
 11
435.357988
 21
29.276902
  0
LINE
  8
0
  6
CONTINUOUS
 62
1
 10
435.357988
 20
29.276902
 11
435.357988
 21
35.276902
  0
ARC
  8
0
  6
CONTINUOUS
 62
1
 10
434.202736
 20
35.526686
 40
1.181947
 50
347.799547
 51
99.876625
  0
ARC
  8
0
  6
CONTINUOUS
 62
1
 10
434.500000
 20
35.276902
 40
1.500000
 50
109.471221
 51
180.000000
  0
LINE
  8
0
  6
CONTINUOUS
 62
1
 10
433.000000
 20
35.276902
 11
433.000000
 21
0.000000
  0
LINE
  8
0
  6
CONTINUOUS
 62
1
 10
433.000000
 20
0.000000
 11
0.000000
 21
0.000000
  0
LINE
  8
0
  6
CONTINUOUS
 62
1
 10
0.000000
 20
0.000000
 11
0.000000
 21
29.000000
  0
LINE
  8
0
  6
CONTINUOUS
 62
1
 10
0.000000
 20
29.000000
 11
0.846395
 21
35.276902
  0
LINE
  8
0
  6
CONTINUOUS
 62
1
 10
0.846395
 20
35.276902
 11
6.987383
 21
78.809687
  0
LINE
  8
0
  6
CONTINUOUS
 62
1
 10
6.987383
 20
78.809687
 11
10.354051
 21
78.334765
  0
LINE
  8
0
  6
CONTINUOUS
 62
1
 10
10.354051
 20
78.334765
 11
13.957869
 21
103.881829
  0
LINE
  8
0
  6
CONTINUOUS
 62
1
 10
13.957869
 20
103.881829
 11
10.591201
 21
104.356751
  0
LINE
  8
0
  6
CONTINUOUS
 62
1
 10
10.591201
 20
104.356751
 11
34.365225
 21
272.888160
  0
LINE
  8
0
  6
CONTINUOUS
 62
1
 10
34.365225
 20
272.888160
 11
37.731892
 21
272.413239
  0
LINE
  8
0
  6
CONTINUOUS
 62
1
 10
37.731892
 20
272.413239
 11
41.335710
 21
297.960303
  0
LINE
  8
0
  6
CONTINUOUS
 62
1
 10
41.335710
 20
297.960303
 11
37.969043
 21
298.435224
  0
LINE
  8
0
  6
CONTINUOUS
 62
1
 10
37.969043
 20
298.435224
 11
45.000000
 21
348.276902
  0
LINE
  8
0
  6
CONTINUOUS
 62
1
 10
45.000000
 20
348.276902
 11
45.000000
 21
373.553804
  0
LINE
  8
0
  6
CONTINUOUS
 62
1
 10
45.000000
 20
373.553804
 11
315.000000
 21
373.553804
  0
LINE
  8
0
  6
CONTINUOUS
 62
1
 10
315.000000
 20
373.553804
 11
315.000000
 21
237.276902
  0
LINE
  8
0
  6
CONTINUOUS
 62
1
 10
315.000000
 20
237.276902
 11
434.000000
 21
298.680902
  0
ARC
  8
0
  6
CONTINUOUS
 62
1
 10
441.146849
 20
283.201466
 40
17.049645
 50
92.924750
 51
114.782749
  0
LINE
  8
0
  6
CONTINUOUS
 62
1
 10
440.276902
 20
300.228902
 11
459.276902
 21
300.228902
  0
LINE
  8
0
  6
CONTINUOUS
 62
1
 10
459.276902
 20
300.228902
 11
459.276902
 21
433.553804
  0
LINE
  8
0
  6
CONTINUOUS
 62
1
 10
459.276902
 20
433.553804
 11
829.216242
 21
433.553804
  0
LINE
  8
0
  6
CONTINUOUS
 62
1
 10
829.216242
 20
433.553804
 11
829.216242
 21
373.553804
  0
LINE
  8
0
  6
CONTINUOUS
 62
1
 10
829.216242
 20
373.553804
 11
848.216242
 21
354.553804
  0
LINE
  8
0
  6
CONTINUOUS
 62
1
 10
848.216242
 20
354.553804
 11
849.276902
 21
353.843673
  0
LINE
  8
0
  6
CONTINUOUS
 62
1
 10
849.276902
 20
353.843673
 11
849.276902
 21
348.276902
  0
LINE
  8
0
  6
CONTINUOUS
 62
1
 10
849.276902
 20
348.276902
 11
855.553804
 21
348.276903
  0
LINE
  8
0
  6
CONTINUOUS
 62
1
 10
855.553804
 20
348.276903
 11
855.553804
 21
353.843673
  0
LINE
  8
0
  6
CONTINUOUS
 62
1
 10
855.553804
 20
353.843673
 11
856.614464
 21
354.553805
  0
LINE
  8
0
  6
CONTINUOUS
 62
1
 10
856.614464
 20
354.553805
 11
875.614464
 21
373.553805
  0
LINE
  8
0
  6
CONTINUOUS
 62
1
 10
875.614464
 20
373.553805
 11
1244.553804
 21
373.553805
  0
LINE
  8
0
  6
CONTINUOUS
 62
1
 10
1244.553804
 20
373.553805
 11
1244.553804
 21
348.276903
  0
LINE
  8
0
  6
CONTINUOUS
 62
1
 10
1244.553804
 20
348.276903
 11
1251.584762
 21
298.435225
  0
LINE
  8
0
  6
CONTINUOUS
 62
1
 10
1251.584762
 20
298.435225
 11
1248.218095
 21
297.960303
  0
LINE
  8
0
  6
CONTINUOUS
 62
1
 10
1248.218095
 20
297.960303
 11
1251.821912
 21
272.413238
  0
LINE
  8
0
  6
CONTINUOUS
 62
1
 10
1251.821912
 20
272.413238
 11
1255.188580
 21
272.888160
  0
LINE
  8
0
  6
CONTINUOUS
 62
1
 10
1255.188580
 20
272.888160
 11
1278.962603
 21
104.356751
  0
LINE
  8
0
  6
CONTINUOUS
 62
1
 10
1278.962603
 20
104.356751
 11
1275.595936
 21
103.881829
  0
LINE
  8
0
  6
CONTINUOUS
 62
1
 10
1275.595936
 20
103.881829
 11
1279.199753
 21
78.334765
  0
LINE
  8
0
  6
CONTINUOUS
 62
1
 10
1279.199753
 20
78.334765
 11
1282.566421
 21
78.809687
  0
LINE
  8
0
  6
CONTINUOUS
 62
1
 10
1282.566421
 20
78.809687
 11
1288.707409
 21
35.276902
  0
LINE
  8
0
  6
CONTINUOUS
 62
1
 10
1288.707409
 20
35.276902
 11
1289.553804
 21
29.000000
  0
LINE
  8
0
  6
CONTINUOUS
 62
1
 10
1289.553804
 20
29.000000
 11
1289.553804
 21
0.000000
  0
LINE
  8
0
  6
CONTINUOUS
 62
1
 10
1289.553804
 20
0.000000
 11
856.553804
 21
0.000000
  0
LINE
  8
0
  6
CONTINUOUS
 62
1
 10
856.553804
 20
0.000000
 11
856.553804
 21
35.276902
  0
ARC
  8
0
  6
CONTINUOUS
 62
1
 10
855.053804
 20
35.276902
 40
1.500000
 50
0.000000
 51
70.528783
  0
LINE
  8
0
  6
CONTINUOUS
 62
1
 10
676.898222
 20
421.053804
 11
611.898222
 21
421.053804
  0
LINE
  8
0
  6
CONTINUOUS
 62
1
 10
611.898222
 20
421.053804
 11
611.898222
 21
376.053804
  0
LINE
  8
0
  6
CONTINUOUS
 62
1
 10
611.898222
 20
376.053804
 11
676.898222
 21
376.053804
  0
LINE
  8
0
  6
CONTINUOUS
 62
1
 10
676.898222
 20
376.053804
 11
676.898222
 21
421.053804
  0
CIRCLE
  8
0
  6
CONTINUOUS
 62
1
 10
20.000000
 20
15.000000
 40
6.750000
  0
CIRCLE
  8
0
  6
CONTINUOUS
 62
1
 10
420.000000
 20
15.000000
 40
6.750000
  0
CIRCLE
  8
0
  6
CONTINUOUS
 62
1
 10
869.553804
 20
15.000000
 40
6.750000
  0
CIRCLE
  8
0
  6
CONTINUOUS
 62
1
 10
1269.553804
 20
15.000000
 40
6.750000
  0
CIRCLE
  8
0
  6
CONTINUOUS
 62
1
 10
884.202037
 20
302.325423
 40
6.000000
  0
LINE
  8
0
  6
DASHED
 62
3
 10
433.000000
 20
32.138451
 11
0.423197
 21
32.138451
  0
LINE
  8
0
  6
DASHED
 62
3
 10
315.000000
 20
351.415353
 11
45.000000
 21
351.415353
  0
LINE
  8
0
  6
DASHED
 62
3
 10
437.138451
 20
29.276902
 11
437.138451
 21
299.775465
  0
LINE
  8
0
  6
DASHED
 62
3
 10
849.276902
 20
351.415353
 11
459.276902
 21
351.415353
  0
LINE
  8
0
  6
DASHED
 62
3
 10
852.415353
 20
29.276902
 11
852.415353
 21
348.276902
  0
LINE
  8
0
  6
DASHED
 62
3
 10
855.553804
 20
351.415354
 11
1244.553804
 21
351.415354
  0
LINE
  8
0
  6
DASHED
 62
3
 10
1289.130607
 20
32.138451
 11
856.553804
 21
32.138451
  0
ENDBLK
  0
BLOCK
  2
470-8278-02
  8
0
 70
0
 10
0.0
 20
0.0
 30
0.0
  0
LINE
  8
0
  6
CONTINUOUS
 62
1
 10
2.000000
 20
316.800000
 11
534.300000
 21
316.800000
  0
ARC
  8
0
  6
CONTINUOUS
 62
1
 10
534.300000
 20
296.800000
 40
20.000000
 50
53.311988
 51
90.000000
  0
LINE
  8
0
  6
CONTINUOUS
 62
1
 10
546.249148
 20
312.838013
 11
965.605085
 21
0.396199
  0
ARC
  8
0
  6
CONTINUOUS
 62
1
 10
966.800000
 20
2.000000
 40
2.000000
 50
233.311988
 51
328.319168
  0
LINE
  8
0
  6
CONTINUOUS
 62
1
 10
968.501974
 20
0.949626
 11
1139.419737
 21
277.896260
  0
ARC
  8
0
  6
CONTINUOUS
 62
1
 10
1122.400000
 20
288.400000
 40
20.000000
 50
328.319168
 51
0.000000
  0
LINE
  8
0
  6
CONTINUOUS
 62
1
 10
1142.400000
 20
288.400000
 11
1142.400000
 21
344.500000
  0
ARC
  8
0
  6
CONTINUOUS
 62
1
 10
1140.400000
 20
344.500000
 40
2.000000
 50
0.000000
 51
82.689068
  0
LINE
  8
0
  6
CONTINUOUS
 62
1
 10
1140.654508
 20
346.483740
 11
770.945492
 21
393.916260
  0
ARC
  8
0
  6
CONTINUOUS
 62
1
 10
771.200000
 20
395.900000
 40
2.000000
 50
232.755728
 51
262.689068
  0
LINE
  8
0
  6
CONTINUOUS
 62
1
 10
769.989571
 20
394.307875
 11
540.895712
 21
568.478750
  0
ARC
  8
0
  6
CONTINUOUS
 62
1
 10
553.000000
 20
584.400000
 40
20.000000
 50
122.796378
 51
232.755728
  0
LINE
  8
0
  6
CONTINUOUS
 62
1
 10
542.166898
 20
601.212017
 11
893.316690
 21
827.481202
  0
ARC
  8
0
  6
CONTINUOUS
 62
1
 10
894.400000
 20
825.800000
 40
2.000000
 50
105.957019
 51
122.796378
  0
LINE
  8
0
  6
CONTINUOUS
 62
1
 10
893.850168
 20
827.722936
 11
1140.949832
 21
898.377064
  0
ARC
  8
0
  6
CONTINUOUS
 62
1
 10
1140.400000
 20
900.300000
 40
2.000000
 50
285.957019
 51
0.000000
  0
LINE
  8
0
  6
CONTINUOUS
 62
1
 10
1142.400000
 20
900.300000
 11
1142.400000
 21
945.200000
  0
ARC
  8
0
  6
CONTINUOUS
 62
1
 10
1122.400000
 20
945.200000
 40
20.000000
 50
0.000000
 51
31.680832
  0
LINE
  8
0
  6
CONTINUOUS
 62
1
 10
1139.419737
 20
955.703740
 11
968.501974
 21
1232.650374
  0
ARC
  8
0
  6
CONTINUOUS
 62
1
 10
966.800000
 20
1231.600000
 40
2.000000
 50
31.680832
 51
126.688012
  0
LINE
  8
0
  6
CONTINUOUS
 62
1
 10
965.605085
 20
1233.203801
 11
546.249148
 21
920.761987
  0
ARC
  8
0
  6
CONTINUOUS
 62
1
 10
534.300000
 20
936.800000
 40
20.000000
 50
270.000000
 51
306.688012
  0
LINE
  8
0
  6
CONTINUOUS
 62
1
 10
534.300000
 20
916.800000
 11
2.000000
 21
916.800000
  0
ARC
  8
0
  6
CONTINUOUS
 62
1
 10
2.000000
 20
914.800000
 40
2.000000
 50
90.000000
 51
180.000000
  0
LINE
  8
0
  6
CONTINUOUS
 62
1
 10
0.000000
 20
914.800000
 11
0.000000
 21
318.800000
  0
ARC
  8
0
  6
CONTINUOUS
 62
1
 10
2.000000
 20
318.800000
 40
2.000000
 50
180.000000
 51
270.000000
  0
CIRCLE
  8
0
  6
CONTINUOUS
 62
1
 10
16.500000
 20
339.200000
 40
6.600000
  0
CIRCLE
  8
0
  6
CONTINUOUS
 62
1
 10
16.500000
 20
616.800000
 40
6.600000
  0
CIRCLE
  8
0
  6
CONTINUOUS
 62
1
 10
16.500000
 20
894.400000
 40
6.600000
  0
CIRCLE
  8
0
  6
CONTINUOUS
 62
1
 10
241.500000
 20
339.200000
 40
6.600000
  0
CIRCLE
  8
0
  6
CONTINUOUS
 62
1
 10
241.500000
 20
894.400000
 40
6.600000
  0
CIRCLE
  8
0
  6
CONTINUOUS
 62
1
 10
466.500000
 20
339.200000
 40
6.600000
  0
CIRCLE
  8
0
  6
CONTINUOUS
 62
1
 10
466.500000
 20
894.400000
 40
6.600000
  0
CIRCLE
  8
0
  6
CONTINUOUS
 62
1
 10
537.300000
 20
545.700000
 40
6.600000
  0
CIRCLE
  8
0
  6
CONTINUOUS
 62
1
 10
545.600000
 20
627.800000
 40
6.600000
  0
CIRCLE
  8
0
  6
CONTINUOUS
 62
1
 10
612.400000
 20
288.800000
 40
6.600000
  0
CIRCLE
  8
0
  6
CONTINUOUS
 62
1
 10
612.400000
 20
944.800000
 40
6.600000
  0
CIRCLE
  8
0
  6
CONTINUOUS
 62
1
 10
704.500000
 20
418.600000
 40
6.600000
  0
CIRCLE
  8
0
  6
CONTINUOUS
 62
1
 10
730.500000
 20
747.000000
 40
6.600000
  0
CIRCLE
  8
0
  6
CONTINUOUS
 62
1
 10
784.800000
 20
160.400000
 40
6.600000
  0
CIRCLE
  8
0
  6
CONTINUOUS
 62
1
 10
784.800000
 20
1073.200000
 40
6.600000
  0
CIRCLE
  8
0
  6
CONTINUOUS
 62
1
 10
905.000000
 20
356.100000
 40
6.600000
  0
CIRCLE
  8
0
  6
CONTINUOUS
 62
1
 10
911.400000
 20
854.100000
 40
6.600000
  0
CIRCLE
  8
0
  6
CONTINUOUS
 62
1
 10
955.400000
 20
33.300000
 40
6.600000
  0
CIRCLE
  8
0
  6
CONTINUOUS
 62
1
 10
955.400000
 20
1200.300000
 40
6.600000
  0
CIRCLE
  8
0
  6
CONTINUOUS
 62
1
 10
1033.100000
 20
1070.600000
 40
6.600000
  0
CIRCLE
  8
0
  6
CONTINUOUS
 62
1
 10
1039.100000
 20
172.600000
 40
6.600000
  0
CIRCLE
  8
0
  6
CONTINUOUS
 62
1
 10
1113.300000
 20
329.300000
 40
6.600000
  0
CIRCLE
  8
0
  6
CONTINUOUS
 62
1
 10
1115.800000
 20
936.300000
 40
6.600000
  0
ENDBLK
  0
BLOCK
  2
4884562ITEM02-01
  8
0
 70
0
 10
0.0
 20
0.0
 30
0.0
  0
ARC
  8
0
  6
CONTINUOUS
 62
1
 10
25.000000
 20
62.629805
 40
25.000000
 50
180.000000
 51
253.300000
  0
LINE
  8
0
  6
CONTINUOUS
 62
1
 10
17.815987
 20
38.684243
 11
66.563197
 21
24.059379
  0
ARC
  8
0
  6
CONTINUOUS
 62
1
 10
68.000000
 20
28.848491
 40
5.000000
 50
253.299994
 51
0.000000
  0
LINE
  8
0
  6
CONTINUOUS
 62
1
 10
73.000000
 20
28.848491
 11
73.000000
 21
57.655271
  0
ARC
  8
0
  6
CONTINUOUS
 62
1
 10
75.000000
 20
57.655271
 40
2.000000
 50
90.000000
 51
180.000000
  0
ARC
  8
0
  6
CONTINUOUS
 62
1
 10
145.385052
 20
6.683199
 40
3.000000
 50
233.308537
 51
267.871759
  0
LINE
  8
0
  6
CONTINUOUS
 62
1
 10
145.273643
 20
3.685268
 11
244.404417
 21
0.001380
  0
ARC
  8
0
  6
CONTINUOUS
 62
1
 10
244.478690
 20
2.000000
 40
2.000000
 50
267.871745
 51
0.000000
  0
LINE
  8
0
  6
CONTINUOUS
 62
1
 10
246.478690
 20
2.000000
 11
246.478690
 21
75.236866
  0
ARC
  8
0
  6
CONTINUOUS
 62
1
 10
241.478690
 20
75.236866
 40
5.000000
 50
0.000000
 51
90.000000
  0
LINE
  8
0
  6
CONTINUOUS
 62
1
 10
241.478690
 20
80.236866
 11
149.478690
 21
80.236866
  0
ARC
  8
0
  6
CONTINUOUS
 62
1
 10
149.478690
 20
85.236866
 40
5.000000
 50
180.000000
 51
270.000000
  0
LINE
  8
0
  6
CONTINUOUS
 62
1
 10
144.478690
 20
85.236866
 11
144.478690
 21
355.236866
  0
ARC
  8
0
  6
CONTINUOUS
 62
1
 10
149.478690
 20
355.236866
 40
5.000000
 50
90.000000
 51
180.000000
  0
LINE
  8
0
  6
CONTINUOUS
 62
1
 10
149.478690
 20
360.236866
 11
241.478690
 21
360.236866
  0
ARC
  8
0
  6
CONTINUOUS
 62
1
 10
241.478690
 20
365.236866
 40
5.000000
 50
270.000000
 51
0.000000
  0
LINE
  8
0
  6
CONTINUOUS
 62
1
 10
246.478690
 20
365.236866
 11
246.478690
 21
438.473732
  0
ARC
  8
0
  6
CONTINUOUS
 62
1
 10
244.478690
 20
438.473732
 40
2.000000
 50
0.000000
 51
92.128241
  0
LINE
  8
0
  6
CONTINUOUS
 62
1
 10
244.404417
 20
440.472352
 11
145.273643
 21
436.788464
  0
ARC
  8
0
  6
CONTINUOUS
 62
1
 10
145.385052
 20
433.790533
 40
3.000000
 50
92.128244
 51
126.691464
  0
ARC
  8
0
  6
CONTINUOUS
 62
1
 10
75.000000
 20
382.818461
 40
2.000000
 50
180.000000
 51
270.000000
  0
LINE
  8
0
  6
CONTINUOUS
 62
1
 10
73.000000
 20
382.818461
 11
73.000000
 21
411.625241
  0
ARC
  8
0
  6
CONTINUOUS
 62
1
 10
68.000000
 20
411.625241
 40
5.000000
 50
0.000000
 51
106.700000
  0
LINE
  8
0
  6
CONTINUOUS
 62
1
 10
66.563197
 20
416.414353
 11
17.815987
 21
401.789490
  0
ARC
  8
0
  6
CONTINUOUS
 62
1
 10
25.000000
 20
377.843927
 40
25.000000
 50
106.700000
 51
180.000000
  0
LINE
  8
0
  6
CONTINUOUS
 62
1
 10
0.000000
 20
377.843927
 11
0.000000
 21
62.629805
  0
LINE
  8
0
  6
CONTINUOUS
 62
1
 10
75.000000
 20
59.655271
 11
85.385707
 21
59.655271
  0
LINE
  8
0
  6
CONTINUOUS
 62
1
 10
85.385707
 20
59.655271
 11
124.158000
 21
72.916177
  0
LINE
  8
0
  6
CONTINUOUS
 62
1
 10
124.158000
 20
72.916177
 11
109.397095
 21
29.758176
  0
LINE
  8
0
  6
CONTINUOUS
 62
1
 10
109.397095
 20
29.758176
 11
143.592535
 21
4.277605
  0
LINE
  8
0
  6
CONTINUOUS
 62
1
 10
143.592535
 20
436.196127
 11
109.397095
 21
410.715556
  0
LINE
  8
0
  6
CONTINUOUS
 62
1
 10
109.397095
 20
410.715556
 11
124.158000
 21
367.557556
  0
LINE
  8
0
  6
CONTINUOUS
 62
1
 10
124.158000
 20
367.557556
 11
85.385707
 21
380.818461
  0
LINE
  8
0
  6
CONTINUOUS
 62
1
 10
85.385707
 20
380.818461
 11
75.000000
 21
380.818461
  0
ARC
  8
0
  6
CONTINUOUS
 62
1
 10
11.469953
 20
67.236866
 40
4.500000
 50
90.000000
 51
270.000000
  0
LINE
  8
0
  6
CONTINUOUS
 62
1
 10
11.469953
 20
62.736866
 11
14.469953
 21
62.736866
  0
ARC
  8
0
  6
CONTINUOUS
 62
1
 10
14.469953
 20
67.236866
 40
4.500000
 50
270.000000
 51
90.000000
  0
LINE
  8
0
  6
CONTINUOUS
 62
1
 10
14.469953
 20
71.736866
 11
11.469953
 21
71.736866
  0
ARC
  8
0
  6
CONTINUOUS
 62
1
 10
11.469953
 20
373.236866
 40
4.500000
 50
90.000000
 51
270.000000
  0
LINE
  8
0
  6
CONTINUOUS
 62
1
 10
11.469953
 20
368.736866
 11
14.469953
 21
368.736866
  0
ARC
  8
0
  6
CONTINUOUS
 62
1
 10
14.469953
 20
373.236866
 40
4.500000
 50
270.000000
 51
90.000000
  0
LINE
  8
0
  6
CONTINUOUS
 62
1
 10
14.469953
 20
377.736866
 11
11.469953
 21
377.736866
  0
CIRCLE
  8
0
  6
CONTINUOUS
 62
1
 10
136.478690
 20
65.080863
 40
3.000000
  0
CIRCLE
  8
0
  6
CONTINUOUS
 62
1
 10
136.478690
 20
170.236866
 40
3.000000
  0
CIRCLE
  8
0
  6
CONTINUOUS
 62
1
 10
136.478690
 20
270.236866
 40
3.000000
  0
CIRCLE
  8
0
  6
CONTINUOUS
 62
1
 10
136.478690
 20
375.392869
 40
3.000000
  0
CIRCLE
  8
0
  6
CONTINUOUS
 62
1
 10
236.478690
 20
65.080863
 40
3.000000
  0
CIRCLE
  8
0
  6
CONTINUOUS
 62
1
 10
236.478690
 20
375.392869
 40
3.000000
  0
ENDBLK
  0
BLOCK
  2
5207863ITEM-01
  8
0
 70
0
 10
0.0
 20
0.0
 30
0.0
  0
ARC
  8
0
  6
CONTINUOUS
 62
1
 10
10.000000
 20
86.251568
 40
10.000000
 50
180.000000
 51
236.309932
  0
LINE
  8
0
  6
CONTINUOUS
 62
1
 10
4.452998
 20
77.931065
 11
34.664101
 21
57.790330
  0
ARC
  8
0
  6
CONTINUOUS
 62
1
 10
33.000000
 20
55.294179
 40
2.999999
 50
23.776564
 51
56.309932
  0
ARC
  8
0
  6
CONTINUOUS
 62
1
 10
29.740458
 20
54.732957
 40
6.260552
 50
1.029433
 51
16.429781
  0
LINE
  8
0
  6
CONTINUOUS
 62
1
 10
36.000000
 20
54.845434
 11
36.000000
 21
10.000000
  0
ARC
  8
0
  6
CONTINUOUS
 62
1
 10
46.000000
 20
10.000000
 40
10.000000
 50
180.000000
 51
270.000000
  0
LINE
  8
0
  6
CONTINUOUS
 62
1
 10
46.000000
 20
0.000000
 11
62.357864
 21
0.000000
  0
ARC
  8
0
  6
CONTINUOUS
 62
1
 10
62.357864
 20
10.000000
 40
10.000000
 50
270.000000
 51
340.528780
  0
ARC
  8
0
  6
CONTINUOUS
 62
1
 10
76.500000
 20
5.000000
 40
5.000000
 50
90.000000
 51
160.528779
  0
LINE
  8
0
  6
CONTINUOUS
 62
1
 10
76.500000
 20
10.000000
 11
138.500000
 21
10.000000
  0
ARC
  8
0
  6
CONTINUOUS
 62
1
 10
138.500000
 20
5.000000
 40
5.000000
 50
19.471218
 51
90.000000
  0
ARC
  8
0
  6
CONTINUOUS
 62
1
 10
152.642136
 20
10.000000
 40
10.000000
 50
199.471221
 51
270.000000
  0
LINE
  8
0
  6
CONTINUOUS
 62
1
 10
152.642136
 20
0.000000
 11
165.000000
 21
0.000000
  0
ARC
  8
0
  6
CONTINUOUS
 62
1
 10
165.000000
 20
10.000000
 40
10.000000
 50
270.000000
 51
0.000000
  0
ARC
  8
0
  6
CONTINUOUS
 62
1
 10
170.000000
 20
78.079332
 40
5.000000
 50
0.000000
 51
67.975689
  0
ARC
  8
0
  6
CONTINUOUS
 62
1
 10
173.000000
 20
85.495531
 40
3.000000
 50
180.000000
 51
247.975687
  0
ARC
  8
0
  6
CONTINUOUS
 62
1
 10
175.000000
 20
229.194783
 40
5.000000
 50
109.471218
 51
180.000000
  0
ARC
  8
0
  6
CONTINUOUS
 62
1
 10
170.000000
 20
243.336919
 40
10.000000
 50
289.471221
 51
0.000000
  0
LINE
  8
0
  6
CONTINUOUS
 62
1
 10
180.000000
 20
243.336919
 11
180.000000
 21
275.150962
  0
ARC
  8
0
  6
CONTINUOUS
 62
1
 10
175.000000
 20
275.150962
 40
5.000000
 50
0.000000
 51
90.000000
  0
LINE
  8
0
  6
CONTINUOUS
 62
1
 10
175.000000
 20
280.150962
 11
160.000000
 21
280.150962
  0
ARC
  8
0
  6
CONTINUOUS
 62
1
 10
160.000000
 20
275.150962
 40
5.000000
 50
90.000000
 51
180.000000
  0
LINE
  8
0
  6
CONTINUOUS
 62
1
 10
155.000000
 20
275.150962
 11
155.000000
 21
270.150962
  0
ARC
  8
0
  6
CONTINUOUS
 62
1
 10
150.000000
 20
270.150962
 40
5.000000
 50
270.000000
 51
0.000000
  0
LINE
  8
0
  6
CONTINUOUS
 62
1
 10
150.000000
 20
265.150962
 11
70.000000
 21
265.150962
  0
ARC
  8
0
  6
CONTINUOUS
 62
1
 10
70.000000
 20
270.150962
 40
5.000000
 50
180.000000
 51
270.000000
  0
LINE
  8
0
  6
CONTINUOUS
 62
1
 10
65.000000
 20
270.150962
 11
65.000000
 21
275.150962
  0
ARC
  8
0
  6
CONTINUOUS
 62
1
 10
60.000000
 20
275.150962
 40
5.000000
 50
0.000000
 51
90.000000
  0
LINE
  8
0
  6
CONTINUOUS
 62
1
 10
60.000000
 20
280.150962
 11
45.000000
 21
280.150962
  0
ARC
  8
0
  6
CONTINUOUS
 62
1
 10
45.000000
 20
275.150962
 40
5.000000
 50
90.000000
 51
180.000000
  0
LINE
  8
0
  6
CONTINUOUS
 62
1
 10
40.000000
 20
275.150962
 11
40.000000
 21
216.643900
  0
ARC
  8
0
  6
CONTINUOUS
 62
1
 10
30.000000
 20
216.643900
 40
10.000000
 50
329.036241
 51
0.000000
  0
ARC
  8
0
  6
CONTINUOUS
 62
1
 10
23.906455
 20
191.993502
 40
2.106434
 50
276.285358
 51
326.443766
  0
LINE
  8
0
  6
CONTINUOUS
 62
1
 10
24.137068
 20
189.899730
 11
10.000000
 21
189.899730
  0
ARC
  8
0
  6
CONTINUOUS
 62
1
 10
10.000000
 20
179.899730
 40
10.000000
 50
90.000000
 51
180.000000
  0
LINE
  8
0
  6
CONTINUOUS
 62
1
 10
0.000000
 20
179.899730
 11
0.000000
 21
86.251568
  0
LINE
  8
0
  6
CONTINUOUS
 62
1
 10
175.000000
 20
10.000000
 11
175.000000
 21
31.887637
  0
LINE
  8
0
  6
CONTINUOUS
 62
1
 10
175.000000
 20
31.887637
 11
171.800000
 21
31.887637
  0
LINE
  8
0
  6
CONTINUOUS
 62
1
 10
171.800000
 20
31.887637
 11
171.800000
 21
47.387637
  0
LINE
  8
0
  6
CONTINUOUS
 62
1
 10
171.800000
 20
47.387637
 11
175.000000
 21
47.387637
  0
LINE
  8
0
  6
CONTINUOUS
 62
1
 10
175.000000
 20
47.387637
 11
175.000000
 21
78.079332
  0
LINE
  8
0
  6
CONTINUOUS
 62
1
 10
170.000000
 20
85.495531
 11
170.000000
 21
202.993412
  0
LINE
  8
0
  6
CONTINUOUS
 62
1
 10
170.000000
 20
202.993412
 11
166.800000
 21
202.993412
  0
LINE
  8
0
  6
CONTINUOUS
 62
1
 10
166.800000
 20
202.993412
 11
166.800000
 21
222.718402
  0
LINE
  8
0
  6
CONTINUOUS
 62
1
 10
166.800000
 20
222.718402
 11
170.000000
 21
222.718402
  0
LINE
  8
0
  6
CONTINUOUS
 62
1
 10
170.000000
 20
222.718402
 11
170.000000
 21
229.194783
  0
LINE
  8
0
  6
CONTINUOUS
 62
1
 10
38.574929
 20
211.498942
 11
28.909676
 21
195.390187
  0
LINE
  8
0
  6
CONTINUOUS
 62
1
 10
28.909676
 20
195.390187
 11
25.661839
 21
190.829160
  0
ARC
  8
0
  6
CONTINUOUS
 62
1
 10
14.730000
 20
103.899730
 40
6.000000
 50
180.000000
 51
270.000000
  0
LINE
  8
0
  6
CONTINUOUS
 62
1
 10
14.730000
 20
97.899730
 11
39.730000
 21
97.899730
  0
ARC
  8
0
  6
CONTINUOUS
 62
1
 10
39.730000
 20
103.899730
 40
6.000000
 50
270.000000
 51
0.000000
  0
LINE
  8
0
  6
CONTINUOUS
 62
1
 10
45.730000
 20
103.899730
 11
45.730000
 21
163.899730
  0
ARC
  8
0
  6
CONTINUOUS
 62
1
 10
39.730000
 20
163.899730
 40
6.000000
 50
0.000000
 51
90.000000
  0
LINE
  8
0
  6
CONTINUOUS
 62
1
 10
39.730000
 20
169.899730
 11
14.730000
 21
169.899730
  0
ARC
  8
0
  6
CONTINUOUS
 62
1
 10
14.730000
 20
163.899730
 40
6.000000
 50
90.000000
 51
180.000000
  0
LINE
  8
0
  6
CONTINUOUS
 62
1
 10
8.730000
 20
163.899730
 11
8.730000
 21
103.899730
  0
CIRCLE
  8
0
  6
CONTINUOUS
 62
1
 10
16.230000
 20
89.899730
 40
3.300000
  0
CIRCLE
  8
0
  6
CONTINUOUS
 62
1
 10
18.230000
 20
177.899730
 40
3.300000
  0
CIRCLE
  8
0
  6
CONTINUOUS
 62
1
 10
36.230000
 20
177.899730
 40
3.300000
  0
CIRCLE
  8
0
  6
CONTINUOUS
 62
1
 10
38.230000
 20
89.899730
 40
3.300000
  0
CIRCLE
  8
0
  6
CONTINUOUS
 62
1
 10
52.500000
 20
12.800000
 40
4.100000
  0
CIRCLE
  8
0
  6
CONTINUOUS
 62
1
 10
52.500000
 20
271.150962
 40
4.100000
  0
CIRCLE
  8
0
  6
CONTINUOUS
 62
1
 10
55.637152
 20
69.899730
 40
4.750000
  0
ARC
  8
0
  6
CONTINUOUS
 62
1
 10
58.500000
 20
35.776902
 40
1.500000
 50
180.000000
 51
270.000000
  0
LINE
  8
0
  6
CONTINUOUS
 62
1
 10
58.500000
 20
34.276902
 11
90.500000
 21
34.276902
  0
ARC
  8
0
  6
CONTINUOUS
 62
1
 10
90.500000
 20
35.776902
 40
1.500000
 50
270.000000
 51
0.000000
  0
LINE
  8
0
  6
CONTINUOUS
 62
1
 10
92.000000
 20
35.776902
 11
92.000000
 21
42.776902
  0
ARC
  8
0
  6
CONTINUOUS
 62
1
 10
90.500000
 20
42.776902
 40
1.500000
 50
0.000000
 51
90.000000
  0
LINE
  8
0
  6
CONTINUOUS
 62
1
 10
90.500000
 20
44.276902
 11
58.500000
 21
44.276902
  0
ARC
  8
0
  6
CONTINUOUS
 62
1
 10
58.500000
 20
42.776902
 40
1.500000
 50
90.000000
 51
180.000000
  0
LINE
  8
0
  6
CONTINUOUS
 62
1
 10
57.000000
 20
42.776902
 11
57.000000
 21
35.776902
  0
ARC
  8
0
  6
CONTINUOUS
 62
1
 10
65.500000
 20
207.175363
 40
3.000000
 50
180.000000
 51
270.000000
  0
LINE
  8
0
  6
CONTINUOUS
 62
1
 10
65.500000
 20
204.175363
 11
74.500000
 21
204.175363
  0
ARC
  8
0
  6
CONTINUOUS
 62
1
 10
74.500000
 20
207.175363
 40
3.000000
 50
270.000000
 51
0.000000
  0
LINE
  8
0
  6
CONTINUOUS
 62
1
 10
77.500000
 20
207.175363
 11
77.500000
 21
241.175363
  0
ARC
  8
0
  6
CONTINUOUS
 62
1
 10
74.500000
 20
241.175363
 40
3.000000
 50
0.000000
 51
90.000000
  0
LINE
  8
0
  6
CONTINUOUS
 62
1
 10
74.500000
 20
244.175363
 11
65.500000
 21
244.175363
  0
ARC
  8
0
  6
CONTINUOUS
 62
1
 10
65.500000
 20
241.175363
 40
3.000000
 50
90.000000
 51
180.000000
  0
LINE
  8
0
  6
CONTINUOUS
 62
1
 10
62.500000
 20
241.175363
 11
62.500000
 21
207.175363
  0
ARC
  8
0
  6
CONTINUOUS
 62
1
 10
69.730000
 20
103.899730
 40
6.000000
 50
180.000000
 51
270.000000
  0
LINE
  8
0
  6
CONTINUOUS
 62
1
 10
69.730000
 20
97.899730
 11
94.730000
 21
97.899730
  0
ARC
  8
0
  6
CONTINUOUS
 62
1
 10
94.730000
 20
103.899730
 40
6.000000
 50
270.000000
 51
0.000000
  0
LINE
  8
0
  6
CONTINUOUS
 62
1
 10
100.730000
 20
103.899730
 11
100.730000
 21
163.899730
  0
ARC
  8
0
  6
CONTINUOUS
 62
1
 10
94.730000
 20
163.899730
 40
6.000000
 50
0.000000
 51
90.000000
  0
LINE
  8
0
  6
CONTINUOUS
 62
1
 10
94.730000
 20
169.899730
 11
69.730000
 21
169.899730
  0
ARC
  8
0
  6
CONTINUOUS
 62
1
 10
69.730000
 20
163.899730
 40
6.000000
 50
90.000000
 51
180.000000
  0
LINE
  8
0
  6
CONTINUOUS
 62
1
 10
63.730000
 20
163.899730
 11
63.730000
 21
103.899730
  0
CIRCLE
  8
0
  6
CONTINUOUS
 62
1
 10
71.230000
 20
89.899730
 40
3.300000
  0
CIRCLE
  8
0
  6
CONTINUOUS
 62
1
 10
73.230000
 20
177.899730
 40
3.300000
  0
CIRCLE
  8
0
  6
CONTINUOUS
 62
1
 10
91.230000
 20
177.899730
 40
3.300000
  0
CIRCLE
  8
0
  6
CONTINUOUS
 62
1
 10
93.230000
 20
89.899730
 40
3.300000
  0
ARC
  8
0
  6
CONTINUOUS
 62
1
 10
105.500000
 20
207.175363
 40
3.000000
 50
180.000000
 51
270.000000
  0
LINE
  8
0
  6
CONTINUOUS
 62
1
 10
105.500000
 20
204.175363
 11
114.500000
 21
204.175363
  0
ARC
  8
0
  6
CONTINUOUS
 62
1
 10
114.500000
 20
207.175363
 40
3.000000
 50
270.000000
 51
0.000000
  0
LINE
  8
0
  6
CONTINUOUS
 62
1
 10
117.500000
 20
207.175363
 11
117.500000
 21
241.175363
  0
ARC
  8
0
  6
CONTINUOUS
 62
1
 10
114.500000
 20
241.175363
 40
3.000000
 50
0.000000
 51
90.000000
  0
LINE
  8
0
  6
CONTINUOUS
 62
1
 10
114.500000
 20
244.175363
 11
105.500000
 21
244.175363
  0
ARC
  8
0
  6
CONTINUOUS
 62
1
 10
105.500000
 20
241.175363
 40
3.000000
 50
90.000000
 51
180.000000
  0
LINE
  8
0
  6
CONTINUOUS
 62
1
 10
102.500000
 20
241.175363
 11
102.500000
 21
207.175363
  0
ARC
  8
0
  6
CONTINUOUS
 62
1
 10
115.500000
 20
35.776902
 40
1.500000
 50
180.000000
 51
270.000000
  0
LINE
  8
0
  6
CONTINUOUS
 62
1
 10
115.500000
 20
34.276902
 11
147.500000
 21
34.276902
  0
ARC
  8
0
  6
CONTINUOUS
 62
1
 10
147.500000
 20
35.776902
 40
1.500000
 50
270.000000
 51
0.000000
  0
LINE
  8
0
  6
CONTINUOUS
 62
1
 10
149.000000
 20
35.776902
 11
149.000000
 21
42.776902
  0
ARC
  8
0
  6
CONTINUOUS
 62
1
 10
147.500000
 20
42.776902
 40
1.500000
 50
0.000000
 51
90.000000
  0
LINE
  8
0
  6
CONTINUOUS
 62
1
 10
147.500000
 20
44.276902
 11
115.500000
 21
44.276902
  0
ARC
  8
0
  6
CONTINUOUS
 62
1
 10
115.500000
 20
42.776902
 40
1.500000
 50
90.000000
 51
180.000000
  0
LINE
  8
0
  6
CONTINUOUS
 62
1
 10
114.000000
 20
42.776902
 11
114.000000
 21
35.776902
  0
ARC
  8
0
  6
CONTINUOUS
 62
1
 10
124.730000
 20
103.899730
 40
6.000000
 50
180.000000
 51
270.000000
  0
LINE
  8
0
  6
CONTINUOUS
 62
1
 10
124.730000
 20
97.899730
 11
149.730000
 21
97.899730
  0
ARC
  8
0
  6
CONTINUOUS
 62
1
 10
149.730000
 20
103.899730
 40
6.000000
 50
270.000000
 51
0.000000
  0
LINE
  8
0
  6
CONTINUOUS
 62
1
 10
155.730000
 20
103.899730
 11
155.730000
 21
163.899730
  0
ARC
  8
0
  6
CONTINUOUS
 62
1
 10
149.730000
 20
163.899730
 40
6.000000
 50
0.000000
 51
90.000000
  0
LINE
  8
0
  6
CONTINUOUS
 62
1
 10
149.730000
 20
169.899730
 11
124.730000
 21
169.899730
  0
ARC
  8
0
  6
CONTINUOUS
 62
1
 10
124.730000
 20
163.899730
 40
6.000000
 50
90.000000
 51
180.000000
  0
LINE
  8
0
  6
CONTINUOUS
 62
1
 10
118.730000
 20
163.899730
 11
118.730000
 21
103.899730
  0
CIRCLE
  8
0
  6
CONTINUOUS
 62
1
 10
126.230000
 20
89.899730
 40
3.300000
  0
CIRCLE
  8
0
  6
CONTINUOUS
 62
1
 10
128.230000
 20
177.899730
 40
3.300000
  0
CIRCLE
  8
0
  6
CONTINUOUS
 62
1
 10
137.130000
 20
69.899730
 40
4.750000
  0
ARC
  8
0
  6
CONTINUOUS
 62
1
 10
145.500000
 20
207.175363
 40
3.000000
 50
180.000000
 51
270.000000
  0
LINE
  8
0
  6
CONTINUOUS
 62
1
 10
145.500000
 20
204.175363
 11
154.500000
 21
204.175363
  0
ARC
  8
0
  6
CONTINUOUS
 62
1
 10
154.500000
 20
207.175363
 40
3.000000
 50
270.000000
 51
0.000000
  0
LINE
  8
0
  6
CONTINUOUS
 62
1
 10
157.500000
 20
207.175363
 11
157.500000
 21
241.175363
  0
ARC
  8
0
  6
CONTINUOUS
 62
1
 10
154.500000
 20
241.175363
 40
3.000000
 50
0.000000
 51
90.000000
  0
LINE
  8
0
  6
CONTINUOUS
 62
1
 10
154.500000
 20
244.175363
 11
145.500000
 21
244.175363
  0
ARC
  8
0
  6
CONTINUOUS
 62
1
 10
145.500000
 20
241.175363
 40
3.000000
 50
90.000000
 51
180.000000
  0
LINE
  8
0
  6
CONTINUOUS
 62
1
 10
142.500000
 20
241.175363
 11
142.500000
 21
207.175363
  0
CIRCLE
  8
0
  6
CONTINUOUS
 62
1
 10
146.230000
 20
177.899730
 40
3.300000
  0
CIRCLE
  8
0
  6
CONTINUOUS
 62
1
 10
148.230000
 20
89.899730
 40
3.300000
  0
CIRCLE
  8
0
  6
CONTINUOUS
 62
1
 10
162.500000
 20
12.800000
 40
4.100000
  0
CIRCLE
  8
0
  6
CONTINUOUS
 62
1
 10
167.500000
 20
271.150962
 40
4.100000
  0
ARC
  8
0
  6
CONTINUOUS
 62
8
 10
162.494737
 20
139.587336
 40
2.306130
 50
124.434949
 51
182.434948
  0
ARC
  8
0
  6
CONTINUOUS
 62
8
 10
162.281195
 20
139.537003
 40
2.091048
 50
181.305571
 51
258.305574
  0
ARC
  8
0
  6
CONTINUOUS
 62
8
 10
163.690689
 20
145.430399
 40
8.149921
 50
257.000000
 51
283.000000
  0
ARC
  8
0
  6
CONTINUOUS
 62
8
 10
165.100183
 20
139.537003
 40
2.091048
 50
281.694429
 51
358.694431
  0
LINE
  8
0
  6
CONTINUOUS
 62
8
 10
167.190689
 20
139.489360
 11
167.190689
 21
139.822693
  0
ARC
  8
0
  6
CONTINUOUS
 62
8
 10
165.024022
 20
139.656026
 40
2.173068
 50
4.398705
 51
94.398704
  0
ARC
  8
0
  6
CONTINUOUS
 62
8
 10
164.857356
 20
139.489360
 40
2.333333
 50
90.000000
 51
179.999999
  0
ARC
  8
0
  6
CONTINUOUS
 62
8
 10
164.652792
 20
139.549941
 40
2.129631
 50
181.630102
 51
284.630102
  0
ARC
  8
0
  6
CONTINUOUS
 62
8
 10
162.154317
 20
115.097938
 40
1.964487
 50
178.305569
 51
261.305571
  0
ARC
  8
0
  6
CONTINUOUS
 62
8
 10
162.154317
 20
165.431272
 40
1.964487
 50
178.305569
 51
261.305571
  0
ARC
  8
0
  6
CONTINUOUS
 62
8
 10
164.609750
 20
108.908420
 40
2.254910
 50
219.000000
 51
231.000000
  0
ARC
  8
0
  6
CONTINUOUS
 62
8
 10
164.556714
 20
108.611368
 40
2.036350
 50
183.434949
 51
213.434949
  0
ARC
  8
0
  6
CONTINUOUS
 62
8
 10
166.133585
 20
109.322693
 40
3.704509
 50
167.000000
 51
193.000000
  0
ARC
  8
0
  6
CONTINUOUS
 62
8
 10
164.173944
 20
109.506105
 40
1.773313
 50
111.499998
 51
158.500000
  0
ARC
  8
0
  6
CONTINUOUS
 62
8
 10
165.048115
 20
107.892990
 40
3.601425
 50
93.036243
 51
115.036243
  0
ARC
  8
0
  6
CONTINUOUS
 62
8
 10
165.024022
 20
109.322693
 40
2.173068
 50
4.398706
 51
94.398705
  0
ARC
  8
0
  6
CONTINUOUS
 62
8
 10
165.100183
 20
109.537003
 40
2.091048
 50
281.694426
 51
358.694429
  0
LINE
  8
0
  6
CONTINUOUS
 62
8
 10
160.190689
 20
110.822693
 11
160.190689
 21
107.489360
  0
LINE
  8
0
  6
CONTINUOUS
 62
8
 10
160.190689
 20
107.489360
 11
163.190689
 21
107.156026
  0
ARC
  8
0
  6
CONTINUOUS
 62
8
 10
162.163601
 20
115.105613
 40
1.973556
 50
119.536243
 51
178.536243
  0
ARC
  8
0
  6
CONTINUOUS
 62
8
 10
162.357356
 20
113.860937
 40
3.183255
 50
68.500002
 51
111.500000
  0
ARC
  8
0
  6
CONTINUOUS
 62
8
 10
161.355048
 20
112.541838
 40
4.798975
 50
43.130102
 51
63.130102
  0
LINE
  8
0
  6
CONTINUOUS
 62
8
 10
164.857356
 20
115.822693
 11
167.190689
 21
113.489360
  0
LINE
  8
0
  6
CONTINUOUS
 62
8
 10
167.190689
 20
113.489360
 11
167.190689
 21
116.822693
  0
ARC
  8
0
  6
CONTINUOUS
 62
8
 10
162.524022
 20
120.822693
 40
2.333333
 50
90.000001
 51
270.000000
  0
LINE
  8
0
  6
CONTINUOUS
 62
8
 10
162.524022
 20
118.489360
 11
164.857356
 21
118.489360
  0
ARC
  8
0
  6
CONTINUOUS
 62
8
 10
164.857356
 20
120.822693
 40
2.333333
 50
270.000001
 51
90.000000
  0
LINE
  8
0
  6
CONTINUOUS
 62
8
 10
164.857356
 20
123.156026
 11
162.524022
 21
123.156026
  0
LINE
  8
0
  6
CONTINUOUS
 62
8
 10
160.190689
 20
124.822693
 11
160.190689
 21
129.489360
  0
LINE
  8
0
  6
CONTINUOUS
 62
8
 10
160.190689
 20
129.489360
 11
167.190689
 21
126.156026
  0
ARC
  8
0
  6
CONTINUOUS
 62
8
 10
162.290712
 20
133.633812
 40
2.104985
 50
183.934949
 51
212.934949
  0
ARC
  8
0
  6
CONTINUOUS
 62
8
 10
161.589910
 20
133.004858
 40
1.184000
 50
205.809932
 51
266.809934
  0
ARC
  8
0
  6
CONTINUOUS
 62
8
 10
161.355459
 20
133.158871
 40
1.346769
 50
277.190068
 51
330.190067
  0
LINE
  8
0
  6
CONTINUOUS
 62
8
 10
162.524022
 20
132.489360
 11
164.524022
 21
135.489360
  0
ARC
  8
0
  6
CONTINUOUS
 62
8
 10
165.524022
 20
134.822693
 40
1.201850
 50
56.309933
 51
146.309932
  0
ARC
  8
0
  6
CONTINUOUS
 62
8
 10
164.740941
 20
134.264486
 40
2.128327
 50
6.065050
 51
47.065051
  0
ARC
  8
0
  6
CONTINUOUS
 62
8
 10
163.852453
 20
133.656026
 40
3.118315
 50
344.500000
 51
15.500000
  0
ARC
  8
0
  6
CONTINUOUS
 62
8
 10
164.740941
 20
133.047567
 40
2.128327
 50
312.934948
 51
353.934949
  0
ARC
  8
0
  6
CONTINUOUS
 62
8
 10
165.524022
 20
132.489360
 40
1.201850
 50
213.690069
 51
303.690068
  0
LINE
  8
0
  6
CONTINUOUS
 62
8
 10
164.524022
 20
131.822693
 11
162.524022
 21
134.489360
  0
ARC
  8
0
  6
CONTINUOUS
 62
8
 10
161.355459
 20
133.819848
 40
1.346769
 50
29.809932
 51
82.809932
  0
ARC
  8
0
  6
CONTINUOUS
 62
8
 10
161.589910
 20
133.973861
 40
1.184000
 50
93.190068
 51
154.190069
  0
ARC
  8
0
  6
CONTINUOUS
 62
8
 10
162.290712
 20
133.344908
 40
2.104985
 50
147.065051
 51
176.065052
  0
ARC
  8
0
  6
CONTINUOUS
 62
8
 10
163.613187
 20
146.861444
 40
0.756824
 50
123.934948
 51
182.934949
  0
ARC
  8
0
  6
CONTINUOUS
 62
8
 10
164.843215
 20
143.560062
 40
4.262654
 50
89.809932
 51
112.809932
  0
ARC
  8
0
  6
CONTINUOUS
 62
8
 10
165.024022
 20
145.656026
 40
2.173068
 50
4.398706
 51
94.398705
  0
ARC
  8
0
  6
CONTINUOUS
 62
8
 10
165.100183
 20
145.870337
 40
2.091048
 50
281.694426
 51
358.694429
  0
LINE
  8
0
  6
CONTINUOUS
 62
8
 10
160.190689
 20
143.489360
 11
160.190689
 21
147.156026
  0
LINE
  8
0
  6
CONTINUOUS
 62
8
 10
160.190689
 20
147.156026
 11
162.857356
 21
145.156026
  0
LINE
  8
0
  6
CONTINUOUS
 62
8
 10
162.857356
 20
145.156026
 11
162.857356
 21
146.822693
  0
ARC
  8
0
  6
CONTINUOUS
 62
8
 10
162.524022
 20
159.489360
 40
2.333333
 50
90.000001
 51
270.000000
  0
LINE
  8
0
  6
CONTINUOUS
 62
8
 10
162.524022
 20
157.156026
 11
164.857356
 21
157.156026
  0
ARC
  8
0
  6
CONTINUOUS
 62
8
 10
164.857356
 20
159.489360
 40
2.333333
 50
270.000001
 51
90.000000
  0
LINE
  8
0
  6
CONTINUOUS
 62
8
 10
164.857356
 20
161.822693
 11
162.524022
 21
161.822693
  0
ARC
  8
0
  6
CONTINUOUS
 62
8
 10
162.163601
 20
165.438946
 40
1.973556
 50
119.536243
 51
178.536243
  0
ARC
  8
0
  6
CONTINUOUS
 62
8
 10
162.357356
 20
164.194270
 40
3.183255
 50
68.500002
 51
111.500000
  0
ARC
  8
0
  6
CONTINUOUS
 62
8
 10
161.355048
 20
162.875172
 40
4.798975
 50
43.130102
 51
63.130102
  0
LINE
  8
0
  6
CONTINUOUS
 62
8
 10
164.857356
 20
166.156026
 11
167.190689
 21
163.822693
  0
LINE
  8
0
  6
CONTINUOUS
 62
8
 10
167.190689
 20
163.822693
 11
167.190689
 21
167.156026
  0
LINE
  8
0
  6
CONTINUOUS
 62
8
 10
164.190689
 20
149.489360
 11
164.190689
 21
155.489360
  0
ENDBLK
  0
BLOCK
  2
4884562ITEM01-01
  8
0
 70
0
 10
0.0
 20
0.0
 30
0.0
  0
ARC
  8
0
  6
CONTINUOUS
 62
1
 10
10.000000
 20
10.000000
 40
10.000000
 50
180.000000
 51
270.000000
  0
LINE
  8
0
  6
CONTINUOUS
 62
1
 10
10.000000
 20
0.000000
 11
545.000000
 21
0.000000
  0
ARC
  8
0
  6
CONTINUOUS
 62
1
 10
545.000000
 20
10.000000
 40
10.000000
 50
270.000000
 51
0.000000
  0
LINE
  8
0
  6
CONTINUOUS
 62
1
 10
555.000000
 20
10.000000
 11
555.000000
 21
72.681876
  0
ARC
  8
0
  6
CONTINUOUS
 62
1
 10
154.994141
 20
72.681296
 40
400.005859
 50
0.000083
 51
24.803655
  0
ARC
  8
0
  6
CONTINUOUS
 62
1
 10
495.405979
 20
230.000000
 40
25.000000
 50
24.803655
 51
90.000000
  0
LINE
  8
0
  6
CONTINUOUS
 62
1
 10
495.405979
 20
255.000000
 11
451.771362
 21
255.000000
  0
ARC
  8
0
  6
CONTINUOUS
 62
1
 10
451.771362
 20
253.000000
 40
2.000000
 50
90.000000
 51
179.173692
  0
ARC
  8
0
  6
CONTINUOUS
 62
1
 10
103.228638
 20
253.000000
 40
2.000000
 50
0.826320
 51
90.000000
  0
LINE
  8
0
  6
CONTINUOUS
 62
1
 10
103.228638
 20
255.000000
 11
59.594348
 21
255.000000
  0
ARC
  8
0
  6
CONTINUOUS
 62
1
 10
59.594348
 20
230.000000
 40
25.000000
 50
90.000000
 51
155.196029
  0
ARC
  8
0
  6
CONTINUOUS
 62
1
 10
400.000000
 20
72.681876
 40
400.000000
 50
155.196029
 51
180.000000
  0
LINE
  8
0
  6
CONTINUOUS
 62
1
 10
0.000000
 20
72.681876
 11
0.000000
 21
10.000000
  0
LINE
  8
0
  6
CONTINUOUS
 62
1
 10
449.771570
 20
253.028843
 11
448.301683
 21
151.114680
  0
LINE
  8
0
  6
CONTINUOUS
 62
1
 10
448.301683
 20
151.114680
 11
439.500000
 21
108.953907
  0
LINE
  8
0
  6
CONTINUOUS
 62
1
 10
439.500000
 20
108.953907
 11
439.500000
 21
106.191961
  0
LINE
  8
0
  6
CONTINUOUS
 62
1
 10
439.500000
 20
106.191961
 11
115.500000
 21
106.191961
  0
LINE
  8
0
  6
CONTINUOUS
 62
1
 10
115.500000
 20
106.191961
 11
115.500000
 21
108.953907
  0
LINE
  8
0
  6
CONTINUOUS
 62
1
 10
115.500000
 20
108.953907
 11
106.698317
 21
151.114680
  0
LINE
  8
0
  6
CONTINUOUS
 62
1
 10
106.698317
 20
151.114680
 11
105.228430
 21
253.028843
  0
CIRCLE
  8
0
  6
CONTINUOUS
 62
1
 10
60.000000
 20
125.345475
 40
4.750000
  0
CIRCLE
  8
0
  6
CONTINUOUS
 62
1
 10
64.500000
 20
48.332964
 40
4.750000
  0
CIRCLE
  8
0
  6
CONTINUOUS
 62
1
 10
490.500000
 20
48.332964
 40
4.750000
  0
CIRCLE
  8
0
  6
CONTINUOUS
 62
1
 10
495.000000
 20
125.345475
 40
4.750000
  0
LINE
  8
0
  6
CONTINUOUS
 62
8
 10
249.026245
 20
38.038966
 11
249.026245
 21
48.038966
  0
LINE
  8
0
  6
CONTINUOUS
 62
8
 10
249.026245
 20
48.038966
 11
244.264340
 21
41.372299
  0
LINE
  8
0
  6
CONTINUOUS
 62
8
 10
244.264340
 20
41.372299
 11
251.407197
 21
41.372299
  0
ARC
  8
0
  6
CONTINUOUS
 62
8
 10
255.692912
 20
40.419918
 40
1.716929
 50
123.690069
 51
213.690068
  0
ARC
  8
0
  6
CONTINUOUS
 62
8
 10
256.490350
 20
41.538605
 40
3.040468
 50
222.934948
 51
263.934949
  0
ARC
  8
0
  6
CONTINUOUS
 62
8
 10
257.359578
 20
42.807875
 40
4.454735
 50
254.500000
 51
285.500000
  0
ARC
  8
0
  6
CONTINUOUS
 62
8
 10
258.228806
 20
41.538605
 40
3.040468
 50
276.065050
 51
317.065051
  0
ARC
  8
0
  6
CONTINUOUS
 62
8
 10
259.026245
 20
40.419918
 40
1.716929
 50
326.309933
 51
56.309932
  0
LINE
  8
0
  6
CONTINUOUS
 62
8
 10
259.978626
 20
41.848490
 11
255.692912
 21
44.705633
  0
ARC
  8
0
  6
CONTINUOUS
 62
8
 10
256.649357
 20
46.375009
 40
1.923955
 50
187.190068
 51
240.190067
  0
ARC
  8
0
  6
CONTINUOUS
 62
8
 10
256.429338
 20
46.040079
 40
1.691428
 50
115.809932
 51
176.809934
  0
ARC
  8
0
  6
CONTINUOUS
 62
8
 10
257.327843
 20
45.038933
 40
3.007122
 50
93.934949
 51
122.934949
  0
ARC
  8
0
  6
CONTINUOUS
 62
8
 10
256.915123
 20
45.038933
 40
3.007122
 50
57.065051
 51
86.065052
  0
ARC
  8
0
  6
CONTINUOUS
 62
8
 10
257.813628
 20
46.040079
 40
1.691428
 50
3.190068
 51
64.190069
  0
ARC
  8
0
  6
CONTINUOUS
 62
8
 10
257.593609
 20
46.375009
 40
1.923955
 50
299.809932
 51
352.809932
  0
LINE
  8
0
  6
CONTINUOUS
 62
8
 10
258.550054
 20
44.705633
 11
254.740531
 21
41.848490
  0
ARC
  8
0
  6
CONTINUOUS
 62
8
 10
264.740531
 20
40.419918
 40
1.716929
 50
123.690069
 51
213.690068
  0
ARC
  8
0
  6
CONTINUOUS
 62
8
 10
265.537969
 20
41.538605
 40
3.040468
 50
222.934948
 51
263.934949
  0
ARC
  8
0
  6
CONTINUOUS
 62
8
 10
266.407197
 20
42.807875
 40
4.454735
 50
254.500000
 51
285.500000
  0
ARC
  8
0
  6
CONTINUOUS
 62
8
 10
267.276425
 20
41.538605
 40
3.040468
 50
276.065050
 51
317.065051
  0
ARC
  8
0
  6
CONTINUOUS
 62
8
 10
268.073864
 20
40.419918
 40
1.716929
 50
326.309933
 51
56.309932
  0
LINE
  8
0
  6
CONTINUOUS
 62
8
 10
269.026245
 20
41.848490
 11
264.740531
 21
44.705633
  0
ARC
  8
0
  6
CONTINUOUS
 62
8
 10
265.696976
 20
46.375009
 40
1.923955
 50
187.190068
 51
240.190067
  0
ARC
  8
0
  6
CONTINUOUS
 62
8
 10
265.476957
 20
46.040079
 40
1.691428
 50
115.809932
 51
176.809934
  0
ARC
  8
0
  6
CONTINUOUS
 62
8
 10
266.375462
 20
45.038933
 40
3.007122
 50
93.934949
 51
122.934949
  0
ARC
  8
0
  6
CONTINUOUS
 62
8
 10
265.962742
 20
45.038933
 40
3.007122
 50
57.065051
 51
86.065052
  0
ARC
  8
0
  6
CONTINUOUS
 62
8
 10
266.861248
 20
46.040079
 40
1.691428
 50
3.190068
 51
64.190069
  0
ARC
  8
0
  6
CONTINUOUS
 62
8
 10
266.641228
 20
46.375009
 40
1.923955
 50
299.809932
 51
352.809932
  0
LINE
  8
0
  6
CONTINUOUS
 62
8
 10
267.597674
 20
44.705633
 11
263.788150
 21
41.848490
  0
LINE
  8
0
  6
CONTINUOUS
 62
8
 10
271.883388
 20
42.324680
 11
280.454816
 21
42.324680
  0
LINE
  8
0
  6
CONTINUOUS
 62
8
 10
287.597674
 20
38.038966
 11
287.597674
 21
48.038966
  0
LINE
  8
0
  6
CONTINUOUS
 62
8
 10
287.597674
 20
48.038966
 11
282.835769
 21
41.372299
  0
LINE
  8
0
  6
CONTINUOUS
 62
8
 10
282.835769
 20
41.372299
 11
289.978626
 21
41.372299
  0
ARC
  8
0
  6
CONTINUOUS
 62
8
 10
295.339189
 20
41.726022
 40
3.221300
 50
129.000000
 51
141.000000
  0
ARC
  8
0
  6
CONTINUOUS
 62
8
 10
294.914828
 20
41.801787
 40
2.909072
 50
93.434949
 51
123.434949
  0
ARC
  8
0
  6
CONTINUOUS
 62
8
 10
295.931007
 20
39.549114
 40
5.292156
 50
77.000000
 51
103.000000
  0
ARC
  8
0
  6
CONTINUOUS
 62
8
 10
296.193024
 20
42.348602
 40
2.533304
 50
21.499998
 51
68.500000
  0
ARC
  8
0
  6
CONTINUOUS
 62
8
 10
293.888574
 20
41.099786
 40
5.144893
 50
3.036243
 51
25.036243
  0
ARC
  8
0
  6
CONTINUOUS
 62
8
 10
295.931007
 20
41.134204
 40
3.104382
 50
274.398706
 51
4.398705
  0
ARC
  8
0
  6
CONTINUOUS
 62
8
 10
296.237164
 20
41.025402
 40
2.987212
 50
191.694426
 51
268.694429
  0
LINE
  8
0
  6
CONTINUOUS
 62
8
 10
292.835769
 20
43.753252
 11
293.311959
 21
48.038966
  0
LINE
  8
0
  6
CONTINUOUS
 62
8
 10
293.311959
 20
48.038966
 11
298.073864
 21
48.038966
  0
ARC
  8
0
  6
CONTINUOUS
 62
8
 10
312.751539
 20
43.038966
 40
11.642744
 50
167.000000
 51
193.000000
  0
ARC
  8
0
  6
CONTINUOUS
 62
8
 10
304.332402
 20
41.025403
 40
2.987212
 50
191.694429
 51
268.694431
  0
LINE
  8
0
  6
CONTINUOUS
 62
8
 10
304.264340
 20
38.038966
 11
304.740531
 21
38.038966
  0
ARC
  8
0
  6
CONTINUOUS
 62
8
 10
304.502435
 20
41.134204
 40
3.104382
 50
274.398705
 51
4.398704
  0
ARC
  8
0
  6
CONTINUOUS
 62
8
 10
304.264340
 20
41.372299
 40
3.333333
 50
0.000000
 51
89.999999
  0
ARC
  8
0
  6
CONTINUOUS
 62
8
 10
304.350885
 20
41.664534
 40
3.042330
 50
91.630102
 51
194.630102
  0
ARC
  8
0
  6
CONTINUOUS
 62
8
 10
304.332402
 20
45.052530
 40
2.987212
 50
91.305571
 51
168.305574
  0
ARC
  8
0
  6
CONTINUOUS
 62
8
 10
304.404306
 20
44.747469
 40
3.294471
 50
34.434949
 51
92.434948
  0
ARC
  8
0
  6
CONTINUOUS
 62
8
 10
312.752786
 20
45.233784
 40
2.806410
 50
88.305569
 51
171.305571
  0
ARC
  8
0
  6
CONTINUOUS
 62
8
 10
312.763749
 20
45.220521
 40
2.819365
 50
29.536243
 51
88.536243
  0
ARC
  8
0
  6
CONTINUOUS
 62
8
 10
310.985641
 20
44.943728
 40
4.547507
 50
338.500002
 51
21.500000
  0
ARC
  8
0
  6
CONTINUOUS
 62
8
 10
309.101215
 20
46.375596
 40
6.855679
 50
313.130102
 51
333.130102
  0
LINE
  8
0
  6
CONTINUOUS
 62
8
 10
313.788150
 20
41.372299
 11
310.454816
 21
38.038966
  0
LINE
  8
0
  6
CONTINUOUS
 62
8
 10
310.454816
 20
38.038966
 11
315.216721
 21
38.038966
  0
ENDBLK
  0
ENDSEC
  0
SECTION
  2
ENTITIES
  0
LINE
  8
DUMMY-LAYOUT-SHEET
  6
CONTINUOUS
 62
1
 10
2801.696970
 20
685.733913
 11
5849.696970
 21
685.733913
  0
LINE
  8
DUMMY-LAYOUT-SHEET
  6
CONTINUOUS
 62
1
 10
5849.696970
 20
685.733913
 11
5849.696970
 21
1904.933913
  0
LINE
  8
DUMMY-LAYOUT-SHEET
  6
CONTINUOUS
 62
1
 10
5849.696970
 20
1904.933913
 11
2801.696970
 21
1904.933913
  0
LINE
  8
DUMMY-LAYOUT-SHEET
  6
CONTINUOUS
 62
1
 10
2801.696970
 20
1904.933913
 11
2801.696970
 21
685.733913
  0
INSERT
  2
MDATUM
  8
DUMMY-LAYOUT-MC-MC4
 10
2801.696970
 20
685.733913
 41
1.000000
 42
1.000000
 50
0.000000
  0
INSERT
  2
ODATUM
  8
DUMMY-LAYOUT
 10
2808.821970
 20
692.858913
 41
1.000000
 42
1.000000
 50
0.000000
  0
INSERT
  2
514-3962-00
  8
DUMMY-LAYOUT
 10
4747.734911
 20
1406.340730
 41
1.000000
 42
1.000000
 50
4.505113
  0
INSERT
  2
690272ITEM01
  8
DUMMY-LAYOUT
 10
5193.655498
 20
692.858913
 41
1.000000
 42
1.000000
 50
0.000000
  0
INSERT
  2
A920286-A
  8
DUMMY-LAYOUT
 10
3966.043434
 20
1717.808913
 41
1.000000
 42
1.000000
 50
0.000000
  0
INSERT
  2
4975036ITEM01-01
  8
DUMMY-LAYOUT
 10
3895.652834
 20
1133.537713
 41
1.000000
 42
1.000000
 50
0.000000
  0
INSERT
  2
4975036ITEM01-01
  8
DUMMY-LAYOUT
 10
3735.162266
 20
692.858913
 41
1.000000
 42
1.000000
 50
0.000000
  0
INSERT
  2
470-8278-02
  8
DUMMY-LAYOUT
 10
4042.465365
 20
692.858913
 41
1.000000
 42
1.000000
 50
90.000000
  0
INSERT
  2
4884562ITEM02-01
  8
DUMMY-LAYOUT
 10
3217.101290
 20
1897.808903
 41
1.000000
 42
1.000000
 50
-90.000000
  0
INSERT
  2
5207863ITEM-01
  8
DUMMY-LAYOUT
 10
2923.646658
 20
806.572113
 41
1.000000
 42
1.000000
 50
0.000000
  0
INSERT
  2
4884562ITEM01-01
  8
DUMMY-LAYOUT
 10
2808.821970
 20
1247.858913
 41
1.000000
 42
1.000000
 50
-90.000000
  0
ENDSEC
  0
EOF
